<?xml version="1.0" encoding="utf-8"?>
<!-- Generator: Adobe Illustrator 17.0.0, SVG Export Plug-In . SVG Version: 6.00 Build 0)  -->
<!DOCTYPE svg PUBLIC "-//W3C//DTD SVG 1.1//EN" "http://www.w3.org/Graphics/SVG/1.1/DTD/svg11.dtd">
<svg version="1.1" id="Layer_1" xmlns="http://www.w3.org/2000/svg" xmlns:xlink="http://www.w3.org/1999/xlink" x="0px" y="0px"
	 width="36px" height="36px" viewBox="0 0 36 36" enable-background="new 0 0 36 36" xml:space="preserve">
<g>
	<path fill="#B01F23" d="M2.604,10.111h30.792L26.981,18l6.415,7.889H2.604V10.111z"/>
	<path fill="#342CE0" d="M2.604,10.111H5.17V18v7.889H2.604V10.111z"/>
	<path fill="#FFFFFF" d="M8.178,13.769v8.46h1.198v-6.127l1.654,6.127h1.366v-8.46h-1.183v5.064l-1.366-5.064H8.178z M13.36,13.769
		v8.46h3.626v-1.208H14.69v-2.478h1.824v-1.208H14.69v-2.358h2.295v-1.208H13.36z M17.497,13.769l0.942,8.46h1.824l0.484-4.508
		l0.484,4.508h1.767l0.942-8.46h-1.16L22.09,20.49l-0.667-6.721h-1.28l-0.642,6.671l-0.712-6.671H17.497z"/>
</g>
</svg>
