<?xml version="1.0" encoding="utf-8"?>
<!-- Generator: Adobe Illustrator 23.0.0, SVG Export Plug-In . SVG Version: 6.00 Build 0)  -->
<svg version="1.1" id="Layer_1" xmlns="http://www.w3.org/2000/svg" xmlns:xlink="http://www.w3.org/1999/xlink" x="0px" y="0px"
	 viewBox="0 0 36 36" style="enable-background:new 0 0 36 36;" xml:space="preserve">
<style type="text/css">
	.st0{display:none;opacity:0.43;fill:#B01F23;}
	.st1{fill:none;stroke:#FFFFFF;stroke-width:0.1;stroke-miterlimit:10;}
	.st2{fill:none;stroke:#FFFFFF;stroke-width:0.2;stroke-miterlimit:10;}
</style>
<rect x="0.1" class="st0" width="35.9" height="35.9"/>
<polygon class="st1" points="18,2.3 18.9,3.9 20,2.4 20.7,4.1 21.9,2.8 22.4,4.5 23.8,3.4 24,5.2 25.6,4.2 25.6,6 27.3,5.3 27,7.1 
	28.8,6.5 28.3,8.3 30.1,8 29.5,9.7 31.3,9.6 30.4,11.2 32.2,11.3 31.2,12.8 33,13.1 31.7,14.5 33.5,15.1 32.1,16.2 33.7,17 32.2,18 
	33.7,19 32.1,19.8 33.5,21 31.7,21.5 33,22.9 31.2,23.2 32.2,24.7 30.4,24.8 31.3,26.4 29.5,26.3 30.1,28 28.3,27.7 28.8,29.5 
	27,28.9 27.3,30.7 25.6,30 25.6,31.8 24,30.8 23.8,32.6 22.4,31.5 21.9,33.3 20.7,31.9 20,33.6 18.9,32.1 18,33.8 17.1,32.1 
	16,33.6 15.3,31.9 14.1,33.3 13.6,31.5 12.2,32.6 12,30.8 10.4,31.8 10.4,30 8.7,30.7 9,28.9 7.2,29.5 7.7,27.7 5.9,28 6.5,26.3 
	4.7,26.4 5.6,24.8 3.8,24.7 4.8,23.2 3,22.9 4.3,21.5 2.5,21 3.9,19.8 2.3,19 3.8,18 2.3,17 3.9,16.2 2.5,15.1 4.3,14.5 3,13.1 
	4.8,12.8 3.8,11.3 5.6,11.2 4.7,9.6 6.5,9.7 5.9,8 7.7,8.3 7.2,6.5 9,7.1 8.7,5.3 10.4,6 10.4,4.2 12,5.2 12.2,3.4 13.6,4.5 
	14.1,2.8 15.3,4.1 16,2.4 17.1,3.9 "/>
<path class="st2" d="M25.8,10.2C23.7,8.1,21,6.9,18,6.9c-6.1,0-11.1,5-11.1,11.1c0,6.1,5,11.1,11.1,11.1s11.1-5,11.1-11.1
	C29.1,15.1,27.9,12.3,25.8,10.2z"/>
<path class="st2" d="M21.1,23.3c-0.1,0-0.2,0-0.3-0.1L18,21.7l-2.8,1.5c-0.3,0.1-0.6,0-0.7-0.2c-0.1-0.1-0.1-0.2-0.1-0.4l0.5-3.1
	l-2.3-2.2c-0.2-0.2-0.2-0.6,0-0.8c0.1-0.1,0.2-0.1,0.3-0.2l3.2-0.5l1.4-2.9c0.2-0.3,0.5-0.4,0.8-0.2c0.1,0.1,0.2,0.1,0.2,0.2
	l1.4,2.9l3.2,0.5c0.3,0,0.5,0.3,0.5,0.6c0,0.1-0.1,0.2-0.2,0.3l-2.3,2.2l0.5,3.1C21.7,22.9,21.5,23.2,21.1,23.3
	C21.1,23.3,21.1,23.3,21.1,23.3L21.1,23.3z"/>
</svg>
