<?xml version="1.0" encoding="utf-8"?>
<!-- Generator: Adobe Illustrator 17.0.0, SVG Export Plug-In . SVG Version: 6.00 Build 0)  -->
<!DOCTYPE svg PUBLIC "-//W3C//DTD SVG 1.1//EN" "http://www.w3.org/Graphics/SVG/1.1/DTD/svg11.dtd">
<svg version="1.1" id="Layer_1" xmlns="http://www.w3.org/2000/svg" xmlns:xlink="http://www.w3.org/1999/xlink" x="0px" y="0px"
	 width="36px" height="36px" viewBox="56 0 36 36" enable-background="new 56 0 36 36" xml:space="preserve">
<polygon fill="#B01F23" points="74,2.256 74.89,3.858 75.974,2.38 76.656,4.081 77.916,2.751 78.379,4.524 79.797,3.362 
	80.034,5.18 81.587,4.204 81.594,6.037 83.256,5.263 83.034,7.083 84.78,6.524 84.331,8.301 86.133,7.966 85.465,9.673 
	87.296,9.565 86.42,11.176 88.248,11.299 87.177,12.786 88.976,13.137 87.727,14.479 89.469,15.053 88.061,16.227 89.716,17.015 
	88.172,18.003 89.716,18.992 88.061,19.78 89.469,20.954 87.727,21.528 88.976,22.869 87.177,23.22 88.248,24.708 86.42,24.831 
	87.296,26.441 85.465,26.334 86.133,28.041 84.331,27.705 84.78,29.483 83.034,28.924 83.256,30.743 81.594,29.97 81.587,31.803 
	80.034,30.827 79.797,32.645 78.379,31.482 77.916,33.256 76.656,31.925 75.974,33.626 74.89,32.148 74,33.751 73.11,32.148 
	72.026,33.626 71.344,31.925 70.084,33.256 69.621,31.482 68.203,32.645 67.966,30.827 66.414,31.803 66.406,29.97 64.744,30.743 
	64.966,28.924 63.22,29.483 63.669,27.705 61.866,28.041 62.535,26.334 60.704,26.441 61.581,24.831 59.751,24.708 60.823,23.22 
	59.023,22.869 60.272,21.528 58.531,20.954 59.939,19.78 58.284,18.992 59.828,18.003 58.284,17.015 59.939,16.227 58.531,15.053 
	60.272,14.479 59.023,13.137 60.823,12.786 59.751,11.299 61.581,11.176 60.704,9.565 62.535,9.673 61.866,7.966 63.669,8.301 
	63.22,6.524 64.966,7.083 64.744,5.263 66.406,6.037 66.414,4.204 67.966,5.18 68.203,3.362 69.621,4.524 70.084,2.751 
	71.344,4.081 72.026,2.38 73.11,3.858 "/>
<path fill="#B01F23" d="M89.716,17.015l-1.656-0.788l1.408-1.174l-1.741-0.574l1.249-1.342l-1.799-0.351l1.071-1.487l-1.828-0.123
	l0.876-1.611l-1.83,0.108l0.668-1.707l-1.802,0.336l0.449-1.777l-1.746,0.559l0.222-1.819l-1.662,0.773l-0.008-1.833L80.034,5.18
	l-0.237-1.818l-1.418,1.163l-0.463-1.773l-1.26,1.33L75.974,2.38L74.89,3.858L74,2.256l-0.89,1.603L72.026,2.38l-0.682,1.701
	l-1.26-1.33l-0.463,1.773l-1.418-1.163L67.966,5.18l-1.552-0.976l-0.008,1.833l-1.662-0.773l0.222,1.819L63.22,6.524l0.449,1.777
	l-1.803-0.336l0.668,1.707l-1.831-0.108l0.877,1.611l-1.83,0.123l1.072,1.487l-1.799,0.351l1.249,1.342l-1.741,0.574l1.408,1.174
	l-1.655,0.788l1.544,0.988l-1.544,0.988l1.655,0.788l-1.408,1.174l1.741,0.574l-1.249,1.341l1.799,0.351l-1.072,1.488l1.83,0.123
	l-0.877,1.61l1.831-0.107l-0.668,1.708l1.803-0.336l-0.449,1.778l1.747-0.559l-0.222,1.819l1.662-0.773l0.008,1.833l1.552-0.975
	l0.237,1.817l1.418-1.162l0.463,1.774l1.26-1.331l0.682,1.702l1.084-1.478L74,33.751l0.89-1.603l1.084,1.478l0.682-1.702l1.26,1.331
	l0.463-1.774l1.418,1.162l0.237-1.817l1.552,0.975l0.008-1.833l1.662,0.773l-0.222-1.819l1.746,0.559l-0.449-1.778l1.802,0.336
	l-0.668-1.708l1.83,0.107l-0.876-1.61l1.828-0.123l-1.071-1.488l1.799-0.351l-1.249-1.341l1.741-0.574l-1.408-1.174l1.656-0.788
	l-1.544-0.988L89.716,17.015z M88.965,18.945c-0.488,0.232-1.576,0.75-1.576,0.75s0.925,0.772,1.341,1.118
	c-0.513,0.169-1.658,0.546-1.658,0.546s0.821,0.882,1.189,1.277c-0.531,0.104-1.714,0.334-1.714,0.334s0.704,0.978,1.021,1.416
	c-0.54,0.037-1.742,0.117-1.742,0.117s0.576,1.058,0.834,1.534c-0.54-0.031-1.742-0.103-1.742-0.103s0.439,1.122,0.636,1.626
	c-0.531-0.099-1.716-0.32-1.716-0.32s0.295,1.169,0.426,1.692c-0.515-0.164-1.663-0.532-1.663-0.532s0.146,1.196,0.213,1.732
	c-0.491-0.228-1.583-0.736-1.583-0.736s-0.005,1.205-0.008,1.746c-0.457-0.288-1.478-0.929-1.478-0.929s-0.155,1.195-0.226,1.731
	c-0.418-0.343-1.349-1.107-1.349-1.107s-0.304,1.166-0.441,1.689c-0.372-0.393-1.201-1.267-1.201-1.267s-0.448,1.118-0.65,1.62
	c-0.319-0.436-1.031-1.408-1.031-1.408S74.263,32.525,74,32.998c-0.263-0.473-0.847-1.526-0.847-1.526s-0.713,0.972-1.032,1.408
	c-0.202-0.502-0.65-1.62-0.65-1.62s-0.829,0.875-1.2,1.267c-0.137-0.523-0.441-1.689-0.441-1.689s-0.931,0.764-1.35,1.107
	c-0.07-0.536-0.226-1.731-0.226-1.731s-1.02,0.641-1.478,0.929c-0.003-0.541-0.007-1.746-0.007-1.746s-1.092,0.508-1.583,0.736
	c0.065-0.537,0.212-1.732,0.212-1.732s-1.147,0.367-1.663,0.532c0.132-0.524,0.427-1.692,0.427-1.692s-1.185,0.221-1.717,0.32
	c0.197-0.504,0.636-1.626,0.636-1.626s-1.203,0.071-1.743,0.103c0.259-0.475,0.835-1.534,0.835-1.534s-1.202-0.081-1.742-0.117
	c0.316-0.439,1.02-1.416,1.02-1.416s-1.182-0.231-1.713-0.334c0.368-0.396,1.19-1.277,1.19-1.277s-1.144-0.377-1.658-0.546
	c0.415-0.347,1.34-1.118,1.34-1.118s-1.087-0.518-1.576-0.75c0.456-0.292,1.47-0.941,1.47-0.941s-1.014-0.65-1.47-0.942
	c0.488-0.232,1.576-0.75,1.576-0.75s-0.925-0.772-1.34-1.119c0.514-0.169,1.658-0.546,1.658-0.546s-0.821-0.882-1.19-1.277
	c0.531-0.104,1.713-0.334,1.713-0.334s-0.704-0.978-1.02-1.417c0.54-0.036,1.742-0.117,1.742-0.117s-0.576-1.058-0.835-1.533
	c0.54,0.032,1.743,0.102,1.743,0.102s-0.439-1.122-0.636-1.626c0.531,0.099,1.717,0.32,1.717,0.32s-0.295-1.168-0.427-1.692
	c0.515,0.165,1.663,0.532,1.663,0.532s-0.146-1.196-0.212-1.733c0.491,0.228,1.583,0.737,1.583,0.737s0.005-1.205,0.007-1.745
	c0.458,0.288,1.478,0.929,1.478,0.929s0.156-1.194,0.226-1.73c0.419,0.343,1.35,1.106,1.35,1.106s0.305-1.165,0.441-1.689
	c0.371,0.393,1.2,1.268,1.2,1.268s0.448-1.118,0.65-1.62c0.319,0.436,1.032,1.408,1.032,1.408S73.737,3.481,74,3.008
	c0.263,0.473,0.848,1.527,0.848,1.527s0.713-0.972,1.031-1.408c0.202,0.502,0.65,1.62,0.65,1.62s0.828-0.875,1.201-1.268
	c0.136,0.524,0.441,1.689,0.441,1.689s0.931-0.764,1.349-1.106c0.071,0.536,0.226,1.73,0.226,1.73s1.02-0.641,1.478-0.929
	c0.002,0.541,0.008,1.745,0.008,1.745s1.092-0.508,1.583-0.737c-0.066,0.537-0.213,1.733-0.213,1.733s1.148-0.367,1.663-0.532
	c-0.132,0.524-0.426,1.692-0.426,1.692s1.184-0.221,1.716-0.32c-0.196,0.504-0.636,1.626-0.636,1.626S86.121,10,86.66,9.969
	c-0.258,0.475-0.834,1.533-0.834,1.533s1.202,0.081,1.742,0.117c-0.316,0.439-1.021,1.417-1.021,1.417s1.182,0.231,1.714,0.334
	c-0.369,0.395-1.189,1.277-1.189,1.277s1.144,0.377,1.658,0.546c-0.415,0.346-1.341,1.119-1.341,1.119s1.088,0.517,1.576,0.75
	c-0.456,0.292-1.47,0.942-1.47,0.942S88.509,18.653,88.965,18.945z"/>
<polygon fill="#B01F23" points="60.816,12.786 61.446,13.034 60.422,11.623 59.741,11.306 "/>
<polygon fill="#B01F23" points="60.266,14.48 60.922,14.646 59.729,13.375 59.014,13.146 "/>
<polygon fill="#B01F23" points="59.933,16.229 60.605,16.312 59.262,15.2 58.523,15.062 "/>
<polygon fill="#B01F23" points="59.822,18.006 60.498,18.004 59.027,17.07 58.276,17.025 "/>
<polygon fill="#B01F23" points="59.933,19.783 60.605,19.696 59.028,18.954 58.278,19.004 "/>
<polygon fill="#B01F23" points="60.268,21.532 60.922,21.362 59.265,20.823 58.527,20.966 "/>
<polygon fill="#B01F23" points="60.818,23.225 61.447,22.974 59.735,22.648 59.021,22.882 "/>
<polygon fill="#B01F23" points="61.576,24.837 62.168,24.508 60.429,24.399 59.75,24.721 "/>
<polygon fill="#B01F23" points="62.531,26.34 63.077,25.94 61.338,26.049 60.704,26.454 "/>
<polygon fill="#B01F23" points="63.666,27.711 64.158,27.247 62.446,27.572 61.868,28.054 "/>
<polygon fill="#B01F23" points="64.964,28.93 65.394,28.407 63.736,28.946 63.223,29.495 "/>
<polygon fill="#B01F23" points="66.405,29.976 66.765,29.404 65.188,30.145 64.749,30.755 "/>
<polygon fill="#B01F23" points="67.965,30.834 68.252,30.221 66.78,31.154 66.42,31.814 "/>
<polygon fill="#B01F23" points="80.039,30.832 79.749,30.22 79.53,31.949 79.81,32.647 "/>
<polygon fill="#B01F23" points="81.599,29.974 81.235,29.404 81.235,31.146 81.599,31.804 "/>
<polygon fill="#B01F23" points="83.04,28.927 82.607,28.407 82.825,30.136 83.268,30.742 "/>
<polygon fill="#B01F23" points="84.337,27.708 83.843,27.246 84.276,28.934 84.792,29.48 "/>
<polygon fill="#B01F23" points="85.472,26.336 84.924,25.939 85.565,27.56 86.146,28.037 "/>
<polygon fill="#B01F23" points="86.426,24.832 85.832,24.508 86.671,26.035 87.307,26.436 "/>
<polygon fill="#B01F23" points="87.184,23.221 86.554,22.974 87.578,24.384 88.259,24.702 "/>
<polygon fill="#B01F23" points="87.734,21.527 87.078,21.361 88.27,22.632 88.986,22.861 "/>
<polygon fill="#B01F23" points="88.067,19.778 87.395,19.695 88.738,20.807 89.477,20.945 "/>
<polygon fill="#B01F23" points="88.179,18.001 87.502,18.003 88.973,18.937 89.724,18.982 "/>
<polygon fill="#B01F23" points="88.067,16.224 87.395,16.311 88.972,17.054 89.722,17.004 "/>
<polygon fill="#B01F23" points="87.733,14.476 87.078,14.645 88.735,15.184 89.473,15.041 "/>
<polygon fill="#B01F23" points="87.182,12.782 86.554,13.033 88.265,13.36 88.979,13.125 "/>
<polygon fill="#B01F23" points="86.424,11.171 85.831,11.498 87.571,11.608 88.251,11.286 "/>
<polygon fill="#B01F23" points="85.47,9.667 84.923,10.067 86.662,9.958 87.296,9.553 "/>
<polygon fill="#B01F23" points="84.335,8.296 83.842,8.76 85.554,8.435 86.132,7.954 "/>
<polygon fill="#B01F23" points="83.037,7.077 82.606,7.6 84.264,7.062 84.777,6.512 "/>
<polygon fill="#B01F23" points="81.595,6.03 81.234,6.603 82.812,5.862 83.251,5.252 "/>
<polygon fill="#B01F23" points="80.035,5.173 79.748,5.786 81.22,4.853 81.58,4.193 "/>
<polygon fill="#B01F23" points="78.379,4.518 78.172,5.162 79.516,4.052 79.79,3.352 "/>
<polygon fill="#B01F23" points="76.655,4.075 76.529,4.741 77.723,3.471 77.908,2.742 "/>
<polygon fill="#B01F23" points="74.888,3.852 74.847,4.528 75.872,3.119 75.964,2.372 "/>
<polygon fill="#B01F23" points="73.108,3.852 73.152,4.528 73.992,3.002 73.989,2.249 "/>
<polygon fill="#B01F23" points="71.341,4.076 71.469,4.741 72.111,3.121 72.015,2.375 "/>
<polygon fill="#B01F23" points="69.616,4.519 69.827,5.163 70.261,3.475 70.072,2.747 "/>
<polygon fill="#B01F23" points="67.961,5.175 68.251,5.787 68.47,4.058 68.191,3.36 "/>
<polygon fill="#B01F23" points="66.4,6.033 66.765,6.604 66.765,4.861 66.401,4.203 "/>
<polygon fill="#B01F23" points="64.961,7.08 65.393,7.6 65.175,5.871 64.731,5.265 "/>
<polygon fill="#B01F23" points="63.663,8.299 64.158,8.761 63.725,7.073 63.208,6.527 "/>
<polygon fill="#B01F23" points="62.527,9.671 63.077,10.068 62.435,8.447 61.854,7.97 "/>
<polygon fill="#B01F23" points="61.574,11.175 62.168,11.499 61.329,9.972 60.693,9.572 "/>
<path fill="#FFFFFF" d="M83.22,8.783C80.757,6.321,77.484,4.965,74,4.965c-7.189,0-13.039,5.849-13.039,13.038
	c0,7.19,5.85,13.04,13.039,13.04c7.189,0,13.039-5.85,13.039-13.04C87.039,14.52,85.682,11.246,83.22,8.783z"/>
<path fill="#B01F23" d="M74,5.287c-7.024,0-12.717,5.694-12.717,12.716c0,7.024,5.693,12.717,12.717,12.717
	c7.023,0,12.717-5.693,12.717-12.717C86.717,10.981,81.023,5.287,74,5.287z M82.226,26.23c-2.198,2.197-5.119,3.407-8.226,3.407
	c-6.415,0-11.633-5.217-11.633-11.634c0-6.414,5.218-11.632,11.633-11.632c3.107,0,6.028,1.21,8.226,3.406
	c2.198,2.198,3.406,5.119,3.406,8.226C85.632,21.111,84.423,24.032,82.226,26.23z"/>
<circle fill="#B01F23" cx="74" cy="18.002" r="12.479"/>
<polygon fill="#B01F23" points="76.205,12.155 75.631,11.97 77.21,7.974 "/>
<polygon fill="#B01F23" points="75.455,11.924 74.863,11.812 75.928,7.651 "/>
<circle fill="#B01F23" cx="74" cy="18.002" r="6.224"/>
<polygon fill="#B01F23" points="74.681,11.79 74.081,11.754 74.616,7.492 "/>
<circle fill="#B01F23" cx="74" cy="18.003" r="6.225"/>
<polygon fill="#B01F23" points="73.897,11.754 73.298,11.793 73.293,7.497 "/>
<circle fill="#B01F23" cx="74" cy="18.003" r="6.224"/>
<polygon fill="#B01F23" points="73.115,11.816 72.525,11.93 71.982,7.669 "/>
<circle fill="#B01F23" cx="74.001" cy="18.003" r="6.225"/>
<polygon fill="#B01F23" points="72.346,11.977 71.775,12.163 70.703,8.003 "/>
<circle fill="#B01F23" cx="74" cy="18.003" r="6.225"/>
<polygon fill="#B01F23" points="71.604,12.231 71.06,12.488 69.476,8.495 "/>
<circle fill="#B01F23" cx="74" cy="18.002" r="6.225"/>
<polygon fill="#B01F23" points="70.9,12.577 70.392,12.899 68.319,9.137 "/>
<circle fill="#B01F23" cx="74" cy="18.003" r="6.225"/>
<polygon fill="#B01F23" points="70.245,13.008 69.781,13.392 67.254,9.919 "/>
<circle fill="#B01F23" cx="74" cy="18.003" r="6.225"/>
<polygon fill="#B01F23" points="69.647,13.518 69.237,13.957 66.294,10.828 "/>
<circle fill="#B01F23" cx="74.001" cy="18.002" r="6.225"/>
<polygon fill="#B01F23" points="69.119,14.099 68.768,14.586 65.455,11.851 "/>
<circle fill="#B01F23" cx="74.001" cy="18.003" r="6.225"/>
<polygon fill="#B01F23" points="68.67,14.741 68.38,15.27 64.751,12.971 "/>
<circle fill="#B01F23" cx="74" cy="18.003" r="6.225"/>
<polygon fill="#B01F23" points="68.303,15.435 68.082,15.995 64.193,14.169 "/>
<circle fill="#B01F23" cx="74" cy="18.003" r="6.226"/>
<polygon fill="#B01F23" points="68.025,16.17 67.878,16.753 63.79,15.429 "/>
<circle fill="#B01F23" cx="74" cy="18.002" r="6.225"/>
<polygon fill="#B01F23" points="67.843,16.933 67.769,17.53 63.548,16.729 "/>
<circle fill="#B01F23" cx="74.001" cy="18.002" r="6.225"/>
<polygon fill="#B01F23" points="67.757,17.714 67.759,18.315 63.47,18.05 "/>
<circle fill="#B01F23" cx="73.999" cy="18.003" r="6.225"/>
<polygon fill="#B01F23" points="67.771,18.498 67.847,19.095 63.56,19.368 "/>
<circle fill="#B01F23" cx="74" cy="18.003" r="6.225"/>
<polygon fill="#B01F23" points="67.882,19.275 68.032,19.857 63.813,20.666 "/>
<circle fill="#B01F23" cx="74.001" cy="18.003" r="6.225"/>
<polygon fill="#B01F23" points="68.09,20.032 68.311,20.59 64.228,21.922 "/>
<circle fill="#B01F23" cx="74" cy="18.003" r="6.225"/>
<polygon fill="#B01F23" points="68.389,20.756 68.681,21.283 64.795,23.117 "/>
<circle fill="#B01F23" cx="74" cy="18.003" r="6.225"/>
<polygon fill="#B01F23" points="68.78,21.438 69.134,21.924 65.509,24.23 "/>
<circle fill="#B01F23" cx="74.001" cy="18.003" r="6.225"/>
<polygon fill="#B01F23" points="69.252,22.065 69.663,22.503 66.357,25.245 "/>
<circle fill="#B01F23" cx="74" cy="18.003" r="6.225"/>
<polygon fill="#B01F23" points="69.798,22.628 70.262,23.011 67.324,26.145 "/>
<circle fill="#B01F23" cx="74" cy="18.003" r="6.224"/>
<polygon fill="#B01F23" points="70.411,23.118 70.92,23.44 68.397,26.918 "/>
<circle fill="#B01F23" cx="74" cy="18.002" r="6.224"/>
<polygon fill="#B01F23" points="71.08,23.528 71.625,23.783 69.559,27.55 "/>
<circle fill="#B01F23" cx="74.001" cy="18.003" r="6.225"/>
<polygon fill="#B01F23" points="71.797,23.851 72.369,24.035 70.791,28.031 "/>
<circle fill="#B01F23" cx="74.001" cy="18.003" r="6.225"/>
<polygon fill="#B01F23" points="72.546,24.08 73.137,24.193 72.073,28.354 "/>
<circle fill="#B01F23" cx="74" cy="18.002" r="6.224"/>
<polygon fill="#B01F23" points="73.319,24.215 73.919,24.252 73.384,28.515 "/>
<circle fill="#B01F23" cx="74" cy="18.003" r="6.225"/>
<polygon fill="#B01F23" points="74.103,24.252 74.703,24.212 74.708,28.509 "/>
<circle fill="#B01F23" cx="74" cy="18.003" r="6.224"/>
<polygon fill="#B01F23" points="74.885,24.189 75.477,24.074 76.018,28.337 "/>
<circle fill="#B01F23" cx="74.001" cy="18.003" r="6.225"/>
<polygon fill="#B01F23" points="75.654,24.029 76.226,23.842 77.298,28.003 "/>
<circle fill="#B01F23" cx="74" cy="18.003" r="6.225"/>
<polygon fill="#B01F23" points="76.397,23.774 76.941,23.517 78.526,27.51 "/>
<circle fill="#B01F23" cx="74" cy="18.002" r="6.225"/>
<polygon fill="#B01F23" points="77.1,23.428 77.608,23.105 79.681,26.869 "/>
<circle fill="#B01F23" cx="74" cy="18.003" r="6.225"/>
<polygon fill="#B01F23" points="77.757,22.997 78.219,22.613 80.748,26.087 "/>
<circle fill="#B01F23" cx="74" cy="18.003" r="6.225"/>
<polygon fill="#B01F23" points="78.354,22.488 78.764,22.048 81.708,25.177 "/>
<circle fill="#B01F23" cx="74.001" cy="18.002" r="6.225"/>
<polygon fill="#B01F23" points="78.882,21.907 79.234,21.419 82.547,24.154 "/>
<circle fill="#B01F23" cx="74.001" cy="18.003" r="6.225"/>
<polygon fill="#B01F23" points="79.331,21.264 79.621,20.736 83.249,23.035 "/>
<circle fill="#B01F23" cx="74" cy="18.003" r="6.225"/>
<polygon fill="#B01F23" points="79.699,20.57 79.919,20.009 83.808,21.836 "/>
<circle fill="#B01F23" cx="74" cy="18.003" r="6.226"/>
<polygon fill="#B01F23" points="79.975,19.835 80.124,19.253 84.211,20.576 "/>
<circle fill="#B01F23" cx="74" cy="18.002" r="6.225"/>
<polygon fill="#B01F23" points="80.159,19.072 80.232,18.475 84.453,19.277 "/>
<circle fill="#B01F23" cx="74.001" cy="18.002" r="6.225"/>
<polygon fill="#B01F23" points="80.243,18.292 80.242,17.69 84.53,17.956 "/>
<circle fill="#B01F23" cx="73.999" cy="18.003" r="6.225"/>
<polygon fill="#B01F23" points="80.23,17.507 80.154,16.91 84.441,16.637 "/>
<circle fill="#B01F23" cx="74" cy="18.003" r="6.225"/>
<polygon fill="#B01F23" points="80.119,16.731 79.969,16.149 84.187,15.34 "/>
<circle fill="#B01F23" cx="74.001" cy="18.003" r="6.225"/>
<polygon fill="#B01F23" points="79.911,15.974 79.689,15.414 83.774,14.084 "/>
<circle fill="#B01F23" cx="74" cy="18.003" r="6.225"/>
<polygon fill="#B01F23" points="79.611,15.249 79.32,14.722 83.205,12.889 "/>
<circle fill="#B01F23" cx="74" cy="18.003" r="6.225"/>
<polygon fill="#B01F23" points="79.222,14.567 78.867,14.081 82.492,11.777 "/>
<circle fill="#B01F23" cx="74.001" cy="18.003" r="6.225"/>
<polygon fill="#B01F23" points="78.75,13.94 78.337,13.502 81.645,10.761 "/>
<circle fill="#B01F23" cx="74" cy="18.003" r="6.225"/>
<polygon fill="#B01F23" points="78.203,13.376 77.738,12.994 80.676,9.86 "/>
<circle fill="#B01F23" cx="74" cy="18.003" r="6.224"/>
<polygon fill="#B01F23" points="77.591,12.886 77.081,12.565 79.604,9.087 "/>
<circle fill="#B01F23" cx="74" cy="18.002" r="6.224"/>
<polygon fill="#B01F23" points="76.921,12.477 76.375,12.222 78.442,8.456 "/>
<circle fill="#B01F23" cx="74.001" cy="18.003" r="6.225"/>
<circle fill="#B01F23" cx="74.001" cy="18.003" r="6.225"/>
<polygon fill="#B01F23" points="76.174,10.961 75.485,10.785 77.056,5.968 "/>
<polygon fill="#B01F23" points="75.274,10.744 74.569,10.655 75.525,5.68 "/>
<polygon fill="#B01F23" points="74.354,10.643 73.646,10.643 73.968,5.587 "/>
<polygon fill="#B01F23" points="73.428,10.657 72.725,10.745 72.412,5.689 "/>
<polygon fill="#B01F23" points="72.512,10.785 71.826,10.962 70.881,5.985 "/>
<polygon fill="#B01F23" points="71.619,11.029 70.96,11.29 69.399,6.471 "/>
<polygon fill="#B01F23" points="70.764,11.382 70.143,11.724 67.989,7.138 "/>
<polygon fill="#B01F23" points="69.96,11.84 69.385,12.257 66.675,7.978 "/>
<polygon fill="#B01F23" points="69.219,12.395 68.702,12.88 65.476,8.975 "/>
<polygon fill="#B01F23" points="68.553,13.038 68.102,13.585 64.412,10.114 "/>
<polygon fill="#B01F23" points="67.974,13.76 67.595,14.359 63.498,11.378 "/>
<polygon fill="#B01F23" points="67.49,14.549 67.189,15.191 62.75,12.746 "/>
<polygon fill="#B01F23" points="67.107,15.392 66.89,16.066 62.18,14.198 "/>
<polygon fill="#B01F23" points="66.835,16.276 66.703,16.973 61.797,15.709 "/>
<polygon fill="#B01F23" points="66.676,17.188 66.631,17.896 61.605,17.256 "/>
<polygon fill="#B01F23" points="66.631,18.112 66.676,18.819 61.609,18.815 "/>
<polygon fill="#B01F23" points="66.703,19.035 66.835,19.731 61.808,20.362 "/>
<polygon fill="#B01F23" points="66.89,19.941 67.109,20.616 62.2,21.872 "/>
<polygon fill="#B01F23" points="67.189,20.817 67.491,21.458 62.778,23.319 "/>
<polygon fill="#B01F23" points="67.595,21.648 67.974,22.247 63.533,24.684 "/>
<polygon fill="#B01F23" points="68.102,22.422 68.554,22.969 64.454,25.944 "/>
<polygon fill="#B01F23" points="68.702,23.126 69.22,23.612 65.523,27.077 "/>
<polygon fill="#B01F23" points="69.385,23.75 69.96,24.167 66.728,28.068 "/>
<polygon fill="#B01F23" points="70.143,24.283 70.765,24.625 68.047,28.9 "/>
<polygon fill="#B01F23" points="70.96,24.717 71.619,24.978 69.459,29.56 "/>
<polygon fill="#B01F23" points="71.826,25.045 72.512,25.221 70.943,30.038 "/>
<polygon fill="#B01F23" points="72.725,25.262 73.428,25.35 72.475,30.326 "/>
<polygon fill="#B01F23" points="73.646,25.364 74.354,25.364 74.031,30.42 "/>
<polygon fill="#B01F23" points="74.57,25.351 75.274,25.261 75.588,30.318 "/>
<polygon fill="#B01F23" points="75.487,25.221 76.174,25.045 77.118,30.022 "/>
<polygon fill="#B01F23" points="76.38,24.978 77.04,24.717 78.6,29.536 "/>
<polygon fill="#B01F23" points="77.235,24.625 77.857,24.283 80.011,28.869 "/>
<polygon fill="#B01F23" points="78.039,24.167 78.613,23.75 81.325,28.03 "/>
<polygon fill="#B01F23" points="78.78,23.612 79.296,23.126 82.523,27.033 "/>
<polygon fill="#B01F23" points="79.446,22.969 79.898,22.422 83.588,25.893 "/>
<polygon fill="#B01F23" points="80.025,22.247 80.404,21.648 84.501,24.63 "/>
<polygon fill="#B01F23" points="80.509,21.458 80.811,20.816 85.248,23.261 "/>
<polygon fill="#B01F23" points="80.891,20.616 81.109,19.941 85.819,21.809 "/>
<polygon fill="#B01F23" points="81.164,19.731 81.296,19.034 86.203,20.298 "/>
<polygon fill="#B01F23" points="81.325,18.819 81.369,18.112 86.395,18.751 "/>
<polygon fill="#B01F23" points="81.298,16.973 81.164,16.275 86.191,15.645 "/>
<polygon fill="#B01F23" points="81.109,16.066 80.89,15.391 85.798,14.135 "/>
<polygon fill="#B01F23" points="80.811,15.19 80.509,14.548 85.221,12.687 "/>
<polygon fill="#B01F23" points="80.404,14.358 80.025,13.759 84.467,11.323 "/>
<polygon fill="#B01F23" points="79.898,13.584 79.445,13.037 83.547,10.064 "/>
<polygon fill="#B01F23" points="79.296,12.88 78.78,12.395 82.476,8.93 "/>
<polygon fill="#B01F23" points="78.613,12.256 78.039,11.839 81.272,7.939 "/>
<polygon fill="#B01F23" points="77.857,11.723 77.235,11.381 79.953,7.107 "/>
<polygon fill="#B01F23" points="77.04,11.289 76.379,11.028 78.54,6.447 "/>
<path fill="#B01F23" d="M81.482,17.188c0.027,0.211,0.029,0.424,0.038,0.638l4.869-0.634L81.482,17.188z"/>
<path fill="#EDEEEC" d="M74.001,8.441c-5.281,0-9.563,4.281-9.563,9.562c0,5.283,4.282,9.564,9.563,9.564
	c5.281,0,9.562-4.281,9.562-9.564C83.563,12.722,79.282,8.441,74.001,8.441z M80.187,24.189c-1.653,1.653-3.85,2.562-6.186,2.562
	c-4.825,0-8.749-3.924-8.749-8.749c0-4.823,3.924-8.747,8.749-8.747c2.336,0,4.533,0.909,6.186,2.561
	c1.653,1.653,2.562,3.849,2.562,6.185C82.749,20.34,81.84,22.537,80.187,24.189z"/>
<circle fill="#B01F23" cx="74" cy="18.002" r="9.384"/>
<circle fill="#B01F23" cx="74.001" cy="18.003" r="7.232"/>
<path fill="#B01F23" d="M78.967,12.747c1.221,1.295,2.092,3.036,2.092,4.956c0,3.994-3.237,7.232-7.232,7.232
	c-1.92,0-3.717-0.699-5.011-1.92c1.319,1.398,3.238,2.221,5.311,2.221c3.993,0,7.232-3.238,7.232-7.232
	C81.36,15.93,80.365,14.065,78.967,12.747z"/>
<path fill="#FFFFFF" d="M77.078,23.277c-0.09,0-0.178-0.022-0.258-0.064L74,21.73l-2.82,1.483c-0.27,0.142-0.605,0.038-0.747-0.232
	c-0.057-0.108-0.076-0.231-0.056-0.351l0.539-3.14l-2.282-2.224c-0.219-0.213-0.223-0.563-0.01-0.782
	c0.085-0.087,0.196-0.144,0.317-0.161l3.153-0.458l1.41-2.857c0.161-0.274,0.514-0.365,0.788-0.204
	c0.084,0.05,0.155,0.12,0.204,0.204l1.41,2.857l3.153,0.458c0.302,0.044,0.512,0.324,0.468,0.627
	c-0.017,0.12-0.074,0.232-0.161,0.317l-2.282,2.224l0.539,3.14c0.052,0.301-0.151,0.587-0.452,0.639
	C77.14,23.274,77.109,23.277,77.078,23.277L77.078,23.277z"/>
</svg>
