<svg xmlns="http://www.w3.org/2000/svg">
<defs>
<font id="AvenirLTPro-Black" horiz-adv-x="532" >
  <font-face 
    font-family="Avenir LT Pro 65 Medium"
    font-weight="900"
    font-stretch="normal"
    units-per-em="2048"
    panose-1="2 0 10 3 0 0 0 0 0 0"
    ascent="1638"
    descent="-410"
    x-height="995"
    cap-height="1450"
    bbox="-330 -532 2324 1952"
    underline-thickness="102"
    underline-position="-409"
    unicode-range="U+0020-FFFD"
  />
<missing-glyph horiz-adv-x="1048" 
d="M569 240h-114v137h114v-137zM555 479h-94l-4 35q0 117 26 166q29 55 95 121q58 54 81 93q21 36 21 77q0 75 -46 124q-47 50 -110 50q-146 0 -168 -195l-102 17q12 142 86 211q73 69 190 69q114 0 184 -73t70 -195q0 -72 -26 -123q-29 -56 -103 -123q-76 -67 -88 -106
q-12 -41 -12 -148zM102 102h844v1264h-844v-1264zM0 1470h1049v-1470h-1049v1470z" />
    <glyph glyph-name=".notdef" unicode="&#xfffd;" horiz-adv-x="1048" 
d="M569 240h-114v137h114v-137zM555 479h-94l-4 35q0 117 26 166q29 55 95 121q58 54 81 93q21 36 21 77q0 75 -46 124q-47 50 -110 50q-146 0 -168 -195l-102 17q12 142 86 211q73 69 190 69q114 0 184 -73t70 -195q0 -72 -26 -123q-29 -56 -103 -123q-76 -67 -88 -106
q-12 -41 -12 -148zM102 102h844v1264h-844v-1264zM0 1470h1049v-1470h-1049v1470z" />
    <glyph glyph-name=".null" horiz-adv-x="409" 
 />
    <glyph glyph-name=".null" horiz-adv-x="409" 
 />
    <glyph glyph-name="nonmarkingreturn" horiz-adv-x="681" 
 />
    <glyph glyph-name="space" unicode=" " horiz-adv-x="606" 
 />
    <glyph glyph-name="exclam" unicode="!" horiz-adv-x="909" 
d="M608 1450v-971h-307v971h307zM266 176q0 77 56 133t133 56t133 -56q55 -55 55 -133t-55 -133t-133 -55t-133 55q-56 56 -56 133z" />
    <glyph glyph-name="quotedbl" unicode="&#x22;" horiz-adv-x="1064" 
d="M641 872v578h258v-578h-258zM166 872v578h258v-578h-258z" />
    <glyph glyph-name="numbersign" unicode="#" horiz-adv-x="1212" 
d="M207 0l57 412h-172v184h197l35 258h-172v184h196l58 412h198l-57 -412h203l57 412h199l-58 -412h172v-184h-196l-35 -258h172v-184h-197l-57 -412h-199l58 412h-203l-57 -412h-199zM690 596l35 258h-203l-35 -258h203z" />
    <glyph glyph-name="dollar" unicode="$" horiz-adv-x="1212" 
d="M672 1618v-143q276 0 438 -129l-197 -240q-91 80 -241 86v-326l196 -57q137 -40 218 -136q79 -94 79 -235q0 -205 -139 -323q-140 -119 -354 -140v-143h-135v143q-324 0 -506 166l217 244q91 -112 289 -127v346l-150 45q-158 51 -239 142q-78 88 -78 241q0 184 136 302
q137 119 331 141v143h135zM537 899v287q-148 -33 -148 -139q0 -37 10 -61q11 -26 33 -41q27 -18 37 -23q25 -13 41 -17zM672 569v-307q174 34 174 152q0 60 -34 88q-36 30 -101 53z" />
    <glyph glyph-name="percent" unicode="%" horiz-adv-x="1857" 
d="M1040 383q0 169 118 287t286 118t286 -118q117 -117 117 -287q0 -172 -117 -289q-119 -119 -286 -119t-286 119q-118 118 -118 289zM1638 383q0 83 -56 139q-58 58 -138 58t-138 -58q-57 -57 -57 -139q0 -84 57 -141q58 -58 138 -58t138 58q56 56 56 141zM10 1069
q0 169 118 287q119 119 286 119q166 0 285 -119q118 -118 118 -287t-118 -287t-285 -118q-168 0 -286 118t-118 287zM608 1069q0 83 -56 139q-58 58 -138 58q-81 0 -139 -58q-56 -56 -56 -139t56 -139q58 -58 139 -58q80 0 138 58q56 56 56 139zM430 23l830 1493l172 -97
l-846 -1485z" />
    <glyph glyph-name="ampersand" unicode="&#x26;" horiz-adv-x="1554" 
d="M1524 748l-305 -406l323 -342h-395l-121 137q-168 -174 -426 -174q-213 0 -363 114q-151 115 -151 320q0 135 87 243t220 153q-85 93 -122 159q-38 68 -38 166q0 184 132 277q131 92 321 92q180 0 301 -91t121 -266q0 -120 -75 -218q-74 -96 -193 -158l186 -199l141 193
h357zM682 1241q-61 0 -101 -37t-40 -98q0 -71 121 -182q163 94 163 186q0 61 -41 96t-102 35zM840 340l-256 278q-56 -34 -83 -53t-55 -60t-28 -93q0 -79 58 -128q60 -51 136 -51q106 0 228 107z" />
    <glyph glyph-name="quotesingle" unicode="'" horiz-adv-x="606" 
d="M174 872v578h258v-578h-258z" />
    <glyph glyph-name="parenleft" unicode="(" horiz-adv-x="643" 
d="M389 1499l211 -123q-140 -219 -201 -389q-63 -174 -63 -397t63 -397q62 -172 201 -390l-211 -122l-4 8q-295 436 -295 901t295 901z" />
    <glyph glyph-name="parenright" unicode=")" horiz-adv-x="643" 
d="M254 -319l-211 122q139 218 201 390q63 174 63 397t-63 397q-61 170 -201 389l211 123l4 -8q295 -436 295 -901t-295 -901z" />
    <glyph glyph-name="asterisk" unicode="*" horiz-adv-x="987" 
d="M600 1450v-283l268 88l62 -194l-268 -86l169 -234l-169 -125l-173 236l-165 -225l-166 125l172 223l-273 94l66 195l268 -97v283h209z" />
    <glyph glyph-name="plus" unicode="+" horiz-adv-x="1363" 
d="M121 492v258h432v432h258v-432h432v-258h-432v-433h-258v433h-432z" />
    <glyph glyph-name="comma" unicode="," horiz-adv-x="606" 
d="M35 -246l151 578h295l-184 -578h-262z" />
    <glyph glyph-name="hyphen" unicode="-" horiz-adv-x="606" 
d="M555 633v-246h-504v246h504z" />
    <glyph glyph-name="period" unicode="." horiz-adv-x="606" 
d="M115 176q0 78 55 133q56 56 133 56t133 -56t56 -133t-56 -133q-55 -55 -133 -55t-133 55t-55 133z" />
    <glyph glyph-name="slash" unicode="/" horiz-adv-x="833" 
d="M-6 -37l612 1596l234 -72l-615 -1596z" />
    <glyph glyph-name="zero" unicode="0" horiz-adv-x="1212" 
d="M68 725q0 117 14 211q15 103 52 201q38 101 96 173q58 71 155 118t221 47t221 -47t155 -118q58 -72 96 -173q37 -98 52 -201q15 -100 15 -211t-15 -211q-15 -103 -52 -201q-38 -101 -96 -173q-58 -71 -155 -118t-221 -47t-221 47t-155 118q-58 72 -96 173q-37 98 -52 201
q-14 94 -14 211zM375 725q0 -467 231 -467q232 0 232 467t-232 467q-231 0 -231 -467z" />
    <glyph glyph-name="one" unicode="1" horiz-adv-x="1212" 
d="M590 0v1106l-291 -256l-174 201l473 399h287v-1450h-295z" />
    <glyph glyph-name="two" unicode="2" horiz-adv-x="1212" 
d="M100 0v326l564 505q20 18 62 60q18 18 42 60q25 44 25 83q0 71 -53 115q-52 43 -126 43q-82 0 -132 -51q-50 -52 -56 -133l-307 22q15 218 152 331q138 114 360 114q207 0 338 -113t131 -324q0 -130 -48 -218t-143 -171l-440 -379h643v-270h-1012z" />
    <glyph glyph-name="three" unicode="3" horiz-adv-x="1212" 
d="M442 612v267h101q233 0 233 161q0 66 -52 109t-128 43q-69 0 -118 -38q-47 -37 -62 -97l-338 69q45 181 182 265q136 84 334 84q207 0 349 -103q140 -101 140 -301q0 -123 -64 -208t-183 -109v-6q126 -16 199 -112t73 -226q0 -209 -149 -322t-373 -113q-202 0 -340 94
q-137 93 -180 281l323 76q33 -168 215 -168q98 0 147 51q50 52 50 135q0 45 -19 80q-17 31 -42 50t-67 26q-51 9 -75 10q-40 2 -84 2h-72z" />
    <glyph glyph-name="four" unicode="4" horiz-adv-x="1212" 
d="M682 0v291h-633v258l592 901h336v-901h186v-258h-186v-291h-295zM682 549v500h-4l-322 -500h326z" />
    <glyph glyph-name="five" unicode="5" horiz-adv-x="1212" 
d="M1059 1450v-270h-576l-6 -224q48 17 129 17q224 0 363 -130t139 -349q0 -239 -155 -379t-398 -140q-189 0 -316 95t-173 276l321 74q12 -79 66 -127q53 -47 133 -47q95 0 155 61t60 156q0 90 -52 146q-52 57 -122 75q-69 18 -160 18q-144 0 -301 -53l16 801h877z" />
    <glyph glyph-name="six" unicode="6" horiz-adv-x="1212" 
d="M928 1450l-340 -518q53 14 100 14q201 0 328 -136t127 -337q0 -221 -155 -359q-156 -139 -386 -139t-386 139q-155 138 -155 359q0 96 28 191q27 91 56 143q22 39 91 147l317 496h375zM836 485q0 99 -66 163q-67 65 -168 65t-168 -65q-65 -64 -65 -163q0 -98 65 -162
q67 -65 168 -65t168 65q66 65 66 162z" />
    <glyph glyph-name="seven" unicode="7" horiz-adv-x="1212" 
d="M199 0l594 1167h-717v283h1061v-270l-580 -1180h-358z" />
    <glyph glyph-name="eight" unicode="8" horiz-adv-x="1212" 
d="M121 1075q0 192 137 296t348 104t348 -104q138 -105 138 -296q0 -118 -65 -204q-63 -84 -181 -117v-4q132 -35 201 -126q69 -92 69 -227q0 -200 -147 -311t-363 -111q-215 0 -362 111q-148 112 -148 311q0 134 70 227q69 91 201 126v4q-119 34 -182 117q-64 85 -64 204z
M428 1032q0 -69 50 -116q49 -46 128 -46t128 46q50 47 50 116q0 67 -50 114q-49 46 -128 46t-128 -46q-50 -47 -50 -114zM403 440q0 -76 58 -129t145 -53q88 0 146 53q57 53 57 129q0 79 -56 131q-59 54 -147 54q-87 0 -146 -54q-57 -53 -57 -131z" />
    <glyph glyph-name="nine" unicode="9" horiz-adv-x="1212" 
d="M285 0l340 518q-53 -14 -101 -14q-200 0 -327 136t-127 337q0 221 154 359q156 139 386 139t386 -139q155 -138 155 -359q0 -96 -28 -191q-27 -91 -56 -143q-29 -51 -90 -147l-318 -496h-374zM377 965q0 -99 65 -163q67 -65 168 -65t168 65q66 64 66 163q0 97 -66 162
q-67 65 -168 65t-168 -65q-65 -64 -65 -162z" />
    <glyph glyph-name="colon" unicode=":" horiz-adv-x="606" 
d="M115 176q0 78 55 133q56 56 133 56t133 -56t56 -133t-56 -133q-55 -55 -133 -55t-133 55t-55 133zM115 831q0 79 55 134t133 55t133 -55q56 -56 56 -134q0 -77 -56 -133q-55 -55 -133 -55t-133 55t-55 133z" />
    <glyph glyph-name="semicolon" unicode=";" horiz-adv-x="606" 
d="M35 -246l151 578h295l-184 -578h-262zM115 831q0 79 55 134t133 55t133 -55q56 -56 56 -134q0 -77 -56 -133q-55 -55 -133 -55t-133 55t-55 133z" />
    <glyph glyph-name="less" unicode="&#x3c;" horiz-adv-x="1363" 
d="M1200 1155v-278l-649 -254v-5l649 -253v-279l-1036 406v258z" />
    <glyph glyph-name="equal" unicode="=" horiz-adv-x="1363" 
d="M121 688v258h1122v-258h-1122zM121 295v258h1122v-258h-1122z" />
    <glyph glyph-name="greater" unicode="&#x3e;" horiz-adv-x="1363" 
d="M164 86v279l649 253v5l-649 254v278l1036 -405v-258z" />
    <glyph glyph-name="question" unicode="?" horiz-adv-x="1138" 
d="M442 479v90q0 116 72 185q41 41 101 94q63 56 91 82q26 25 48 61q22 37 22 70q0 65 -41 104q-40 39 -106 39q-93 0 -145 -51q-52 -50 -58 -131l-315 20q21 214 157 329q137 116 355 116q195 0 328 -107q132 -106 132 -297q0 -116 -54 -202q-55 -88 -200 -201
q-79 -61 -79 -141v-60h-308zM408 176q0 78 55 133q56 56 133 56t133 -56q55 -55 55 -133t-55 -133t-133 -55t-133 55t-55 133z" />
    <glyph glyph-name="at" unicode="@" horiz-adv-x="1638" 
d="M973 745q0 85 -39 137t-113 52q-90 0 -148 -73q-57 -72 -57 -181q0 -182 142 -182q116 0 166 72q49 71 49 175zM1239 1094l-76 -404q-18 -88 -18 -135q0 -57 55 -57q72 0 124 77t52 228q0 239 -146 369q-148 131 -388 131q-255 0 -411 -163q-157 -165 -157 -417
q0 -264 169 -420t434 -156q229 0 387 125h225q-107 -148 -274 -229q-166 -80 -355 -80q-332 0 -563 216t-231 544q0 326 228 545t554 219q185 0 347 -76t270 -233t108 -365q0 -124 -36 -218q-37 -96 -88 -146q-52 -50 -119 -84q-65 -33 -117 -42q-55 -10 -95 -10
q-80 0 -120 33t-42 78h-4q-106 -111 -262 -111q-130 0 -213 97q-82 95 -82 247q0 188 113 325q112 136 297 136q164 0 221 -117h4l17 93h192z" />
    <glyph glyph-name="A" unicode="A" horiz-adv-x="1517" 
d="M-2 0l627 1450h264l631 -1450h-361l-125 307h-563l-121 -307h-352zM926 578l-178 450l-177 -450h355z" />
    <glyph glyph-name="B" unicode="B" horiz-adv-x="1327" 
d="M147 0v1450h541q115 0 193 -14q85 -15 166 -52q83 -38 127 -113q45 -77 45 -190q0 -117 -68 -200q-66 -81 -182 -119v-4q142 -18 230 -116q87 -97 87 -239q0 -107 -48 -190t-129 -126q-82 -44 -173 -65q-96 -22 -195 -22h-594zM467 1180v-310h231q84 0 143 38
q58 37 58 120q0 152 -215 152h-217zM467 600v-330h287q85 0 149 41t64 129q0 160 -258 160h-242z" />
    <glyph glyph-name="C" unicode="C" horiz-adv-x="1402" 
d="M1341 1274l-245 -201q-101 119 -275 119q-183 0 -301 -132q-119 -133 -119 -335q0 -201 118 -334t292 -133q194 0 299 156l266 -199q-90 -126 -228 -188q-143 -64 -296 -64q-343 0 -563 209q-219 209 -219 553q0 345 219 553q220 209 563 209q136 0 270 -51t219 -162z
" />
    <glyph glyph-name="D" unicode="D" horiz-adv-x="1554" 
d="M147 0v1450h480q184 0 332 -40q153 -41 271 -124q119 -83 187 -228t68 -337q0 -224 -115 -392q-114 -167 -297 -248t-403 -81h-523zM467 1155v-860h166q520 0 520 442q0 203 -141 311q-140 107 -357 107h-188z" />
    <glyph glyph-name="E" unicode="E" horiz-adv-x="1290" 
d="M160 0v1450h985v-295h-666v-270h629v-295h-629v-295h703v-295h-1022z" />
    <glyph glyph-name="F" unicode="F" horiz-adv-x="1214" 
d="M160 0v1450h973v-295h-654v-295h604v-295h-604v-565h-319z" />
    <glyph glyph-name="G" unicode="G" horiz-adv-x="1593" 
d="M1460 860v-758q-265 -139 -608 -139t-563 209q-219 209 -219 553q0 345 219 553q220 209 563 209q376 0 578 -187l-226 -245q-131 137 -352 137q-202 0 -327 -131q-124 -130 -124 -336t124 -336q125 -131 327 -131q172 0 301 72v235h-260v295h567z" />
    <glyph glyph-name="H" unicode="H" horiz-adv-x="1554" 
d="M147 0v1450h320v-541h620v541h320v-1450h-320v627h-620v-627h-320z" />
    <glyph glyph-name="I" unicode="I" horiz-adv-x="606" 
d="M143 0v1450h320v-1450h-320z" />
    <glyph glyph-name="J" unicode="J" horiz-adv-x="1024" 
d="M897 1450v-965q0 -112 -18 -196q-18 -82 -65 -163q-46 -79 -142 -121t-238 -42q-178 0 -294 84q-115 84 -150 254l293 72q6 -52 48 -89q43 -38 95 -38q44 0 73 19t45 44q15 25 23 69q9 52 10 71q1 18 1 71v930h319z" />
    <glyph glyph-name="K" unicode="K" horiz-adv-x="1478" 
d="M160 0v1450h319v-602l563 602h418l-645 -674l701 -776h-447l-590 688v-688h-319z" />
    <glyph glyph-name="L" unicode="L" horiz-adv-x="1099" 
d="M160 0v1450h319v-1155h592v-295h-911z" />
    <glyph glyph-name="M" unicode="M" horiz-adv-x="1933" 
d="M147 0v1450h484l334 -946h4l336 946h481v-1450h-320v1112h-4l-381 -1112h-243l-367 1112h-4v-1112h-320z" />
    <glyph glyph-name="N" unicode="N" horiz-adv-x="1669" 
d="M147 0v1450h435l616 -1008h4v1008h320v-1450h-418l-633 1032h-4v-1032h-320z" />
    <glyph glyph-name="O" unicode="O" horiz-adv-x="1703" 
d="M70 725q0 345 219 553q220 209 563 209t563 -209q219 -208 219 -553q0 -344 -219 -553q-220 -209 -563 -209t-563 209q-219 209 -219 553zM401 725q0 -206 124 -336q125 -131 327 -131t327 131q124 130 124 336t-124 336q-125 131 -327 131t-327 -131
q-124 -130 -124 -336z" />
    <glyph glyph-name="P" unicode="P" horiz-adv-x="1290" 
d="M147 0v1450h539q551 0 551 -440q0 -445 -537 -445h-233v-565h-320zM467 1180v-344h213q225 0 225 174q0 170 -274 170h-164z" />
    <glyph glyph-name="Q" unicode="Q" horiz-adv-x="1744" 
d="M1735 246v-246h-879q-345 0 -566 200q-220 199 -220 543q0 324 223 534q224 210 551 210q328 0 551 -210t223 -534q0 -161 -73 -296q-72 -134 -216 -197v-4h406zM401 743q0 -187 130 -317q131 -131 313 -131q181 0 312 131q130 130 130 317q0 188 -130 318
q-131 131 -312 131q-182 0 -313 -131q-130 -130 -130 -318z" />
    <glyph glyph-name="R" unicode="R" horiz-adv-x="1327" 
d="M147 0v1450h562q546 0 546 -440q0 -158 -81 -264q-82 -107 -232 -134l369 -612h-383l-303 580h-158v-580h-320zM467 1180v-330h188q62 0 94 4q39 5 81 17q45 13 70 50q24 36 24 91q0 168 -248 168h-209z" />
    <glyph glyph-name="S" unicode="S" horiz-adv-x="1175" 
d="M1083 1335l-219 -239q-39 48 -102 71q-69 25 -129 25q-80 0 -148 -38q-67 -37 -67 -112q0 -53 37 -89q38 -37 95 -57q66 -24 130 -41q69 -19 143 -48q69 -27 130 -71q59 -42 96 -118q36 -73 36 -178q0 -231 -159 -354t-400 -123q-292 0 -487 182l227 250q49 -63 124 -100
q74 -37 155 -37q86 0 153 40q68 41 68 112q0 60 -50 104q-49 43 -126 64q-83 23 -164 53q-92 34 -164 71q-76 39 -126 120q-50 82 -50 194q0 222 163 346q164 125 390 125q271 0 444 -152z" />
    <glyph glyph-name="T" unicode="T" horiz-adv-x="1175" 
d="M428 0v1167h-414v283h1147v-283h-413v-1167h-320z" />
    <glyph glyph-name="U" unicode="U" horiz-adv-x="1517" 
d="M1370 1450v-891q0 -266 -159 -431t-451 -165q-294 0 -453 165q-160 166 -160 431v891h320v-879q0 -135 83 -224t210 -89q126 0 208 90q83 91 83 223v879h319z" />
    <glyph glyph-name="V" unicode="V" horiz-adv-x="1441" 
d="M584 0l-580 1450h365l358 -950h4l365 950h342l-598 -1450h-256z" />
    <glyph glyph-name="W" unicode="W" horiz-adv-x="2048" 
d="M426 0l-430 1450h348l231 -930h5l303 930h297l301 -954h4l244 954h323l-424 -1450h-285l-319 1004h-4l-320 -1004h-274z" />
    <glyph glyph-name="X" unicode="X" horiz-adv-x="1478" 
d="M0 0l508 758l-479 692h401l309 -508l297 508h387l-469 -686l525 -764h-402l-354 584l-344 -584h-379z" />
    <glyph glyph-name="Y" unicode="Y" horiz-adv-x="1327" 
d="M504 0v618l-545 832h397l308 -543l325 543h379l-545 -832v-618h-319z" />
    <glyph glyph-name="Z" unicode="Z" horiz-adv-x="1290" 
d="M72 0v295l735 872h-709v283h1096v-283l-721 -872h746v-295h-1147z" />
    <glyph glyph-name="bracketleft" unicode="[" horiz-adv-x="606" 
d="M565 1499v-184h-184v-1450h184v-184h-430v1818h430z" />
    <glyph glyph-name="backslash" unicode="\" horiz-adv-x="833" 
d="M840 -37l-232 -72l-614 1596l233 72z" />
    <glyph glyph-name="bracketright" unicode="]" horiz-adv-x="606" 
d="M41 -319v184h184v1450h-184v184h430v-1818h-430z" />
    <glyph glyph-name="asciicircum" unicode="^" horiz-adv-x="1363" 
d="M164 702l368 748h299l369 -748h-291l-227 488l-229 -488h-289z" />
    <glyph glyph-name="underscore" unicode="_" horiz-adv-x="1024" 
d="M1024 -256h-1024v102h1024v-102z" />
    <glyph glyph-name="grave" unicode="`" 
d="M268 1450l207 -295h-270l-355 295h418z" />
    <glyph glyph-name="a" unicode="a" horiz-adv-x="1099" 
d="M733 0v125h-4q-95 -150 -315 -150q-148 0 -251 82q-104 83 -104 226q0 70 26 128q25 57 62 92t99 61q63 26 113 39q53 14 130 21q62 6 125 8q31 1 119 1q0 79 -57 129q-56 49 -139 49q-143 0 -250 -119l-164 168q169 160 438 160q256 0 355 -125q100 -126 100 -389v-506
h-283zM733 436h-76q-303 0 -303 -143q0 -51 44 -80t102 -29q97 0 165 49t68 138v65z" />
    <glyph glyph-name="b" unicode="b" horiz-adv-x="1290" 
d="M137 0v1548h307v-659h5q95 131 315 131q205 0 330 -157t125 -374q0 -225 -136 -370q-135 -144 -354 -144q-93 0 -181 48q-85 46 -124 108h-4v-131h-283zM420 498q0 -115 65 -183q66 -69 181 -69q114 0 180 69q65 68 65 183q0 114 -65 182q-67 70 -180 70q-114 0 -181 -70
q-65 -68 -65 -182z" />
    <glyph glyph-name="c" unicode="c" horiz-adv-x="987" 
d="M985 887l-203 -213q-52 76 -151 76q-113 0 -180 -70q-66 -69 -66 -182q0 -114 66 -183t180 -69q88 0 151 76l203 -213q-131 -134 -354 -134q-234 0 -394 145q-159 144 -159 378t159 378t394 144q224 0 354 -133z" />
    <glyph glyph-name="d" unicode="d" horiz-adv-x="1290" 
d="M1153 1548v-1548h-283v131h-4q-39 -62 -124 -108q-88 -48 -181 -48q-219 0 -354 144t-135 370q0 217 125 374t329 157q221 0 316 -131h4v659h307zM870 498q0 114 -65 182q-67 70 -180 70q-114 0 -181 -70q-65 -68 -65 -182q0 -115 65 -183q66 -69 181 -69q114 0 180 69
q65 68 65 183z" />
    <glyph glyph-name="e" unicode="e" horiz-adv-x="1175" 
d="M836 330l215 -158q-73 -91 -187 -144t-233 -53q-234 0 -394 145q-159 144 -159 378t159 378t394 144q215 0 341 -141t126 -381v-97h-713q18 -87 81 -140q62 -52 150 -52q132 0 220 121zM385 610h406q1 77 -53 133t-136 56q-95 0 -153 -56q-58 -57 -64 -133z" />
    <glyph glyph-name="f" unicode="f" horiz-adv-x="757" 
d="M215 0v750h-203v245h203v176q0 94 14 156q15 66 55 125q41 61 119 90q82 31 201 31q102 0 180 -19l-14 -260q-57 21 -100 21q-79 0 -113 -34q-35 -35 -35 -128v-158h228v-245h-228v-750h-307z" />
    <glyph glyph-name="g" unicode="g" horiz-adv-x="1290" 
d="M1153 995v-911q0 -282 -144 -429t-431 -147q-316 0 -500 146l170 254q152 -129 323 -129q136 0 205 66q70 67 70 178v96h-4q-51 -69 -126 -100t-155 -31q-220 0 -354 143q-135 144 -135 371q0 208 126 363t328 155q121 0 210 -47t130 -109h4v131h283zM379 504
q0 -98 72 -172t174 -74t174 74q71 72 71 172t-71 172q-72 74 -174 74t-174 -74t-72 -172z" />
    <glyph glyph-name="h" unicode="h" horiz-adv-x="1175" 
d="M109 1548h307v-688h4q25 64 99 112q75 48 179 48q215 0 292 -122t77 -349v-549h-307v487q0 55 -1 73q-2 29 -9 69q-7 39 -25 63q-16 22 -48 40q-31 18 -77 18q-108 0 -146 -69q-38 -70 -38 -185v-496h-307v1548z" />
    <glyph glyph-name="i" unicode="i" 
d="M113 0v995h307v-995h-307zM88 1309q0 74 52 126t126 52t126 -52t52 -126t-52 -126q-53 -53 -126 -53t-126 53q-52 52 -52 126z" />
    <glyph glyph-name="j" unicode="j" 
d="M420 995v-1069q0 -202 -84 -310t-285 -108q-90 0 -143 17l16 272q38 -18 80 -18q38 0 62 18t33 56q11 46 12 62q2 34 2 65v1015h307zM88 1309q0 74 52 126t126 52t126 -52t52 -126t-52 -126q-53 -53 -126 -53t-126 53q-52 52 -52 126z" />
    <glyph glyph-name="k" unicode="k" horiz-adv-x="1138" 
d="M109 0v1548h307v-946l340 393h377l-396 -448l406 -547h-387l-336 504h-4v-504h-307z" />
    <glyph glyph-name="l" unicode="l" 
d="M113 0v1548h307v-1548h-307z" />
    <glyph glyph-name="m" unicode="m" horiz-adv-x="1781" 
d="M109 0v995h294v-135h5q35 68 110 113q77 47 180 47q230 0 308 -178q100 178 315 178q352 0 352 -432v-588h-307v580q0 170 -135 170q-187 0 -187 -224v-526h-307v526q0 37 -2 69q-2 27 -13 68q-12 44 -42 65q-31 22 -80 22q-108 0 -146 -69q-38 -70 -38 -185v-496h-307z
" />
    <glyph glyph-name="n" unicode="n" horiz-adv-x="1175" 
d="M109 0v995h294v-135h5q35 68 110 113q77 47 180 47q215 0 292 -122t77 -349v-549h-307v487q0 55 -1 73q-2 29 -9 69q-7 39 -25 63q-16 22 -48 40q-31 18 -77 18q-108 0 -146 -69q-38 -70 -38 -185v-496h-307z" />
    <glyph glyph-name="o" unicode="o" horiz-adv-x="1249" 
d="M72 498q0 235 158 378q159 144 395 144q235 0 394 -144t159 -378t-159 -378q-160 -145 -394 -145q-235 0 -395 145q-158 143 -158 378zM379 498q0 -115 65 -183q66 -69 181 -69q114 0 180 69q65 68 65 183q0 114 -65 182q-67 70 -180 70q-114 0 -181 -70
q-65 -68 -65 -182z" />
    <glyph glyph-name="p" unicode="p" horiz-adv-x="1290" 
d="M137 -467v1462h283v-131h4q40 63 124 109q86 47 181 47q220 0 354 -143q136 -145 136 -371q0 -217 -125 -374t-330 -157q-220 0 -315 131h-5v-573h-307zM420 498q0 -115 65 -183q66 -69 181 -69q114 0 180 69q65 68 65 183q0 114 -65 182q-67 70 -180 70q-114 0 -181 -70
q-65 -68 -65 -182z" />
    <glyph glyph-name="q" unicode="q" horiz-adv-x="1290" 
d="M1153 995v-1462h-307v573h-4q-95 -131 -316 -131q-204 0 -329 157t-125 374q0 227 135 371q134 143 354 143q95 0 181 -47q84 -46 124 -109h4v131h283zM870 498q0 114 -65 182q-67 70 -180 70q-114 0 -181 -70q-65 -68 -65 -182q0 -115 65 -183q66 -69 181 -69
q114 0 180 69q65 68 65 183z" />
    <glyph glyph-name="r" unicode="r" horiz-adv-x="833" 
d="M109 0v995h307v-159h4q100 184 287 184q69 0 102 -10v-281q-72 21 -131 21q-83 0 -138 -23q-54 -23 -81 -72q-28 -51 -35 -102q-8 -56 -8 -137v-416h-307z" />
    <glyph glyph-name="s" unicode="s" horiz-adv-x="948" 
d="M860 889l-188 -187q-68 84 -178 84q-46 0 -79 -20q-34 -21 -34 -61q0 -34 38 -55q37 -21 96 -30q56 -9 125 -29q64 -19 125 -47q59 -27 96 -90q38 -64 38 -151q0 -90 -41 -158t-109 -102q-69 -34 -146 -51q-79 -17 -163 -17q-257 0 -391 136l187 206q90 -108 217 -108
q139 0 139 72q0 42 -53 65q-55 23 -129 38q-68 13 -153 40q-78 24 -130 90q-53 67 -53 170q0 164 123 250q124 86 295 86q245 0 368 -131z" />
    <glyph glyph-name="t" unicode="t" horiz-adv-x="833" 
d="M786 995v-245h-270v-332q0 -94 27 -139q28 -46 119 -46q93 0 124 29v-256q-87 -31 -215 -31q-163 0 -263 73q-99 72 -99 228v474h-197v245h197v295h307v-295h270z" />
    <glyph glyph-name="u" unicode="u" horiz-adv-x="1175" 
d="M1067 995v-995h-295v135h-4q-34 -65 -111 -112q-79 -48 -180 -48q-215 0 -292 122q-76 121 -76 349v549h307v-487q0 -55 1 -73q2 -28 9 -68t25 -64q16 -22 48 -40q30 -17 76 -17q110 0 147 68q38 70 38 186v495h307z" />
    <glyph glyph-name="v" unicode="v" horiz-adv-x="1138" 
d="M416 0l-412 995h332l252 -676h4l233 676h310l-394 -995h-325z" />
    <glyph glyph-name="w" unicode="w" horiz-adv-x="1705" 
d="M354 0l-364 995h327l203 -624h4l170 624h336l184 -624h5l186 624h311l-354 -995h-303l-207 662h-4l-184 -662h-310z" />
    <glyph glyph-name="x" unicode="x" horiz-adv-x="1138" 
d="M-16 0l393 532l-332 463h363l176 -270l170 270h342l-324 -463l383 -532h-362l-218 332l-233 -332h-358z" />
    <glyph glyph-name="y" unicode="y" horiz-adv-x="1138" 
d="M1133 995l-451 -1157q-32 -84 -48 -118q-23 -48 -51 -88q-34 -49 -72 -70q-35 -20 -101 -37q-65 -17 -150 -17q-119 0 -229 37l41 252q72 -30 143 -30q68 0 108 22q39 22 55 50q14 26 42 95l22 58l-436 1003h332l256 -657h4l219 657h316z" />
    <glyph glyph-name="z" unicode="z" horiz-adv-x="1024" 
d="M70 0v307l516 443h-504v245h860v-295l-541 -454h553v-246h-884z" />
    <glyph glyph-name="braceleft" unicode="{" horiz-adv-x="757" 
d="M729 -86v-233h-215q-117 0 -190 73q-74 74 -74 226v352q0 45 -26 76q-27 31 -66 43q-42 13 -72 17q-33 5 -57 5v234q24 0 57 5q30 4 72 17q39 12 66 43q26 31 26 76v354q0 152 72 224q73 73 192 73h215v-233h-100q-43 0 -74 -13q-28 -12 -40 -33q-9 -16 -15 -40
q-4 -16 -4 -45v-330q0 -66 -19 -112q-18 -43 -54 -63t-63 -27q-22 -6 -69 -11v-4q42 -1 69 -9q27 -7 63 -27q35 -19 54 -64q19 -46 19 -111v-332q0 -29 4 -45q6 -24 15 -40q13 -23 40 -34q29 -12 74 -12h100z" />
    <glyph glyph-name="bar" unicode="|" horiz-adv-x="454" 
d="M98 1536h258v-2048h-258v2048z" />
    <glyph glyph-name="braceright" unicode="}" horiz-adv-x="757" 
d="M29 1266v233h221q113 0 185 -74q73 -75 73 -225v-352q0 -45 26 -76q27 -32 65 -43q43 -13 71 -17q33 -5 59 -5v-234q-26 0 -59 -5q-28 -4 -71 -17q-38 -11 -65 -43q-26 -31 -26 -76v-355q0 -152 -72 -224t-192 -72h-215v233h100q45 0 74 12q27 11 40 34q9 16 15 40
q4 16 4 45v330q0 65 19 111q19 45 54 64q37 20 62 27q22 6 70 11v4q-43 1 -70 9q-25 7 -62 27q-36 20 -54 63q-19 46 -19 112v332q0 29 -4 45q-6 24 -15 40q-12 21 -40 33q-31 13 -74 13h-100z" />
    <glyph glyph-name="asciitilde" unicode="~" horiz-adv-x="1363" 
d="M1081 819l74 -221q-92 -176 -256 -176q-82 0 -227 65q-4 2 -10.5 5t-16 7.5t-17.5 7.5q-12 6 -47 20q-39 16 -41 17q-20 8 -42 13q-16 4 -35 4q-39 0 -76 -25q-35 -24 -52 -46q-32 -42 -52 -68l-74 221q92 176 256 176q82 0 227 -65q4 -2 10.5 -5t16 -7.5t17.5 -7.5
q13 -6 47 -20q39 -16 41 -17q20 -7 42 -13q16 -4 35 -4q38 0 76 26q36 25 52 45q32 42 52 68z" />
    <glyph glyph-name="uni00A0" unicode="&#xa0;" horiz-adv-x="606" 
 />
    <glyph glyph-name="exclamdown" unicode="&#xa1;" horiz-adv-x="909" 
d="M301 -455v971h307v-971h-307zM643 819q0 -78 -55 -133t-133 -55t-133 55q-56 56 -56 133t56 133t133 56t133 -56q55 -55 55 -133z" />
    <glyph glyph-name="cent" unicode="&#xa2;" horiz-adv-x="1212" 
d="M635 -166v141q-214 12 -347 160q-132 147 -132 363q0 217 130 356t349 166v135h123v-135q203 0 352 -127l-197 -209q-76 78 -155 78v-529q79 0 170 89l186 -220q-68 -66 -169 -97q-99 -30 -187 -30v-141h-123zM635 233v529q-91 -18 -137 -90q-47 -73 -47 -172
q0 -210 184 -267z" />
    <glyph glyph-name="sterling" unicode="&#xa3;" horiz-adv-x="1212" 
d="M98 0v233h197v406h-197v209h197v145q0 197 136 339q137 143 372 143q274 0 428 -140l-205 -219q-88 88 -186 88q-127 0 -183 -74q-55 -73 -55 -182v-100h320v-209h-320v-406h518v-233h-1022z" />
    <glyph glyph-name="currency" unicode="&#xa4;" horiz-adv-x="1212" 
d="M74 313l100 101q-100 139 -100 311t100 311l-100 101l123 120l100 -98q135 98 309 98t309 -98l101 98l123 -120l-101 -101q101 -137 101 -311t-101 -311l101 -101l-123 -120l-101 98q-135 -98 -309 -98t-309 98l-100 -98zM344 725q0 -115 77 -195q76 -79 185 -79
q110 0 186 79t76 195t-76 195t-186 79q-109 0 -185 -79q-77 -80 -77 -195z" />
    <glyph glyph-name="yen" unicode="&#xa5;" horiz-adv-x="1212" 
d="M446 0v324h-346v196h346v98l-24 41h-322v197h205l-379 594h373l307 -541l307 541h373l-379 -594h205v-197h-321l-25 -41v-98h346v-196h-346v-324h-320z" />
    <glyph glyph-name="brokenbar" unicode="&#xa6;" horiz-adv-x="454" 
d="M98 1382h258v-716h-258v716zM98 358h258v-716h-258v716z" />
    <glyph glyph-name="section" unicode="&#xa7;" horiz-adv-x="1212" 
d="M1059 1264l-258 -148q-21 57 -73 91t-116 34q-52 0 -93 -29q-40 -28 -40 -79q0 -55 66 -99q65 -43 160 -79q108 -41 188 -78q94 -43 160 -121q65 -77 65 -181q0 -81 -48 -155t-124 -111q113 -90 113 -243q0 -128 -82 -216q-80 -86 -192 -123q-110 -36 -230 -36
q-355 0 -477 258l262 129q17 -70 82 -106q64 -35 141 -35q62 0 113 24t51 82q0 45 -46 81q-47 36 -114 60q-61 22 -148 62q-90 42 -149 77q-66 40 -113 112q-46 71 -46 165q0 192 178 303q-129 85 -129 236q0 113 68 194q69 82 166 118t206 36q151 0 276 -52
q126 -53 183 -171zM557 489l209 -96q70 41 70 125q0 91 -134 148l-237 112q-72 -40 -72 -121q0 -32 13 -61q12 -27 44 -48q39 -26 47 -30q30 -15 60 -29z" />
    <glyph glyph-name="dieresis" unicode="&#xa8;" 
d="M51 1143q-72 0 -121 52t-49 124q0 69 49 118q50 50 117 50q72 0 125 -48t53 -120q0 -73 -50 -125q-50 -51 -124 -51zM477 1143q-72 0 -121 52t-49 124q0 69 49 118q50 50 117 50q73 0 125 -48q53 -48 53 -120q0 -73 -50 -125q-49 -51 -124 -51z" />
    <glyph glyph-name="copyright" unicode="&#xa9;" horiz-adv-x="1638" 
d="M1012 614h192q-21 -153 -123 -237t-241 -84q-189 0 -298 124q-110 125 -110 314q0 192 106 312q105 118 298 118q144 0 245 -78t123 -225h-192q-24 119 -160 119q-99 0 -149 -65t-50 -177t54 -186q53 -72 141 -72q156 0 164 137zM57 725q0 315 224 539q223 223 538 223
q316 0 539 -223t223 -539t-223 -539t-539 -223q-315 0 -538 223q-224 224 -224 539zM266 725q0 -239 162 -408q162 -170 391 -170t391 170q162 169 162 408q0 238 -162 408t-391 170t-391 -170t-162 -408z" />
    <glyph glyph-name="ordfeminine" unicode="&#xaa;" horiz-adv-x="714" 
d="M471 883v75h-4q-39 -88 -191 -88q-95 0 -162 49t-67 134q0 58 31 101t73 64t106 33q74 14 109 15q58 2 105 2q0 38 -32 67t-83 29q-87 0 -161 -74l-107 101q112 96 285 96q165 0 230 -74t65 -227v-303h-197zM483 1106v39h-37q-190 0 -190 -84q0 -55 88 -55q58 0 98 31
q41 32 41 69z" />
    <glyph glyph-name="guillemotleft" unicode="&#xab;" horiz-adv-x="1101" 
d="M549 864l-238 -354l238 -354l-187 -125l-325 479l325 479zM1044 864l-237 -354l237 -354l-186 -125l-326 479l326 479z" />
    <glyph glyph-name="logicalnot" unicode="&#xac;" horiz-adv-x="1363" 
d="M985 291v397h-864v258h1122v-655h-258z" />
    <glyph glyph-name="uni00AD" unicode="&#xad;" horiz-adv-x="606" 
d="M555 633v-246h-504v246h504z" />
    <glyph glyph-name="registered" unicode="&#xae;" horiz-adv-x="1638" 
d="M526 334v799h283q340 0 340 -259q0 -199 -186 -223l204 -317h-215l-182 307h-35v-307h-209zM733 973v-172h84q35 0 56 3q24 3 45 23q22 21 22 60q0 86 -123 86h-84zM57 725q0 315 224 539q223 223 538 223q316 0 539 -223t223 -539t-223 -539t-539 -223q-315 0 -538 223
q-224 224 -224 539zM266 725q0 -239 162 -408q162 -170 391 -170t391 170q162 169 162 408q0 238 -162 408t-391 170t-391 -170t-162 -408z" />
    <glyph glyph-name="macron" unicode="&#xaf;" 
d="M614 1407v-197h-696v197h696z" />
    <glyph glyph-name="degree" unicode="&#xb0;" horiz-adv-x="819" 
d="M410 942q76 0 128 52t52 128t-52 128q-53 53 -128 53t-128 -53t-53 -128t53 -128q52 -52 128 -52zM410 770q-146 0 -249 103q-104 104 -104 249t104 249t249 104q144 0 248 -104t104 -249t-104 -249q-103 -103 -248 -103z" />
    <glyph glyph-name="plusminus" unicode="&#xb1;" horiz-adv-x="1363" 
d="M121 662v258h432v262h258v-262h432v-258h-432v-263h-258v263h-432zM121 59v258h1122v-258h-1122z" />
    <glyph glyph-name="twosuperior" unicode="&#xb2;" horiz-adv-x="788" 
d="M49 592v182l381 324q88 73 88 112q0 80 -121 80q-56 0 -94 -32q-36 -31 -41 -78l-209 12q10 141 106 212q95 71 249 71q148 0 239 -66q92 -66 92 -180q0 -97 -27 -142q-26 -43 -98 -98l-286 -221v-4h411v-172h-690z" />
    <glyph glyph-name="threesuperior" unicode="&#xb3;" horiz-adv-x="788" 
d="M293 958v172h69q152 0 152 93q0 67 -115 67q-109 0 -131 -90l-225 41q61 234 356 234q140 0 239 -61q97 -60 97 -173q0 -73 -44 -125q-42 -50 -126 -65v-4q86 -11 137 -69q52 -60 52 -136q0 -127 -103 -195q-101 -67 -258 -67q-301 0 -358 241l223 45q22 -102 135 -102
q139 0 139 98q0 34 -14 54q-16 23 -46 30q-37 9 -57 10q-34 2 -71 2h-51z" />
    <glyph glyph-name="acute" unicode="&#xb4;" 
d="M61 1155l207 295h418l-354 -295h-271z" />
    <glyph glyph-name="paragraph" unicode="&#xb6;" horiz-adv-x="1269" 
d="M483 -272v1007q-220 0 -339 92q-117 90 -117 258q0 205 132 285q133 80 371 80h619v-1722h-221v1525h-223v-1525h-222z" />
    <glyph glyph-name="periodcentered" unicode="&#xb7;" horiz-adv-x="606" 
d="M115 580q0 78 55 133t133 55t133 -55q56 -56 56 -133q0 -78 -56 -134q-55 -55 -133 -55t-133 55t-55 134z" />
    <glyph glyph-name="cedilla" unicode="&#xb8;" 
d="M344 0l-84 -123q74 0 124 -9q51 -9 92 -49q42 -41 42 -112q0 -99 -92 -149t-193 -50q-127 0 -256 62l52 96q93 -35 157 -35q136 0 136 66q0 33 -33 51q-35 19 -70 19q-34 0 -74 -17l-65 60l127 190h137z" />
    <glyph glyph-name="onesuperior" unicode="&#xb9;" horiz-adv-x="788" 
d="M375 592v649l-182 -154l-119 136l325 239h197v-870h-221z" />
    <glyph glyph-name="ordmasculine" unicode="&#xba;" horiz-adv-x="813" 
d="M47 1178q0 137 103 223t256 86t257 -86q103 -85 103 -223q0 -142 -102 -225q-103 -83 -258 -83t-258 83q-101 82 -101 225zM256 1178q2 -58 42 -97t108 -39q67 0 109 39t42 97q0 56 -42 97q-41 40 -109 40t-109 -39t-41 -98z" />
    <glyph glyph-name="guillemotright" unicode="&#xbb;" horiz-adv-x="1101" 
d="M553 156l238 354l-238 354l186 125l326 -479l-326 -479zM57 156l238 354l-238 354l187 125l325 -479l-325 -479z" />
    <glyph glyph-name="onequarter" unicode="&#xbc;" horiz-adv-x="1820" 
d="M1466 0v174h-428v160l408 536h242v-524h116v-172h-116v-174h-222zM1466 346v279h-4l-202 -279h206zM317 592v649l-182 -154l-119 136l326 239h197v-870h-222zM387 23l830 1493l172 -97l-846 -1485z" />
    <glyph glyph-name="onehalf" unicode="&#xbd;" horiz-adv-x="1820" 
d="M317 592v649l-182 -154l-119 136l326 239h197v-870h-222zM1114 0v182l381 324q88 73 88 112q0 80 -121 80q-57 0 -94 -31q-36 -30 -41 -79l-209 12q10 141 106 212q95 71 249 71q147 0 239 -66t92 -180q0 -96 -27 -141t-98 -99l-286 -221v-4h411v-172h-690zM387 23
l830 1493l172 -97l-846 -1485z" />
    <glyph glyph-name="threequarters" unicode="&#xbe;" horiz-adv-x="1820" 
d="M1475 0v174h-428v160l407 536h242v-524h116v-172h-116v-174h-221zM1475 346v279h-5l-202 -279h207zM266 958v172h70q151 0 151 93q0 67 -114 67q-109 0 -131 -90l-224 41q57 234 355 234q139 0 238 -61q98 -60 98 -173q0 -73 -44 -125q-42 -50 -126 -65v-4
q86 -11 137 -69t51 -136q0 -128 -102 -195q-101 -67 -258 -67q-302 0 -359 241l223 45q23 -102 136 -102q139 0 139 98q0 34 -14 54q-16 23 -47 30q-37 9 -57 10q-34 2 -71 2h-51zM436 23l830 1493l172 -97l-846 -1485z" />
    <glyph glyph-name="questiondown" unicode="&#xbf;" horiz-adv-x="1138" 
d="M696 516v-90q0 -116 -71 -184q-42 -42 -102 -95q-65 -57 -90 -81q-25 -23 -48 -62q-22 -37 -22 -70q0 -65 40 -104q41 -39 107 -39q92 0 144 51q53 51 59 131l315 -20q-21 -213 -158 -329t-354 -116q-196 0 -329 107q-132 107 -132 297q0 116 55 203t199 200
q80 62 80 142v59h307zM731 819q0 -78 -55 -133t-133 -55t-133 55q-56 56 -56 133t56 133t133 56t133 -56q55 -55 55 -133z" />
    <glyph glyph-name="Agrave" unicode="&#xc0;" horiz-adv-x="1517" 
d="M-2 0l627 1450h264l631 -1450h-361l-125 307h-563l-121 -307h-352zM926 578l-178 450l-177 -450h355zM762 1851l207 -295h-271l-354 295h418z" />
    <glyph glyph-name="Aacute" unicode="&#xc1;" horiz-adv-x="1517" 
d="M-2 0l627 1450h264l631 -1450h-361l-125 307h-563l-121 -307h-352zM926 578l-178 450l-177 -450h355zM555 1556l207 295h418l-355 -295h-270z" />
    <glyph glyph-name="Acircumflex" unicode="&#xc2;" horiz-adv-x="1517" 
d="M-2 0l627 1450h264l631 -1450h-361l-125 307h-563l-121 -307h-352zM926 578l-178 450l-177 -450h355zM1167 1556h-282l-129 160l-127 -160h-277l244 295h334z" />
    <glyph glyph-name="Atilde" unicode="&#xc3;" horiz-adv-x="1517" 
d="M-2 0l627 1450h264l631 -1450h-361l-125 307h-563l-121 -307h-352zM926 578l-178 450l-177 -450h355zM520 1569h-162q18 116 86 199t174 83q75 0 179 -43q84 -30 114 -30q57 0 90 73h160q-49 -282 -266 -282q-71 0 -160 43t-129 43q-56 0 -86 -86z" />
    <glyph glyph-name="Adieresis" unicode="&#xc4;" horiz-adv-x="1517" 
d="M-2 0l627 1450h264l631 -1450h-361l-125 307h-563l-121 -307h-352zM926 578l-178 450l-177 -450h355zM545 1544q-71 0 -121 53q-49 52 -49 123q0 69 49 118q50 50 117 50q73 0 126 -48q52 -48 52 -120q0 -73 -50 -125q-49 -51 -124 -51zM971 1544q-71 0 -121 53
q-49 52 -49 123q0 69 49 118q50 50 117 50q73 0 126 -48q52 -48 52 -120q0 -73 -50 -125q-49 -51 -124 -51z" />
    <glyph glyph-name="Aring" unicode="&#xc5;" horiz-adv-x="1517" 
d="M-2 0l627 1450h264l631 -1450h-361l-125 307h-563l-121 -307h-352zM926 578l-178 450l-177 -450h355zM760 1497q-92 0 -160 68t-68 159q0 92 68 160t160 68t160 -68q67 -67 67 -160q0 -92 -67 -159q-68 -68 -160 -68zM655 1724q0 -42 31 -73t74 -31t74 31q30 30 30 73
q0 44 -30 74q-31 31 -74 31t-74 -31t-31 -74z" />
    <glyph glyph-name="AE" unicode="&#xc6;" horiz-adv-x="2123" 
d="M1094 0v307h-539l-195 -307h-391l920 1450h1102v-295h-578v-270h529v-295h-529v-295h602v-295h-921zM1094 578v577h-35l-367 -577h402z" />
    <glyph glyph-name="Ccedilla" unicode="&#xc7;" horiz-adv-x="1402" 
d="M1341 1274l-245 -201q-101 119 -275 119q-183 0 -301 -132q-119 -133 -119 -335q0 -201 118 -334t292 -133q194 0 299 156l266 -199q-90 -126 -228 -188q-143 -64 -296 -64q-23 0 -39 2l-59 -88q75 0 124 -9q51 -9 92 -49q42 -41 42 -112q0 -99 -92 -149t-193 -50
q-127 0 -256 62l51 96q93 -35 158 -35q135 0 135 66q0 33 -33 51q-35 19 -69 19t-74 -17l-66 60l111 167q-278 49 -446 249q-168 199 -168 499q0 345 219 553q220 209 563 209q136 0 270 -51t219 -162z" />
    <glyph glyph-name="Egrave" unicode="&#xc8;" horiz-adv-x="1290" 
d="M160 0v1450h985v-295h-666v-270h629v-295h-629v-295h703v-295h-1022zM647 1851l207 -295h-270l-355 295h418z" />
    <glyph glyph-name="Eacute" unicode="&#xc9;" horiz-adv-x="1290" 
d="M160 0v1450h985v-295h-666v-270h629v-295h-629v-295h703v-295h-1022zM440 1556l207 295h418l-354 -295h-271z" />
    <glyph glyph-name="Ecircumflex" unicode="&#xca;" horiz-adv-x="1290" 
d="M160 0v1450h985v-295h-666v-270h629v-295h-629v-295h703v-295h-1022zM1053 1556h-283l-129 160l-127 -160h-276l243 295h334z" />
    <glyph glyph-name="Edieresis" unicode="&#xcb;" horiz-adv-x="1290" 
d="M160 0v1450h985v-295h-666v-270h629v-295h-629v-295h703v-295h-1022zM430 1544q-71 0 -121 53q-49 52 -49 123q0 69 49 118q50 50 117 50q74 0 126 -48t52 -120q0 -73 -50 -125q-50 -51 -124 -51zM856 1544q-71 0 -121 53q-49 52 -49 123q0 69 49 118q50 50 117 50
q74 0 126 -48t52 -120q0 -73 -50 -125q-50 -51 -124 -51z" />
    <glyph glyph-name="Igrave" unicode="&#xcc;" horiz-adv-x="606" 
d="M143 0v1450h320v-1450h-320zM305 1851l207 -295h-270l-355 295h418z" />
    <glyph glyph-name="Iacute" unicode="&#xcd;" horiz-adv-x="606" 
d="M143 0v1450h320v-1450h-320zM98 1556l207 295h418l-354 -295h-271z" />
    <glyph glyph-name="Icircumflex" unicode="&#xce;" horiz-adv-x="606" 
d="M143 0v1450h320v-1450h-320zM711 1556h-283l-129 160l-127 -160h-276l243 295h334z" />
    <glyph glyph-name="Idieresis" unicode="&#xcf;" horiz-adv-x="606" 
d="M143 0v1450h320v-1450h-320zM88 1544q-71 0 -121 53q-49 52 -49 123q0 69 49 118q50 50 117 50q74 0 126 -48t52 -120q0 -73 -50 -125q-49 -51 -124 -51zM514 1544q-71 0 -121 53q-49 52 -49 123q0 69 49 118q50 50 117 50q74 0 126 -48t52 -120q0 -73 -50 -125
q-50 -51 -124 -51z" />
    <glyph glyph-name="Eth" unicode="&#xd0;" horiz-adv-x="1554" 
d="M467 1155v-295h405v-209h-405v-356h166q520 0 520 442q0 203 -141 311q-140 107 -357 107h-188zM147 0v651h-122v209h122v590h480q184 0 332 -40q153 -41 271 -124q119 -83 187 -228t68 -337q0 -224 -115 -392q-114 -167 -297 -248t-403 -81h-523z" />
    <glyph glyph-name="Ntilde" unicode="&#xd1;" horiz-adv-x="1669" 
d="M147 0v1450h435l616 -1008h4v1008h320v-1450h-418l-633 1032h-4v-1032h-320zM596 1569h-162q18 116 86 199t174 83q74 0 178 -43q84 -30 115 -30q57 0 90 73h160q-49 -282 -266 -282q-71 0 -160 43t-129 43q-56 0 -86 -86z" />
    <glyph glyph-name="Ograve" unicode="&#xd2;" horiz-adv-x="1703" 
d="M70 725q0 345 219 553q220 209 563 209t563 -209q219 -208 219 -553q0 -344 -219 -553q-220 -209 -563 -209t-563 209q-219 209 -219 553zM401 725q0 -206 124 -336q125 -131 327 -131t327 131q124 130 124 336t-124 336q-125 131 -327 131t-327 -131
q-124 -130 -124 -336zM854 1851l207 -295h-270l-355 295h418z" />
    <glyph glyph-name="Oacute" unicode="&#xd3;" horiz-adv-x="1703" 
d="M70 725q0 345 219 553q220 209 563 209t563 -209q219 -208 219 -553q0 -344 -219 -553q-220 -209 -563 -209t-563 209q-219 209 -219 553zM401 725q0 -206 124 -336q125 -131 327 -131t327 131q124 130 124 336t-124 336q-125 131 -327 131t-327 -131
q-124 -130 -124 -336zM647 1556l207 295h418l-354 -295h-271z" />
    <glyph glyph-name="Ocircumflex" unicode="&#xd4;" horiz-adv-x="1703" 
d="M70 725q0 345 219 553q220 209 563 209t563 -209q219 -208 219 -553q0 -344 -219 -553q-220 -209 -563 -209t-563 209q-219 209 -219 553zM401 725q0 -206 124 -336q125 -131 327 -131t327 131q124 130 124 336t-124 336q-125 131 -327 131t-327 -131
q-124 -130 -124 -336zM1260 1556h-283l-129 160l-127 -160h-277l244 295h334z" />
    <glyph glyph-name="Otilde" unicode="&#xd5;" horiz-adv-x="1703" 
d="M70 725q0 345 219 553q220 209 563 209t563 -209q219 -208 219 -553q0 -344 -219 -553q-220 -209 -563 -209t-563 209q-219 209 -219 553zM401 725q0 -206 124 -336q125 -131 327 -131t327 131q124 130 124 336t-124 336q-125 131 -327 131t-327 -131
q-124 -130 -124 -336zM612 1569h-161q18 116 86 199t174 83q74 0 178 -43q84 -30 115 -30q57 0 90 73h159q-49 -282 -266 -282q-71 0 -160 43t-129 43q-56 0 -86 -86z" />
    <glyph glyph-name="Odieresis" unicode="&#xd6;" horiz-adv-x="1703" 
d="M70 725q0 345 219 553q220 209 563 209t563 -209q219 -208 219 -553q0 -344 -219 -553q-220 -209 -563 -209t-563 209q-219 209 -219 553zM401 725q0 -206 124 -336q125 -131 327 -131t327 131q124 130 124 336t-124 336q-125 131 -327 131t-327 -131
q-124 -130 -124 -336zM637 1544q-71 0 -121 53q-49 52 -49 123q0 69 49 118q50 50 117 50q73 0 126 -48q52 -48 52 -120q0 -73 -50 -125q-49 -51 -124 -51zM1063 1544q-71 0 -121 53q-49 52 -49 123q0 69 49 118q50 50 117 50q73 0 126 -48q52 -48 52 -120q0 -73 -50 -125
q-49 -51 -124 -51z" />
    <glyph glyph-name="multiply" unicode="&#xd7;" horiz-adv-x="1363" 
d="M131 973l191 194l362 -358l352 356l183 -176l-355 -368l369 -355l-189 -190l-360 360l-362 -362l-183 176l357 371z" />
    <glyph glyph-name="Oslash" unicode="&#xd8;" horiz-adv-x="1703" 
d="M70 -6l190 209q-190 206 -190 522q0 345 219 553q220 209 563 209q268 0 465 -131l188 205l113 -101l-184 -200q200 -206 200 -535q0 -344 -219 -553q-220 -209 -563 -209q-281 0 -477 139l-191 -206zM481 444l623 678q-110 70 -252 70q-202 0 -327 -131
q-124 -130 -124 -336q0 -159 80 -281zM1212 1018l-624 -682q111 -78 264 -78q202 0 327 131q124 130 124 336q0 173 -91 293z" />
    <glyph glyph-name="Ugrave" unicode="&#xd9;" horiz-adv-x="1517" 
d="M1370 1450v-891q0 -266 -159 -431t-451 -165q-294 0 -453 165q-160 166 -160 431v891h320v-879q0 -135 83 -224t210 -89q126 0 208 90q83 91 83 223v879h319zM762 1851l207 -295h-271l-354 295h418z" />
    <glyph glyph-name="Uacute" unicode="&#xda;" horiz-adv-x="1517" 
d="M1370 1450v-891q0 -266 -159 -431t-451 -165q-294 0 -453 165q-160 166 -160 431v891h320v-879q0 -135 83 -224t210 -89q126 0 208 90q83 91 83 223v879h319zM555 1556l207 295h418l-355 -295h-270z" />
    <glyph glyph-name="Ucircumflex" unicode="&#xdb;" horiz-adv-x="1517" 
d="M1370 1450v-891q0 -266 -159 -431t-451 -165q-294 0 -453 165q-160 166 -160 431v891h320v-879q0 -135 83 -224t210 -89q126 0 208 90q83 91 83 223v879h319zM1167 1556h-282l-129 160l-127 -160h-277l244 295h334z" />
    <glyph glyph-name="Udieresis" unicode="&#xdc;" horiz-adv-x="1517" 
d="M1370 1450v-891q0 -266 -159 -431t-451 -165q-294 0 -453 165q-160 166 -160 431v891h320v-879q0 -135 83 -224t210 -89q126 0 208 90q83 91 83 223v879h319zM545 1544q-71 0 -121 53q-49 52 -49 123q0 69 49 118q50 50 117 50q73 0 126 -48q52 -48 52 -120
q0 -73 -50 -125q-49 -51 -124 -51zM971 1544q-71 0 -121 53q-49 52 -49 123q0 69 49 118q50 50 117 50q73 0 126 -48q52 -48 52 -120q0 -73 -50 -125q-49 -51 -124 -51z" />
    <glyph glyph-name="Yacute" unicode="&#xdd;" horiz-adv-x="1327" 
d="M504 0v618l-545 832h397l308 -543l325 543h379l-545 -832v-618h-319zM459 1610l207 295h417l-354 -295h-270z" />
    <glyph glyph-name="Thorn" unicode="&#xde;" horiz-adv-x="1290" 
d="M147 0v1450h320v-258h219q551 0 551 -440q0 -445 -537 -445h-233v-307h-320zM467 922v-344h213q225 0 225 174q0 170 -274 170h-164z" />
    <glyph glyph-name="germandbls" unicode="&#xdf;" horiz-adv-x="1290" 
d="M109 0v1051q0 522 524 522q192 0 333 -96q140 -95 140 -279q0 -242 -209 -328v-4q155 -30 238 -144q82 -113 82 -278q0 -214 -137 -342q-136 -127 -351 -127q-90 0 -190 25v250q54 -17 100 -17q120 0 202 62q81 61 81 178q0 124 -77 187t-204 63h-41v258h25q80 0 133 42
t53 120q0 74 -55 117t-131 43q-94 0 -152 -55q-57 -54 -57 -146v-1102h-307z" />
    <glyph glyph-name="agrave" unicode="&#xe0;" horiz-adv-x="1099" 
d="M733 0v125h-4q-95 -150 -315 -150q-148 0 -251 82q-104 83 -104 226q0 70 26 128q25 57 62 92t99 61q63 26 113 39q53 14 130 21q62 6 125 8q31 1 119 1q0 79 -57 129q-56 49 -139 49q-143 0 -250 -119l-164 168q169 160 438 160q256 0 355 -125q100 -126 100 -389v-506
h-283zM733 436h-76q-303 0 -303 -143q0 -51 44 -80t102 -29q97 0 165 49t68 138v65zM553 1450l207 -295h-271l-354 295h418z" />
    <glyph glyph-name="aacute" unicode="&#xe1;" horiz-adv-x="1099" 
d="M733 0v125h-4q-95 -150 -315 -150q-148 0 -251 82q-104 83 -104 226q0 70 26 128q25 57 62 92t99 61q63 26 113 39q53 14 130 21q62 6 125 8q31 1 119 1q0 79 -57 129q-56 49 -139 49q-143 0 -250 -119l-164 168q169 160 438 160q256 0 355 -125q100 -126 100 -389v-506
h-283zM733 436h-76q-303 0 -303 -143q0 -51 44 -80t102 -29q97 0 165 49t68 138v65zM346 1155l207 295h418l-355 -295h-270z" />
    <glyph glyph-name="acircumflex" unicode="&#xe2;" horiz-adv-x="1099" 
d="M733 0v125h-4q-95 -150 -315 -150q-148 0 -251 82q-104 83 -104 226q0 70 26 128q25 57 62 92t99 61q63 26 113 39q53 14 130 21q62 6 125 8q31 1 119 1q0 79 -57 129q-56 49 -139 49q-143 0 -250 -119l-164 168q169 160 438 160q256 0 355 -125q100 -126 100 -389v-506
h-283zM733 436h-76q-303 0 -303 -143q0 -51 44 -80t102 -29q97 0 165 49t68 138v65zM958 1155h-282l-129 160l-127 -160h-277l244 295h334z" />
    <glyph glyph-name="atilde" unicode="&#xe3;" horiz-adv-x="1099" 
d="M733 0v125h-4q-95 -150 -315 -150q-148 0 -251 82q-104 83 -104 226q0 70 26 128q25 57 62 92t99 61q63 26 113 39q53 14 130 21q62 6 125 8q31 1 119 1q0 79 -57 129q-56 49 -139 49q-143 0 -250 -119l-164 168q169 160 438 160q256 0 355 -125q100 -126 100 -389v-506
h-283zM733 436h-76q-303 0 -303 -143q0 -51 44 -80t102 -29q97 0 165 49t68 138v65zM311 1167h-161q18 117 86 200t174 83q74 0 178 -43q82 -31 114 -31q58 0 91 74h159q-50 -283 -266 -283q-62 0 -160 43q-89 43 -129 43q-59 0 -86 -86z" />
    <glyph glyph-name="adieresis" unicode="&#xe4;" horiz-adv-x="1099" 
d="M733 0v125h-4q-95 -150 -315 -150q-148 0 -251 82q-104 83 -104 226q0 70 26 128q25 57 62 92t99 61q63 26 113 39q53 14 130 21q62 6 125 8q31 1 119 1q0 79 -57 129q-56 49 -139 49q-143 0 -250 -119l-164 168q169 160 438 160q256 0 355 -125q100 -126 100 -389v-506
h-283zM733 436h-76q-303 0 -303 -143q0 -51 44 -80t102 -29q97 0 165 49t68 138v65zM336 1143q-72 0 -121 52t-49 124q0 69 49 118q50 50 117 50q72 0 125 -48t53 -120q0 -73 -50 -125q-49 -51 -124 -51zM762 1143q-72 0 -121 52t-49 124q0 69 49 118q50 50 117 50
q72 0 125 -48t53 -120q0 -73 -50 -125q-50 -51 -124 -51z" />
    <glyph glyph-name="aring" unicode="&#xe5;" horiz-adv-x="1099" 
d="M733 0v125h-4q-95 -150 -315 -150q-148 0 -251 82q-104 83 -104 226q0 70 26 128q25 57 62 92t99 61q63 26 113 39q53 14 130 21q62 6 125 8q31 1 119 1q0 79 -57 129q-56 49 -139 49q-143 0 -250 -119l-164 168q169 160 438 160q256 0 355 -125q100 -126 100 -389v-506
h-283zM733 436h-76q-303 0 -303 -143q0 -51 44 -80t102 -29q97 0 165 49t68 138v65zM551 1116q-92 0 -160 68q-67 67 -67 159q0 93 67 160q68 68 160 68t160 -68q67 -67 67 -160q0 -92 -67 -159q-68 -68 -160 -68zM446 1343q0 -42 31 -73t74 -31t74 31q30 30 30 73
q0 44 -30 74q-31 31 -74 31t-74 -31t-31 -74z" />
    <glyph glyph-name="ae" unicode="&#xe6;" horiz-adv-x="1744" 
d="M287 692l-164 168q169 160 438 160q202 0 324 -121q124 121 334 121q215 0 341 -141t126 -381v-97h-713q18 -87 81 -140q62 -52 150 -52q131 0 219 121l215 -158q-74 -92 -186 -144q-114 -53 -233 -53q-285 0 -398 162q-117 -162 -407 -162q-148 0 -251 82
q-104 83 -104 226q0 74 29 134q28 59 84 93q58 36 111 56q60 23 137 31q89 10 133 11q68 2 125 2h37q0 91 -48 146t-130 55q-143 0 -250 -119zM354 285q0 -101 158 -101q203 0 203 217h-37q-324 0 -324 -116zM973 610h405q2 78 -52 133q-54 56 -136 56q-96 0 -154 -56
q-57 -56 -63 -133z" />
    <glyph glyph-name="ccedilla" unicode="&#xe7;" horiz-adv-x="987" 
d="M985 887l-203 -213q-52 76 -151 76q-113 0 -180 -70q-66 -69 -66 -182q0 -114 66 -183t180 -69q88 0 151 76l203 -213q-131 -134 -354 -134q-13 0 -19 2l-67 -100q75 0 124 -9q51 -9 92 -49q42 -41 42 -112q0 -99 -92 -149t-193 -50q-127 0 -256 62l51 96q93 -35 158 -35
q135 0 135 66q0 33 -33 51q-35 19 -69 19t-74 -17l-65 60l122 184q-182 39 -296 174q-113 134 -113 330q0 234 159 378t394 144q224 0 354 -133z" />
    <glyph glyph-name="egrave" unicode="&#xe8;" horiz-adv-x="1175" 
d="M836 330l215 -158q-73 -91 -187 -144t-233 -53q-234 0 -394 145q-159 144 -159 378t159 378t394 144q215 0 341 -141t126 -381v-97h-713q18 -87 81 -140q62 -52 150 -52q132 0 220 121zM385 610h406q1 77 -53 133t-136 56q-95 0 -153 -56q-58 -57 -64 -133zM590 1450
l207 -295h-271l-354 295h418z" />
    <glyph glyph-name="eacute" unicode="&#xe9;" horiz-adv-x="1175" 
d="M836 330l215 -158q-73 -91 -187 -144t-233 -53q-234 0 -394 145q-159 144 -159 378t159 378t394 144q215 0 341 -141t126 -381v-97h-713q18 -87 81 -140q62 -52 150 -52q132 0 220 121zM385 610h406q1 77 -53 133t-136 56q-95 0 -153 -56q-58 -57 -64 -133zM383 1155
l207 295h418l-355 -295h-270z" />
    <glyph glyph-name="ecircumflex" unicode="&#xea;" horiz-adv-x="1175" 
d="M836 330l215 -158q-73 -91 -187 -144t-233 -53q-234 0 -394 145q-159 144 -159 378t159 378t394 144q215 0 341 -141t126 -381v-97h-713q18 -87 81 -140q62 -52 150 -52q132 0 220 121zM385 610h406q1 77 -53 133t-136 56q-95 0 -153 -56q-58 -57 -64 -133zM995 1155
h-282l-129 160l-127 -160h-277l244 295h334z" />
    <glyph glyph-name="edieresis" unicode="&#xeb;" horiz-adv-x="1175" 
d="M836 330l215 -158q-73 -91 -187 -144t-233 -53q-234 0 -394 145q-159 144 -159 378t159 378t394 144q215 0 341 -141t126 -381v-97h-713q18 -87 81 -140q62 -52 150 -52q132 0 220 121zM385 610h406q1 77 -53 133t-136 56q-95 0 -153 -56q-58 -57 -64 -133zM373 1143
q-72 0 -121 52t-49 124q0 69 49 118q50 50 117 50q73 0 125 -48q53 -48 53 -120q0 -73 -50 -125q-50 -51 -124 -51zM799 1143q-72 0 -121 52t-49 124q0 69 49 118q50 50 117 50q73 0 125 -48q53 -48 53 -120q0 -73 -50 -125q-49 -51 -124 -51z" />
    <glyph glyph-name="igrave" unicode="&#xec;" 
d="M113 0v995h307v-995h-307zM268 1450l207 -295h-270l-355 295h418z" />
    <glyph glyph-name="iacute" unicode="&#xed;" 
d="M113 0v995h307v-995h-307zM61 1155l207 295h418l-354 -295h-271z" />
    <glyph glyph-name="icircumflex" unicode="&#xee;" 
d="M113 0v995h307v-995h-307zM674 1155h-283l-129 160l-127 -160h-276l243 295h334z" />
    <glyph glyph-name="idieresis" unicode="&#xef;" 
d="M113 0v995h307v-995h-307zM51 1143q-72 0 -121 52t-49 124q0 69 49 118q50 50 117 50q72 0 125 -48t53 -120q0 -73 -50 -125q-50 -51 -124 -51zM477 1143q-72 0 -121 52t-49 124q0 69 49 118q50 50 117 50q73 0 125 -48q53 -48 53 -120q0 -73 -50 -125q-49 -51 -124 -51z
" />
    <glyph glyph-name="eth" unicode="&#xf0;" horiz-adv-x="1249" 
d="M920 1591l157 -137l-252 -104q78 -83 114 -129q51 -65 108 -156q62 -99 97 -223q34 -121 34 -260q0 -281 -145 -446q-143 -163 -408 -161q-235 0 -395 145q-158 143 -158 378q0 228 154 375t354 147q133 0 200 -53l4 4q-118 167 -227 264l-217 -92l-147 139l221 94
q-64 67 -142 121l250 143q92 -72 164 -147zM379 498q0 -115 65 -183q66 -69 181 -69q114 0 180 69q65 68 65 183q0 114 -65 182q-67 70 -180 70q-114 0 -181 -70q-65 -68 -65 -182z" />
    <glyph glyph-name="ntilde" unicode="&#xf1;" horiz-adv-x="1175" 
d="M109 0v995h294v-135h5q35 68 110 113q77 47 180 47q215 0 292 -122t77 -349v-549h-307v487q0 55 -1 73q-2 29 -9 69q-7 39 -25 63q-16 22 -48 40q-31 18 -77 18q-108 0 -146 -69q-38 -70 -38 -185v-496h-307zM348 1167h-162q18 117 86 200t174 83q75 0 179 -43
q82 -31 114 -31q57 0 90 74h160q-50 -283 -266 -283q-62 0 -160 43q-89 43 -129 43q-59 0 -86 -86z" />
    <glyph glyph-name="ograve" unicode="&#xf2;" horiz-adv-x="1249" 
d="M72 498q0 235 158 378q159 144 395 144q235 0 394 -144t159 -378t-159 -378q-160 -145 -394 -145q-235 0 -395 145q-158 143 -158 378zM379 498q0 -115 65 -183q66 -69 181 -69q114 0 180 69q65 68 65 183q0 114 -65 182q-67 70 -180 70q-114 0 -181 -70
q-65 -68 -65 -182zM627 1450l207 -295h-271l-354 295h418z" />
    <glyph glyph-name="oacute" unicode="&#xf3;" horiz-adv-x="1249" 
d="M72 498q0 235 158 378q159 144 395 144q235 0 394 -144t159 -378t-159 -378q-160 -145 -394 -145q-235 0 -395 145q-158 143 -158 378zM379 498q0 -115 65 -183q66 -69 181 -69q114 0 180 69q65 68 65 183q0 114 -65 182q-67 70 -180 70q-114 0 -181 -70
q-65 -68 -65 -182zM420 1155l207 295h417l-354 -295h-270z" />
    <glyph glyph-name="ocircumflex" unicode="&#xf4;" horiz-adv-x="1249" 
d="M72 498q0 235 158 378q159 144 395 144q235 0 394 -144t159 -378t-159 -378q-160 -145 -394 -145q-235 0 -395 145q-158 143 -158 378zM379 498q0 -115 65 -183q66 -69 181 -69q114 0 180 69q65 68 65 183q0 114 -65 182q-67 70 -180 70q-114 0 -181 -70
q-65 -68 -65 -182zM1032 1155h-282l-129 160l-127 -160h-277l244 295h334z" />
    <glyph glyph-name="otilde" unicode="&#xf5;" horiz-adv-x="1249" 
d="M72 498q0 235 158 378q159 144 395 144q235 0 394 -144t159 -378t-159 -378q-160 -145 -394 -145q-235 0 -395 145q-158 143 -158 378zM379 498q0 -115 65 -183q66 -69 181 -69q114 0 180 69q65 68 65 183q0 114 -65 182q-67 70 -180 70q-114 0 -181 -70
q-65 -68 -65 -182zM385 1167h-162q18 117 86 200t174 83q75 0 179 -43q82 -31 114 -31q57 0 90 74h160q-50 -283 -266 -283q-62 0 -160 43q-89 43 -129 43q-59 0 -86 -86z" />
    <glyph glyph-name="odieresis" unicode="&#xf6;" horiz-adv-x="1249" 
d="M72 498q0 235 158 378q159 144 395 144q235 0 394 -144t159 -378t-159 -378q-160 -145 -394 -145q-235 0 -395 145q-158 143 -158 378zM379 498q0 -115 65 -183q66 -69 181 -69q114 0 180 69q65 68 65 183q0 114 -65 182q-67 70 -180 70q-114 0 -181 -70
q-65 -68 -65 -182zM410 1143q-72 0 -121 52t-49 124q0 69 49 118q50 50 117 50q72 0 124 -48q54 -49 54 -120q0 -73 -50 -125q-50 -51 -124 -51zM836 1143q-72 0 -121 52t-49 124q0 69 49 118q50 50 116 50q73 0 125 -48q54 -49 54 -120q0 -72 -51 -125q-49 -51 -123 -51z
" />
    <glyph glyph-name="divide" unicode="&#xf7;" horiz-adv-x="1363" 
d="M121 492v258h1122v-258h-1122zM506 233q0 72 52 124q53 53 124 53t124 -53q52 -52 52 -124q0 -71 -52 -123q-53 -53 -124 -53t-124 53q-52 52 -52 123zM506 1008q0 72 52 124t124 52t124 -52t52 -124t-52 -124q-53 -53 -124 -53t-124 53q-52 52 -52 124z" />
    <glyph glyph-name="oslash" unicode="&#xf8;" horiz-adv-x="1249" 
d="M53 12l144 144q-125 137 -125 342q0 235 158 378q159 144 395 144q193 0 338 -100l137 137l96 -92l-135 -136q117 -137 117 -331q0 -234 -159 -378q-160 -145 -394 -145q-184 0 -326 95l-149 -150zM410 369l348 348q-56 33 -133 33q-114 0 -181 -70q-65 -68 -65 -182
q0 -72 31 -129zM846 614l-342 -340q52 -28 121 -28q114 0 180 69q65 68 65 183q0 64 -24 116z" />
    <glyph glyph-name="ugrave" unicode="&#xf9;" horiz-adv-x="1175" 
d="M1067 995v-995h-295v135h-4q-34 -65 -111 -112q-79 -48 -180 -48q-215 0 -292 122q-76 121 -76 349v549h307v-487q0 -55 1 -73q2 -28 9 -68t25 -64q16 -22 48 -40q30 -17 76 -17q110 0 147 68q38 70 38 186v495h307zM590 1450l207 -295h-271l-354 295h418z" />
    <glyph glyph-name="uacute" unicode="&#xfa;" horiz-adv-x="1175" 
d="M1067 995v-995h-295v135h-4q-34 -65 -111 -112q-79 -48 -180 -48q-215 0 -292 122q-76 121 -76 349v549h307v-487q0 -55 1 -73q2 -28 9 -68t25 -64q16 -22 48 -40q30 -17 76 -17q110 0 147 68q38 70 38 186v495h307zM383 1155l207 295h418l-355 -295h-270z" />
    <glyph glyph-name="ucircumflex" unicode="&#xfb;" horiz-adv-x="1175" 
d="M1067 995v-995h-295v135h-4q-34 -65 -111 -112q-79 -48 -180 -48q-215 0 -292 122q-76 121 -76 349v549h307v-487q0 -55 1 -73q2 -28 9 -68t25 -64q16 -22 48 -40q30 -17 76 -17q110 0 147 68q38 70 38 186v495h307zM995 1155h-282l-129 160l-127 -160h-277l244 295h334z
" />
    <glyph glyph-name="udieresis" unicode="&#xfc;" horiz-adv-x="1175" 
d="M1067 995v-995h-295v135h-4q-34 -65 -111 -112q-79 -48 -180 -48q-215 0 -292 122q-76 121 -76 349v549h307v-487q0 -55 1 -73q2 -28 9 -68t25 -64q16 -22 48 -40q30 -17 76 -17q110 0 147 68q38 70 38 186v495h307zM373 1143q-72 0 -121 52t-49 124q0 69 49 118
q50 50 117 50q73 0 125 -48q53 -48 53 -120q0 -73 -50 -125q-50 -51 -124 -51zM799 1143q-72 0 -121 52t-49 124q0 69 49 118q50 50 117 50q73 0 125 -48q53 -48 53 -120q0 -73 -50 -125q-49 -51 -124 -51z" />
    <glyph glyph-name="yacute" unicode="&#xfd;" horiz-adv-x="1138" 
d="M1133 995l-451 -1157q-32 -84 -48 -118q-23 -48 -51 -88q-34 -49 -72 -70q-35 -20 -101 -37q-65 -17 -150 -17q-119 0 -229 37l41 252q72 -30 143 -30q68 0 108 22q39 22 55 50q14 26 42 95l22 58l-436 1003h332l256 -657h4l219 657h316zM365 1155l206 295h418l-354 -295
h-270z" />
    <glyph glyph-name="thorn" unicode="&#xfe;" horiz-adv-x="1290" 
d="M137 -467v2015h307v-659h5q34 59 114 95q79 36 166 36q220 0 354 -143q136 -145 136 -371q0 -217 -125 -374t-330 -157q-220 0 -315 131h-5v-573h-307zM420 498q0 -115 65 -183q66 -69 181 -69q114 0 180 69q65 68 65 183q0 114 -65 182q-67 70 -180 70q-114 0 -181 -70
q-65 -68 -65 -182z" />
    <glyph glyph-name="ydieresis" unicode="&#xff;" horiz-adv-x="1138" 
d="M1133 995l-451 -1157q-32 -84 -48 -118q-23 -48 -51 -88q-34 -49 -72 -70q-35 -20 -101 -37q-65 -17 -150 -17q-119 0 -229 37l41 252q72 -30 143 -30q68 0 108 22q39 22 55 50q14 26 42 95l22 58l-436 1003h332l256 -657h4l219 657h316zM354 1143q-72 0 -121 52t-49 124
q0 69 49 118q50 50 117 50q72 0 125 -48t53 -120q0 -73 -50 -125q-50 -51 -124 -51zM780 1143q-72 0 -121 52t-49 124q0 69 49 118q50 50 117 50q73 0 125 -48q53 -48 53 -120q0 -73 -50 -125q-50 -51 -124 -51z" />
    <glyph glyph-name="Amacron" unicode="&#x100;" horiz-adv-x="1517" 
d="M-2 0l627 1450h264l631 -1450h-361l-125 307h-563l-121 -307h-352zM926 578l-178 450l-177 -450h355zM1096 1808v-196h-697v196h697z" />
    <glyph glyph-name="amacron" unicode="&#x101;" horiz-adv-x="1099" 
d="M733 0v125h-4q-95 -150 -315 -150q-148 0 -251 82q-104 83 -104 226q0 70 26 128q25 57 62 92t99 61q63 26 113 39q53 14 130 21q62 6 125 8q31 1 119 1q0 79 -57 129q-56 49 -139 49q-143 0 -250 -119l-164 168q169 160 438 160q256 0 355 -125q100 -126 100 -389v-506
h-283zM733 436h-76q-303 0 -303 -143q0 -51 44 -80t102 -29q97 0 165 49t68 138v65zM932 1407v-197h-696v197h696z" />
    <glyph glyph-name="Abreve" unicode="&#x102;" horiz-adv-x="1517" 
d="M-2 0l627 1450h264l631 -1450h-361l-125 307h-563l-121 -307h-352zM926 578l-178 450l-177 -450h355zM371 1851h164q21 -98 213 -98q92 0 144 19q50 18 71 79h161q-17 -150 -118 -222q-103 -73 -258 -73q-159 0 -264 72q-106 72 -113 223z" />
    <glyph glyph-name="abreve" unicode="&#x103;" horiz-adv-x="1099" 
d="M733 0v125h-4q-95 -150 -315 -150q-148 0 -251 82q-104 83 -104 226q0 70 26 128q25 57 62 92t99 61q63 26 113 39q53 14 130 21q62 6 125 8q31 1 119 1q0 79 -57 129q-56 49 -139 49q-143 0 -250 -119l-164 168q169 160 438 160q256 0 355 -125q100 -126 100 -389v-506
h-283zM733 436h-76q-303 0 -303 -143q0 -51 44 -80t102 -29q97 0 165 49t68 138v65zM207 1450h164q21 -98 213 -98q94 0 144 18t71 80h162q-16 -150 -119 -222q-103 -73 -258 -73q-158 0 -263 72q-107 73 -114 223z" />
    <glyph glyph-name="Aogonek" unicode="&#x104;" horiz-adv-x="1517" 
d="M1354 -297l57 -109q-113 -86 -223 -86q-89 0 -153 52q-62 50 -62 139q0 71 57 157q55 82 129 144l-125 307h-563l-121 -307h-352l627 1450h264l631 -1450h-220q-143 -143 -143 -250q0 -36 26 -65t60 -29q50 0 111 47zM926 578l-178 450l-177 -450h355z" />
    <glyph glyph-name="aogonek" unicode="&#x105;" horiz-adv-x="1099" 
d="M733 0v125h-4q-95 -150 -315 -150q-150 0 -252 81q-103 82 -103 227q0 70 26 128q25 57 62 92t99 61q63 26 113 39q53 14 130 21q62 6 125 8q31 1 119 1q0 79 -57 129q-56 49 -139 49q-143 0 -250 -119l-164 168q174 160 438 160q256 0 355 -125q100 -126 100 -389v-506
h-139q-144 -144 -144 -250q0 -35 25 -65q24 -29 61 -29q50 0 111 47l57 -109q-113 -86 -223 -86q-89 0 -153 52q-62 50 -62 139q0 132 184 301zM733 436h-76q-303 0 -303 -143q0 -51 44 -80t102 -29q97 0 165 49t68 138v65z" />
    <glyph glyph-name="Cacute" unicode="&#x106;" horiz-adv-x="1402" 
d="M1341 1274l-245 -201q-101 119 -275 119q-183 0 -301 -132q-119 -133 -119 -335q0 -201 118 -334t292 -133q194 0 299 156l266 -199q-90 -126 -228 -188q-143 -64 -296 -64q-343 0 -563 209q-219 209 -219 553q0 345 219 553q220 209 563 209q136 0 270 -51t219 -162z
M598 1556l207 295h418l-355 -295h-270z" />
    <glyph glyph-name="cacute" unicode="&#x107;" horiz-adv-x="987" 
d="M985 887l-203 -213q-52 76 -151 76q-113 0 -180 -70q-66 -69 -66 -182q0 -114 66 -183t180 -69q88 0 151 76l203 -213q-131 -134 -354 -134q-234 0 -394 145q-159 144 -159 378t159 378t394 144q224 0 354 -133zM399 1155l207 295h418l-354 -295h-271z" />
    <glyph glyph-name="Ccircumflex" unicode="&#x108;" horiz-adv-x="1402" 
d="M1341 1274l-245 -201q-101 119 -275 119q-183 0 -301 -132q-119 -133 -119 -335q0 -201 118 -334t292 -133q194 0 299 156l266 -199q-90 -126 -228 -188q-143 -64 -296 -64q-343 0 -563 209q-219 209 -219 553q0 345 219 553q220 209 563 209q136 0 270 -51t219 -162z
M1227 1556h-283l-129 160l-127 -160h-276l243 295h334z" />
    <glyph glyph-name="ccircumflex" unicode="&#x109;" horiz-adv-x="987" 
d="M985 887l-203 -213q-52 76 -151 76q-113 0 -180 -70q-66 -69 -66 -182q0 -114 66 -183t180 -69q88 0 151 76l203 -213q-131 -134 -354 -134q-234 0 -394 145q-159 144 -159 378t159 378t394 144q224 0 354 -133zM1004 1155h-283l-129 160l-127 -160h-277l244 295h334z
" />
    <glyph glyph-name="Cdotaccent" unicode="&#x10a;" horiz-adv-x="1402" 
d="M1341 1274l-245 -201q-101 119 -275 119q-183 0 -301 -132q-119 -133 -119 -335q0 -201 118 -334t292 -133q194 0 299 156l266 -199q-90 -126 -228 -188q-143 -64 -296 -64q-343 0 -563 209q-219 209 -219 553q0 345 219 553q220 209 563 209q136 0 270 -51t219 -162z
M817 1544q-71 0 -121 53q-49 52 -49 123q0 69 49 118q50 50 117 50q73 0 126 -48q52 -48 52 -120q0 -73 -50 -125q-49 -51 -124 -51z" />
    <glyph glyph-name="cdotaccent" unicode="&#x10b;" horiz-adv-x="987" 
d="M985 887l-203 -213q-52 76 -151 76q-113 0 -180 -70q-66 -69 -66 -182q0 -114 66 -183t180 -69q88 0 151 76l203 -213q-131 -134 -354 -134q-234 0 -394 145q-159 144 -159 378t159 378t394 144q224 0 354 -133zM594 1143q-71 0 -121 53q-49 52 -49 123q0 69 49 118
q50 50 117 50q74 0 126 -48t52 -120q0 -73 -50 -125q-50 -51 -124 -51z" />
    <glyph glyph-name="Ccaron" unicode="&#x10c;" horiz-adv-x="1402" 
d="M1341 1274l-245 -201q-101 119 -275 119q-183 0 -301 -132q-119 -133 -119 -335q0 -201 118 -334t292 -133q194 0 299 156l266 -199q-90 -126 -228 -188q-143 -64 -296 -64q-343 0 -563 209q-219 209 -219 553q0 345 219 553q220 209 563 209q136 0 270 -51t219 -162z
M403 1907h283l129 -160l127 160h277l-244 -295h-334z" />
    <glyph glyph-name="ccaron" unicode="&#x10d;" horiz-adv-x="987" 
d="M985 887l-203 -213q-52 76 -151 76q-113 0 -180 -70q-66 -69 -66 -182q0 -114 66 -183t180 -69q88 0 151 76l203 -213q-131 -134 -354 -134q-234 0 -394 145q-159 144 -159 378t159 378t394 144q224 0 354 -133zM180 1450h283l129 -160l127 160h276l-243 -295h-334z" />
    <glyph glyph-name="Dcaron" unicode="&#x10e;" horiz-adv-x="1554" 
d="M147 0v1450h480q184 0 332 -40q153 -41 271 -124q119 -83 187 -228t68 -337q0 -224 -115 -392q-114 -167 -297 -248t-403 -81h-523zM467 1155v-860h166q520 0 520 442q0 203 -141 311q-140 107 -357 107h-188zM285 1907h282l129 -160l127 160h277l-244 -295h-334z" />
    <glyph glyph-name="dcaron" unicode="&#x10f;" horiz-adv-x="1290" 
d="M1153 1548v-1548h-283v131h-4q-39 -62 -124 -108q-88 -48 -181 -48q-219 0 -354 144t-135 370q0 217 125 374t329 157q221 0 316 -131h4v659h307zM870 498q0 114 -65 182q-67 70 -180 70q-114 0 -181 -70q-65 -68 -65 -182q0 -115 65 -183q66 -69 181 -69q114 0 180 69
q65 68 65 183zM1255 1042l91 408h274l-164 -408h-201z" />
    <glyph glyph-name="Dcroat" unicode="&#x110;" horiz-adv-x="1554" 
d="M467 1155v-295h405v-209h-405v-356h166q520 0 520 442q0 203 -141 311q-140 107 -357 107h-188zM147 0v651h-122v209h122v590h480q184 0 332 -40q153 -41 271 -124q119 -83 187 -228t68 -337q0 -224 -115 -392q-114 -167 -297 -248t-403 -81h-523z" />
    <glyph glyph-name="dcroat" unicode="&#x111;" horiz-adv-x="1290" 
d="M1268 1346v-197h-115v-1149h-283v131h-4q-40 -61 -125 -108q-87 -48 -180 -48q-219 0 -354 144t-135 370q0 217 125 374t329 157q217 0 316 -131h4v260h-275v197h275v202h307v-202h115zM870 498q0 115 -65 183q-66 69 -180 69q-115 0 -181 -69q-65 -68 -65 -183
q0 -116 65 -184t181 -68q115 0 180 68t65 184z" />
    <glyph glyph-name="Emacron" unicode="&#x112;" horiz-adv-x="1290" 
d="M160 0v1450h985v-295h-666v-270h629v-295h-629v-295h703v-295h-1022zM1012 1808v-196h-697v196h697z" />
    <glyph glyph-name="emacron" unicode="&#x113;" horiz-adv-x="1175" 
d="M836 330l215 -158q-73 -91 -187 -144t-233 -53q-234 0 -394 145q-159 144 -159 378t159 378t394 144q215 0 341 -141t126 -381v-97h-713q18 -87 81 -140q62 -52 150 -52q132 0 220 121zM385 610h406q1 77 -53 133t-136 56q-95 0 -153 -56q-58 -57 -64 -133zM954 1407
v-197h-696v197h696z" />
    <glyph glyph-name="Ebreve" unicode="&#x114;" horiz-adv-x="1290" 
d="M160 0v1450h985v-295h-666v-270h629v-295h-629v-295h703v-295h-1022zM287 1851h164q21 -98 213 -98q92 0 144 19q50 18 71 79h161q-17 -150 -118 -222q-103 -73 -258 -73q-159 0 -264 72q-106 72 -113 223z" />
    <glyph glyph-name="ebreve" unicode="&#x115;" horiz-adv-x="1175" 
d="M836 330l215 -158q-73 -91 -187 -144t-233 -53q-234 0 -394 145q-159 144 -159 378t159 378t394 144q215 0 341 -141t126 -381v-97h-713q18 -87 81 -140q62 -52 150 -52q132 0 220 121zM385 610h406q1 77 -53 133t-136 56q-95 0 -153 -56q-58 -57 -64 -133zM229 1450h164
q21 -98 213 -98q96 0 145 18t70 80h162q-16 -150 -119 -222q-103 -73 -258 -73q-158 0 -263 72q-107 73 -114 223z" />
    <glyph glyph-name="Edotaccent" unicode="&#x116;" horiz-adv-x="1290" 
d="M160 0v1450h985v-295h-666v-270h629v-295h-629v-295h703v-295h-1022zM678 1544q-71 0 -121 53q-49 52 -49 123q0 69 49 118q50 50 117 50q74 0 126 -48t52 -120q0 -73 -50 -125q-50 -51 -124 -51z" />
    <glyph glyph-name="edotaccent" unicode="&#x117;" horiz-adv-x="1175" 
d="M836 330l215 -158q-73 -91 -187 -144t-233 -53q-234 0 -394 145q-159 144 -159 378t159 378t394 144q215 0 341 -141t126 -381v-97h-713q18 -87 81 -140q62 -52 150 -52q132 0 220 121zM385 610h406q1 77 -53 133t-136 56q-95 0 -153 -56q-58 -57 -64 -133zM616 1143
q-70 0 -120 53t-50 123q0 68 50 118t116 50q74 0 126 -48q53 -48 53 -120t-51 -125q-50 -51 -124 -51z" />
    <glyph glyph-name="Eogonek" unicode="&#x118;" horiz-adv-x="1290" 
d="M160 0v1450h985v-295h-666v-270h629v-295h-629v-295h703v-295h-131q-144 -144 -144 -250q0 -36 26 -65t60 -29q50 0 111 47l57 -109q-113 -86 -223 -86q-89 0 -153 52q-62 50 -62 139q0 132 184 301h-747z" />
    <glyph glyph-name="eogonek" unicode="&#x119;" horiz-adv-x="1175" 
d="M805 -297l57 -109q-113 -86 -223 -86q-89 0 -153 52q-62 50 -62 139q0 120 158 278q-219 16 -362 158q-142 141 -142 363q0 234 159 378t394 144q215 0 341 -141t126 -381v-97h-713q18 -87 80 -140q61 -52 151 -52q135 0 220 121l215 -158q-121 -147 -314 -186
q-129 -129 -129 -236q0 -36 26 -65t60 -29q50 0 111 47zM385 610h406q1 79 -52 134t-137 55q-96 0 -155 -56q-57 -55 -62 -133z" />
    <glyph glyph-name="Ecaron" unicode="&#x11a;" horiz-adv-x="1290" 
d="M160 0v1450h985v-295h-666v-270h629v-295h-629v-295h703v-295h-1022zM248 1907h282l129 -160l127 160h277l-244 -295h-334z" />
    <glyph glyph-name="ecaron" unicode="&#x11b;" horiz-adv-x="1175" 
d="M836 330l215 -158q-73 -91 -187 -144t-233 -53q-234 0 -394 145q-159 144 -159 378t159 378t394 144q215 0 341 -141t126 -381v-97h-713q18 -87 81 -140q62 -52 150 -52q132 0 220 121zM385 610h406q1 77 -53 133t-136 56q-95 0 -153 -56q-58 -57 -64 -133zM190 1450h283
l129 -160l127 160h277l-244 -295h-334z" />
    <glyph glyph-name="Gcircumflex" unicode="&#x11c;" horiz-adv-x="1593" 
d="M1460 860v-758q-265 -139 -608 -139t-563 209q-219 209 -219 553q0 345 219 553q220 209 563 209q376 0 578 -187l-226 -245q-131 137 -352 137q-202 0 -327 -131q-124 -130 -124 -336t124 -336q125 -131 327 -131q172 0 301 72v235h-260v295h567zM1251 1556h-282
l-129 160l-127 -160h-277l244 295h334z" />
    <glyph glyph-name="gcircumflex" unicode="&#x11d;" horiz-adv-x="1290" 
d="M1153 995v-911q0 -282 -144 -429t-431 -147q-316 0 -500 146l170 254q152 -129 323 -129q136 0 205 66q70 67 70 178v96h-4q-51 -69 -126 -100t-155 -31q-220 0 -354 143q-135 144 -135 371q0 208 126 363t328 155q121 0 210 -47t130 -109h4v131h283zM379 504
q0 -98 72 -172t174 -74t174 74q71 72 71 172t-71 172q-72 74 -174 74t-174 -74t-72 -172zM1044 1155h-282l-129 160l-127 -160h-277l244 295h334z" />
    <glyph glyph-name="Gbreve" unicode="&#x11e;" horiz-adv-x="1593" 
d="M1460 860v-758q-265 -139 -608 -139t-563 209q-219 209 -219 553q0 345 219 553q220 209 563 209q376 0 578 -187l-226 -245q-131 137 -352 137q-202 0 -327 -131q-124 -130 -124 -336t124 -336q125 -131 327 -131q172 0 301 72v235h-260v295h567zM467 1851h164
q21 -98 213 -98q92 0 144 19q50 18 71 79h162q-16 -150 -119 -222q-103 -73 -258 -73q-158 0 -263 72q-107 73 -114 223z" />
    <glyph glyph-name="gbreve" unicode="&#x11f;" horiz-adv-x="1290" 
d="M1153 995v-911q0 -282 -144 -429t-431 -147q-316 0 -500 146l170 254q152 -129 323 -129q136 0 205 66q70 67 70 178v96h-4q-51 -69 -126 -100t-155 -31q-220 0 -354 143q-135 144 -135 371q0 208 126 363t328 155q121 0 210 -47t130 -109h4v131h283zM379 504
q0 -98 72 -172t174 -74t174 74q71 72 71 172t-71 172q-72 74 -174 74t-174 -74t-72 -172zM281 1450h163q21 -98 213 -98q95 0 145 18q49 18 70 80h162q-16 -150 -119 -222q-103 -73 -258 -73q-158 0 -263 72q-106 72 -113 223z" />
    <glyph glyph-name="Gdotaccent" unicode="&#x120;" horiz-adv-x="1593" 
d="M1460 860v-758q-265 -139 -608 -139t-563 209q-219 209 -219 553q0 345 219 553q220 209 563 209q376 0 578 -187l-226 -245q-131 137 -352 137q-202 0 -327 -131q-124 -130 -124 -336t124 -336q125 -131 327 -131q172 0 301 72v235h-260v295h567zM842 1544
q-71 0 -121 53q-49 52 -49 123q0 69 49 118q50 50 117 50q74 0 126 -48t52 -120q0 -73 -50 -125q-50 -51 -124 -51z" />
    <glyph glyph-name="gdotaccent" unicode="&#x121;" horiz-adv-x="1290" 
d="M1153 995v-911q0 -282 -144 -429t-431 -147q-316 0 -500 146l170 254q152 -129 323 -129q136 0 205 66q70 67 70 178v96h-4q-51 -69 -126 -100t-155 -31q-220 0 -354 143q-135 144 -135 371q0 208 126 363t328 155q121 0 210 -47t130 -109h4v131h283zM379 504
q0 -98 72 -172t174 -74t174 74q71 72 71 172t-71 172q-72 74 -174 74t-174 -74t-72 -172zM655 1143q-70 0 -120 53t-50 123q0 68 50 118t116 50q73 0 126 -48q52 -48 52 -120q0 -73 -50 -125q-49 -51 -124 -51z" />
    <glyph glyph-name="Gcommaaccent" unicode="&#x122;" horiz-adv-x="1593" 
d="M1460 860v-758q-265 -139 -608 -139t-563 209q-219 209 -219 553q0 345 219 553q220 209 563 209q376 0 578 -187l-226 -245q-131 137 -352 137q-202 0 -327 -131q-124 -130 -124 -336t124 -336q125 -131 327 -131q172 0 301 72v235h-260v295h567zM616 -532l132 407h294
l-184 -407h-242z" />
    <glyph glyph-name="gcommaaccent" unicode="&#x123;" horiz-adv-x="1290" 
d="M1153 995v-911q0 -282 -144 -429t-431 -147q-316 0 -500 146l170 254q152 -129 323 -129q136 0 205 66q70 67 70 178v96h-4q-51 -69 -126 -100t-155 -31q-220 0 -354 143q-135 144 -135 371q0 208 126 363t328 155q121 0 210 -47t130 -109h4v131h283zM379 504
q0 -98 72 -172t174 -74t174 74q71 72 71 172t-71 172q-72 74 -174 74t-174 -74t-72 -172zM893 1604l-131 -408h-295l184 408h242z" />
    <glyph glyph-name="Hcircumflex" unicode="&#x124;" horiz-adv-x="1554" 
d="M147 0v1450h320v-541h620v541h320v-1450h-320v627h-620v-627h-320zM1184 1556h-283l-129 160l-127 -160h-276l243 295h334z" />
    <glyph glyph-name="hcircumflex" unicode="&#x125;" horiz-adv-x="1175" 
d="M109 1548h307v-688h4q25 64 99 112q75 48 179 48q215 0 292 -122t77 -349v-549h-307v487q0 55 -1 73q-2 29 -9 69q-7 39 -25 63q-16 22 -48 40q-31 18 -77 18q-108 0 -146 -69q-38 -70 -38 -185v-496h-307v1548zM965 1638h-283l-129 160l-127 -160h-276l243 295h334z" />
    <glyph glyph-name="Hbar" unicode="&#x126;" horiz-adv-x="1554" 
d="M147 0v1450h320v-180h620v180h320v-1450h-320v627h-620v-627h-320zM467 909h620v164h-620v-164z" />
    <glyph glyph-name="hbar" unicode="&#x127;" horiz-adv-x="1175" 
d="M690 1346v-197h-274v-289h4q23 65 98 112q76 48 180 48q112 0 188 -35q74 -34 113 -102q39 -67 54 -146q14 -73 14 -188v-549h-307v487q0 62 -4 93q-4 34 -18 79q-14 46 -48 68q-35 23 -90 23q-108 0 -146 -69q-38 -70 -38 -185v-496h-307v1149h-115v197h115v202h307
v-202h274z" />
    <glyph glyph-name="Itilde" unicode="&#x128;" horiz-adv-x="606" 
d="M143 0v1450h320v-1450h-320zM66 1569h-162q18 116 86 199t174 83q74 0 178 -43q84 -30 115 -30q57 0 90 73h160q-49 -282 -267 -282q-70 0 -159 43t-129 43q-56 0 -86 -86z" />
    <glyph glyph-name="itilde" unicode="&#x129;" 
d="M113 0v995h307v-995h-307zM31 1167h-162q18 117 86 200t174 83q74 0 178 -43q82 -31 115 -31q57 0 90 74h160q-50 -283 -266 -283q-62 0 -160 43q-89 43 -129 43q-59 0 -86 -86z" />
    <glyph glyph-name="Imacron" unicode="&#x12a;" horiz-adv-x="606" 
d="M143 0v1450h320v-1450h-320zM649 1808v-196h-696v196h696z" />
    <glyph glyph-name="imacron" unicode="&#x12b;" 
d="M113 0v995h307v-995h-307zM618 1407v-197h-696v197h696z" />
    <glyph glyph-name="Iogonek" unicode="&#x12e;" horiz-adv-x="606" 
d="M143 0v1450h320v-1450h-176q-144 -144 -144 -250q0 -35 25 -65q24 -29 61 -29q50 0 111 47l57 -109q-113 -86 -223 -86q-88 0 -152 52q-63 51 -63 139q0 132 184 301z" />
    <glyph glyph-name="iogonek" unicode="&#x12f;" 
d="M113 0v995h307v-995h-105q-143 -143 -143 -250q0 -35 25 -65q24 -29 61 -29q50 0 111 47l57 -109q-113 -86 -223 -86q-89 0 -153 52q-62 50 -62 139q0 132 184 301h-59zM88 1309q0 74 52 126t126 52t126 -52t52 -126t-52 -126q-53 -53 -126 -53t-126 53q-52 52 -52 126z
" />
    <glyph glyph-name="Idotaccent" unicode="&#x130;" horiz-adv-x="606" 
d="M143 0v1450h320v-1450h-320zM313 1544q-70 0 -120 53t-50 123q0 68 50 118t116 50q73 0 126 -48q52 -48 52 -120q0 -73 -50 -125q-49 -51 -124 -51z" />
    <glyph glyph-name="dotlessi" unicode="&#x131;" 
d="M113 0v995h307v-995h-307z" />
    <glyph glyph-name="IJ" unicode="&#x132;" horiz-adv-x="1619" 
d="M143 0v1450h320v-1450h-320zM1493 1450v-965q0 -112 -18 -196q-18 -82 -65 -163q-46 -79 -142 -121t-238 -42q-178 0 -294 84q-115 84 -150 254l293 72q6 -52 48 -89q43 -38 95 -38q44 0 73 19t45 44q15 25 23 69q7 43 9 71q2 36 2 71v930h319z" />
    <glyph glyph-name="ij" unicode="&#x133;" horiz-adv-x="1048" 
d="M113 0v995h307v-995h-307zM88 1309q0 74 52 126t126 52t126 -52t52 -126t-52 -126q-53 -53 -126 -53t-126 53q-52 52 -52 126zM936 995v-1069q0 -202 -84 -310t-285 -108q-90 0 -143 17l16 272q38 -18 80 -18q38 0 62 18t33 56q11 46 12 62q2 34 2 65v1015h307zM604 1309
q0 74 52 126t126 52t126 -52q53 -53 53 -126t-53 -126t-126 -53t-126 53q-52 52 -52 126z" />
    <glyph glyph-name="Jcircumflex" unicode="&#x134;" horiz-adv-x="1024" 
d="M897 1450v-965q0 -112 -18 -196q-18 -82 -65 -163q-46 -79 -142 -121t-238 -42q-178 0 -294 84q-115 84 -150 254l293 72q6 -52 48 -89q43 -38 95 -38q44 0 73 19t45 44q15 25 23 69q9 52 10 71q1 18 1 71v930h319zM1147 1556h-283l-129 160l-127 -160h-276l243 295h334z
" />
    <glyph glyph-name="jcircumflex" unicode="&#x135;" 
d="M420 995v-1069q0 -203 -85 -310q-85 -108 -284 -108q-89 0 -143 17l16 272q38 -18 80 -18q38 0 62 18t33 56q11 46 12 62q2 34 2 65v1015h307zM674 1155h-283l-129 160l-127 -160h-276l243 295h334z" />
    <glyph glyph-name="Kcommaaccent" unicode="&#x136;" horiz-adv-x="1478" 
d="M160 0v1450h319v-602l563 602h418l-645 -674l701 -776h-447l-590 688v-688h-319zM475 -532l131 407h295l-184 -407h-242z" />
    <glyph glyph-name="kcommaaccent" unicode="&#x137;" horiz-adv-x="1138" 
d="M109 0v1548h307v-946l340 393h377l-396 -448l406 -547h-387l-336 504h-4v-504h-307zM291 -532l131 407h295l-185 -407h-241z" />
    <glyph glyph-name="Lacute" unicode="&#x139;" horiz-adv-x="1099" 
d="M160 0v1450h319v-1155h592v-295h-911zM115 1556l207 295h417l-354 -295h-270z" />
    <glyph glyph-name="lacute" unicode="&#x13a;" 
d="M113 0v1548h307v-1548h-307zM92 1638l207 295h418l-355 -295h-270z" />
    <glyph glyph-name="Lcommaaccent" unicode="&#x13b;" horiz-adv-x="1099" 
d="M160 0v1450h319v-1155h592v-295h-911zM344 -532l131 407h295l-184 -407h-242z" />
    <glyph glyph-name="lcommaaccent" unicode="&#x13c;" 
d="M113 0v1548h307v-1548h-307zM27 -532l131 407h295l-185 -407h-241z" />
    <glyph glyph-name="Lcaron" unicode="&#x13d;" horiz-adv-x="1099" 
d="M160 0v1450h319v-1155h592v-295h-911zM639 1042l90 408h275l-164 -408h-201z" />
    <glyph glyph-name="lcaron" unicode="&#x13e;" 
d="M113 0v1548h307v-1548h-307zM526 1042l90 408h275l-164 -408h-201z" />
    <glyph glyph-name="Ldot" unicode="&#x13f;" horiz-adv-x="1099" 
d="M160 0v1450h319v-1155h592v-295h-911zM836 649q-71 0 -121 53q-49 52 -49 123q0 69 49 118q50 50 116 50q73 0 126 -48t53 -120t-51 -125q-49 -51 -123 -51z" />
    <glyph glyph-name="ldot" unicode="&#x140;" horiz-adv-x="819" 
d="M113 0v1548h307v-1548h-307zM668 662q-71 0 -121 53q-49 52 -49 123q0 68 49 117q51 51 117 51q72 0 126 -49q52 -48 52 -119q0 -73 -50 -125q-50 -51 -124 -51z" />
    <glyph glyph-name="Lslash" unicode="&#x141;" horiz-adv-x="1099" 
d="M160 0v328l-123 -107v271l123 106v852h319v-576l430 379v-266l-430 -377v-315h592v-295h-911z" />
    <glyph glyph-name="lslash" unicode="&#x142;" 
d="M113 0v508l-123 -125v264l123 125v776h307v-469l123 125v-264l-123 -125v-815h-307z" />
    <glyph glyph-name="Nacute" unicode="&#x143;" horiz-adv-x="1669" 
d="M147 0v1450h435l616 -1008h4v1008h320v-1450h-418l-633 1032h-4v-1032h-320zM662 1556l206 295h418l-354 -295h-270z" />
    <glyph glyph-name="nacute" unicode="&#x144;" horiz-adv-x="1175" 
d="M109 0v995h294v-135h5q35 68 110 113q77 47 180 47q215 0 292 -122t77 -349v-549h-307v487q0 55 -1 73q-2 29 -9 69q-7 39 -25 63q-16 22 -48 40q-31 18 -77 18q-108 0 -146 -69q-38 -70 -38 -185v-496h-307zM330 1155l207 295h417l-354 -295h-270z" />
    <glyph glyph-name="Ncommaaccent" unicode="&#x145;" horiz-adv-x="1669" 
d="M147 0v1450h435l616 -1008h4v1008h320v-1450h-418l-633 1032h-4v-1032h-320zM559 -532l131 407h295l-184 -407h-242z" />
    <glyph glyph-name="ncommaaccent" unicode="&#x146;" horiz-adv-x="1175" 
d="M109 0v995h294v-135h5q35 68 110 113q77 47 180 47q215 0 292 -122t77 -349v-549h-307v487q0 55 -1 73q-2 29 -9 69q-7 39 -25 63q-16 22 -48 40q-31 18 -77 18q-108 0 -146 -69q-38 -70 -38 -185v-496h-307zM336 -532l131 407h295l-184 -407h-242z" />
    <glyph glyph-name="Ncaron" unicode="&#x147;" horiz-adv-x="1669" 
d="M147 0v1450h435l616 -1008h4v1008h320v-1450h-418l-633 1032h-4v-1032h-320zM494 1907h282l129 -160l127 160h277l-244 -295h-334z" />
    <glyph glyph-name="ncaron" unicode="&#x148;" horiz-adv-x="1175" 
d="M109 0v995h294v-135h5q35 68 110 113q77 47 180 47q215 0 292 -122t77 -349v-549h-307v487q0 55 -1 73q-2 29 -9 69q-7 39 -25 63q-16 22 -48 40q-31 18 -77 18q-108 0 -146 -69q-38 -70 -38 -185v-496h-307zM172 1450h283l129 -160l127 160h276l-244 -295h-333z" />
    <glyph glyph-name="napostrophe" unicode="&#x149;" horiz-adv-x="1175" 
d="M109 0v995h294v-135h5q35 68 110 113q77 47 180 47q215 0 292 -122t77 -349v-549h-307v487q0 55 -1 73q-2 29 -9 69q-7 39 -25 63q-16 22 -48 40q-31 18 -77 18q-108 0 -146 -69q-38 -70 -38 -185v-496h-307zM-160 1042l90 408h275l-164 -408h-201z" />
    <glyph glyph-name="Omacron" unicode="&#x14c;" horiz-adv-x="1703" 
d="M70 725q0 345 219 553q220 209 563 209t563 -209q219 -208 219 -553q0 -344 -219 -553q-220 -209 -563 -209t-563 209q-219 209 -219 553zM401 725q0 -206 124 -336q125 -131 327 -131t327 131q124 130 124 336t-124 336q-125 131 -327 131t-327 -131
q-124 -130 -124 -336zM1198 1808v-196h-696v196h696z" />
    <glyph glyph-name="omacron" unicode="&#x14d;" horiz-adv-x="1249" 
d="M72 498q0 235 158 378q159 144 395 144q235 0 394 -144t159 -378t-159 -378q-160 -145 -394 -145q-235 0 -395 145q-158 143 -158 378zM379 498q0 -115 65 -183q66 -69 181 -69q114 0 180 69q65 68 65 183q0 114 -65 182q-67 70 -180 70q-114 0 -181 -70
q-65 -68 -65 -182zM973 1407v-197h-697v197h697z" />
    <glyph glyph-name="Obreve" unicode="&#x14e;" horiz-adv-x="1703" 
d="M70 725q0 345 219 553q220 209 563 209t563 -209q219 -208 219 -553q0 -344 -219 -553q-220 -209 -563 -209t-563 209q-219 209 -219 553zM401 725q0 -206 124 -336q125 -131 327 -131t327 131q124 130 124 336t-124 336q-125 131 -327 131t-327 -131
q-124 -130 -124 -336zM473 1851h164q21 -98 213 -98q92 0 144 19q50 18 71 79h162q-16 -150 -119 -222q-103 -73 -258 -73q-158 0 -263 72q-107 73 -114 223z" />
    <glyph glyph-name="obreve" unicode="&#x14f;" horiz-adv-x="1249" 
d="M72 498q0 235 158 378q159 144 395 144q235 0 394 -144t159 -378t-159 -378q-160 -145 -394 -145q-235 0 -395 145q-158 143 -158 378zM379 498q0 -115 65 -183q66 -69 181 -69q114 0 180 69q65 68 65 183q0 114 -65 182q-67 70 -180 70q-114 0 -181 -70
q-65 -68 -65 -182zM248 1450h164q21 -98 213 -98q95 0 144 18q50 18 71 80h161q-17 -150 -118 -222q-103 -73 -258 -73q-159 0 -264 72q-106 72 -113 223z" />
    <glyph glyph-name="Ohungarumlaut" unicode="&#x150;" horiz-adv-x="1703" 
d="M70 725q0 345 219 553q220 209 563 209t563 -209q219 -208 219 -553q0 -344 -219 -553q-220 -209 -563 -209t-563 209q-219 209 -219 553zM401 725q0 -206 124 -336q125 -131 327 -131t327 131q124 130 124 336t-124 336q-125 131 -327 131t-327 -131
q-124 -130 -124 -336zM440 1556l207 295h418l-354 -295h-271zM981 1556l207 295h418l-355 -295h-270z" />
    <glyph glyph-name="ohungarumlaut" unicode="&#x151;" horiz-adv-x="1249" 
d="M72 498q0 235 158 378q159 144 395 144q235 0 394 -144t159 -378t-159 -378q-160 -145 -394 -145q-235 0 -395 145q-158 143 -158 378zM379 498q0 -115 65 -183q66 -69 181 -69q114 0 180 69q65 68 65 183q0 114 -65 182q-67 70 -180 70q-114 0 -181 -70
q-65 -68 -65 -182zM184 1155l207 295h418l-354 -295h-271zM725 1155l207 295h418l-355 -295h-270z" />
    <glyph glyph-name="OE" unicode="&#x152;" horiz-adv-x="2084" 
d="M1362 1155v-270h541v-295h-541v-295h614v-295h-1087q-154 0 -293 43q-143 44 -261 128q-123 87 -193 228q-72 144 -72 326q0 341 226 533t576 192h1080v-295h-590zM1042 295v860h-104q-243 0 -390 -111t-147 -319t147 -319t390 -111h104z" />
    <glyph glyph-name="oe" unicode="&#x153;" horiz-adv-x="1933" 
d="M1593 330l215 -158q-74 -92 -186 -144q-114 -53 -233 -53q-260 0 -390 142q-136 -142 -372 -142q-237 0 -397 145q-158 143 -158 378t158 378q159 144 397 144q225 0 372 -150q144 150 390 150q215 0 341 -141q125 -140 125 -381v-97h-712q18 -87 81 -140q62 -52 150 -52
q131 0 219 121zM627 750q-116 0 -182 -69t-66 -183q0 -115 66 -184q65 -68 182 -68q114 0 180 69q65 68 65 183q0 114 -65 182q-67 70 -180 70zM1143 610h405q2 78 -52 133q-54 56 -136 56q-96 0 -154 -56q-57 -56 -63 -133z" />
    <glyph glyph-name="Racute" unicode="&#x154;" horiz-adv-x="1327" 
d="M147 0v1450h562q546 0 546 -440q0 -158 -81 -264q-82 -107 -232 -134l369 -612h-383l-303 580h-158v-580h-320zM467 1180v-330h188q62 0 94 4q39 5 81 17q45 13 70 50q24 36 24 91q0 168 -248 168h-209zM389 1556l207 295h418l-355 -295h-270z" />
    <glyph glyph-name="racute" unicode="&#x155;" horiz-adv-x="833" 
d="M109 0v995h307v-159h4q100 184 287 184q69 0 102 -10v-281q-72 21 -131 21q-83 0 -138 -23q-54 -23 -81 -72q-28 -51 -35 -102q-8 -56 -8 -137v-416h-307zM236 1155l206 295h418l-354 -295h-270z" />
    <glyph glyph-name="Rcommaaccent" unicode="&#x156;" horiz-adv-x="1327" 
d="M147 0v1450h562q546 0 546 -440q0 -158 -81 -264q-82 -107 -232 -134l369 -612h-383l-303 580h-158v-580h-320zM467 1180v-330h188q62 0 94 4q39 5 81 17q45 13 70 50q24 36 24 91q0 168 -248 168h-209zM387 -532l131 407h295l-184 -407h-242z" />
    <glyph glyph-name="rcommaaccent" unicode="&#x157;" horiz-adv-x="833" 
d="M109 0v995h307v-159h4q100 184 287 184q69 0 102 -10v-281q-72 21 -131 21q-83 0 -138 -23q-54 -23 -81 -72q-28 -51 -35 -102q-8 -56 -8 -137v-416h-307zM119 -532l131 407h295l-185 -407h-241z" />
    <glyph glyph-name="Rcaron" unicode="&#x158;" horiz-adv-x="1327" 
d="M147 0v1450h562q546 0 546 -440q0 -158 -81 -264q-82 -107 -232 -134l369 -612h-383l-303 580h-158v-580h-320zM467 1180v-330h188q62 0 94 4q39 5 81 17q45 13 70 50q24 36 24 91q0 168 -248 168h-209zM233 1907h283l129 -160l127 160h277l-244 -295h-334z" />
    <glyph glyph-name="rcaron" unicode="&#x159;" horiz-adv-x="833" 
d="M109 0v995h307v-159h4q100 184 287 184q69 0 102 -10v-281q-72 21 -131 21q-83 0 -138 -23q-54 -23 -81 -72q-28 -51 -35 -102q-8 -56 -8 -137v-416h-307zM18 1450h283l129 -160l127 160h277l-244 -295h-334z" />
    <glyph glyph-name="Sacute" unicode="&#x15a;" horiz-adv-x="1175" 
d="M1083 1335l-219 -239q-39 48 -102 71q-69 25 -129 25q-80 0 -148 -38q-67 -37 -67 -112q0 -53 37 -89q38 -37 95 -57q66 -24 130 -41q69 -19 143 -48q69 -27 130 -71q59 -42 96 -118q36 -73 36 -178q0 -231 -159 -354t-400 -123q-292 0 -487 182l227 250q49 -63 124 -100
q74 -37 155 -37q86 0 153 40q68 41 68 112q0 60 -50 104q-49 43 -126 64q-83 23 -164 53q-92 34 -164 71q-76 39 -126 120q-50 82 -50 194q0 222 163 346q164 125 390 125q271 0 444 -152zM399 1556l207 295h418l-354 -295h-271z" />
    <glyph glyph-name="sacute" unicode="&#x15b;" horiz-adv-x="948" 
d="M860 889l-188 -187q-68 84 -178 84q-46 0 -79 -20q-34 -21 -34 -61q0 -34 38 -55q37 -21 96 -30q56 -9 125 -29q64 -19 125 -47q59 -27 96 -90q38 -64 38 -151q0 -90 -41 -158t-109 -102q-69 -34 -146 -51q-79 -17 -163 -17q-257 0 -391 136l187 206q90 -108 217 -108
q139 0 139 72q0 42 -53 65q-55 23 -129 38q-68 13 -153 40q-78 24 -130 90q-53 67 -53 170q0 164 123 250q124 86 295 86q245 0 368 -131zM289 1155l207 295h417l-354 -295h-270z" />
    <glyph glyph-name="Scircumflex" unicode="&#x15c;" horiz-adv-x="1175" 
d="M1083 1335l-219 -239q-39 48 -102 71q-69 25 -129 25q-80 0 -148 -38q-67 -37 -67 -112q0 -53 37 -89q38 -37 95 -57q66 -24 130 -41q69 -19 143 -48q69 -27 130 -71q59 -42 96 -118q36 -73 36 -178q0 -231 -159 -354t-400 -123q-292 0 -487 182l227 250q49 -63 124 -100
q74 -37 155 -37q86 0 153 40q68 41 68 112q0 60 -50 104q-49 43 -126 64q-83 23 -164 53q-92 34 -164 71q-76 39 -126 120q-50 82 -50 194q0 222 163 346q164 125 390 125q271 0 444 -152zM1016 1556h-283l-129 160l-127 -160h-276l243 295h334z" />
    <glyph glyph-name="scircumflex" unicode="&#x15d;" horiz-adv-x="948" 
d="M860 889l-188 -187q-68 84 -178 84q-46 0 -79 -20q-34 -21 -34 -61q0 -34 38 -55q37 -21 96 -30q56 -9 125 -29q64 -19 125 -47q59 -27 96 -90q38 -64 38 -151q0 -90 -41 -158t-109 -102q-69 -34 -146 -51q-79 -17 -163 -17q-257 0 -391 136l187 206q90 -108 217 -108
q139 0 139 72q0 42 -53 65q-55 23 -129 38q-68 13 -153 40q-78 24 -130 90q-53 67 -53 170q0 164 123 250q124 86 295 86q245 0 368 -131zM897 1155h-283l-129 160l-127 -160h-276l244 295h333z" />
    <glyph glyph-name="Scedilla" unicode="&#x15e;" horiz-adv-x="1175" 
d="M1083 1335l-219 -239q-39 48 -101 71q-67 25 -130 25q-80 0 -148 -38q-67 -37 -67 -112q0 -72 68 -112q71 -42 167 -68q100 -27 197 -64q96 -37 167 -127q68 -87 68 -231q0 -205 -126 -324q-125 -118 -328 -145l-64 -94q49 0 92 -5q35 -4 81 -22q44 -17 64 -52
q21 -36 21 -91q0 -99 -92 -149t-192 -50q-127 0 -256 62l51 96q81 -35 158 -35q135 0 135 66q0 33 -33 51q-35 19 -70 19q-27 0 -73 -17l-66 60l102 155q-267 10 -450 180l227 250q102 -137 279 -137q88 0 154 39q67 40 67 113q0 60 -50 104q-49 43 -126 64q-83 23 -164 53
q-92 34 -164 71q-76 39 -126 120q-50 82 -50 194q0 222 162 346q163 125 391 125q271 0 444 -152z" />
    <glyph glyph-name="scedilla" unicode="&#x15f;" horiz-adv-x="948" 
d="M860 889l-188 -187q-68 84 -178 84q-46 0 -79 -20q-34 -21 -34 -61t53 -61q57 -23 129 -37q73 -14 153 -41q77 -26 130 -92q53 -67 53 -171q0 -143 -97 -222t-243 -97l-72 -107q50 0 93 -5q34 -4 80 -22q44 -17 64 -52q21 -36 21 -91q0 -99 -92 -149t-192 -50
q-127 0 -256 62l51 96q81 -35 158 -35q135 0 135 66q0 33 -33 51q-35 19 -70 19q-27 0 -73 -17l-66 60l111 165q-249 12 -369 136l187 206q86 -108 217 -108q139 0 139 72q0 42 -53 65q-55 23 -129 38q-68 13 -153 40q-78 24 -130 90q-53 67 -53 170q0 166 123 251
q122 85 295 85q245 0 368 -131z" />
    <glyph glyph-name="Scaron" unicode="&#x160;" horiz-adv-x="1175" 
d="M1083 1335l-219 -239q-39 48 -102 71q-69 25 -129 25q-80 0 -148 -38q-67 -37 -67 -112q0 -53 37 -89q38 -37 95 -57q66 -24 130 -41q69 -19 143 -48q69 -27 130 -71q59 -42 96 -118q36 -73 36 -178q0 -231 -159 -354t-400 -123q-292 0 -487 182l227 250q49 -63 124 -100
q74 -37 155 -37q86 0 153 40q68 41 68 112q0 60 -50 104q-49 43 -126 64q-83 23 -164 53q-92 34 -164 71q-76 39 -126 120q-50 82 -50 194q0 222 163 346q164 125 390 125q271 0 444 -152zM172 1905h283l129 -160l127 160h276l-244 -295h-333z" />
    <glyph glyph-name="scaron" unicode="&#x161;" horiz-adv-x="948" 
d="M860 889l-188 -187q-68 84 -178 84q-46 0 -79 -20q-34 -21 -34 -61q0 -34 38 -55q37 -21 96 -30q56 -9 125 -29q64 -19 125 -47q59 -27 96 -90q38 -64 38 -151q0 -90 -41 -158t-109 -102q-69 -34 -146 -51q-79 -17 -163 -17q-257 0 -391 136l187 206q90 -108 217 -108
q139 0 139 72q0 42 -53 65q-55 23 -129 38q-68 13 -153 40q-78 24 -130 90q-53 67 -53 170q0 164 123 250q124 86 295 86q245 0 368 -131zM59 1450h283l129 -160l127 160h276l-243 -295h-334z" />
    <glyph glyph-name="Tcommaaccent" unicode="&#x162;" horiz-adv-x="1175" 
d="M428 0v1167h-414v283h1147v-283h-413v-1167h-320zM360 -532l132 407h294l-184 -407h-242z" />
    <glyph glyph-name="tcommaaccent" unicode="&#x163;" horiz-adv-x="833" 
d="M786 995v-245h-270v-332q0 -94 27 -139q28 -46 119 -46q93 0 124 29v-256q-87 -31 -215 -31q-163 0 -263 73q-99 72 -99 228v474h-197v245h197v295h307v-295h270zM211 -532l131 407h295l-184 -407h-242z" />
    <glyph glyph-name="Tcaron" unicode="&#x164;" horiz-adv-x="1175" 
d="M428 0v1167h-414v283h1147v-283h-413v-1167h-320zM180 1907h283l129 -160l127 160h276l-243 -295h-334z" />
    <glyph glyph-name="tcaron" unicode="&#x165;" horiz-adv-x="833" 
d="M786 995v-245h-270v-332q0 -94 27 -139q28 -46 119 -46q93 0 124 29v-256q-87 -31 -215 -31q-163 0 -263 73q-99 72 -99 228v474h-197v245h197v295h307v-295h270zM627 1145l90 407h274l-164 -407h-200z" />
    <glyph glyph-name="Tbar" unicode="&#x166;" horiz-adv-x="1175" 
d="M1004 946v-196h-256v-750h-320v750h-244v196h244v221h-414v283h1147v-283h-413v-221h256z" />
    <glyph glyph-name="tbar" unicode="&#x167;" horiz-adv-x="833" 
d="M752 641v-197h-236v-26q0 -96 27 -140q28 -45 119 -45q93 0 124 29v-256q-87 -31 -215 -31q-164 0 -264 73q-98 71 -98 228v168h-154v197h154v109h-197v245h197v295h307v-295h270v-245h-270v-109h236z" />
    <glyph glyph-name="Utilde" unicode="&#x168;" horiz-adv-x="1517" 
d="M1370 1450v-891q0 -266 -159 -431t-451 -165q-294 0 -453 165q-160 166 -160 431v891h320v-879q0 -135 83 -224t210 -89q126 0 208 90q83 91 83 223v879h319zM532 1569h-161q18 116 86 199t174 83q74 0 178 -43q84 -30 115 -30q57 0 90 73h160q-50 -282 -267 -282
q-70 0 -159 43t-130 43q-56 0 -86 -86z" />
    <glyph glyph-name="utilde" unicode="&#x169;" horiz-adv-x="1175" 
d="M1067 995v-995h-295v135h-4q-34 -65 -111 -112q-79 -48 -180 -48q-215 0 -292 122q-76 121 -76 349v549h307v-487q0 -55 1 -73q2 -28 9 -68t25 -64q16 -22 48 -40q30 -17 76 -17q110 0 147 68q38 70 38 186v495h307zM354 1167h-161q18 117 86 200t174 83q74 0 178 -43
q82 -31 114 -31q58 0 91 74h159q-50 -283 -266 -283q-62 0 -160 43q-89 43 -129 43q-59 0 -86 -86z" />
    <glyph glyph-name="Umacron" unicode="&#x16a;" horiz-adv-x="1517" 
d="M1370 1450v-891q0 -266 -159 -431t-451 -165q-294 0 -453 165q-160 166 -160 431v891h320v-879q0 -135 83 -224t210 -89q126 0 208 90q83 91 83 223v879h319zM1120 1808v-196h-696v196h696z" />
    <glyph glyph-name="umacron" unicode="&#x16b;" horiz-adv-x="1175" 
d="M1067 995v-995h-295v135h-4q-34 -65 -111 -112q-79 -48 -180 -48q-215 0 -292 122q-76 121 -76 349v549h307v-487q0 -55 1 -73q2 -28 9 -68t25 -64q16 -22 48 -40q30 -17 76 -17q110 0 147 68q38 70 38 186v495h307zM934 1407v-197h-696v197h696z" />
    <glyph glyph-name="Ubreve" unicode="&#x16c;" horiz-adv-x="1517" 
d="M1370 1450v-891q0 -266 -159 -431t-451 -165q-294 0 -453 165q-160 166 -160 431v891h320v-879q0 -135 83 -224t210 -89q126 0 208 90q83 91 83 223v879h319zM395 1851h164q21 -98 213 -98q92 0 144 19q50 18 71 79h162q-16 -150 -119 -222q-103 -73 -258 -73
q-158 0 -263 72q-107 73 -114 223z" />
    <glyph glyph-name="ubreve" unicode="&#x16d;" horiz-adv-x="1175" 
d="M1067 995v-995h-295v135h-4q-34 -65 -111 -112q-79 -48 -180 -48q-215 0 -292 122q-76 121 -76 349v549h307v-487q0 -55 1 -73q2 -28 9 -68t25 -64q16 -22 48 -40q30 -17 76 -17q110 0 147 68q38 70 38 186v495h307zM215 1450h164q21 -98 213 -98q94 0 144 18t71 80h162
q-16 -150 -119 -222q-103 -73 -258 -73q-158 0 -263 72q-107 73 -114 223z" />
    <glyph glyph-name="Uring" unicode="&#x16e;" horiz-adv-x="1517" 
d="M1370 1450v-891q0 -266 -159 -431t-451 -165q-294 0 -453 165q-160 166 -160 431v891h320v-879q0 -135 83 -224t210 -89q126 0 208 90q83 91 83 223v879h319zM772 1497q-92 0 -160 68q-67 67 -67 159q0 93 67 160q68 68 160 68t160 -68q67 -67 67 -160q0 -92 -67 -159
q-68 -68 -160 -68zM668 1724q0 -43 30 -73q31 -31 74 -31t74 31t31 73q0 43 -31 74t-74 31t-74 -31q-30 -30 -30 -74z" />
    <glyph glyph-name="uring" unicode="&#x16f;" horiz-adv-x="1175" 
d="M1067 995v-995h-295v135h-4q-34 -65 -111 -112q-79 -48 -180 -48q-215 0 -292 122q-76 121 -76 349v549h307v-487q0 -55 1 -73q2 -28 9 -68t25 -64q16 -22 48 -40q30 -17 76 -17q110 0 147 68q38 70 38 186v495h307zM582 1116q-92 0 -160 68t-68 159q0 92 68 160t160 68
q91 0 159 -68t68 -160q0 -91 -68 -159t-159 -68zM477 1343q0 -42 31 -73t74 -31q42 0 73 31t31 73q0 43 -31 74t-73 31q-43 0 -74 -31t-31 -74z" />
    <glyph glyph-name="Uhungarumlaut" unicode="&#x170;" horiz-adv-x="1517" 
d="M1370 1450v-891q0 -266 -159 -431t-451 -165q-294 0 -453 165q-160 166 -160 431v891h320v-879q0 -135 83 -224t210 -89q126 0 208 90q83 91 83 223v879h319zM330 1556l207 295h417l-354 -295h-270zM870 1556l207 295h418l-354 -295h-271z" />
    <glyph glyph-name="uhungarumlaut" unicode="&#x171;" horiz-adv-x="1175" 
d="M1067 995v-995h-295v135h-4q-34 -65 -111 -112q-79 -48 -180 -48q-215 0 -292 122q-76 121 -76 349v549h307v-487q0 -55 1 -73q2 -28 9 -68t25 -64q16 -22 48 -40q30 -17 76 -17q110 0 147 68q38 70 38 186v495h307zM123 1155l207 295h418l-355 -295h-270zM664 1155
l206 295h418l-354 -295h-270z" />
    <glyph glyph-name="Uogonek" unicode="&#x172;" horiz-adv-x="1517" 
d="M948 -297l58 -109q-113 -86 -224 -86q-88 0 -152 52q-63 51 -63 139q0 120 146 266q-271 12 -418 176q-148 165 -148 418v891h320v-879q0 -136 82 -224q83 -89 211 -89q126 0 209 89q82 88 82 224v879h319v-891q0 -239 -131 -400t-375 -190q-112 -124 -112 -219
q0 -37 25 -65q26 -29 61 -29q49 0 110 47z" />
    <glyph glyph-name="uogonek" unicode="&#x173;" horiz-adv-x="1175" 
d="M969 -297l57 -109q-113 -86 -223 -86q-89 0 -153 52q-62 50 -62 139q0 132 184 301v135h-4q-37 -66 -112 -112q-77 -48 -179 -48q-113 0 -188 34q-77 35 -114 103t-52 146q-14 73 -14 188v549h307v-487q0 -61 4 -92q5 -41 17 -80q14 -46 48 -68t90 -22q110 0 147 68
q38 70 38 186v495h307v-995h-152q-143 -143 -143 -250q0 -36 26 -65t60 -29q50 0 111 47z" />
    <glyph glyph-name="Wcircumflex" unicode="&#x174;" horiz-adv-x="2048" 
d="M426 0l-430 1450h348l231 -930h5l303 930h297l301 -954h4l244 954h323l-424 -1450h-285l-319 1004h-4l-320 -1004h-274zM1430 1556h-283l-129 160l-127 -160h-277l244 295h334z" />
    <glyph glyph-name="wcircumflex" unicode="&#x175;" horiz-adv-x="1705" 
d="M354 0l-364 995h327l203 -624h4l170 624h336l184 -624h5l186 624h311l-354 -995h-303l-207 662h-4l-184 -662h-310zM1257 1155h-282l-129 160l-127 -160h-277l244 295h334z" />
    <glyph glyph-name="Ycircumflex" unicode="&#x176;" horiz-adv-x="1327" 
d="M504 0v618l-545 832h397l308 -543l325 543h379l-545 -832v-618h-319zM1071 1556h-283l-129 160l-127 -160h-276l244 295h334z" />
    <glyph glyph-name="ycircumflex" unicode="&#x177;" horiz-adv-x="1138" 
d="M1133 995l-451 -1157q-32 -84 -48 -118q-23 -48 -51 -88q-34 -49 -72 -70q-35 -20 -101 -37q-65 -17 -150 -17q-119 0 -229 37l41 252q72 -30 143 -30q68 0 108 22q39 22 55 50q14 26 42 95l22 58l-436 1003h332l256 -657h4l219 657h316zM1006 1155h-283l-129 160
l-127 -160h-277l244 295h334z" />
    <glyph glyph-name="Ydieresis" unicode="&#x178;" horiz-adv-x="1327" 
d="M504 0v618l-545 832h397l308 -543l325 543h379l-545 -832v-618h-319zM449 1597q-70 0 -121 54q-49 52 -49 123q0 68 49 117q51 51 116 51q72 0 126 -49q53 -48 53 -119q0 -72 -51 -125q-50 -52 -123 -52zM874 1597q-69 0 -120 54q-49 52 -49 123q0 68 49 117
q51 51 116 51q72 0 126 -49q53 -48 53 -119q0 -72 -51 -125q-50 -52 -124 -52z" />
    <glyph glyph-name="Zacute" unicode="&#x179;" horiz-adv-x="1290" 
d="M72 0v295l735 872h-709v283h1096v-283l-721 -872h746v-295h-1147zM451 1556l206 295h418l-354 -295h-270z" />
    <glyph glyph-name="zacute" unicode="&#x17a;" horiz-adv-x="1024" 
d="M70 0v307l516 443h-504v245h860v-295l-541 -454h553v-246h-884zM305 1155l207 295h418l-355 -295h-270z" />
    <glyph glyph-name="Zdotaccent" unicode="&#x17b;" horiz-adv-x="1290" 
d="M72 0v295l735 872h-709v283h1096v-283l-721 -872h746v-295h-1147zM688 1544q-71 0 -121 53q-49 52 -49 123q0 69 49 118q50 50 117 50q74 0 126 -48t52 -120q0 -73 -50 -125q-50 -51 -124 -51z" />
    <glyph glyph-name="zdotaccent" unicode="&#x17c;" horiz-adv-x="1024" 
d="M70 0v307l516 443h-504v245h860v-295l-541 -454h553v-246h-884zM543 1143q-71 0 -121 53q-49 52 -49 123q0 69 49 118q50 50 117 50q73 0 126 -48q52 -48 52 -120q0 -73 -50 -125q-49 -51 -124 -51z" />
    <glyph glyph-name="Zcaron" unicode="&#x17d;" horiz-adv-x="1290" 
d="M72 0v295l735 872h-709v283h1096v-283l-721 -872h746v-295h-1147zM229 1907h283l129 -160l127 160h276l-243 -295h-334z" />
    <glyph glyph-name="zcaron" unicode="&#x17e;" horiz-adv-x="1024" 
d="M70 0v307l516 443h-504v245h860v-295l-541 -454h553v-246h-884zM96 1450h283l129 -160l127 160h276l-243 -295h-334z" />
    <glyph glyph-name="florin" unicode="&#x192;" horiz-adv-x="1212" 
d="M1016 889v-209h-299l-119 -598q-37 -178 -133 -272q-97 -95 -279 -95q-117 0 -227 49l107 244q38 -22 94 -22q62 0 97 44q33 42 56 150l103 500h-234v209h275l37 186q45 228 131 314t274 86q134 0 266 -62l-108 -231q-50 22 -107 22q-71 0 -107 -39q-37 -40 -55 -131
l-30 -145h258z" />
    <glyph glyph-name="Scommaaccent" unicode="&#x218;" horiz-adv-x="1175" 
d="M1083 1335l-219 -239q-39 48 -102 71q-69 25 -129 25q-80 0 -148 -38q-67 -37 -67 -112q0 -53 37 -89q38 -37 95 -57q66 -24 130 -41q69 -19 143 -48q69 -27 130 -71q59 -42 96 -118q36 -73 36 -178q0 -231 -159 -354t-400 -123q-292 0 -487 182l227 250q49 -63 124 -100
q74 -37 155 -37q86 0 153 40q68 41 68 112q0 60 -50 104q-49 43 -126 64q-83 23 -164 53q-92 34 -164 71q-76 39 -126 120q-50 82 -50 194q0 222 163 346q164 125 390 125q271 0 444 -152zM313 -532l131 407h295l-184 -407h-242z" />
    <glyph glyph-name="scommaaccent" unicode="&#x219;" horiz-adv-x="948" 
d="M860 889l-188 -187q-68 84 -178 84q-46 0 -79 -20q-34 -21 -34 -61q0 -34 38 -55q37 -21 96 -30q56 -9 125 -29q64 -19 125 -47q59 -27 96 -90q38 -64 38 -151q0 -90 -41 -158t-109 -102q-69 -34 -146 -51q-79 -17 -163 -17q-257 0 -391 136l187 206q90 -108 217 -108
q139 0 139 72q0 42 -53 65q-55 23 -129 38q-68 13 -153 40q-78 24 -130 90q-53 67 -53 170q0 164 123 250q124 86 295 86q245 0 368 -131zM221 -532l131 407h295l-184 -407h-242z" />
    <glyph glyph-name="uni021A" unicode="&#x21a;" horiz-adv-x="1175" 
d="M428 0v1167h-414v283h1147v-283h-413v-1167h-320zM360 -532l132 407h294l-184 -407h-242z" />
    <glyph glyph-name="uni021B" unicode="&#x21b;" horiz-adv-x="833" 
d="M786 995v-245h-270v-332q0 -94 27 -139q28 -46 119 -46q93 0 124 29v-256q-87 -31 -215 -31q-163 0 -263 73q-99 72 -99 228v474h-197v245h197v295h307v-295h270zM211 -532l131 407h295l-184 -407h-242z" />
    <glyph glyph-name="dotlessj" unicode="&#x237;" 
d="M420 995v-1069q0 -203 -85 -310q-85 -108 -284 -108q-89 0 -143 17l16 272q38 -18 80 -18q38 0 62 18t33 56q11 46 12 62q2 34 2 65v1015h307z" />
    <glyph glyph-name="circumflex" unicode="&#x2c6;" 
d="M674 1155h-283l-129 160l-127 -160h-276l243 295h334z" />
    <glyph glyph-name="caron" unicode="&#x2c7;" 
d="M-150 1450h283l129 -160l127 160h277l-244 -295h-334z" />
    <glyph glyph-name="uni02C9" unicode="&#x2c9;" 
d="M614 1407v-197h-696v197h696z" />
    <glyph glyph-name="breve" unicode="&#x2d8;" 
d="M-111 1450h164q21 -98 213 -98q96 0 145 18t70 80h162q-16 -150 -119 -222q-103 -73 -258 -73q-158 0 -263 72q-107 73 -114 223z" />
    <glyph glyph-name="dotaccent" unicode="&#x2d9;" 
d="M264 1143q-71 0 -121 53q-49 52 -49 123q0 69 49 118q50 50 117 50q74 0 126 -48t52 -120q0 -73 -50 -125q-50 -51 -124 -51z" />
    <glyph glyph-name="ring" unicode="&#x2da;" 
d="M266 1116q-92 0 -160 68q-67 67 -67 159q0 93 67 160q68 68 160 68t160 -68t68 -160q0 -91 -68 -159t-160 -68zM162 1343q0 -42 31 -73t73 -31q43 0 74 31t31 73q0 43 -31 74t-74 31q-42 0 -73 -31t-31 -74z" />
    <glyph glyph-name="ogonek" unicode="&#x2db;" 
d="M362 -297l58 -109q-113 -86 -223 -86q-89 0 -153 52q-62 50 -62 139q0 79 66 171t149 155h139q-64 -58 -117 -135t-53 -140q0 -37 25 -65q26 -29 61 -29q49 0 110 47z" />
    <glyph glyph-name="tilde" unicode="&#x2dc;" 
d="M27 1167h-162q18 117 86 200t174 83q74 0 178 -43q82 -31 115 -31q57 0 90 74h160q-50 -283 -267 -283q-61 0 -159 43q-89 43 -129 43q-59 0 -86 -86z" />
    <glyph glyph-name="hungarumlaut" unicode="&#x2dd;" 
d="M-209 1155l207 295h418l-355 -295h-270zM332 1155l207 295h417l-354 -295h-270z" />
    <glyph glyph-name="uni0394" unicode="&#x394;" horiz-adv-x="1419" 
d="M55 0v160l492 1317h338l477 -1315v-162h-1307zM348 223h707l-230 600q-11 37 -59 178q-47 139 -59 187h-7q-8 -40 -51 -164q-7 -21 -57 -170z" />
    <glyph glyph-name="uni03A9" unicode="&#x3a9;" horiz-adv-x="1538" 
d="M373 223v6q-114 101 -188 245q-74 145 -74 329q0 277 186 470t477 193q297 0 474 -199q177 -200 177 -452q0 -185 -76 -337q-75 -151 -192 -249v-6h297v-223h-580v166q265 169 265 590q0 201 -99 342t-268 141q-168 0 -271 -139q-104 -140 -104 -355q0 -211 75 -362
q74 -150 190 -217v-166h-582v223h293z" />
    <glyph glyph-name="uni03BC" unicode="&#x3bc;" horiz-adv-x="1175" 
d="M1067 995v-995h-295v135h-4q-37 -66 -112 -112q-77 -48 -179 -48q-29 0 -61 7v-449h-307v1462h307v-487q0 -61 4 -92q5 -41 17 -80q14 -46 48 -68t90 -22q110 0 147 68q38 70 38 186v495h307z" />
    <glyph glyph-name="pi" unicode="&#x3c0;" horiz-adv-x="1304" 
d="M1253 852h-151v-537q0 -203 28 -315h-274q-37 59 -37 301v551h-291q-7 -186 -47 -450q-39 -259 -88 -402h-274q52 172 89 421q38 254 42 431q-144 0 -211 -21l-31 183q90 71 357 71h909z" />
    <glyph glyph-name="endash" unicode="&#x2013;" horiz-adv-x="1024" 
d="M0 387v246h1024v-246h-1024z" />
    <glyph glyph-name="emdash" unicode="&#x2014;" horiz-adv-x="2048" 
d="M0 387v246h2048v-246h-2048z" />
    <glyph glyph-name="quoteleft" unicode="&#x2018;" horiz-adv-x="606" 
d="M80 872l184 578h262l-151 -578h-295z" />
    <glyph glyph-name="quoteright" unicode="&#x2019;" horiz-adv-x="606" 
d="M526 1450l-184 -578h-262l151 578h295z" />
    <glyph glyph-name="quotesinglbase" unicode="&#x201a;" horiz-adv-x="606" 
d="M526 319l-184 -577h-262l151 577h295z" />
    <glyph glyph-name="quotedblleft" unicode="&#x201c;" horiz-adv-x="1064" 
d="M90 872l184 578h263l-152 -578h-295zM528 872l185 578h262l-152 -578h-295z" />
    <glyph glyph-name="quotedblright" unicode="&#x201d;" horiz-adv-x="1064" 
d="M975 1450l-184 -578h-263l152 578h295zM537 1450l-185 -578h-262l152 578h295z" />
    <glyph glyph-name="quotedblbase" unicode="&#x201e;" horiz-adv-x="1064" 
d="M975 319l-184 -577h-263l152 577h295zM537 319l-185 -577h-262l152 577h295z" />
    <glyph glyph-name="dagger" unicode="&#x2020;" horiz-adv-x="1212" 
d="M459 -272v1034h-389v258h389v430h282v-430h402v-258h-402v-1034h-282z" />
    <glyph glyph-name="daggerdbl" unicode="&#x2021;" horiz-adv-x="1212" 
d="M465 -272v368h-395v246h395v494h-395v245h395v369h283v-369h395v-245h-395v-494h395v-246h-395v-368h-283z" />
    <glyph glyph-name="bullet" unicode="&#x2022;" horiz-adv-x="1024" 
d="M150 725q0 152 105 257t257 105t257 -105t105 -257t-105 -257q-106 -106 -257 -106t-257 106q-105 105 -105 257z" />
    <glyph glyph-name="ellipsis" unicode="&#x2026;" horiz-adv-x="2048" 
d="M154 176q0 78 55 133q56 56 133 56t133 -56q55 -55 55 -133t-55 -133t-133 -55t-133 55t-55 133zM836 176q0 78 55 133q56 56 133 56t133 -56q55 -55 55 -133t-55 -133t-133 -55t-133 55t-55 133zM1518 176q0 78 55 133q56 56 133 56t133 -56q55 -55 55 -133t-55 -133
t-133 -55t-133 55t-55 133z" />
    <glyph glyph-name="perthousand" unicode="&#x2030;" horiz-adv-x="2390" 
d="M809 338q0 150 105 255t255 105t255 -105q106 -106 106 -255q0 -148 -106 -256q-105 -107 -255 -107t-255 107q-105 106 -105 256zM1006 338q0 -68 48 -117t115 -49q68 0 116 49t48 117t-48 116t-116 48q-67 0 -115 -48t-48 -116zM1602 338q0 150 105 255t255 105
t256 -105t106 -255t-106 -256q-107 -107 -256 -107q-150 0 -255 107q-105 106 -105 256zM1798 338q0 -68 48 -117t116 -49t117 49t49 117t-49 116t-117 48t-116 -48t-48 -116zM66 1114q0 150 105 255q106 106 255 106q148 0 256 -106q106 -105 106 -255t-106 -256t-256 -106
t-255 106t-105 256zM262 1114q0 -68 48 -117t116 -49t117 49t49 117t-49 116t-117 48t-116 -48t-48 -116zM301 23l829 1493l173 -97l-846 -1485z" />
    <glyph glyph-name="guilsinglleft" unicode="&#x2039;" horiz-adv-x="606" 
d="M549 864l-238 -354l238 -354l-187 -125l-325 479l325 479z" />
    <glyph glyph-name="guilsinglright" unicode="&#x203a;" horiz-adv-x="606" 
d="M57 156l238 354l-238 354l187 125l325 -479l-325 -479z" />
    <glyph glyph-name="fraction" unicode="&#x2044;" horiz-adv-x="342" 
d="M-330 23l830 1493l172 -97l-846 -1485z" />
    <glyph glyph-name="Euro" unicode="&#x20ac;" horiz-adv-x="1212" 
d="M1016 360l168 -206q-67 -79 -188 -129t-255 -50q-459 0 -555 480h-166l58 184h86q-2 20 -2 37v39q0 41 4 100h-139l63 189h107q123 471 628 471q68 0 176 -19q102 -18 142 -41l-94 -266q-78 51 -224 51q-221 0 -305 -196h481l-61 -189h-463q-4 -55 -4 -92v-43
q0 -21 2 -41h418l-59 -184h-328q66 -213 264 -213q152 0 246 118z" />
    <glyph glyph-name="afii61289" unicode="&#x2113;" horiz-adv-x="1118" 
d="M963 397l114 -118q-156 -297 -456 -297q-178 0 -273 92t-117 241q0 17 -2 23q-28 -21 -55 -41.5t-39 -29.5t-14 -11l-72 145l60 48q11 8 65 51q32 25 53 45v508q0 269 108 402q108 134 281 134q152 0 231 -104t79 -266q0 -176 -109 -350t-319 -369l2 -80q5 -103 55 -158
q51 -55 131 -55q81 0 154 55q74 56 123 135zM498 1069v-317q245 272 245 473q0 170 -114 170q-53 0 -92 -76q-39 -77 -39 -250z" />
    <glyph glyph-name="trademark" unicode="&#x2122;" horiz-adv-x="2048" 
d="M326 606v647h-244v197h709v-197h-244v-647h-221zM971 606v844h297l200 -549l201 549h297v-844h-221v549h-4l-201 -549h-143l-201 549h-4v-549h-221z" />
    <glyph glyph-name="estimated" unicode="&#x212e;" horiz-adv-x="1595" 
d="M1505 721h-1106v-496q162 -162 398 -162q173 0 297 78t229 250l96 -57q-124 -200 -266 -284q-143 -85 -356 -85q-316 0 -511 216q-196 217 -196 540q0 325 195 539q195 215 512 215q313 0 511 -211q197 -210 197 -543zM399 819h797v395q-172 166 -403 166
q-232 0 -394 -166v-395z" />
    <glyph glyph-name="partialdiff" unicode="&#x2202;" horiz-adv-x="1241" 
d="M219 1307l-80 202q163 123 402 123q255 0 428 -210q172 -209 172 -582q0 -385 -164 -621q-163 -235 -447 -235q-145 0 -252 79q-106 78 -154 189q-46 107 -46 225q0 242 133 391q133 150 332 150q117 0 199 -55q83 -56 120 -115h2q2 22 2 67q0 203 -100 346
q-101 144 -262 144q-153 0 -285 -98zM557 213h2q107 0 184 126q77 127 95 284q-15 56 -81 116t-155 60q-107 0 -176 -98q-70 -99 -70 -232q0 -108 56 -182t145 -74z" />
    <glyph glyph-name="product" unicode="&#x220f;" horiz-adv-x="1554" 
d="M1503 1194h-221v-1393h-276v1393h-459v-1393h-277v1393h-221v250h1454v-250z" />
    <glyph glyph-name="summation" unicode="&#x2211;" horiz-adv-x="1204" 
d="M1165 -199h-1118v174l516 648l-495 628v193h1062v-236h-684v-8l433 -534l-478 -605v-6h764v-254z" />
    <glyph glyph-name="minus" unicode="&#x2212;" horiz-adv-x="1363" 
d="M121 492v258h1122v-258h-1122z" />
    <glyph glyph-name="uni2215" unicode="&#x2215;" horiz-adv-x="342" 
d="M-330 23l830 1493l172 -97l-846 -1485z" />
    <glyph glyph-name="uni2219" unicode="&#x2219;" horiz-adv-x="606" 
d="M115 580q0 80 54 134t134 54t134 -54q55 -55 55 -134q0 -80 -55 -135q-54 -54 -134 -54t-134 54t-54 135z" />
    <glyph glyph-name="radical" unicode="&#x221a;" horiz-adv-x="1277" 
d="M1300 1733l-485 -2024h-223l-322 901l-157 -63l-47 151l370 152l223 -660q25 -114 43 -178l3 -2q27 161 34 193l365 1530h196z" />
    <glyph glyph-name="infinity" unicode="&#x221e;" horiz-adv-x="1644" 
d="M1542 598v-2q0 -166 -101 -267q-102 -102 -239 -102q-93 0 -187 54q-91 53 -192 186q-90 -115 -182 -178q-91 -62 -207 -62q-135 0 -234 102q-100 103 -100 257q0 158 100 261q98 101 253 101q114 0 201 -59q88 -60 177 -174q10 10 17 18q70 77 96 102q36 35 113 74
t157 39q142 0 235 -96t93 -254zM453 379h4q49 0 103 31q51 29 82 60q41 41 83 89q3 4 8.5 10.5t7.5 8.5l-18 24q-55 74 -81 103q-28 31 -83 64q-53 32 -113 32q-89 0 -141 -61q-51 -60 -51 -156q0 -87 56 -146t143 -59zM1198 801h-2q-30 0 -62 -12q-41 -16 -54 -24
q-19 -12 -51 -41q-27 -25 -43 -42q-29 -32 -42 -48q-8 -10 -16 -19.5t-12.5 -15t-6.5 -7.5q95 -122 158 -168q61 -45 139 -45q83 0 132 64q51 66 51 141q0 96 -53 157q-52 60 -138 60z" />
    <glyph glyph-name="integral" unicode="&#x222b;" horiz-adv-x="839" 
d="M799 1763l-29 -188q-40 18 -78 18q-68 0 -106 -53q-58 -70 -58 -344q0 -156 17 -481q16 -305 16 -508q0 -277 -78 -412q-77 -155 -276 -155q-100 0 -168 34l35 195q63 -23 92 -23q64 0 94 41q59 77 59 320q0 203 -16 517t-16 499t29 289q30 107 100 180q90 96 252 96
q68 0 131 -25z" />
    <glyph glyph-name="approxequal" unicode="&#x2248;" horiz-adv-x="1363" 
d="M1051 621l159 -154q-136 -268 -323 -268q-75 0 -200 72q-126 73 -202 73q-65 0 -170 -174l-161 160q57 116 149 188q95 74 195 74q87 0 202 -71q113 -70 187 -70q63 0 164 170zM1051 1028l159 -156q-124 -256 -321 -256q-69 0 -203 72t-201 72q-53 0 -170 -172l-161 153
q56 113 147 185q90 71 197 71q72 0 202 -70q131 -71 189 -71q68 0 162 172z" />
    <glyph glyph-name="notequal" unicode="&#x2260;" horiz-adv-x="1363" 
d="M121 688v258h571l103 238l217 -88l-66 -150h297v-258h-409l-60 -135h469v-258h-581l-107 -244l-209 78l70 166h-295v258h405l58 135h-463z" />
    <glyph glyph-name="lessequal" unicode="&#x2264;" horiz-adv-x="1363" 
d="M1128 254l-987 387v231l987 396v-287l-667 -221l667 -223v-283zM1137 -31h-1004v252h1004v-252z" />
    <glyph glyph-name="greaterequal" unicode="&#x2265;" horiz-adv-x="1363" 
d="M1128 641l-987 -387v283l668 223l-668 221v287l987 -396v-231zM1137 -31h-1004v252h1004v-252z" />
    <glyph glyph-name="lozenge" unicode="&#x25ca;" horiz-adv-x="1275" 
d="M1171 721l-428 -825h-221l-418 825l426 825h224zM926 715l-244 491q-29 71 -41 119h-6q-18 -66 -41 -119l-244 -479l246 -500q26 -62 37 -112h8q15 55 37 108z" />
    <glyph glyph-name="uniF8FF" unicode="&#xf8ff;" horiz-adv-x="1048" 
d="M569 240h-114v137h114v-137zM555 479h-94l-4 35q0 117 26 166q29 55 95 121q58 54 81 93q21 36 21 77q0 75 -46 124q-47 50 -110 50q-146 0 -168 -195l-102 17q12 142 86 211q73 69 190 69q114 0 184 -73t70 -195q0 -72 -26 -123q-29 -56 -103 -123q-76 -67 -88 -106
q-12 -41 -12 -148zM102 102h844v1264h-844v-1264zM0 1470h1049v-1470h-1049v1470z" />
    <glyph glyph-name="fi" unicode="&#xfb01;" horiz-adv-x="1290" 
d="M870 0v995h308v-995h-308zM846 1309q0 74 52 126t126 52t126 -52t52 -126t-52 -126q-53 -53 -126 -53t-126 53q-52 52 -52 126zM215 0v750h-203v245h203v176q0 94 14 156q15 66 55 125q41 61 119 90q82 31 201 31q102 0 180 -19l-14 -260q-57 21 -100 21q-79 0 -113 -34
q-35 -35 -35 -128v-158h228v-245h-228v-750h-307z" />
    <glyph glyph-name="fl" unicode="&#xfb02;" horiz-adv-x="1290" 
d="M870 0v1548h308v-1548h-308zM215 0v750h-203v245h203v176q0 94 14 156q15 66 55 125q41 61 119 90q82 31 201 31q102 0 180 -19l-14 -260q-57 21 -100 21q-79 0 -113 -34q-35 -35 -35 -128v-158h228v-245h-228v-750h-307z" />
    <glyph glyph-name="CR" horiz-adv-x="0" 
 />
    <glyph glyph-name="grave.cap" 
d="M268 1851l207 -295h-270l-355 295h418z" />
    <glyph glyph-name="acute.cap" 
d="M61 1556l207 295h418l-354 -295h-271z" />
    <glyph glyph-name="circumflex.cap" 
d="M674 1556h-283l-129 160l-127 -160h-276l243 295h334z" />
    <glyph glyph-name="caron.cap" 
d="M-150 1907h283l129 -160l127 160h277l-244 -295h-334z" />
    <glyph glyph-name="caron.alt" 
d="M76 1042l90 408h274l-164 -408h-200z" />
    <glyph glyph-name="tilde.cap" 
d="M27 1569h-162q18 116 86 199t174 83q74 0 178 -43q84 -30 115 -30q57 0 90 73h160q-50 -282 -267 -282q-70 0 -159 43t-129 43q-56 0 -86 -86z" />
    <glyph glyph-name="dieresis.cap" 
d="M51 1544q-71 0 -121 53q-49 52 -49 123q0 69 49 118q50 50 117 50q73 0 126 -48q52 -48 52 -120q0 -73 -50 -125q-50 -51 -124 -51zM477 1544q-71 0 -121 53q-49 52 -49 123q0 69 49 118q50 50 117 50q73 0 126 -48q52 -48 52 -120q0 -73 -50 -125q-49 -51 -124 -51z" />
    <glyph glyph-name="macron.cap" 
d="M614 1808v-196h-696v196h696z" />
    <glyph glyph-name="breve.cap" 
d="M-111 1851h164q21 -98 213 -98q93 0 145 19q49 18 70 79h162q-16 -150 -119 -222q-103 -73 -258 -73q-158 0 -263 72q-107 73 -114 223z" />
    <glyph glyph-name="ring.cap" 
d="M266 1497q-92 0 -160 68q-67 67 -67 159q0 93 67 160q68 68 160 68t160 -68t68 -160q0 -91 -68 -159t-160 -68zM162 1724q0 -42 31 -73t73 -31q43 0 74 31t31 73q0 43 -31 74t-74 31q-42 0 -73 -31t-31 -74z" />
    <glyph glyph-name="hungarumlaut.cap" 
d="M-209 1556l207 295h418l-355 -295h-270zM332 1556l207 295h417l-354 -295h-270z" />
    <glyph glyph-name="dotaccent.cap" 
d="M264 1544q-71 0 -121 53q-49 52 -49 123q0 69 49 118q50 50 117 50q74 0 126 -48t52 -120q0 -73 -50 -125q-50 -51 -124 -51z" />
    <glyph glyph-name="commaaccent" 
d="M55 -532l131 407h295l-184 -407h-242z" />
    <glyph glyph-name="commaaccent.alt" 
d="M461 1604l-131 -408h-295l184 408h242z" />
    <glyph glyph-name="Delta" horiz-adv-x="1419" 
d="M55 0v160l492 1317h338l477 -1315v-162h-1307zM348 223h707l-230 600q-11 37 -59 178q-47 139 -59 187h-7q-8 -40 -51 -164q-7 -21 -57 -170z" />
    <glyph glyph-name="Omega" horiz-adv-x="1538" 
d="M373 223v6q-114 101 -188 245q-74 145 -74 329q0 277 186 470t477 193q297 0 474 -199q177 -200 177 -452q0 -185 -76 -337q-75 -151 -192 -249v-6h297v-223h-580v166q265 169 265 590q0 201 -99 342t-268 141q-168 0 -271 -139q-104 -140 -104 -355q0 -211 75 -362
q74 -150 190 -217v-166h-582v223h293z" />
    <glyph glyph-name="mu" horiz-adv-x="1175" 
d="M1067 995v-995h-295v135h-4q-34 -65 -111 -112q-79 -48 -180 -48q-29 0 -61 7v-449h-307v1462h307v-487q0 -55 1 -73q2 -28 9 -68t25 -64q16 -22 48 -40q30 -17 76 -17q110 0 147 68q38 70 38 186v495h307z" />
  </font>
</defs>
</svg>
