<?xml version="1.0" standalone="no"?>
<!DOCTYPE svg PUBLIC "-//W3C//DTD SVG 1.1//EN" "http://www.w3.org/Graphics/SVG/1.1/DTD/svg11.dtd" >
<svg xmlns="http://www.w3.org/2000/svg" xmlns:xlink="http://www.w3.org/1999/xlink" version="1.1">
<metadata>
Created by FontForge 20170731 at Mon Oct 11 07:58:47 2021
 By Aleksey,,,
Copyright (c) 2004 Linotype Library GmbH, www.linotype.com. All rights reserved. This software may not be reproduced, used, displayed, modified, disclosed or transferred without the express written approval of Linotype Library GmbH. Avenir is a trademark of Heidelberger Druckmaschinen AG, exclusively licensed through Linotype Library GmbH, and may be registered in certain jurisdictions. This typeface is original artwork of Adrian Frutiger. The design may be protected in certain jurisdictions.
</metadata>
<defs>
<font id="AvenirNextLTPro-BoldCnIt" horiz-adv-x="542" >
  <font-face 
    font-family="AvenirNext LT Pro MediumCn"
    font-weight="700"
    font-style="italic"
    font-stretch="normal"
    units-per-em="2048"
    panose-1="2 11 8 6 2 2 2 2 2 4"
    ascent="1548"
    descent="-500"
    x-height="1065"
    cap-height="1450"
    bbox="-332 -512 1950 1976"
    underline-thickness="102"
    underline-position="-307"
    slope="-12"
    unicode-range="U+000D-FB02"
  />
<missing-glyph horiz-adv-x="1048" 
d="M455 240h114v137h-114v-137zM461 479h94q0 107 12 148q11 38 88 106q75 69 102 123t27 123q0 120 -72 194t-182 74q-115 0 -189 -69.5t-87 -210.5l102 -17q11 100 56 147.5t112 47.5q64 0 110 -50.5t46 -123.5q0 -41 -19.5 -75.5t-82.5 -94.5q-67 -67 -95 -121
q-26 -51 -26 -166zM946 102h-844v1264h844v-1264zM1049 1470h-1049v-1470h1049v1470z" />
    <glyph glyph-name="IJ" unicode="IJ" horiz-adv-x="1458" 
d="M618 1450l-251 -1450h-318l252 1450h317zM1507 1450l-174 -997q-16 -91 -36.5 -160t-56 -132.5t-83 -104.5t-118 -65t-160.5 -24q-152 0 -249.5 80t-127.5 205l266 117q10 -45 38.5 -75t74.5 -30q67 0 96.5 51.5t48.5 165.5l168 969h313z" />
    <glyph glyph-name="ij" unicode="ij" horiz-adv-x="1101" 
d="M522 1065l-184 -1065h-299l184 1065h299zM590 1389q0 -83 -53 -140t-131 -57q-69 0 -109.5 44.5t-40.5 106.5q0 79 52 139t128 60q72 0 113 -43t41 -110zM1087 1065l-198 -1137q-17 -91 -45 -161.5t-76 -131.5t-123.5 -94t-175.5 -33q-55 0 -121 15l45 272q30 -10 58 -10
q60 0 92 44t47 126l194 1110h303zM1147 1389q0 -83 -52.5 -140t-129.5 -57q-70 0 -111 44.5t-41 106.5q0 79 53 139t129 60q71 0 111.5 -43t40.5 -110z" />
    <glyph glyph-name="napostrophe" unicode="&#x22;n" horiz-adv-x="1239" 
d="M1169 840q0 -77 -20 -187l-113 -653h-299l115 653q8 50 8 76q0 105 -84 105q-60 0 -105.5 -58.5t-60.5 -150.5l-108 -625h-299l141 805q21 119 39 260h283q-7 -64 -21 -156h4q42 84 116 136.5t167 52.5q62 0 109 -22.5t74 -60.5t40.5 -82.5t13.5 -92.5zM518 1450
l-217 -391h-203l193 391h227z" />
    <glyph glyph-name="fi" unicode="fi" horiz-adv-x="1132" 
d="M784 1585l-41 -246q-32 9 -55 9q-114 0 -145 -183l-17 -100h160l-39 -236h-160l-145 -829h-287l144 829h-133l40 236h132l18 104q78 428 412 428q58 0 116 -12zM1108 1065l-184 -1065h-293l184 1065h293zM1178 1389q0 -83 -53.5 -140t-131.5 -57q-70 0 -109.5 44.5
t-39.5 106.5q0 79 52 139t128 60q72 0 113 -43t41 -110z" />
    <glyph glyph-name="fl" unicode="fl" horiz-adv-x="1132" 
d="M784 1585l-41 -246q-32 9 -55 9q-114 0 -145 -183l-17 -100h160l-39 -236h-160l-145 -829h-287l144 829h-133l40 236h132l18 104q78 428 412 428q58 0 116 -12zM1198 1548l-268 -1548h-303l266 1548h305z" />
    <glyph glyph-name=".notdef" horiz-adv-x="1048" 
d="M455 240h114v137h-114v-137zM461 479h94q0 107 12 148q11 38 88 106q75 69 102 123t27 123q0 120 -72 194t-182 74q-115 0 -189 -69.5t-87 -210.5l102 -17q11 100 56 147.5t112 47.5q64 0 110 -50.5t46 -123.5q0 -41 -19.5 -75.5t-82.5 -94.5q-67 -67 -95 -121
q-26 -51 -26 -166zM946 102h-844v1264h844v-1264zM1049 1470h-1049v-1470h1049v1470z" />
    <glyph glyph-name=".null" horiz-adv-x="409" 
 />
    <glyph glyph-name=".null" horiz-adv-x="409" 
 />
    <glyph glyph-name="nonmarkingreturn" horiz-adv-x="682" 
 />
    <glyph glyph-name="CR" unicode="&#xd;" horiz-adv-x="0" 
 />
    <glyph glyph-name="space" unicode=" " horiz-adv-x="397" 
 />
    <glyph glyph-name="exclam" unicode="!" horiz-adv-x="659" 
d="M657 1450l-168 -961h-305l166 961h307zM453 184q0 -86 -53.5 -143t-133.5 -57q-71 0 -112 45t-41 108q0 80 53 141.5t131 61.5q74 0 115 -44.5t41 -111.5z" />
    <glyph glyph-name="quotedbl" unicode="&#x22;" horiz-adv-x="790" 
d="M829 1450l-96 -549h-209l97 549h208zM518 1450l-96 -549h-209l96 549h209z" />
    <glyph glyph-name="numbersign" unicode="#" horiz-adv-x="876" 
d="M922 1040l-39 -213h-144l-55 -204h117l-37 -213h-139l-113 -410h-178l112 410h-96l-114 -410h-177l111 410h-123l39 213h143l58 204h-125l39 213h143l113 410h180l-113 -410h97l114 410h178l-114 -410h123zM563 827h-100l-53 -204h96z" />
    <glyph glyph-name="dollar" unicode="$" horiz-adv-x="1062" 
d="M410 0q-111 6 -206 46.5t-151 100.5l176 226q41 -46 99 -74.5t118 -28.5q68 0 120 46.5t52 121.5q0 57 -34 101.5t-111 87.5q-51 30 -88.5 59t-72.5 71.5t-53.5 99.5t-18.5 126q0 187 118 317.5t308 149.5l28 160h129l-28 -162q91 -12 164 -46.5t116 -84.5l-176 -217
q-34 39 -83 61.5t-101 22.5q-63 0 -116.5 -45.5t-53.5 -128.5q0 -54 32.5 -90.5t108.5 -81.5q36 -21 65.5 -42t64 -55t58 -71t39 -88.5t15.5 -108.5q0 -100 -31 -184t-85 -140.5t-123 -93t-148 -49.5l-31 -170h-129z" />
    <glyph glyph-name="percent" unicode="%" horiz-adv-x="1458" 
d="M1407 459q0 -124 -43.5 -233.5t-128 -179t-191.5 -69.5q-120 0 -184.5 78.5t-64.5 208.5q0 126 43.5 236.5t127 180t189.5 69.5q121 0 186.5 -79.5t65.5 -211.5zM1204 444q0 117 -71 117q-40 0 -72 -47t-47 -109t-15 -120q0 -54 18 -85.5t52 -31.5q41 0 73.5 47t47 109
t14.5 120zM741 1186q0 -124 -43.5 -233t-127.5 -178.5t-191 -69.5q-120 0 -185 78t-65 208q0 126 43.5 236.5t127 180t189.5 69.5q121 0 186.5 -79.5t65.5 -211.5zM539 1171q0 54 -18 85.5t-54 31.5q-40 0 -72 -47t-46.5 -109t-14.5 -120q0 -54 17.5 -85.5t51.5 -31.5
q41 0 73.5 47t47.5 109t15 120zM1276 1450l-881 -1495l-133 57l883 1499z" />
    <glyph glyph-name="ampersand" unicode="&#x26;" horiz-adv-x="1224" 
d="M1247 791l-293 -433l201 -358h-332l-75 141q-138 -172 -336 -172q-174 0 -262.5 102t-88.5 261q0 158 83.5 279t228.5 194q-72 130 -72 244q0 205 117 323.5t295 118.5q155 0 237 -83.5t82 -219.5q0 -263 -319 -432l102 -201l143 236h289zM784 1159q0 49 -24 79t-64 30
q-60 0 -96.5 -58.5t-36.5 -134.5q0 -82 49 -164q172 93 172 248zM635 336l-148 287q-63 -30 -106 -100t-43 -152q0 -67 32.5 -108.5t96.5 -41.5q100 0 168 115z" />
    <glyph glyph-name="quotesingle" unicode="'" horiz-adv-x="479" 
d="M518 1450l-96 -549h-209l96 549h209z" />
    <glyph glyph-name="parenleft" unicode="(" horiz-adv-x="561" 
d="M641 1454q-184 -259 -291.5 -578t-107.5 -628q0 -296 98 -522l-195 -82q-57 125 -89.5 286t-32.5 324q0 340 115 674.5t323 607.5z" />
    <glyph glyph-name="parenright" unicode=")" horiz-adv-x="561" 
d="M578 928q0 -339 -115.5 -674t-323.5 -608l-180 80q184 260 291.5 579.5t107.5 628.5q0 293 -98 522l193 82q59 -127 92 -287t33 -323z" />
    <glyph glyph-name="asterisk" unicode="*" horiz-adv-x="952" 
d="M1020 1067l-240 -78l152 -215l-180 -131l-154 221l-147 -213l-181 129l154 211l-244 82l72 203l237 -84v258h224v-260l241 80z" />
    <glyph glyph-name="plus" unicode="+" horiz-adv-x="1363" 
d="M1251 492h-434v-429h-266v429h-436v258h434v428h266v-428h436v-258z" />
    <glyph glyph-name="comma" unicode="," horiz-adv-x="536" 
d="M422 334l-264 -578h-228l220 578h272z" />
    <glyph glyph-name="hyphen" unicode="-" horiz-adv-x="493" 
d="M475 680l-41 -231h-383l41 231h383z" />
    <glyph glyph-name="period" unicode="." horiz-adv-x="536" 
d="M383 184q0 -86 -54 -144t-134 -58q-72 0 -113 45.5t-41 109.5q0 80 53.5 142.5t130.5 62.5q74 0 116 -44.5t42 -113.5z" />
    <glyph glyph-name="slash" unicode="/" horiz-adv-x="579" 
d="M756 1513l-674 -1591l-166 37l678 1593z" />
    <glyph glyph-name="zero" unicode="0" horiz-adv-x="1062" 
d="M1075 981q0 -82 -8.5 -170t-29.5 -188t-52 -191t-79.5 -176t-109 -147t-144.5 -99t-181 -37q-105 0 -182.5 41t-120.5 112t-63.5 155t-20.5 182q0 83 8 171.5t28 189t50 192t78 177t108 147.5t144 99.5t182 37.5q85 0 152.5 -28t112 -74.5t74 -111t42 -134.5t12.5 -148z
M762 983q0 217 -107 217q-55 0 -101 -60t-74.5 -148.5t-48.5 -194t-28 -191t-8 -145.5q0 -211 105 -211q54 0 100 59.5t75 147.5t49.5 192t29 190t8.5 144z" />
    <glyph glyph-name="one" unicode="1" horiz-adv-x="1062" 
d="M940 1450l-252 -1450h-311l192 1098l-254 -160l-100 238l455 274h270z" />
    <glyph glyph-name="two" unicode="2" horiz-adv-x="1062" 
d="M1065 1108q0 -137 -65.5 -243.5t-229.5 -268.5l-330 -322h488l-47 -274h-861l50 283l516 508q92 92 129 157t37 129q0 53 -28 90t-87 37q-63 0 -106.5 -48.5t-61.5 -129.5l-295 43q52 197 182.5 302.5t317.5 105.5q176 0 283.5 -99t107.5 -270z" />
    <glyph glyph-name="three" unicode="3" horiz-adv-x="1062" 
d="M1051 1135q0 -131 -71.5 -237t-191.5 -136v-6q83 -25 131 -105.5t48 -179.5q0 -149 -67.5 -264t-180.5 -174.5t-252 -59.5q-185 0 -296 93t-144 247l278 80q16 -66 57 -106.5t107 -40.5q88 0 141.5 57.5t53.5 161.5q0 73 -49 116.5t-128 43.5h-71l41 241h80
q92 0 151.5 57t59.5 156q0 50 -35 89.5t-95 39.5q-102 0 -165 -127l-252 82q44 108 118 180t160.5 103t186.5 31q165 0 275 -88.5t110 -253.5z" />
    <glyph glyph-name="four" unicode="4" horiz-adv-x="1062" 
d="M825 297l-51 -297h-282l51 297h-529l47 272l572 881h395l-158 -893h154l-45 -260h-154zM698 1139h-4l-354 -582h256z" />
    <glyph glyph-name="five" unicode="5" horiz-adv-x="1062" 
d="M1063 1450l-51 -272h-439l-59 -271q67 23 123 23q162 0 253 -108.5t91 -272.5q0 -134 -42 -244t-114 -182t-167.5 -111t-204.5 -39q-168 0 -280 89.5t-138 248.5l278 92q15 -69 54.5 -112t103.5 -43q93 0 145 74t52 184q0 91 -51.5 140.5t-135.5 49.5q-60 0 -145.5 -18
t-153.5 -43l172 815h709z" />
    <glyph glyph-name="six" unicode="6" horiz-adv-x="1062" 
d="M635 942q41 14 84 14q134 0 215.5 -105.5t81.5 -266.5q0 -90 -20 -176.5t-63.5 -165.5t-105 -138.5t-151 -95t-195.5 -35.5q-197 0 -307.5 116t-110.5 310q0 249 203 531l365 520h368l-366 -504zM571 741q-84 0 -142 -95t-58 -226q0 -79 35 -128.5t96 -49.5
q94 0 149.5 96t55.5 231q0 76 -34.5 124t-101.5 48z" />
    <glyph glyph-name="seven" unicode="7" horiz-adv-x="1062" 
d="M1110 1450l-41 -238l-643 -1212h-338l639 1174h-510l49 276h844z" />
    <glyph glyph-name="eight" unicode="8" horiz-adv-x="1062" 
d="M1077 1135q0 -133 -68 -229t-184 -138v-4q73 -32 120.5 -110t47.5 -181q0 -220 -137 -360t-371 -140q-196 0 -315 100t-119 275q0 152 85.5 267t207.5 149v4q-69 35 -108 102t-39 152q0 91 31 172t89.5 144.5t152 101t210.5 37.5q196 0 296.5 -93.5t100.5 -248.5z
M776 1112q0 63 -31 100t-88 37q-77 0 -123.5 -68t-46.5 -163q0 -61 30.5 -103.5t86.5 -42.5q75 0 123.5 74.5t48.5 165.5zM680 483q0 73 -34 116.5t-93 43.5q-78 0 -135.5 -80.5t-57.5 -183.5q0 -74 34.5 -119t99.5 -45q57 0 100.5 40t64.5 100.5t21 127.5z" />
    <glyph glyph-name="nine" unicode="9" horiz-adv-x="1062" 
d="M446 506q-136 0 -216 106.5t-80 266.5q0 87 19 171t61.5 161.5t102.5 136.5t148.5 94t194.5 35q202 0 311 -112.5t109 -305.5q0 -253 -203 -539l-367 -520h-368l379 518l-2 4q-44 -16 -89 -16zM588 723q85 0 142.5 88.5t57.5 220.5q-2 80 -35.5 129t-95.5 49
q-92 0 -145 -92.5t-53 -222.5q0 -77 32.5 -124.5t96.5 -47.5z" />
    <glyph glyph-name="colon" unicode=":" horiz-adv-x="595" 
d="M537 911q0 -83 -53 -138.5t-130 -55.5q-70 0 -110.5 44t-40.5 107q0 78 52.5 138.5t129.5 60.5q71 0 111.5 -44t40.5 -112zM412 193q0 -84 -53 -141.5t-130 -57.5q-70 0 -109.5 44.5t-39.5 108.5q0 78 51.5 138.5t128.5 60.5q71 0 111.5 -43.5t40.5 -109.5z" />
    <glyph glyph-name="semicolon" unicode=";" horiz-adv-x="595" 
d="M537 911q0 -83 -53 -138.5t-130 -55.5q-70 0 -110.5 44t-40.5 107q0 78 52.5 138.5t129.5 60.5q71 0 111.5 -44t40.5 -112zM442 334l-264 -578h-227l221 578h270z" />
    <glyph glyph-name="less" unicode="&#x3c;" horiz-adv-x="1363" 
d="M1202 76l-1040 438v211l1040 438v-278l-627 -269l627 -260v-280z" />
    <glyph glyph-name="equal" unicode="=" horiz-adv-x="1363" 
d="M1225 686h-1086v252h1086v-252zM1225 307h-1086v252h1086v-252z" />
    <glyph glyph-name="greater" unicode="&#x3e;" horiz-adv-x="1363" 
d="M1202 514l-1040 -438v280l626 260l-626 269v278l1040 -438v-211z" />
    <glyph glyph-name="question" unicode="?" horiz-adv-x="856" 
d="M950 1159q0 -74 -18 -135t-57 -112.5t-79.5 -89.5t-105.5 -89q-59 -46 -86.5 -88.5t-36.5 -97.5l-10 -60h-250l15 86q17 101 63 176.5t127 145.5l43 37q56 47 83.5 88.5t27.5 97.5q0 54 -29 86.5t-80 32.5q-66 0 -107.5 -49t-58.5 -113l-235 66q20 69 56 129.5t89.5 112
t130.5 81t168 29.5q162 0 256 -94t94 -240zM563 184q0 -86 -53 -143t-133 -57q-71 0 -112.5 45.5t-41.5 107.5q0 80 53.5 141.5t131.5 61.5q74 0 114.5 -44t40.5 -112z" />
    <glyph glyph-name="at" unicode="@" horiz-adv-x="1298" 
d="M1317 971q0 -117 -29 -230.5t-80.5 -206t-131.5 -149.5t-175 -57q-64 0 -100 34t-37 101h-4q-85 -135 -197 -135q-90 0 -137 68t-47 177q0 94 29 195t78 185.5t121 139t149 54.5q66 0 98.5 -35.5t34.5 -87.5h4l27 70h165l-96 -277q-67 -187 -67 -254q0 -49 41 -49
q54 0 101 80t71 182t24 185q0 176 -88 273t-252 97q-94 0 -181 -44t-153.5 -120t-116.5 -173.5t-76 -208.5t-26 -220q0 -201 100 -320.5t285 -119.5q199 0 359 137l67 -139q-188 -160 -450 -160q-137 0 -241.5 45.5t-168 127t-95.5 188t-32 235.5q0 138 34 273.5t99 252.5
t153 207.5t204 142.5t243 52q243 0 368.5 -137.5t125.5 -378.5zM819 877q0 88 -63 88q-44 0 -88.5 -59.5t-71.5 -142t-27 -151.5q0 -45 17 -72.5t49 -27.5q47 0 91.5 69t68.5 153t24 143z" />
    <glyph glyph-name="A" unicode="A" horiz-adv-x="1107" 
d="M1020 0h-320l-6 272h-338l-108 -272h-328l629 1450h395zM698 514l-12 623h-8l-240 -623h260z" />
    <glyph glyph-name="B" unicode="B" horiz-adv-x="1101" 
d="M1087 1118q0 -140 -68 -232t-177 -128l2 -4q78 -22 132 -94t54 -181q0 -122 -43.5 -216.5t-116.5 -150.5t-160 -84t-182 -28h-479l252 1450h422q53 0 102.5 -10.5t98 -35.5t84 -62.5t57.5 -95t22 -128.5zM799 1055q0 63 -40 98t-102 35h-108l-57 -328h116
q76 0 133.5 50.5t57.5 144.5zM729 479q0 76 -45 113t-109 37h-124l-64 -365h127q97 0 156 56t59 159z" />
    <glyph glyph-name="C" unicode="C" horiz-adv-x="1030" 
d="M1165 1317l-215 -234q-32 50 -73 75.5t-103 25.5q-79 0 -146.5 -58.5t-111 -150.5t-68 -200t-24.5 -210q0 -137 49.5 -217t149.5 -80q105 0 196 99l146 -234q-163 -170 -398 -170q-226 0 -349.5 152.5t-123.5 408.5q0 147 32 289.5t94 263.5t145.5 213t192.5 144.5
t230 52.5q257 0 377 -170z" />
    <glyph glyph-name="D" unicode="D" horiz-adv-x="1193" 
d="M1188 885q0 -129 -22.5 -250t-76 -238t-134 -204t-205.5 -140t-281 -53h-420l252 1450h383q133 0 231 -41t157 -117t87.5 -177.5t28.5 -229.5zM866 858q0 145 -51.5 231.5t-159.5 86.5h-88l-155 -902h92q86 0 157 52.5t114.5 138t67 187t23.5 206.5z" />
    <glyph glyph-name="E" unicode="E" horiz-adv-x="901" 
d="M979 1450l-47 -276h-379l-53 -302h354l-45 -258h-352l-58 -331h414l-49 -283h-715l252 1450h678z" />
    <glyph glyph-name="F" unicode="F" horiz-adv-x="874" 
d="M991 1450l-49 -285h-381l-53 -309h354l-47 -272h-352l-103 -584h-311l252 1450h690z" />
    <glyph glyph-name="G" unicode="G" horiz-adv-x="1132" 
d="M1165 1315l-211 -232q-61 103 -186 103q-84 0 -155.5 -60.5t-116 -155.5t-69 -203t-24.5 -210q0 -84 22.5 -149.5t73.5 -106.5t124 -41q80 0 139 35l51 285h-192l49 274h469l-133 -768q-174 -123 -410 -123q-124 0 -220.5 42.5t-157.5 118.5t-92.5 178t-31.5 224
q0 145 32 286t93.5 262t145 214t193 146t230.5 53q139 0 234.5 -46.5t142.5 -125.5z" />
    <glyph glyph-name="H" unicode="H" horiz-adv-x="1239" 
d="M1278 1450l-252 -1450h-313l106 612h-350l-107 -612h-313l252 1450h311l-96 -557h350l97 557h315z" />
    <glyph glyph-name="I" unicode="I" horiz-adv-x="579" 
d="M618 1450l-251 -1450h-318l252 1450h317z" />
    <glyph glyph-name="J" unicode="J" horiz-adv-x="899" 
d="M948 1450l-174 -1001q-16 -91 -36.5 -160t-56 -132.5t-83.5 -104.5t-118.5 -65t-160.5 -24q-152 0 -249 80t-127 205l266 117q10 -45 38.5 -75t74.5 -30q67 0 96.5 51.5t48.5 165.5l168 973h313z" />
    <glyph glyph-name="K" unicode="K" horiz-adv-x="1148" 
d="M1286 1450l-504 -692l269 -758h-355l-211 680h-6l-119 -680h-311l252 1450h311l-104 -608h6l410 608h362z" />
    <glyph glyph-name="L" unicode="L" horiz-adv-x="858" 
d="M807 291l-51 -291h-707l252 1450h315l-200 -1159h391z" />
    <glyph glyph-name="M" unicode="M" horiz-adv-x="1566" 
d="M1606 1450l-254 -1450h-310l187 1008h-6l-426 -1008h-226l-65 1008h-6l-166 -1008h-285l254 1450h395l70 -948h8l395 948h435z" />
    <glyph glyph-name="N" unicode="N" horiz-adv-x="1226" 
d="M1266 1450l-252 -1450h-338l-191 903h-6l-147 -903h-283l252 1450h346l182 -915h9l151 915h277z" />
    <glyph glyph-name="O" unicode="O" horiz-adv-x="1243" 
d="M1237 930q0 -179 -48 -351.5t-133 -310t-215 -221.5t-282 -84q-220 0 -342.5 150t-122.5 403q0 143 29 283t87.5 264t138.5 219t189.5 150t233.5 55q226 0 345.5 -150t119.5 -407zM911 885q0 301 -170 301q-75 0 -138 -63.5t-101.5 -161t-60 -207t-21.5 -209.5
q0 -127 41 -203t133 -76q71 0 133 59.5t101 152t61 200t22 207.5z" />
    <glyph glyph-name="P" unicode="P" horiz-adv-x="1054" 
d="M1106 1073q0 -254 -139.5 -394t-368.5 -140h-147l-95 -539h-307l252 1450h414q61 0 117 -13t106.5 -42t87.5 -72t58.5 -107t21.5 -143zM807 1028q0 73 -37.5 114.5t-103.5 41.5h-105l-65 -391h108q91 0 147 64t56 171z" />
    <glyph glyph-name="Q" unicode="Q" horiz-adv-x="1257" 
d="M1237 932q0 -186 -71.5 -379t-188.5 -274v-7l235 9l-49 -281h-606q-224 0 -343.5 133.5t-119.5 382.5q0 143 29 283t87.5 264t138.5 219t189.5 150t233.5 55q226 0 345.5 -149.5t119.5 -405.5zM911 893q0 291 -168 291q-74 0 -137.5 -63.5t-103 -161.5t-62 -208
t-22.5 -210q0 -119 43.5 -186.5t126.5 -67.5q73 0 135.5 59t102.5 150.5t62.5 196t22.5 200.5z" />
    <glyph glyph-name="R" unicode="R" horiz-adv-x="1097" 
d="M1124 1077q0 -163 -73.5 -276.5t-200.5 -157.5l162 -643h-332l-121 584h-106l-101 -584h-303l252 1450h426q193 0 295 -94t102 -279zM811 1036q0 78 -41.5 114t-105.5 36h-107l-65 -379h102q94 0 155.5 60t61.5 169z" />
    <glyph glyph-name="S" unicode="S" horiz-adv-x="946" 
d="M1036 1346l-186 -228q-36 40 -87 64t-106 24q-66 0 -122 -48t-56 -134q0 -57 33.5 -95t110.5 -83q39 -23 70 -45t68 -58t61.5 -74.5t41.5 -92.5t17 -115q0 -121 -42 -218t-113 -157t-160 -91.5t-187 -31.5q-128 0 -240 44t-176 112l187 235q43 -47 103.5 -76.5
t123.5 -29.5q72 0 126 48.5t54 127.5q0 60 -36 106.5t-118 92.5q-42 24 -74.5 47t-65.5 56.5t-54.5 70.5t-35 88t-13.5 110q0 211 140 351.5t359 140.5q122 0 221 -38t156 -103z" />
    <glyph glyph-name="T" unicode="T" horiz-adv-x="837" 
d="M1008 1450l-47 -268h-267l-207 -1182h-311l207 1182h-266l47 268h844z" />
    <glyph glyph-name="U" unicode="U" horiz-adv-x="1179" 
d="M1247 1450l-160 -913q-18 -103 -43.5 -184t-69 -156.5t-101.5 -125t-142.5 -79t-191.5 -29.5q-213 0 -325 113t-112 299q0 77 15 162l159 913h318l-156 -889q-14 -82 -14 -131q0 -166 135 -166q51 0 89 22t63 65t40 92.5t27 117.5l154 889h315z" />
    <glyph glyph-name="V" unicode="V" horiz-adv-x="1105" 
d="M1274 1450l-610 -1450h-400l-98 1450h338l28 -1075h7l393 1075h342z" />
    <glyph glyph-name="W" unicode="W" horiz-adv-x="1624" 
d="M1778 1450l-531 -1450h-336l-6 991h-6l-350 -991h-344l-12 1450h315l-25 -1028h11l342 1028h305l-8 -1028h6l331 1028h308z" />
    <glyph glyph-name="X" unicode="X" horiz-adv-x="1093" 
d="M1225 1450l-449 -688l225 -762h-333l-117 496l-293 -496h-336l488 760l-207 690h323l105 -455l262 455h332z" />
    <glyph glyph-name="Y" unicode="Y" horiz-adv-x="1009" 
d="M1186 1450l-529 -926l-92 -524h-317l92 524l-197 926h332l76 -602h6l287 602h342z" />
    <glyph glyph-name="Z" unicode="Z" horiz-adv-x="925" 
d="M1026 1450l-43 -250l-608 -915h454l-49 -285h-821l43 256l608 918h-407l49 276h774z" />
    <glyph glyph-name="bracketleft" unicode="[" horiz-adv-x="559" 
d="M643 1499l-35 -196h-162l-249 -1426h161l-34 -196h-396l318 1818h397z" />
    <glyph glyph-name="backslash" unicode="\" horiz-adv-x="579" 
d="M485 -41l-178 -37l-114 1591l178 39z" />
    <glyph glyph-name="bracketright" unicode="]" horiz-adv-x="559" 
d="M676 1499l-318 -1818h-395l33 196h162l252 1426h-164l35 196h395z" />
    <glyph glyph-name="asciicircum" unicode="^" horiz-adv-x="1413" 
d="M1262 702h-304l-253 437l-252 -437h-303l436 748h241z" />
    <glyph glyph-name="underscore" unicode="_" horiz-adv-x="1024" 
d="M1024 -336h-1024v182h1024v-182z" />
    <glyph glyph-name="grave" unicode="`" 
d="M567 1206h-207l-262 295h258z" />
    <glyph glyph-name="a" unicode="a" horiz-adv-x="917" 
d="M858 780q0 -81 -18 -180l-68 -391q-23 -134 -27 -209h-249q4 74 18 133h-6q-75 -160 -250 -160q-95 0 -165 69.5t-70 197.5q0 113 40 197t111 132.5t158 71.5t192 23h51q11 53 11 69q0 111 -105 111q-107 0 -200 -86l-115 190q71 68 168.5 109t193.5 41q168 0 249 -82.5
t81 -235.5zM551 469h-55q-91 0 -152 -42.5t-61 -129.5q0 -48 22.5 -73t59.5 -25q69 0 114 64.5t62 154.5z" />
    <glyph glyph-name="b" unicode="b" horiz-adv-x="1060" 
d="M1020 719q0 -129 -30.5 -260t-86 -241.5t-144 -180.5t-192.5 -70q-92 0 -146.5 47t-68.5 123h-4l-22 -137h-285l268 1548h295l-106 -602h8q31 66 92.5 109t138.5 43q138 0 210.5 -103.5t72.5 -275.5zM721 666q0 176 -109 176q-48 0 -89 -44t-66.5 -111.5t-39.5 -141.5
t-14 -139q0 -181 109 -181q49 0 90 45t66 113t39 142.5t14 140.5z" />
    <glyph glyph-name="c" unicode="c" horiz-adv-x="720" 
d="M821 1016l-153 -234q-40 43 -101 43q-62 0 -112.5 -65t-75.5 -156t-25 -180q0 -182 125 -182q53 0 109 39l78 -236q-95 -78 -246 -78q-91 0 -161 32.5t-112.5 90.5t-64 133.5t-21.5 165.5q0 129 36 255t100 227.5t162.5 164t213.5 62.5q162 0 248 -82z" />
    <glyph glyph-name="d" unicode="d" horiz-adv-x="1054" 
d="M1120 1548l-270 -1548h-285l23 137h-2q-89 -170 -248 -170q-135 0 -206 104.5t-71 278.5q0 102 19 206t57.5 201.5t91.5 173.5t127.5 121.5t159.5 45.5q87 0 136.5 -40.5t62.5 -111.5h6l106 602h293zM678 657q0 86 -27 135.5t-82 49.5q-49 0 -91 -45t-67 -113t-39 -142.5
t-14 -140.5q0 -82 27.5 -129t83.5 -47q47 0 88 44t66.5 110.5t40 140t14.5 137.5z" />
    <glyph glyph-name="e" unicode="e" horiz-adv-x="952" 
d="M918 723q0 -114 -31 -262h-533q-6 -40 -6 -68q0 -75 31.5 -119.5t91.5 -44.5q89 0 158 117l205 -133q-59 -110 -161 -178t-235 -68q-179 0 -278 111.5t-99 310.5q0 191 66.5 353.5t185 259t260.5 96.5q176 0 260.5 -102t84.5 -273zM657 727q0 141 -96 141
q-63 0 -111 -68.5t-61 -150.5h260q8 32 8 78z" />
    <glyph glyph-name="f" unicode="f" horiz-adv-x="591" 
d="M784 1585l-41 -246q-32 9 -55 9q-114 0 -145 -183l-17 -100h160l-39 -236h-160l-145 -829h-287l144 829h-133l40 236h132l18 104q78 428 412 428q58 0 116 -12z" />
    <glyph glyph-name="g" unicode="g" horiz-adv-x="1054" 
d="M1028 1065l-174 -999q-18 -105 -46.5 -188.5t-73 -153.5t-103 -117t-139 -73t-179.5 -26q-103 0 -202 39t-162 101l162 223q94 -94 213 -94q97 0 155.5 68.5t81.5 185.5l21 106h-4q-88 -153 -248 -153q-135 0 -208 103.5t-73 274.5q0 100 18.5 203t57 198.5t91 170
t127 119.5t159.5 45q87 0 142.5 -45.5t68.5 -116.5h8l22 129h285zM666 657q0 86 -27 135.5t-82 49.5q-49 0 -90 -45t-66 -113t-39 -142.5t-14 -140.5q0 -176 109 -176q48 0 89 44t66.5 110.5t39.5 139.5t14 138z" />
    <glyph glyph-name="h" unicode="h" horiz-adv-x="1077" 
d="M1008 840q0 -71 -21 -187l-113 -653h-299l115 653q8 50 8 76q0 105 -84 105q-60 0 -103.5 -57.5t-61.5 -151.5l-109 -625h-299l270 1548h297l-110 -628h4q44 79 112.5 128.5t159.5 49.5q62 0 109 -22.5t73 -60.5t39 -82t13 -93z" />
    <glyph glyph-name="i" unicode="i" horiz-adv-x="544" 
d="M590 1389q0 -83 -53 -140t-131 -57q-69 0 -109.5 44.5t-40.5 106.5q0 79 52 139t128 60q72 0 113 -43t41 -110zM522 1065l-184 -1065h-299l184 1065h299z" />
    <glyph glyph-name="j" unicode="j" horiz-adv-x="544" 
d="M590 1389q0 -83 -52.5 -140t-129.5 -57q-70 0 -111 44.5t-41 106.5q0 79 53 139t129 60q71 0 111.5 -43t40.5 -110zM530 1065l-198 -1137q-17 -91 -45 -161.5t-76 -131.5t-123.5 -94t-175.5 -33q-55 0 -121 15l45 272q30 -10 58 -10q60 0 92 44t47 126l194 1110h303z" />
    <glyph glyph-name="k" unicode="k" horiz-adv-x="995" 
d="M1081 1065l-391 -504l213 -561h-313l-168 494h-4l-84 -494h-293l266 1548h295l-162 -919h4l304 436h333z" />
    <glyph glyph-name="l" unicode="l" horiz-adv-x="546" 
d="M612 1548l-270 -1548h-301l270 1548h301z" />
    <glyph glyph-name="m" unicode="m" horiz-adv-x="1607" 
d="M997 885q43 94 121.5 153.5t184.5 59.5q62 0 109 -22.5t73.5 -60.5t39.5 -82t13 -93q0 -55 -20 -187l-115 -653h-297l115 653q6 38 6 76q0 105 -82 105q-54 0 -97.5 -51t-62.5 -130l-115 -653h-297l115 653q8 50 8 76q0 105 -84 105q-60 0 -105.5 -58.5t-60.5 -150.5
l-108 -625h-299l141 805q21 119 39 260h281q-3 -52 -19 -156h4q42 84 116 136.5t167 52.5q106 0 161.5 -59.5t67.5 -153.5z" />
    <glyph glyph-name="n" unicode="n" horiz-adv-x="1075" 
d="M1006 840q0 -71 -21 -187l-113 -653h-299l115 653q8 50 8 76q0 105 -84 105q-60 0 -105.5 -58.5t-60.5 -150.5l-108 -625h-299l141 805q21 119 39 260h283q-7 -64 -21 -156h4q42 84 116 136.5t167 52.5q62 0 109.5 -22.5t74.5 -60.5t40.5 -82.5t13.5 -92.5z" />
    <glyph glyph-name="o" unicode="o" horiz-adv-x="999" 
d="M958 684q0 -140 -35 -268t-99.5 -228.5t-165 -160.5t-222.5 -60q-175 0 -275 113t-100 303q0 111 23 216t68 195t107.5 158t147.5 107t181 39q173 0 271.5 -113t98.5 -301zM670 659q0 85 -27 134t-82 49q-48 0 -89 -45t-65.5 -113t-38.5 -142t-14 -139q0 -178 105 -178
q64 0 114.5 74.5t73.5 171.5t23 188z" />
    <glyph glyph-name="p" unicode="p" horiz-adv-x="1060" 
d="M1020 713q0 -128 -30 -258t-85 -240t-143 -179t-193 -69q-87 0 -141.5 44t-67.5 112h-4l-106 -615h-291l268 1557h283l-23 -135h5q93 168 243 168q138 0 211.5 -105t73.5 -280zM723 666q0 82 -27.5 129t-83.5 47q-47 0 -88 -44t-66.5 -110.5t-40 -140.5t-14.5 -139
q0 -85 27 -134t82 -49q49 0 91 45t67 113t39 142.5t14 140.5z" />
    <glyph glyph-name="q" unicode="q" horiz-adv-x="1067" 
d="M1040 1065l-270 -1557h-293l107 615h-4q-76 -156 -236 -156q-137 0 -210 103t-73 276q0 101 19 206t57.5 203t91 174.5t127 122.5t158.5 46q92 0 145 -46.5t66 -121.5h4l25 135h286zM678 659q0 183 -109 183q-49 0 -90 -45t-66 -113t-39 -142.5t-14 -140.5
q0 -176 109 -176q48 0 89 44t66.5 110.5t39.5 140.5t14 139z" />
    <glyph glyph-name="r" unicode="r" horiz-adv-x="675" 
d="M782 1092l-67 -304q-36 9 -64 9q-79 0 -139 -79t-80 -190l-92 -528h-301l141 805q33 185 39 260h281q-2 -30 -23 -184h6q43 106 106.5 161.5t141.5 55.5q36 0 51 -6z" />
    <glyph glyph-name="s" unicode="s" horiz-adv-x="804" 
d="M825 993l-155 -194q-66 69 -162 69q-49 0 -84 -28.5t-35 -79.5q0 -40 24 -63t95 -60q217 -109 217 -291q0 -81 -24.5 -147t-64.5 -108.5t-93.5 -71t-108.5 -40.5t-112 -12q-102 0 -197.5 36.5t-155.5 98.5l166 193q85 -92 187 -92q52 0 87 29t35 81q0 45 -33.5 77
t-105.5 67q-90 43 -142 107t-52 165q0 95 37.5 168.5t98.5 115.5t131 63.5t142 21.5q91 0 172.5 -29t132.5 -76z" />
    <glyph glyph-name="t" unicode="t" horiz-adv-x="624" 
d="M705 1065l-46 -240h-172l-79 -436q-9 -45 -9 -70q0 -90 88 -90q33 0 72 13l-39 -228q-69 -32 -155 -32q-130 0 -198.5 62.5t-68.5 176.5q0 26 8 92l91 512h-142l43 240h140l45 260h288l-47 -260h181z" />
    <glyph glyph-name="u" unicode="u" horiz-adv-x="1075" 
d="M1049 1065l-142 -805q-29 -166 -41 -260h-280q9 83 20 156h-6q-42 -86 -115 -137.5t-166 -51.5q-62 0 -109 22.5t-74 60.5t-40.5 82.5t-13.5 92.5q0 75 20 185l113 655h299l-115 -653q-8 -54 -8 -76q0 -105 84 -105q60 0 104 58t62 151l109 625h299z" />
    <glyph glyph-name="v" unicode="v" horiz-adv-x="937" 
d="M1032 1065l-467 -1065h-368l-78 1065h295l24 -752h6l275 752h313z" />
    <glyph glyph-name="w" unicode="w" horiz-adv-x="1388" 
d="M1475 1065l-431 -1065h-309l-12 657h-2l-264 -657h-299l-37 1065h297l-10 -696h4l258 696h252l10 -696h4l238 696h301z" />
    <glyph glyph-name="x" unicode="x" horiz-adv-x="921" 
d="M995 1065l-333 -522l159 -543h-301l-84 365l-205 -365h-319l367 559l-156 506h297l76 -328l180 328h319z" />
    <glyph glyph-name="y" unicode="y" horiz-adv-x="937" 
d="M1032 1065l-510 -1153q-34 -78 -64.5 -133.5t-72 -109.5t-86.5 -87.5t-105.5 -53.5t-132.5 -20q-74 0 -143 21l55 266q21 -14 76 -14q48 0 79 27.5t54 82.5l39 91l-117 1083h310l26 -743h6l285 743h301z" />
    <glyph glyph-name="z" unicode="z" horiz-adv-x="794" 
d="M838 1065l-39 -238l-469 -577h372l-43 -250h-698l43 246l461 567h-334l43 252h664z" />
    <glyph glyph-name="braceleft" unicode="{" horiz-adv-x="559" 
d="M659 1499l-41 -194h-61q-91 0 -117 -148l-57 -332q-20 -111 -70.5 -167.5t-103.5 -65.5v-4q39 -7 68.5 -46.5t29.5 -111.5q0 -37 -8 -76l-55 -329q-6 -27 -6 -58q0 -92 71 -92h60l-29 -194h-133q-100 0 -148.5 56.5t-48.5 156.5q0 47 10 112l54 305q6 43 6 74
q0 52 -21 73t-61 21l37 221q52 0 85.5 36.5t49.5 131.5l53 306q26 149 101 237t202 88h133z" />
    <glyph glyph-name="bar" unicode="|" horiz-adv-x="493" 
d="M381 -512h-266l-2 2048h268v-2048z" />
    <glyph glyph-name="braceright" unicode="}" horiz-adv-x="559" 
d="M608 700l-37 -221q-52 0 -85.5 -36.5t-49.5 -131.5l-53 -305q-26 -149 -101 -237t-202 -88h-131l39 194h61q91 0 117 148l57 331q20 110 71 167.5t103 66.5v4q-39 7 -68.5 46.5t-29.5 111.5q0 36 8 75l55 330q7 31 7 57q0 93 -72 93h-59l30 194h131q102 0 149.5 -56.5
t47.5 -156.5q0 -63 -10 -112l-51 -306q-9 -43 -9 -73q1 -53 22 -74t60 -21z" />
    <glyph glyph-name="asciitilde" unicode="~" horiz-adv-x="1363" 
d="M1214 588v-4q-56 -95 -121.5 -150t-162.5 -55q-62 0 -113 18t-117 60q-66 41 -115.5 59.5t-103.5 18.5q-102 0 -172 -144l-135 213q104 203 281 203q118 0 245 -76q142 -82 203 -82q51 0 91.5 38t86.5 108z" />
    <glyph glyph-name="uni00A0" unicode="&#xa0;" horiz-adv-x="397" 
 />
    <glyph glyph-name="exclamdown" unicode="&#xa1;" horiz-adv-x="659" 
d="M504 608l-166 -960h-307l168 960h305zM575 961q0 -79 -53.5 -141t-130.5 -62q-74 0 -116 44.5t-42 112.5q0 86 54.5 143.5t134.5 57.5q70 0 111.5 -45.5t41.5 -109.5z" />
    <glyph glyph-name="cent" unicode="&#xa2;" horiz-adv-x="1062" 
d="M750 1073q103 -15 168 -76l-148 -225q-38 41 -96 41q-60 0 -108.5 -62.5t-72.5 -149.5t-24 -173q0 -176 119 -176q47 0 104 37l76 -228q-78 -62 -201 -71l-28 -154h-129l28 162q-126 30 -189 135.5t-63 259.5q0 157 50 302t150.5 250.5t231.5 127.5l29 158h129z" />
    <glyph glyph-name="sterling" unicode="&#xa3;" horiz-adv-x="1062" 
d="M1096 1411l-144 -246q-45 39 -118 39q-148 0 -187 -227l-18 -111h237l-43 -243h-233l-58 -334h363l-51 -289h-826l52 289h161l58 334h-158l45 243h154l24 140q13 72 33.5 135.5t59 129.5t88.5 113t126.5 77t169.5 30q81 0 151 -23t114 -57z" />
    <glyph glyph-name="currency" unicode="&#xa4;" horiz-adv-x="1945" 
d="M1460 940q86 -133 86 -307q0 -184 -92 -318l191 -190l-172 -172q-44 42 -199 197q-132 -80 -299 -80q-159 0 -301 84q-135 -135 -203 -201l-172 172l197 197q-86 128 -86 311q0 171 79 301l-190 190q59 57 174 172q33 -33 98.5 -97t96.5 -95q139 84 307 84q169 0 307 -80
l188 188q29 -28 88 -85.5t87 -86.5zM975 903q-113 0 -185.5 -79t-72.5 -191q0 -116 72 -195.5t186 -79.5q115 0 187.5 79.5t72.5 195.5q0 111 -73.5 190.5t-186.5 79.5z" />
    <glyph glyph-name="yen" unicode="&#xa5;" horiz-adv-x="1062" 
d="M1206 1450l-350 -580h164l-35 -206h-274l-29 -160h274l-36 -207h-273l-53 -297h-307l51 297h-268l36 207h269l28 160h-268l37 206h170l-149 580h317l94 -553l281 553h321z" />
    <glyph glyph-name="brokenbar" unicode="&#xa6;" horiz-adv-x="493" 
d="M381 641h-268v741h268v-741zM381 -358h-268v741h268v-741z" />
    <glyph glyph-name="section" unicode="&#xa7;" horiz-adv-x="1046" 
d="M1065 1358l-195 -197q-65 76 -172 76q-57 0 -106 -35.5t-49 -97.5q0 -54 34 -85t142 -79q130 -60 191 -140t61 -192q0 -104 -61 -183.5t-144 -109.5q38 -29 62 -80.5t24 -111.5q0 -91 -30.5 -165t-78.5 -121.5t-111 -80t-126 -46t-125 -13.5q-125 0 -237 46t-169 126
l187 199q41 -55 101.5 -87t129.5 -32q64 0 112 34.5t48 100.5q0 54 -39 92t-143 84q-135 57 -192.5 126.5t-57.5 184.5q0 109 62.5 192.5t146.5 117.5q-34 26 -55 74.5t-21 99.5q0 184 126.5 309t326.5 125q239 0 358 -131zM713 563q0 49 -32 83t-93 65l-101 51
q-45 -8 -77.5 -46t-32.5 -91q0 -30 7.5 -51.5t27 -38t36 -26.5t50.5 -26l106 -49q42 8 75.5 43.5t33.5 85.5z" />
    <glyph glyph-name="dieresis" unicode="&#xa8;" 
d="M762 1384q0 -70 -44.5 -117.5t-109.5 -47.5q-60 0 -94.5 38t-34.5 91q0 66 45 117t109 51q61 0 95 -37t34 -95zM381 1384q0 -71 -44 -118t-110 -47q-59 0 -93 38t-34 91q0 67 44 117.5t110 50.5q60 0 93.5 -37t33.5 -95z" />
    <glyph glyph-name="copyright" unicode="&#xa9;" horiz-adv-x="1310" 
d="M655 -41q-260 0 -420.5 209t-160.5 559t160.5 559t420.5 209t421 -209t161 -559t-161 -559t-421 -209zM655 1405q-144 0 -252.5 -88t-165.5 -241.5t-57 -348.5t57 -348.5t165.5 -241.5t252.5 -88t252.5 88t165.5 241.5t57 348.5t-57 348.5t-165.5 241.5t-252.5 88z
M793 545l118 -158q-83 -129 -225 -129q-153 0 -244.5 129.5t-91.5 343.5q0 215 90.5 345t239.5 130q74 0 133.5 -32t95.5 -89l-112 -161q-34 67 -103 67q-56 0 -90.5 -73t-34.5 -187q0 -112 34.5 -185t90.5 -73q64 0 99 72z" />
    <glyph glyph-name="ordfeminine" unicode="&#xaa;" horiz-adv-x="651" 
d="M705 1274q0 -42 -11 -92l-41 -246q-8 -47 -16 -131h-162q6 62 12 84h-4q-51 -107 -157 -107q-60 0 -108 46.5t-48 127.5q0 71 25 124t69.5 83.5t99.5 45t121 14.5h31q2 12 2 28q0 28 -16 46t-47 18q-59 0 -119 -53l-74 124q45 41 107 66t123 25q106 0 159.5 -54
t53.5 -149zM502 1100h-35q-57 0 -92 -27t-35 -82q0 -30 14.5 -45.5t38.5 -15.5q78 0 103 137z" />
    <glyph glyph-name="guillemotleft" unicode="&#xab;" horiz-adv-x="839" 
d="M850 922l-250 -390l113 -387l-168 -67l-139 473l299 459zM520 922l-250 -390l113 -387l-168 -67l-137 473l299 459z" />
    <glyph glyph-name="logicalnot" unicode="&#xac;" horiz-adv-x="1363" 
d="M1241 297h-266v375h-871v252h1137v-627z" />
    <glyph glyph-name="uni00AD" unicode="&#xad;" horiz-adv-x="493" 
d="M475 680l-41 -231h-383l41 231h383z" />
    <glyph glyph-name="registered" unicode="&#xae;" horiz-adv-x="983" 
d="M551 1061h33q19 0 31 18t12 47q0 21 -12.5 34.5t-30.5 13.5h-33v-113zM791 760h-154l-68 190h-18v-190h-145v545h184q75 0 126.5 -41.5t51.5 -135.5q0 -119 -68 -151zM573 561q-156 0 -252 125t-96 336t96 336t252 125q157 0 253 -125t96 -336t-96 -336t-253 -125z
M573 1430q-130 0 -207 -114t-77 -294t77 -294t207 -114t207.5 114t77.5 294t-77.5 294t-207.5 114z" />
    <glyph glyph-name="macron" unicode="&#xaf;" 
d="M743 1438l-28 -162h-602l26 162h604z" />
    <glyph glyph-name="degree" unicode="&#xb0;" horiz-adv-x="643" 
d="M709 1227q0 -75 -22 -150.5t-61.5 -138t-100 -102t-130.5 -39.5q-105 0 -164 77t-59 191q0 76 21.5 151.5t60.5 137t100 99.5t133 38q105 0 163.5 -75t58.5 -189zM582 1214q0 71 -29 113.5t-80 42.5q-50 0 -90.5 -46.5t-61 -113t-20.5 -135.5q0 -72 28 -114.5t79 -42.5
q71 0 122.5 93.5t51.5 202.5z" />
    <glyph glyph-name="plusminus" unicode="&#xb1;" horiz-adv-x="1363" 
d="M1262 678h-435v-270h-266v270h-436v260h436v270h266v-270h435v-260zM1262 63h-1137v261h1137v-261z" />
    <glyph glyph-name="twosuperior" unicode="&#xb2;" horiz-adv-x="661" 
d="M743 1239q0 -89 -41.5 -155t-140.5 -160l-196 -185h292l-30 -188h-553l32 192l328 312q53 51 74.5 87.5t21.5 74.5q0 29 -16 50t-49 21q-36 0 -61.5 -29t-34.5 -77l-203 26q32 129 117.5 197t208.5 68q112 0 181.5 -61.5t69.5 -172.5z" />
    <glyph glyph-name="threesuperior" unicode="&#xb3;" horiz-adv-x="661" 
d="M727 1257q0 -83 -44.5 -147.5t-115.5 -83.5l-2 -4q52 -17 80.5 -66t28.5 -110q0 -145 -93.5 -231.5t-228.5 -86.5q-121 0 -191.5 61.5t-92.5 162.5l192 51q10 -38 34 -63t62 -25q50 0 79.5 34.5t29.5 92.5q0 41 -29 66.5t-74 25.5h-47l27 164h53q55 0 89 33.5t34 91.5
q0 28 -19.5 49.5t-54.5 21.5q-60 0 -98 -75l-174 53q42 106 122.5 156.5t180.5 50.5q107 0 179.5 -56.5t72.5 -165.5z" />
    <glyph glyph-name="acute" unicode="&#xb4;" 
d="M737 1503l-282 -295h-207l229 295h260z" />
    <glyph glyph-name="mu" unicode="&#xb5;" horiz-adv-x="1363" 
d="M182 1020h332v-508q0 -32 3 -62t13.5 -66.5t26.5 -63t46 -44.5t69 -18q97 0 141.5 63t44.5 164v535h332v-1020h-318v117h-2q-75 -131 -227 -131q-85 0 -129 41v-490h-332v1483z" />
    <glyph glyph-name="paragraph" unicode="&#xb6;" horiz-adv-x="1265" 
d="M1137 -264h-238v1509h-174v-1509h-238v950q-200 4 -319 106.5t-119 268.5q0 389 500 389h588v-1714z" />
    <glyph glyph-name="periodcentered" unicode="&#xb7;" horiz-adv-x="536" 
d="M451 567q0 -86 -54.5 -143t-134.5 -57q-72 0 -112.5 45t-40.5 110q0 79 53.5 141t130.5 62q74 0 116 -44.5t42 -113.5z" />
    <glyph glyph-name="cedilla" unicode="&#xb8;" 
d="M381 -276q0 -55 -27.5 -97t-72.5 -65t-94 -34t-99 -11q-53 0 -116.5 13t-106.5 34l69 123q60 -31 146 -31q102 0 102 61q0 54 -71 54q-40 0 -84 -13l-52 54l162 188h164l-113 -127q24 4 45 4q59 0 103.5 -37.5t44.5 -115.5z" />
    <glyph glyph-name="onesuperior" unicode="&#xb9;" horiz-adv-x="661" 
d="M670 1450l-158 -905h-221l119 663l-152 -92l-70 162l293 172h189z" />
    <glyph glyph-name="ordmasculine" unicode="&#xba;" horiz-adv-x="651" 
d="M715 1214q0 -82 -21 -157.5t-60 -135t-100.5 -95t-136.5 -35.5q-110 0 -168.5 73t-58.5 189q0 113 39 209t112.5 155.5t167.5 59.5q110 0 168 -72.5t58 -190.5zM532 1208q0 101 -61 101q-28 0 -51 -26t-37 -65.5t-21.5 -82t-7.5 -78.5q0 -46 16 -73.5t46 -27.5
q36 0 64 44t40 100t12 108z" />
    <glyph glyph-name="guillemotright" unicode="&#xbb;" horiz-adv-x="839" 
d="M782 537l-299 -459l-145 88l250 387l-113 389l168 68zM455 537l-301 -459l-144 88l250 387l-113 389l168 68z" />
    <glyph glyph-name="onequarter" unicode="&#xbc;" horiz-adv-x="1531" 
d="M1315 188l-33 -188h-184l32 188h-339l30 172l361 553h260l-99 -561h97l-29 -164h-96zM1229 711h-2l-219 -359h155zM670 1450l-158 -905h-221l119 663l-152 -92l-70 162l293 172h189zM1282 1460l-823 -1499l-121 45l825 1503z" />
    <glyph glyph-name="onehalf" unicode="&#xbd;" horiz-adv-x="1531" 
d="M1513 686q0 -88 -41.5 -153.5t-140.5 -159.5l-196 -187h292l-30 -186h-553l33 193l327 311q53 51 74.5 87.5t21.5 74.5q0 28 -16 48.5t-49 20.5q-36 0 -61.5 -29t-34.5 -77l-203 28q32 129 117.5 197t208.5 68q112 0 181.5 -62t69.5 -174zM670 1450l-158 -905h-221
l119 663l-152 -92l-70 162l293 172h189zM1282 1460l-823 -1499l-121 45l825 1503z" />
    <glyph glyph-name="threequarters" unicode="&#xbe;" horiz-adv-x="1531" 
d="M1315 188l-33 -188h-184l32 188h-339l30 172l361 553h260l-99 -561h97l-29 -164h-96zM1229 711h-2l-219 -359h155zM727 1257q0 -83 -44.5 -147.5t-115.5 -83.5l-2 -4q52 -17 80.5 -66t28.5 -110q0 -145 -93.5 -231.5t-228.5 -86.5q-121 0 -191.5 61.5t-92.5 162.5l192 51
q10 -38 34 -63t62 -25q50 0 79.5 34.5t29.5 92.5q0 41 -29 66.5t-74 25.5h-47l27 164h53q55 0 89 33.5t34 91.5q0 28 -19.5 49.5t-54.5 21.5q-60 0 -98 -75l-174 53q42 106 122.5 156.5t180.5 50.5q107 0 179.5 -56.5t72.5 -165.5zM1282 1460l-823 -1499l-121 45l825 1503z
" />
    <glyph glyph-name="questiondown" unicode="&#xbf;" horiz-adv-x="856" 
d="M721 -41q-19 -70 -55 -131t-89.5 -112t-130.5 -81t-167 -30q-162 0 -257.5 94.5t-95.5 239.5q0 60 14 112.5t34.5 91.5t57.5 81t69.5 71t84.5 70q60 48 87 90t36 96l10 61h252l-14 -88q-17 -99 -63.5 -173.5t-128.5 -145.5l-43 -37q-55 -48 -82 -89.5t-27 -98.5
q0 -55 27.5 -86t78.5 -31q67 0 108 48t58 112zM653 961q0 -79 -52.5 -141t-129.5 -62q-74 0 -116 44.5t-42 112.5q0 86 54 143.5t133 57.5q71 0 112 -45.5t41 -109.5z" />
    <glyph glyph-name="Agrave" unicode="&#xc0;" horiz-adv-x="1107" 
d="M1020 0h-320l-6 272h-338l-108 -272h-328l629 1450h395zM698 514l-12 623h-8l-240 -623h260zM918 1565h-207l-262 295h258z" />
    <glyph glyph-name="Aacute" unicode="&#xc1;" horiz-adv-x="1107" 
d="M1020 0h-320l-6 272h-338l-108 -272h-328l629 1450h395zM698 514l-12 623h-8l-240 -623h260zM1098 1862l-283 -295h-207l230 295h260z" />
    <glyph glyph-name="Acircumflex" unicode="&#xc2;" horiz-adv-x="1107" 
d="M1020 0h-320l-6 272h-338l-108 -272h-328l629 1450h395zM698 514l-12 623h-8l-240 -623h260zM1114 1565h-213l-106 170l-160 -170h-225l286 295h238z" />
    <glyph glyph-name="Atilde" unicode="&#xc3;" horiz-adv-x="1107" 
d="M1020 0h-320l-6 272h-338l-108 -272h-328l629 1450h395zM698 514l-12 623h-8l-240 -623h260zM1098 1827q-22 -115 -82.5 -184.5t-141.5 -69.5q-74 0 -141 47q-39 28 -59 36.5t-47 8.5q-29 0 -51 -22.5t-31 -59.5h-123q22 112 82 181t141 69q71 0 141 -49q41 -27 62.5 -36
t48.5 -9q60 0 80 88h121z" />
    <glyph glyph-name="Adieresis" unicode="&#xc4;" horiz-adv-x="1107" 
d="M1020 0h-320l-6 272h-338l-108 -272h-328l629 1450h395zM698 514l-12 623h-8l-240 -623h260zM1104 1743q0 -70 -44.5 -118t-109.5 -48q-60 0 -94.5 38t-34.5 91q0 66 44.5 116t109.5 50q61 0 95 -36t34 -93zM723 1743q0 -71 -44 -118.5t-110 -47.5q-59 0 -93 38t-34 91
q0 66 44 116t110 50q60 0 93.5 -36t33.5 -93z" />
    <glyph glyph-name="Aring" unicode="&#xc5;" horiz-adv-x="1107" 
d="M1020 0h-320l-6 272h-338l-108 -272h-328l629 1450h395zM698 514l-12 623h-8l-240 -623h260zM985 1784q0 -103 -67 -178.5t-164 -75.5q-84 0 -131.5 50t-47.5 130q0 107 64.5 184.5t157.5 77.5q90 0 139 -53t49 -135zM893 1776q0 46 -25 78t-73 32q-59 0 -94 -50.5
t-35 -117.5q0 -46 24.5 -75t71.5 -29q56 0 93.5 49.5t37.5 112.5z" />
    <glyph glyph-name="AE" unicode="&#xc6;" horiz-adv-x="1456" 
d="M1534 1450l-49 -276h-365l-53 -302h338l-43 -258h-338l-57 -331h399l-49 -283h-694l47 270h-293l-137 -270h-330l756 1450h868zM829 1171h-12l-323 -645h221z" />
    <glyph glyph-name="Ccedilla" unicode="&#xc7;" horiz-adv-x="1030" 
d="M750 -276q0 -55 -27.5 -97t-72.5 -65t-94 -34t-99 -11q-53 0 -117 13t-107 34l70 123q60 -31 146 -31q102 0 102 61q0 54 -72 54q-40 0 -84 -13l-51 54l135 159q-186 29 -285.5 176t-99.5 377q0 147 32 289.5t94 263.5t145.5 213t192.5 144.5t230 52.5q257 0 377 -170
l-215 -234q-32 50 -73 75.5t-103 25.5q-79 0 -146.5 -58.5t-111 -150.5t-68 -200t-24.5 -210q0 -137 49.5 -217t149.5 -80q105 0 196 99l146 -234q-138 -142 -324 -166l-84 -94q24 4 45 4q59 0 103.5 -37.5t44.5 -115.5z" />
    <glyph glyph-name="Egrave" unicode="&#xc8;" horiz-adv-x="901" 
d="M979 1450l-47 -276h-379l-53 -302h354l-45 -258h-352l-58 -331h414l-49 -283h-715l252 1450h678zM776 1565h-207l-262 295h258z" />
    <glyph glyph-name="Eacute" unicode="&#xc9;" horiz-adv-x="901" 
d="M979 1450l-47 -276h-379l-53 -302h354l-45 -258h-352l-58 -331h414l-49 -283h-715l252 1450h678zM1018 1862l-283 -295h-207l230 295h260z" />
    <glyph glyph-name="Ecircumflex" unicode="&#xca;" horiz-adv-x="901" 
d="M979 1450l-47 -276h-379l-53 -302h354l-45 -258h-352l-58 -331h414l-49 -283h-715l252 1450h678zM999 1565h-213l-106 170l-160 -170h-225l287 295h237z" />
    <glyph glyph-name="Edieresis" unicode="&#xcb;" horiz-adv-x="901" 
d="M979 1450l-47 -276h-379l-53 -302h354l-45 -258h-352l-58 -331h414l-49 -283h-715l252 1450h678zM1006 1743q0 -70 -44.5 -118t-109.5 -48q-60 0 -94.5 38t-34.5 91q0 66 44.5 116t109.5 50q61 0 95 -36t34 -93zM625 1743q0 -71 -44 -118.5t-110 -47.5q-59 0 -93 38
t-34 91q0 66 44 116t110 50q60 0 93.5 -36t33.5 -93z" />
    <glyph glyph-name="Igrave" unicode="&#xcc;" horiz-adv-x="579" 
d="M618 1450l-251 -1450h-318l252 1450h317zM604 1565h-207l-262 295h258z" />
    <glyph glyph-name="Iacute" unicode="&#xcd;" horiz-adv-x="579" 
d="M618 1450l-251 -1450h-318l252 1450h317zM823 1862l-282 -295h-207l229 295h260z" />
    <glyph glyph-name="Icircumflex" unicode="&#xce;" horiz-adv-x="579" 
d="M618 1450l-251 -1450h-318l252 1450h317zM829 1565h-213l-106 170l-160 -170h-225l287 295h237z" />
    <glyph glyph-name="Idieresis" unicode="&#xcf;" horiz-adv-x="579" 
d="M618 1450l-251 -1450h-318l252 1450h317zM831 1743q0 -70 -44 -118t-109 -48q-60 0 -94.5 38t-34.5 91q0 66 44 116t109 50q61 0 95 -36t34 -93zM451 1743q0 -71 -44 -118.5t-110 -47.5q-59 0 -93 38t-34 91q0 66 44 116t110 50q60 0 93.5 -36t33.5 -93z" />
    <glyph glyph-name="Eth" unicode="&#xd0;" horiz-adv-x="1191" 
d="M1188 885q0 -129 -22.5 -250t-76 -238t-134 -204t-205.5 -140t-281 -53h-420l111 639h-101l37 201h99l106 610h383q133 0 231 -41t157 -117t87.5 -177.5t28.5 -229.5zM866 858q0 145 -51.5 231.5t-159.5 86.5h-88l-57 -336h184l-37 -201h-182l-63 -365h92q86 0 157 52.5
t114.5 138t67 187t23.5 206.5z" />
    <glyph glyph-name="Ntilde" unicode="&#xd1;" horiz-adv-x="1226" 
d="M1266 1450l-252 -1450h-338l-191 903h-6l-147 -903h-283l252 1450h346l182 -915h9l151 915h277zM1159 1827q-22 -115 -82 -184.5t-141 -69.5q-74 0 -141 47q-38 28 -59 36.5t-48 8.5q-29 0 -51 -22.5t-31 -59.5h-123q22 111 82.5 180.5t141.5 69.5q71 0 141 -49
q41 -27 62 -36t48 -9q60 0 80 88h121z" />
    <glyph glyph-name="Ograve" unicode="&#xd2;" horiz-adv-x="1243" 
d="M1237 930q0 -179 -48 -351.5t-133 -310t-215 -221.5t-282 -84q-220 0 -342.5 150t-122.5 403q0 143 29 283t87.5 264t138.5 219t189.5 150t233.5 55q226 0 345.5 -150t119.5 -407zM911 885q0 301 -170 301q-75 0 -138 -63.5t-101.5 -161t-60 -207t-21.5 -209.5
q0 -127 41 -203t133 -76q71 0 133 59.5t101 152t61 200t22 207.5zM918 1565h-207l-262 295h258z" />
    <glyph glyph-name="Oacute" unicode="&#xd3;" horiz-adv-x="1243" 
d="M1237 930q0 -179 -48 -351.5t-133 -310t-215 -221.5t-282 -84q-220 0 -342.5 150t-122.5 403q0 143 29 283t87.5 264t138.5 219t189.5 150t233.5 55q226 0 345.5 -150t119.5 -407zM911 885q0 301 -170 301q-75 0 -138 -63.5t-101.5 -161t-60 -207t-21.5 -209.5
q0 -127 41 -203t133 -76q71 0 133 59.5t101 152t61 200t22 207.5zM1163 1862l-282 -295h-207l229 295h260z" />
    <glyph glyph-name="Ocircumflex" unicode="&#xd4;" horiz-adv-x="1243" 
d="M1237 930q0 -179 -48 -351.5t-133 -310t-215 -221.5t-282 -84q-220 0 -342.5 150t-122.5 403q0 143 29 283t87.5 264t138.5 219t189.5 150t233.5 55q226 0 345.5 -150t119.5 -407zM911 885q0 301 -170 301q-75 0 -138 -63.5t-101.5 -161t-60 -207t-21.5 -209.5
q0 -127 41 -203t133 -76q71 0 133 59.5t101 152t61 200t22 207.5zM1151 1565h-213l-107 170l-159 -170h-226l287 295h238z" />
    <glyph glyph-name="Otilde" unicode="&#xd5;" horiz-adv-x="1243" 
d="M1237 930q0 -179 -48 -351.5t-133 -310t-215 -221.5t-282 -84q-220 0 -342.5 150t-122.5 403q0 143 29 283t87.5 264t138.5 219t189.5 150t233.5 55q226 0 345.5 -150t119.5 -407zM911 885q0 301 -170 301q-75 0 -138 -63.5t-101.5 -161t-60 -207t-21.5 -209.5
q0 -127 41 -203t133 -76q71 0 133 59.5t101 152t61 200t22 207.5zM1169 1827q-22 -115 -82 -184.5t-141 -69.5q-74 0 -141 47q-38 28 -59 36.5t-48 8.5q-29 0 -51 -22.5t-31 -59.5h-122q22 112 82 181t141 69q71 0 141 -49q41 -27 62.5 -36t48.5 -9q60 0 80 88h120z" />
    <glyph glyph-name="Odieresis" unicode="&#xd6;" horiz-adv-x="1243" 
d="M1237 930q0 -179 -48 -351.5t-133 -310t-215 -221.5t-282 -84q-220 0 -342.5 150t-122.5 403q0 143 29 283t87.5 264t138.5 219t189.5 150t233.5 55q226 0 345.5 -150t119.5 -407zM911 885q0 301 -170 301q-75 0 -138 -63.5t-101.5 -161t-60 -207t-21.5 -209.5
q0 -127 41 -203t133 -76q71 0 133 59.5t101 152t61 200t22 207.5zM1167 1743q0 -70 -44 -118t-109 -48q-60 0 -94.5 38t-34.5 91q0 66 44 116t109 50q61 0 95 -36t34 -93zM786 1743q0 -71 -43.5 -118.5t-109.5 -47.5q-59 0 -93 38t-34 91q0 67 43.5 116.5t109.5 49.5
q60 0 93.5 -36t33.5 -93z" />
    <glyph glyph-name="multiply" unicode="&#xd7;" horiz-adv-x="1363" 
d="M1237 266l-193 -190l-362 354l-360 -354l-191 182l363 358l-365 357l193 186l362 -354l356 352l187 -178l-357 -354z" />
    <glyph glyph-name="Oslash" unicode="&#xd8;" horiz-adv-x="1243" 
d="M1237 930q0 -179 -48 -351.5t-133 -310t-215 -221.5t-282 -84q-166 0 -283 90l-96 -147l-135 69l131 193q-82 142 -82 348q0 143 29 283t87.5 264t138.5 219t189.5 150t233.5 55q169 0 287 -94l108 166l133 -68l-143 -211q80 -139 80 -350zM410 541q0 -45 2 -68l450 662
q-42 61 -119 61t-142 -64.5t-105.5 -164.5t-63 -212t-22.5 -214zM920 889q0 13 -5 76l-448 -652q46 -55 123 -55q74 0 138.5 61t105 155.5t63.5 203.5t23 211z" />
    <glyph glyph-name="Ugrave" unicode="&#xd9;" horiz-adv-x="1179" 
d="M1247 1450l-160 -913q-18 -103 -43.5 -184t-69 -156.5t-101.5 -125t-142.5 -79t-191.5 -29.5q-213 0 -325 113t-112 299q0 77 15 162l159 913h318l-156 -889q-14 -82 -14 -131q0 -166 135 -166q51 0 89 22t63 65t40 92.5t27 117.5l154 889h315zM915 1565h-206l-263 295
h259z" />
    <glyph glyph-name="Uacute" unicode="&#xda;" horiz-adv-x="1179" 
d="M1247 1450l-160 -913q-18 -103 -43.5 -184t-69 -156.5t-101.5 -125t-142.5 -79t-191.5 -29.5q-213 0 -325 113t-112 299q0 77 15 162l159 913h318l-156 -889q-14 -82 -14 -131q0 -166 135 -166q51 0 89 22t63 65t40 92.5t27 117.5l154 889h315zM1128 1862l-282 -295h-207
l229 295h260z" />
    <glyph glyph-name="Ucircumflex" unicode="&#xdb;" horiz-adv-x="1179" 
d="M1247 1450l-160 -913q-18 -103 -43.5 -184t-69 -156.5t-101.5 -125t-142.5 -79t-191.5 -29.5q-213 0 -325 113t-112 299q0 77 15 162l159 913h318l-156 -889q-14 -82 -14 -131q0 -166 135 -166q51 0 89 22t63 65t40 92.5t27 117.5l154 889h315zM1143 1565h-213l-107 170
l-159 -170h-226l287 295h238z" />
    <glyph glyph-name="Udieresis" unicode="&#xdc;" horiz-adv-x="1179" 
d="M1247 1450l-160 -913q-18 -103 -43.5 -184t-69 -156.5t-101.5 -125t-142.5 -79t-191.5 -29.5q-213 0 -325 113t-112 299q0 77 15 162l159 913h318l-156 -889q-14 -82 -14 -131q0 -166 135 -166q51 0 89 22t63 65t40 92.5t27 117.5l154 889h315zM1133 1743
q0 -70 -44.5 -118t-109.5 -48q-60 0 -94.5 38t-34.5 91q0 66 44.5 116t109.5 50q61 0 95 -36t34 -93zM752 1743q0 -71 -44 -118.5t-110 -47.5q-59 0 -93 38t-34 91q0 66 44 116t110 50q60 0 93.5 -36t33.5 -93z" />
    <glyph glyph-name="Yacute" unicode="&#xdd;" horiz-adv-x="1009" 
d="M1186 1450l-529 -926l-92 -524h-317l92 524l-197 926h332l76 -602h6l287 602h342zM1024 1862l-283 -295h-206l229 295h260z" />
    <glyph glyph-name="Thorn" unicode="&#xde;" horiz-adv-x="1054" 
d="M1071 846q0 -254 -139.5 -394.5t-368.5 -140.5h-147l-60 -311h-307l252 1450h309l-37 -227h107q61 0 117 -13t106.5 -42t87.5 -72t58.5 -107t21.5 -143zM772 801q0 73 -37.5 114t-103.5 41h-105l-65 -391h108q91 0 147 64.5t56 171.5z" />
    <glyph glyph-name="germandbls" unicode="&#xdf;" horiz-adv-x="1048" 
d="M1069 1223q0 -135 -67.5 -239t-194.5 -138q88 -29 142.5 -114.5t54.5 -211.5q0 -80 -17 -156t-54.5 -146.5t-92 -122.5t-136 -83.5t-180.5 -31.5q-60 0 -121 18l46 254q35 -12 65 -12q68 0 116.5 41.5t69.5 102.5t21 134q0 87 -41.5 139t-110.5 52h-34l45 247h32
q70 0 124.5 61.5t54.5 158.5q0 57 -25.5 96t-83.5 39q-40 0 -70 -21t-49.5 -61.5t-31.5 -82t-23 -99.5l-182 -1047h-293l176 1020q21 120 56 214.5t92 173.5t144.5 122t200.5 43q98 0 171 -28.5t114.5 -78t61.5 -110.5t20 -133z" />
    <glyph glyph-name="agrave" unicode="&#xe0;" horiz-adv-x="917" 
d="M729 1206h-207l-262 295h258zM858 780q0 -81 -18 -180l-68 -391q-23 -134 -27 -209h-249q4 74 18 133h-6q-75 -160 -250 -160q-95 0 -165 69.5t-70 197.5q0 113 40 197t111 132.5t158 71.5t192 23h51q11 53 11 69q0 111 -105 111q-107 0 -200 -86l-115 190
q71 68 168.5 109t193.5 41q168 0 249 -82.5t81 -235.5zM551 469h-55q-91 0 -152 -42.5t-61 -129.5q0 -48 22.5 -73t59.5 -25q69 0 114 64.5t62 154.5z" />
    <glyph glyph-name="aacute" unicode="&#xe1;" horiz-adv-x="917" 
d="M911 1503l-282 -295h-207l229 295h260zM858 780q0 -81 -18 -180l-68 -391q-23 -134 -27 -209h-249q4 74 18 133h-6q-75 -160 -250 -160q-95 0 -165 69.5t-70 197.5q0 113 40 197t111 132.5t158 71.5t192 23h51q11 53 11 69q0 111 -105 111q-107 0 -200 -86l-115 190
q71 68 168.5 109t193.5 41q168 0 249 -82.5t81 -235.5zM551 469h-55q-91 0 -152 -42.5t-61 -129.5q0 -48 22.5 -73t59.5 -25q69 0 114 64.5t62 154.5z" />
    <glyph glyph-name="acircumflex" unicode="&#xe2;" horiz-adv-x="917" 
d="M920 1206h-213l-107 170l-160 -170h-225l287 295h237zM858 780q0 -81 -18 -180l-68 -391q-23 -134 -27 -209h-249q4 74 18 133h-6q-75 -160 -250 -160q-95 0 -165 69.5t-70 197.5q0 113 40 197t111 132.5t158 71.5t192 23h51q11 53 11 69q0 111 -105 111q-107 0 -200 -86
l-115 190q71 68 168.5 109t193.5 41q168 0 249 -82.5t81 -235.5zM551 469h-55q-91 0 -152 -42.5t-61 -129.5q0 -48 22.5 -73t59.5 -25q69 0 114 64.5t62 154.5z" />
    <glyph glyph-name="atilde" unicode="&#xe3;" horiz-adv-x="917" 
d="M915 1468q-22 -115 -82 -184.5t-141 -69.5q-73 0 -141 48q-38 28 -59 36.5t-48 8.5q-29 0 -51 -22.5t-31 -59.5h-122q21 109 82 180q60 70 141 70q70 0 141 -50q41 -27 62.5 -36t48.5 -9q60 0 80 88h120zM858 780q0 -81 -18 -180l-68 -391q-23 -134 -27 -209h-249
q4 74 18 133h-6q-75 -160 -250 -160q-95 0 -165 69.5t-70 197.5q0 113 40 197t111 132.5t158 71.5t192 23h51q11 53 11 69q0 111 -105 111q-107 0 -200 -86l-115 190q71 68 168.5 109t193.5 41q168 0 249 -82.5t81 -235.5zM551 469h-55q-91 0 -152 -42.5t-61 -129.5
q0 -48 22.5 -73t59.5 -25q69 0 114 64.5t62 154.5z" />
    <glyph glyph-name="adieresis" unicode="&#xe4;" horiz-adv-x="917" 
d="M858 780q0 -81 -18 -180l-68 -391q-23 -134 -27 -209h-249q4 74 18 133h-6q-75 -160 -250 -160q-95 0 -165 69.5t-70 197.5q0 113 40 197t111 132.5t158 71.5t192 23h51q11 53 11 69q0 111 -105 111q-107 0 -200 -86l-115 190q71 68 168.5 109t193.5 41q168 0 249 -82.5
t81 -235.5zM551 469h-55q-91 0 -152 -42.5t-61 -129.5q0 -48 22.5 -73t59.5 -25q69 0 114 64.5t62 154.5zM920 1384q0 -70 -44.5 -117.5t-109.5 -47.5q-60 0 -94.5 38t-34.5 91q0 66 45 117t109 51q61 0 95 -37t34 -95zM539 1384q0 -71 -44 -118t-110 -47q-59 0 -93 38
t-34 91q0 67 44 117.5t110 50.5q60 0 93.5 -37t33.5 -95z" />
    <glyph glyph-name="aring" unicode="&#xe5;" horiz-adv-x="917" 
d="M799 1425q0 -103 -67.5 -178.5t-164.5 -75.5q-84 0 -131 50.5t-47 130.5q0 108 64 185t157 77q90 0 139.5 -53.5t49.5 -135.5zM707 1417q0 46 -25.5 78.5t-73.5 32.5q-59 0 -94 -50.5t-35 -117.5q0 -46 24.5 -75.5t71.5 -29.5q56 0 94 49.5t38 112.5zM858 780
q0 -81 -18 -180l-68 -391q-23 -134 -27 -209h-249q4 74 18 133h-6q-75 -160 -250 -160q-95 0 -165 69.5t-70 197.5q0 113 40 197t111 132.5t158 71.5t192 23h51q11 53 11 69q0 111 -105 111q-107 0 -200 -86l-115 190q71 68 168.5 109t193.5 41q168 0 249 -82.5t81 -235.5z
M551 469h-55q-91 0 -152 -42.5t-61 -129.5q0 -48 22.5 -73t59.5 -25q69 0 114 64.5t62 154.5z" />
    <glyph glyph-name="ae" unicode="&#xe6;" horiz-adv-x="1423" 
d="M1389 723q0 -106 -33 -258h-533q-6 -47 -6 -72q0 -75 31.5 -119.5t91.5 -44.5q89 0 158 117l205 -133q-59 -110 -161 -178t-235 -68q-101 0 -177.5 58.5t-98.5 148.5q-98 -207 -344 -207q-109 0 -186.5 70t-77.5 199q0 90 26.5 161.5t72 118t109.5 77t136 43.5t155 13h51
q13 53 13 88q0 111 -105 111q-107 0 -200 -86l-115 190q70 67 167.5 106.5t194.5 39.5q216 0 244 -170q41 77 115.5 123.5t156.5 46.5q177 0 261 -101.5t84 -273.5zM1126 727q0 141 -96 141q-63 0 -111 -68.5t-61 -150.5h260q8 32 8 78zM549 455h-55q-58 0 -103.5 -15
t-76.5 -51.5t-31 -91.5q0 -48 22.5 -73t59.5 -25q69 0 114.5 62.5t59.5 141.5z" />
    <glyph glyph-name="ccedilla" unicode="&#xe7;" horiz-adv-x="720" 
d="M578 -276q0 -55 -27.5 -97t-72.5 -65t-94 -34t-99 -11q-53 0 -117 13t-107 34l70 123q60 -31 145 -31q103 0 103 61q0 54 -72 54q-40 0 -84 -13l-51 54l143 168q-127 33 -190.5 142t-63.5 267q0 129 36 255t100 227.5t162.5 164t213.5 62.5q162 0 248 -82l-153 -234
q-40 43 -101 43q-62 0 -112.5 -65t-75.5 -156t-25 -180q0 -182 125 -182q53 0 109 39l78 -236q-77 -64 -195 -76l-86 -96q24 4 45 4q59 0 103.5 -37.5t44.5 -115.5z" />
    <glyph glyph-name="egrave" unicode="&#xe8;" horiz-adv-x="952" 
d="M750 1206h-207l-262 295h258zM918 723q0 -114 -31 -262h-533q-6 -40 -6 -68q0 -75 31.5 -119.5t91.5 -44.5q89 0 158 117l205 -133q-59 -110 -161 -178t-235 -68q-179 0 -278 111.5t-99 310.5q0 191 66.5 353.5t185 259t260.5 96.5q176 0 260.5 -102t84.5 -273zM657 727
q0 141 -96 141q-63 0 -111 -68.5t-61 -150.5h260q8 32 8 78z" />
    <glyph glyph-name="eacute" unicode="&#xe9;" horiz-adv-x="952" 
d="M967 1503l-283 -295h-207l230 295h260zM918 723q0 -114 -31 -262h-533q-6 -40 -6 -68q0 -75 31.5 -119.5t91.5 -44.5q89 0 158 117l205 -133q-59 -110 -161 -178t-235 -68q-179 0 -278 111.5t-99 310.5q0 191 66.5 353.5t185 259t260.5 96.5q176 0 260.5 -102t84.5 -273z
M657 727q0 141 -96 141q-63 0 -111 -68.5t-61 -150.5h260q8 32 8 78z" />
    <glyph glyph-name="ecircumflex" unicode="&#xea;" horiz-adv-x="952" 
d="M963 1206h-213l-107 170l-160 -170h-225l287 295h237zM918 723q0 -114 -31 -262h-533q-6 -40 -6 -68q0 -75 31.5 -119.5t91.5 -44.5q89 0 158 117l205 -133q-59 -110 -161 -178t-235 -68q-179 0 -278 111.5t-99 310.5q0 191 66.5 353.5t185 259t260.5 96.5
q176 0 260.5 -102t84.5 -273zM657 727q0 141 -96 141q-63 0 -111 -68.5t-61 -150.5h260q8 32 8 78z" />
    <glyph glyph-name="edieresis" unicode="&#xeb;" horiz-adv-x="952" 
d="M918 723q0 -114 -31 -262h-533q-6 -40 -6 -68q0 -75 31.5 -119.5t91.5 -44.5q89 0 158 117l205 -133q-59 -110 -161 -178t-235 -68q-179 0 -278 111.5t-99 310.5q0 191 66.5 353.5t185 259t260.5 96.5q176 0 260.5 -102t84.5 -273zM657 727q0 141 -96 141
q-63 0 -111 -68.5t-61 -150.5h260q8 32 8 78zM963 1384q0 -70 -44.5 -117.5t-109.5 -47.5q-60 0 -94.5 38t-34.5 91q0 66 45 117t109 51q61 0 95 -37t34 -95zM582 1384q0 -71 -44 -118t-110 -47q-59 0 -93 38t-34 91q0 67 44 117.5t110 50.5q60 0 93.5 -37t33.5 -95z" />
    <glyph glyph-name="igrave" unicode="&#xec;" horiz-adv-x="544" 
d="M522 1206h-207l-262 295h258zM522 1065l-184 -1065h-299l184 1065h299z" />
    <glyph glyph-name="iacute" unicode="&#xed;" horiz-adv-x="544" 
d="M731 1503l-282 -295h-207l229 295h260zM522 1065l-184 -1065h-299l184 1065h299z" />
    <glyph glyph-name="icircumflex" unicode="&#xee;" horiz-adv-x="544" 
d="M735 1206h-213l-106 170l-160 -170h-225l286 295h238zM522 1065l-184 -1065h-299l184 1065h299z" />
    <glyph glyph-name="idieresis" unicode="&#xef;" horiz-adv-x="544" 
d="M731 1384q0 -70 -44 -117.5t-109 -47.5q-60 0 -94.5 38t-34.5 91q0 66 44.5 117t108.5 51q61 0 95 -37t34 -95zM350 1384q0 -71 -43.5 -118t-109.5 -47q-59 0 -93 38t-34 91q0 67 43.5 117.5t109.5 50.5q60 0 93.5 -37t33.5 -95zM522 1065l-184 -1065h-299l184 1065h299z
" />
    <glyph glyph-name="eth" unicode="&#xf0;" horiz-adv-x="995" 
d="M1042 1456l-239 -102q70 -108 115 -275.5t45 -343.5q0 -113 -19 -220.5t-61 -207.5t-102.5 -175t-150.5 -120t-198 -45q-178 0 -274.5 114.5t-96.5 303.5q-1 102 20 200.5t63 184t99.5 150t136 102t167.5 37.5q70 0 119 -35l4 2q-44 141 -121 240l-227 -101l-93 107
l236 106q-46 63 -143 135l266 105q98 -90 141 -150l211 97zM670 659q0 85 -27 134t-82 49q-48 0 -89 -45t-65.5 -113t-38.5 -142t-14 -139q0 -178 105 -178q64 0 114.5 74.5t73.5 171.5t23 188z" />
    <glyph glyph-name="ntilde" unicode="&#xf1;" horiz-adv-x="1075" 
d="M1001 1468q-22 -115 -82 -184.5t-141 -69.5q-73 0 -141 48q-38 28 -59 36.5t-48 8.5q-29 0 -50.5 -22.5t-30.5 -59.5h-123q21 109 82 180q60 70 141 70q70 0 141 -50q41 -27 62.5 -36t48.5 -9q60 0 80 88h120zM1006 840q0 -71 -21 -187l-113 -653h-299l115 653q8 50 8 76
q0 105 -84 105q-60 0 -105.5 -58.5t-60.5 -150.5l-108 -625h-299l141 805q21 119 39 260h283q-7 -64 -21 -156h4q42 84 116 136.5t167 52.5q62 0 109.5 -22.5t74.5 -60.5t40.5 -82.5t13.5 -92.5z" />
    <glyph glyph-name="ograve" unicode="&#xf2;" horiz-adv-x="999" 
d="M748 1206h-207l-262 295h258zM958 684q0 -140 -35 -268t-99.5 -228.5t-165 -160.5t-222.5 -60q-175 0 -275 113t-100 303q0 111 23 216t68 195t107.5 158t147.5 107t181 39q173 0 271.5 -113t98.5 -301zM670 659q0 85 -27 134t-82 49q-48 0 -89 -45t-65.5 -113
t-38.5 -142t-14 -139q0 -178 105 -178q64 0 114.5 74.5t73.5 171.5t23 188z" />
    <glyph glyph-name="oacute" unicode="&#xf3;" horiz-adv-x="999" 
d="M971 1503l-283 -295h-207l230 295h260zM958 684q0 -140 -35 -268t-99.5 -228.5t-165 -160.5t-222.5 -60q-175 0 -275 113t-100 303q0 111 23 216t68 195t107.5 158t147.5 107t181 39q173 0 271.5 -113t98.5 -301zM670 659q0 85 -27 134t-82 49q-48 0 -89 -45t-65.5 -113
t-38.5 -142t-14 -139q0 -178 105 -178q64 0 114.5 74.5t73.5 171.5t23 188z" />
    <glyph glyph-name="ocircumflex" unicode="&#xf4;" horiz-adv-x="999" 
d="M977 1206h-213l-107 170l-159 -170h-226l287 295h238zM958 684q0 -140 -35 -268t-99.5 -228.5t-165 -160.5t-222.5 -60q-175 0 -275 113t-100 303q0 111 23 216t68 195t107.5 158t147.5 107t181 39q173 0 271.5 -113t98.5 -301zM670 659q0 85 -27 134t-82 49
q-48 0 -89 -45t-65.5 -113t-38.5 -142t-14 -139q0 -178 105 -178q64 0 114.5 74.5t73.5 171.5t23 188z" />
    <glyph glyph-name="otilde" unicode="&#xf5;" horiz-adv-x="999" 
d="M983 1468q-22 -115 -82 -184.5t-141 -69.5q-74 0 -142 48q-39 28 -59 36.5t-47 8.5q-29 0 -51 -22.5t-31 -59.5h-123q21 109 82 180q60 70 141 70q71 0 142 -50q41 -27 62 -36t48 -9q60 0 80 88h121zM958 684q0 -140 -35 -268t-99.5 -228.5t-165 -160.5t-222.5 -60
q-175 0 -275 113t-100 303q0 111 23 216t68 195t107.5 158t147.5 107t181 39q173 0 271.5 -113t98.5 -301zM670 659q0 85 -27 134t-82 49q-48 0 -89 -45t-65.5 -113t-38.5 -142t-14 -139q0 -178 105 -178q64 0 114.5 74.5t73.5 171.5t23 188z" />
    <glyph glyph-name="odieresis" unicode="&#xf6;" horiz-adv-x="999" 
d="M958 684q0 -140 -35 -268t-99.5 -228.5t-165 -160.5t-222.5 -60q-175 0 -275 113t-100 303q0 111 23 216t68 195t107.5 158t147.5 107t181 39q173 0 271.5 -113t98.5 -301zM670 659q0 85 -27 134t-82 49q-48 0 -89 -45t-65.5 -113t-38.5 -142t-14 -139q0 -178 105 -178
q64 0 114.5 74.5t73.5 171.5t23 188zM985 1384q0 -70 -44.5 -117.5t-109.5 -47.5q-60 0 -94.5 38t-34.5 91q0 66 45 117t109 51q61 0 95 -37t34 -95zM604 1384q0 -71 -43.5 -118t-109.5 -47q-59 0 -93 38t-34 91q0 67 43.5 117.5t109.5 50.5q60 0 93.5 -37t33.5 -95z" />
    <glyph glyph-name="divide" unicode="&#xf7;" horiz-adv-x="1363" 
d="M504 1001q0 70 53 121.5t125 51.5t124 -51t52 -122q0 -72 -52 -123t-124 -51t-125 51t-53 123zM504 240q0 70 53 121t125 51t124 -51t52 -121q0 -71 -52 -122.5t-124 -51.5t-125 52t-53 122zM1200 492h-1038v260h1038v-260z" />
    <glyph glyph-name="oslash" unicode="&#xf8;" horiz-adv-x="999" 
d="M958 684q0 -140 -35 -268t-99.5 -228.5t-165 -160.5t-222.5 -60q-126 0 -217 62l-86 -133l-115 67l109 160q-66 107 -66 260q0 111 23 216t68 195t107.5 158t147.5 107t181 39q114 0 205 -56l90 138l112 -66l-110 -164q73 -109 73 -266zM682 668v14l-305 -440
q27 -35 78 -35q52 0 97 46t72 116.5t42.5 149t15.5 149.5zM565 860q-52 0 -96 -46t-71 -117t-42 -148.5t-16 -147.5l293 433q-26 26 -68 26z" />
    <glyph glyph-name="ugrave" unicode="&#xf9;" horiz-adv-x="1075" 
d="M762 1206h-207l-262 295h258zM1049 1065l-142 -805q-29 -166 -41 -260h-280q9 83 20 156h-6q-42 -86 -115 -137.5t-166 -51.5q-62 0 -109 22.5t-74 60.5t-40.5 82.5t-13.5 92.5q0 75 20 185l113 655h299l-115 -653q-8 -54 -8 -76q0 -105 84 -105q60 0 104 58t62 151
l109 625h299z" />
    <glyph glyph-name="uacute" unicode="&#xfa;" horiz-adv-x="1075" 
d="M997 1503l-282 -295h-207l229 295h260zM1049 1065l-142 -805q-29 -166 -41 -260h-280q9 83 20 156h-6q-42 -86 -115 -137.5t-166 -51.5q-62 0 -109 22.5t-74 60.5t-40.5 82.5t-13.5 92.5q0 75 20 185l113 655h299l-115 -653q-8 -54 -8 -76q0 -105 84 -105q60 0 104 58
t62 151l109 625h299z" />
    <glyph glyph-name="ucircumflex" unicode="&#xfb;" horiz-adv-x="1075" 
d="M1008 1206h-213l-107 170l-160 -170h-225l287 295h237zM1049 1065l-142 -805q-29 -166 -41 -260h-280q9 83 20 156h-6q-42 -86 -115 -137.5t-166 -51.5q-62 0 -109 22.5t-74 60.5t-40.5 82.5t-13.5 92.5q0 75 20 185l113 655h299l-115 -653q-8 -54 -8 -76q0 -105 84 -105
q60 0 104 58t62 151l109 625h299z" />
    <glyph glyph-name="udieresis" unicode="&#xfc;" horiz-adv-x="1075" 
d="M1014 1384q0 -70 -44.5 -117.5t-109.5 -47.5q-60 0 -94.5 38t-34.5 91q0 66 45 117t109 51q61 0 95 -37t34 -95zM633 1384q0 -71 -44 -118t-110 -47q-59 0 -93 38t-34 91q0 67 44 117.5t110 50.5q60 0 93.5 -37t33.5 -95zM1049 1065l-142 -805q-29 -166 -41 -260h-280
q9 83 20 156h-6q-42 -86 -115 -137.5t-166 -51.5q-62 0 -109 22.5t-74 60.5t-40.5 82.5t-13.5 92.5q0 75 20 185l113 655h299l-115 -653q-8 -54 -8 -76q0 -105 84 -105q60 0 104 58t62 151l109 625h299z" />
    <glyph glyph-name="yacute" unicode="&#xfd;" horiz-adv-x="937" 
d="M940 1503l-283 -295h-206l229 295h260zM1032 1065l-510 -1153q-34 -78 -64.5 -133.5t-72 -109.5t-86.5 -87.5t-105.5 -53.5t-132.5 -20q-74 0 -143 21l55 266q21 -14 76 -14q48 0 79 27.5t54 82.5l39 91l-117 1083h310l26 -743h6l285 743h301z" />
    <glyph glyph-name="thorn" unicode="&#xfe;" horiz-adv-x="1060" 
d="M1020 719q0 -129 -30.5 -260t-86 -241.5t-144 -180.5t-192.5 -70q-92 0 -145.5 46.5t-61.5 115.5h-4l-104 -621h-293l350 2040h295l-106 -602h8q31 66 92.5 109t138.5 43q138 0 210.5 -103.5t72.5 -275.5zM721 666q0 176 -109 176q-48 0 -89 -44t-66.5 -111.5
t-39.5 -141.5t-14 -139q0 -181 109 -181q49 0 90 45t66 113t39 142.5t14 140.5z" />
    <glyph glyph-name="ydieresis" unicode="&#xff;" horiz-adv-x="937" 
d="M950 1384q0 -70 -44 -117.5t-109 -47.5q-60 0 -94.5 38t-34.5 91q0 66 44.5 117t108.5 51q61 0 95 -37t34 -95zM569 1384q0 -71 -43.5 -118t-109.5 -47q-59 0 -93 38t-34 91q0 67 43.5 117.5t109.5 50.5q60 0 93.5 -37t33.5 -95zM1032 1065l-510 -1153
q-34 -78 -64.5 -133.5t-72 -109.5t-86.5 -87.5t-105.5 -53.5t-132.5 -20q-74 0 -143 21l55 266q21 -14 76 -14q48 0 79 27.5t54 82.5l39 91l-117 1083h310l26 -743h6l285 743h301z" />
    <glyph glyph-name="Amacron" unicode="&#x100;" horiz-adv-x="1107" 
d="M1020 0h-320l-6 272h-338l-108 -272h-328l629 1450h395zM698 514l-12 623h-8l-240 -623h260zM1092 1796l-29 -162h-602l26 162h605z" />
    <glyph glyph-name="amacron" unicode="&#x101;" horiz-adv-x="917" 
d="M905 1438l-28 -162h-603l27 162h604zM858 780q0 -81 -18 -180l-68 -391q-23 -134 -27 -209h-249q4 74 18 133h-6q-75 -160 -250 -160q-95 0 -165 69.5t-70 197.5q0 113 40 197t111 132.5t158 71.5t192 23h51q11 53 11 69q0 111 -105 111q-107 0 -200 -86l-115 190
q71 68 168.5 109t193.5 41q168 0 249 -82.5t81 -235.5zM551 469h-55q-91 0 -152 -42.5t-61 -129.5q0 -48 22.5 -73t59.5 -25q69 0 114 64.5t62 154.5z" />
    <glyph glyph-name="Abreve" unicode="&#x102;" horiz-adv-x="1107" 
d="M1020 0h-320l-6 272h-338l-108 -272h-328l629 1450h395zM698 514l-12 623h-8l-240 -623h260zM1083 1853q-36 -151 -126.5 -217.5t-215.5 -66.5q-56 0 -103 14.5t-85.5 46.5t-60 88.5t-21.5 134.5h162q0 -58 35.5 -85t87.5 -27q59 0 104.5 25.5t59.5 86.5h163z" />
    <glyph glyph-name="abreve" unicode="&#x103;" horiz-adv-x="917" 
d="M901 1495q-68 -285 -342 -285q-119 0 -194.5 67.5t-75.5 217.5h162q0 -57 35.5 -85t86.5 -28q58 0 104 27t60 86h164zM858 780q0 -81 -18 -180l-68 -391q-23 -134 -27 -209h-249q4 74 18 133h-6q-75 -160 -250 -160q-95 0 -165 69.5t-70 197.5q0 113 40 197t111 132.5
t158 71.5t192 23h51q11 53 11 69q0 111 -105 111q-107 0 -200 -86l-115 190q71 68 168.5 109t193.5 41q168 0 249 -82.5t81 -235.5zM551 469h-55q-91 0 -152 -42.5t-61 -129.5q0 -48 22.5 -73t59.5 -25q69 0 114 64.5t62 154.5z" />
    <glyph glyph-name="Aogonek" unicode="&#x104;" horiz-adv-x="1107" 
d="M768 -475q-77 0 -130.5 41.5t-53.5 130.5q0 155 245 303h-129l-6 272h-338l-108 -272h-328l629 1450h395l76 -1450h-2q-125 -94 -175 -146.5t-50 -97.5q0 -57 53 -57q58 0 106 39l39 -131q-106 -82 -223 -82zM698 514l-12 623h-8l-240 -623h260z" />
    <glyph glyph-name="aogonek" unicode="&#x105;" horiz-adv-x="917" 
d="M494 -475q-77 0 -131 41.5t-54 130.5q0 154 246 303h-59q4 74 18 133h-6q-75 -160 -250 -160q-95 0 -165 69.5t-70 197.5q0 113 40 197t111 132.5t158 71.5t192 23h51q11 53 11 69q0 111 -105 111q-107 0 -200 -86l-115 190q71 68 168.5 109t193.5 41q168 0 249 -82.5
t81 -235.5q0 -81 -18 -180l-68 -391q-23 -134 -27 -209q-127 -93 -177 -146t-50 -98q0 -57 53 -57q59 0 107 39l39 -131q-106 -82 -223 -82zM551 469h-55q-91 0 -152 -42.5t-61 -129.5q0 -48 22.5 -73t59.5 -25q69 0 114 64.5t62 154.5z" />
    <glyph glyph-name="Cacute" unicode="&#x106;" horiz-adv-x="1030" 
d="M1165 1317l-215 -234q-32 50 -73 75.5t-103 25.5q-79 0 -146.5 -58.5t-111 -150.5t-68 -200t-24.5 -210q0 -137 49.5 -217t149.5 -80q105 0 196 99l146 -234q-163 -170 -398 -170q-226 0 -349.5 152.5t-123.5 408.5q0 147 32 289.5t94 263.5t145.5 213t192.5 144.5
t230 52.5q257 0 377 -170zM1135 1862l-283 -295h-207l229 295h261z" />
    <glyph glyph-name="cacute" unicode="&#x107;" horiz-adv-x="720" 
d="M932 1503l-283 -295h-207l230 295h260zM821 1016l-153 -234q-40 43 -101 43q-62 0 -112.5 -65t-75.5 -156t-25 -180q0 -182 125 -182q53 0 109 39l78 -236q-95 -78 -246 -78q-91 0 -161 32.5t-112.5 90.5t-64 133.5t-21.5 165.5q0 129 36 255t100 227.5t162.5 164
t213.5 62.5q162 0 248 -82z" />
    <glyph glyph-name="Ccircumflex" unicode="&#x108;" horiz-adv-x="1030" 
d="M1165 1317l-215 -234q-32 50 -73 75.5t-103 25.5q-79 0 -146.5 -58.5t-111 -150.5t-68 -200t-24.5 -210q0 -137 49.5 -217t149.5 -80q105 0 196 99l146 -234q-163 -170 -398 -170q-226 0 -349.5 152.5t-123.5 408.5q0 147 32 289.5t94 263.5t145.5 213t192.5 144.5
t230 52.5q257 0 377 -170zM1178 1565h-213l-107 170l-160 -170h-225l287 295h237z" />
    <glyph glyph-name="ccircumflex" unicode="&#x109;" horiz-adv-x="720" 
d="M950 1206h-213l-106 170l-160 -170h-225l286 295h238zM821 1016l-153 -234q-40 43 -101 43q-62 0 -112.5 -65t-75.5 -156t-25 -180q0 -182 125 -182q53 0 109 39l78 -236q-95 -78 -246 -78q-91 0 -161 32.5t-112.5 90.5t-64 133.5t-21.5 165.5q0 129 36 255t100 227.5
t162.5 164t213.5 62.5q162 0 248 -82z" />
    <glyph glyph-name="Cdotaccent" unicode="&#x10a;" horiz-adv-x="1030" 
d="M1165 1317l-215 -234q-32 50 -73 75.5t-103 25.5q-79 0 -146.5 -58.5t-111 -150.5t-68 -200t-24.5 -210q0 -137 49.5 -217t149.5 -80q105 0 196 99l146 -234q-163 -170 -398 -170q-226 0 -349.5 152.5t-123.5 408.5q0 147 32 289.5t94 263.5t145.5 213t192.5 144.5
t230 52.5q257 0 377 -170zM1006 1747q0 -84 -53 -140.5t-130 -56.5q-70 0 -110.5 45t-40.5 107q0 79 52 139t128 60q73 0 113.5 -43.5t40.5 -110.5z" />
    <glyph glyph-name="cdotaccent" unicode="&#x10b;" horiz-adv-x="720" 
d="M799 1389q0 -83 -53 -140t-130 -57q-70 0 -110.5 44.5t-40.5 106.5q0 79 52 139t128 60q73 0 113.5 -43t40.5 -110zM821 1016l-153 -234q-40 43 -101 43q-62 0 -112.5 -65t-75.5 -156t-25 -180q0 -182 125 -182q53 0 109 39l78 -236q-95 -78 -246 -78q-91 0 -161 32.5
t-112.5 90.5t-64 133.5t-21.5 165.5q0 129 36 255t100 227.5t162.5 164t213.5 62.5q162 0 248 -82z" />
    <glyph glyph-name="Ccaron" unicode="&#x10c;" horiz-adv-x="1030" 
d="M1165 1317l-215 -234q-32 50 -73 75.5t-103 25.5q-79 0 -146.5 -58.5t-111 -150.5t-68 -200t-24.5 -210q0 -137 49.5 -217t149.5 -80q105 0 196 99l146 -234q-163 -170 -398 -170q-226 0 -349.5 152.5t-123.5 408.5q0 147 32 289.5t94 263.5t145.5 213t192.5 144.5
t230 52.5q257 0 377 -170zM1223 1860l-285 -295h-238l-182 295h213l105 -170l161 170h226z" />
    <glyph glyph-name="ccaron" unicode="&#x10d;" horiz-adv-x="720" 
d="M999 1501l-284 -295h-238l-182 295h213l104 -170l162 170h225zM821 1016l-153 -234q-40 43 -101 43q-62 0 -112.5 -65t-75.5 -156t-25 -180q0 -182 125 -182q53 0 109 39l78 -236q-95 -78 -246 -78q-91 0 -161 32.5t-112.5 90.5t-64 133.5t-21.5 165.5q0 129 36 255
t100 227.5t162.5 164t213.5 62.5q162 0 248 -82z" />
    <glyph glyph-name="Dcaron" unicode="&#x10e;" horiz-adv-x="1193" 
d="M1188 885q0 -129 -22.5 -250t-76 -238t-134 -204t-205.5 -140t-281 -53h-420l252 1450h383q133 0 231 -41t157 -117t87.5 -177.5t28.5 -229.5zM866 858q0 145 -51.5 231.5t-159.5 86.5h-88l-155 -902h92q86 0 157 52.5t114.5 138t67 187t23.5 206.5zM1118 1860l-284 -295
h-238l-182 295h213l104 -170l162 170h225z" />
    <glyph glyph-name="dcaron" unicode="&#x10f;" horiz-adv-x="1284" 
d="M1120 1548l-270 -1548h-285l23 137h-2q-89 -170 -248 -170q-135 0 -206 104.5t-71 278.5q0 102 19 206t57.5 201.5t91.5 173.5t127.5 121.5t159.5 45.5q87 0 136.5 -40.5t62.5 -111.5h6l106 602h293zM678 657q0 86 -27 135.5t-82 49.5q-49 0 -91 -45t-67 -113t-39 -142.5
t-14 -140.5q0 -82 27.5 -129t83.5 -47q47 0 88 44t66.5 110.5t40 140t14.5 137.5zM1542 1450l-217 -391h-203l193 391h227z" />
    <glyph glyph-name="Dcroat" unicode="&#x110;" horiz-adv-x="1191" 
d="M1188 885q0 -129 -22.5 -250t-76 -238t-134 -204t-205.5 -140t-281 -53h-420l111 639h-101l37 201h99l106 610h383q133 0 231 -41t157 -117t87.5 -177.5t28.5 -229.5zM866 858q0 145 -51.5 231.5t-159.5 86.5h-88l-57 -336h184l-37 -201h-182l-63 -365h92q86 0 157 52.5
t114.5 138t67 187t23.5 206.5z" />
    <glyph glyph-name="dcroat" unicode="&#x111;" horiz-adv-x="1054" 
d="M1178 1366l-29 -156h-88l-211 -1210h-285l23 137h-2q-89 -170 -248 -170q-135 0 -206 104.5t-71 278.5q0 102 19 206t57.5 201.5t91.5 173.5t127.5 121.5t159.5 45.5q87 0 136.5 -40.5t62.5 -111.5h6l47 264h-221l26 156h222l32 182h293l-33 -182h91zM678 657
q0 86 -27 135.5t-82 49.5q-49 0 -91 -45t-67 -113t-39 -142.5t-14 -140.5q0 -82 27.5 -129t83.5 -47q47 0 88 44t66.5 110.5t40 140t14.5 137.5z" />
    <glyph glyph-name="Emacron" unicode="&#x112;" horiz-adv-x="901" 
d="M979 1450l-47 -276h-379l-53 -302h354l-45 -258h-352l-58 -331h414l-49 -283h-715l252 1450h678zM981 1796l-29 -162h-602l27 162h604z" />
    <glyph glyph-name="emacron" unicode="&#x113;" horiz-adv-x="952" 
d="M956 1438l-28 -162h-602l26 162h604zM918 723q0 -114 -31 -262h-533q-6 -40 -6 -68q0 -75 31.5 -119.5t91.5 -44.5q89 0 158 117l205 -133q-59 -110 -161 -178t-235 -68q-179 0 -278 111.5t-99 310.5q0 191 66.5 353.5t185 259t260.5 96.5q176 0 260.5 -102t84.5 -273z
M657 727q0 141 -96 141q-63 0 -111 -68.5t-61 -150.5h260q8 32 8 78z" />
    <glyph glyph-name="Ebreve" unicode="&#x114;" horiz-adv-x="901" 
d="M979 1450l-47 -276h-379l-53 -302h354l-45 -258h-352l-58 -331h414l-49 -283h-715l252 1450h678zM987 1853q-36 -151 -126.5 -217.5t-215.5 -66.5q-56 0 -103 14.5t-85.5 46.5t-60 88.5t-21.5 134.5h162q0 -58 35 -85t87 -27q59 0 104.5 25.5t59.5 86.5h164z" />
    <glyph glyph-name="ebreve" unicode="&#x115;" horiz-adv-x="952" 
d="M963 1495q-68 -285 -342 -285q-56 0 -103 15t-85.5 46.5t-60.5 88.5t-22 135h162q0 -57 36 -85t87 -28q58 0 104 27t60 86h164zM918 723q0 -114 -31 -262h-533q-6 -40 -6 -68q0 -75 31.5 -119.5t91.5 -44.5q89 0 158 117l205 -133q-59 -110 -161 -178t-235 -68
q-179 0 -278 111.5t-99 310.5q0 191 66.5 353.5t185 259t260.5 96.5q176 0 260.5 -102t84.5 -273zM657 727q0 141 -96 141q-63 0 -111 -68.5t-61 -150.5h260q8 32 8 78z" />
    <glyph glyph-name="Edotaccent" unicode="&#x116;" horiz-adv-x="901" 
d="M979 1450l-47 -276h-379l-53 -302h354l-45 -258h-352l-58 -331h414l-49 -283h-715l252 1450h678zM836 1747q0 -84 -53 -140.5t-130 -56.5q-70 0 -110.5 45t-40.5 107q0 79 52 139t128 60q73 0 113.5 -43.5t40.5 -110.5z" />
    <glyph glyph-name="edotaccent" unicode="&#x117;" horiz-adv-x="952" 
d="M809 1389q0 -83 -52.5 -140t-129.5 -57q-70 0 -111 44.5t-41 106.5q0 79 52 139t128 60q73 0 113.5 -43t40.5 -110zM918 723q0 -114 -31 -262h-533q-6 -40 -6 -68q0 -75 31.5 -119.5t91.5 -44.5q89 0 158 117l205 -133q-59 -110 -161 -178t-235 -68q-179 0 -278 111.5
t-99 310.5q0 191 66.5 353.5t185 259t260.5 96.5q176 0 260.5 -102t84.5 -273zM657 727q0 141 -96 141q-63 0 -111 -68.5t-61 -150.5h260q8 32 8 78z" />
    <glyph glyph-name="Eogonek" unicode="&#x118;" horiz-adv-x="901" 
d="M328 -475q-77 0 -131 41.5t-54 130.5q0 154 246 303h-340l252 1450h678l-47 -276h-379l-53 -302h354l-45 -258h-352l-58 -331h414l-49 -283h-186q-126 -94 -176 -147t-50 -97q0 -57 54 -57q58 0 106 39l39 -131q-106 -82 -223 -82z" />
    <glyph glyph-name="eogonek" unicode="&#x119;" horiz-adv-x="952" 
d="M326 -475q-77 0 -131 41.5t-54 130.5q0 141 207 278q-138 26 -212.5 134t-74.5 280q0 191 66.5 353.5t185 259t260.5 96.5q176 0 260.5 -102t84.5 -273q0 -114 -31 -262h-533q-6 -40 -6 -68q0 -75 31.5 -119.5t91.5 -44.5q89 0 158 117l205 -133q-46 -85 -119 -146
t-166 -85q-110 -84 -154.5 -133.5t-44.5 -92.5q0 -57 53 -57q59 0 107 39l39 -131q-106 -82 -223 -82zM657 727q0 141 -96 141q-63 0 -111 -68.5t-61 -150.5h260q8 32 8 78z" />
    <glyph glyph-name="Ecaron" unicode="&#x11a;" horiz-adv-x="901" 
d="M979 1450l-47 -276h-379l-53 -302h354l-45 -258h-352l-58 -331h414l-49 -283h-715l252 1450h678zM1063 1860l-285 -295h-237l-183 295h213l105 -170l162 170h225z" />
    <glyph glyph-name="ecaron" unicode="&#x11b;" horiz-adv-x="952" 
d="M1006 1501l-285 -295h-238l-182 295h213l104 -170l162 170h226zM918 723q0 -114 -31 -262h-533q-6 -40 -6 -68q0 -75 31.5 -119.5t91.5 -44.5q89 0 158 117l205 -133q-59 -110 -161 -178t-235 -68q-179 0 -278 111.5t-99 310.5q0 191 66.5 353.5t185 259t260.5 96.5
q176 0 260.5 -102t84.5 -273zM657 727q0 141 -96 141q-63 0 -111 -68.5t-61 -150.5h260q8 32 8 78z" />
    <glyph glyph-name="Gcircumflex" unicode="&#x11c;" horiz-adv-x="1132" 
d="M1165 1315l-211 -232q-61 103 -186 103q-84 0 -155.5 -60.5t-116 -155.5t-69 -203t-24.5 -210q0 -84 22.5 -149.5t73.5 -106.5t124 -41q80 0 139 35l51 285h-192l49 274h469l-133 -768q-174 -123 -410 -123q-124 0 -220.5 42.5t-157.5 118.5t-92.5 178t-31.5 224
q0 145 32 286t93.5 262t145 214t193 146t230.5 53q139 0 234.5 -46.5t142.5 -125.5zM1165 1565h-213l-106 170l-160 -170h-225l287 295h237z" />
    <glyph glyph-name="gcircumflex" unicode="&#x11d;" horiz-adv-x="1054" 
d="M1022 1206h-213l-107 170l-159 -170h-226l287 295h238zM1028 1065l-174 -999q-18 -105 -46.5 -188.5t-73 -153.5t-103 -117t-139 -73t-179.5 -26q-103 0 -202 39t-162 101l162 223q94 -94 213 -94q97 0 155.5 68.5t81.5 185.5l21 106h-4q-88 -153 -248 -153
q-135 0 -208 103.5t-73 274.5q0 100 18.5 203t57 198.5t91 170t127 119.5t159.5 45q87 0 142.5 -45.5t68.5 -116.5h8l22 129h285zM666 657q0 86 -27 135.5t-82 49.5q-49 0 -90 -45t-66 -113t-39 -142.5t-14 -140.5q0 -176 109 -176q48 0 89 44t66.5 110.5t39.5 139.5t14 138
z" />
    <glyph glyph-name="Gbreve" unicode="&#x11e;" horiz-adv-x="1132" 
d="M1165 1315l-211 -232q-61 103 -186 103q-84 0 -155.5 -60.5t-116 -155.5t-69 -203t-24.5 -210q0 -84 22.5 -149.5t73.5 -106.5t124 -41q80 0 139 35l51 285h-192l49 274h469l-133 -768q-174 -123 -410 -123q-124 0 -220.5 42.5t-157.5 118.5t-92.5 178t-31.5 224
q0 145 32 286t93.5 262t145 214t193 146t230.5 53q139 0 234.5 -46.5t142.5 -125.5zM1165 1853q-36 -151 -126.5 -217.5t-215.5 -66.5q-56 0 -103 14.5t-85.5 46.5t-60 88.5t-21.5 134.5h162q0 -58 35.5 -85t87.5 -27q59 0 104 25.5t59 86.5h164z" />
    <glyph glyph-name="gbreve" unicode="&#x11f;" horiz-adv-x="1054" 
d="M993 1495q-68 -285 -342 -285q-119 0 -194.5 67.5t-75.5 217.5h162q0 -57 36 -85t87 -28q58 0 103.5 26.5t59.5 86.5h164zM1028 1065l-174 -999q-18 -105 -46.5 -188.5t-73 -153.5t-103 -117t-139 -73t-179.5 -26q-103 0 -202 39t-162 101l162 223q94 -94 213 -94
q97 0 155.5 68.5t81.5 185.5l21 106h-4q-88 -153 -248 -153q-135 0 -208 103.5t-73 274.5q0 100 18.5 203t57 198.5t91 170t127 119.5t159.5 45q87 0 142.5 -45.5t68.5 -116.5h8l22 129h285zM666 657q0 86 -27 135.5t-82 49.5q-49 0 -90 -45t-66 -113t-39 -142.5t-14 -140.5
q0 -176 109 -176q48 0 89 44t66.5 110.5t39.5 139.5t14 138z" />
    <glyph glyph-name="Gdotaccent" unicode="&#x120;" horiz-adv-x="1132" 
d="M1165 1315l-211 -232q-61 103 -186 103q-84 0 -155.5 -60.5t-116 -155.5t-69 -203t-24.5 -210q0 -84 22.5 -149.5t73.5 -106.5t124 -41q80 0 139 35l51 285h-192l49 274h469l-133 -768q-174 -123 -410 -123q-124 0 -220.5 42.5t-157.5 118.5t-92.5 178t-31.5 224
q0 145 32 286t93.5 262t145 214t193 146t230.5 53q139 0 234.5 -46.5t142.5 -125.5zM1008 1747q0 -84 -53 -140.5t-130 -56.5q-70 0 -110.5 45t-40.5 107q0 79 52 139t128 60q73 0 113.5 -43.5t40.5 -110.5z" />
    <glyph glyph-name="gdotaccent" unicode="&#x121;" horiz-adv-x="1054" 
d="M827 1389q0 -83 -52.5 -140t-129.5 -57q-70 0 -110.5 44.5t-40.5 106.5q0 79 52 139t128 60q73 0 113 -43t40 -110zM1028 1065l-174 -999q-18 -105 -46.5 -188.5t-73 -153.5t-103 -117t-139 -73t-179.5 -26q-103 0 -202 39t-162 101l162 223q94 -94 213 -94
q97 0 155.5 68.5t81.5 185.5l21 106h-4q-88 -153 -248 -153q-135 0 -208 103.5t-73 274.5q0 100 18.5 203t57 198.5t91 170t127 119.5t159.5 45q87 0 142.5 -45.5t68.5 -116.5h8l22 129h285zM666 657q0 86 -27 135.5t-82 49.5q-49 0 -90 -45t-66 -113t-39 -142.5t-14 -140.5
q0 -176 109 -176q48 0 89 44t66.5 110.5t39.5 139.5t14 138z" />
    <glyph glyph-name="Gcommaaccent" unicode="&#x122;" horiz-adv-x="1132" 
d="M1165 1315l-211 -232q-61 103 -186 103q-84 0 -155.5 -60.5t-116 -155.5t-69 -203t-24.5 -210q0 -84 22.5 -149.5t73.5 -106.5t124 -41q80 0 139 35l51 285h-192l49 274h469l-133 -768q-174 -123 -410 -123q-124 0 -220.5 42.5t-157.5 118.5t-92.5 178t-31.5 224
q0 145 32 286t93.5 262t145 214t193 146t230.5 53q139 0 234.5 -46.5t142.5 -125.5zM641 -104l-217 -392h-203l193 392h227z" />
    <glyph glyph-name="gcommaaccent" unicode="&#x123;" horiz-adv-x="1054" 
d="M1028 1065l-174 -999q-18 -105 -46.5 -188.5t-73 -153.5t-103 -117t-139 -73t-179.5 -26q-103 0 -202 39t-162 101l162 223q94 -94 213 -94q97 0 155.5 68.5t81.5 185.5l21 106h-4q-88 -153 -248 -153q-135 0 -208 103.5t-73 274.5q0 100 18.5 203t57 198.5t91 170
t127 119.5t159.5 45q87 0 142.5 -45.5t68.5 -116.5h8l22 129h285zM666 657q0 86 -27 135.5t-82 49.5q-49 0 -90 -45t-66 -113t-39 -142.5t-14 -140.5q0 -176 109 -176q48 0 89 44t66.5 110.5t39.5 139.5t14 138zM514 1206l217 391h203l-193 -391h-227z" />
    <glyph glyph-name="Hcircumflex" unicode="&#x124;" horiz-adv-x="1239" 
d="M1278 1450l-252 -1450h-313l106 612h-350l-107 -612h-313l252 1450h311l-96 -557h350l97 557h315zM1161 1565h-213l-106 170l-160 -170h-225l286 295h238z" />
    <glyph glyph-name="hcircumflex" unicode="&#x125;" horiz-adv-x="1077" 
d="M1102 1681h-213l-107 170l-159 -170h-226l287 295h238zM1008 840q0 -71 -21 -187l-113 -653h-299l115 653q8 50 8 76q0 105 -84 105q-60 0 -103.5 -57.5t-61.5 -151.5l-109 -625h-299l270 1548h297l-110 -628h4q44 79 112.5 128.5t159.5 49.5q62 0 109 -22.5t73 -60.5
t39 -82t13 -93z" />
    <glyph glyph-name="Hbar" unicode="&#x126;" horiz-adv-x="1239" 
d="M1278 1450l-252 -1450h-313l106 612h-350l-107 -612h-313l252 1450h311l-43 -244h351l43 244h315zM516 893h350l27 160h-350z" />
    <glyph glyph-name="hbar" unicode="&#x127;" horiz-adv-x="1077" 
d="M772 1362l-27 -152h-196l-51 -290h4q44 80 113 131t159 51q50 0 90.5 -15.5t66.5 -41t44 -60t25.5 -71t7.5 -74.5q0 -71 -21 -187l-113 -653h-299l115 653q8 50 8 76q0 105 -84 105q-60 0 -103.5 -57.5t-61.5 -151.5l-109 -625h-299l213 1210h-111l25 152h111l32 186h297
l-33 -186h197z" />
    <glyph glyph-name="Itilde" unicode="&#x128;" horiz-adv-x="579" 
d="M618 1450l-251 -1450h-318l252 1450h317zM823 1827q-22 -115 -82 -184.5t-141 -69.5q-74 0 -141 47q-38 28 -59 36.5t-48 8.5q-29 0 -51 -22.5t-31 -59.5h-123q22 111 82.5 180.5t141.5 69.5q71 0 141 -49q41 -27 62.5 -36t48.5 -9q59 0 79 88h121z" />
    <glyph glyph-name="itilde" unicode="&#x129;" horiz-adv-x="544" 
d="M735 1468q-22 -115 -82 -184.5t-141 -69.5q-73 0 -141 48q-38 28 -59 36.5t-48 8.5q-29 0 -51 -22.5t-31 -59.5h-123q21 109 82 180q60 70 142 70q70 0 141 -50q41 -27 62.5 -36t48.5 -9q59 0 79 88h121zM522 1065l-184 -1065h-299l184 1065h299z" />
    <glyph glyph-name="Imacron" unicode="&#x12a;" horiz-adv-x="579" 
d="M618 1450l-251 -1450h-318l252 1450h317zM811 1796l-29 -162h-602l27 162h604z" />
    <glyph glyph-name="imacron" unicode="&#x12b;" horiz-adv-x="544" 
d="M721 1438l-29 -162h-602l27 162h604zM522 1065l-184 -1065h-299l184 1065h299z" />
    <glyph glyph-name="Iogonek" unicode="&#x12e;" horiz-adv-x="579" 
d="M121 -475q-77 0 -130.5 41.5t-53.5 130.5q0 155 245 303h-133l252 1450h317l-251 -1450h4q-126 -94 -176 -147t-50 -97q0 -57 54 -57q58 0 106 39l39 -131q-106 -82 -223 -82z" />
    <glyph glyph-name="iogonek" unicode="&#x12f;" horiz-adv-x="544" 
d="M522 1065l-184 -1065h4q-125 -94 -175 -146.5t-50 -97.5q0 -57 53 -57q58 0 106 39l39 -131q-106 -82 -223 -82q-77 0 -130.5 41.5t-53.5 130.5q0 154 246 303h-115l184 1065h299zM590 1389q0 -83 -53 -140t-131 -57q-69 0 -109.5 44.5t-40.5 106.5q0 79 52 139t128 60
q72 0 113 -43t41 -110z" />
    <glyph glyph-name="Idotaccent" unicode="&#x130;" horiz-adv-x="579" 
d="M618 1450l-251 -1450h-318l252 1450h317zM655 1747q0 -84 -52.5 -140.5t-129.5 -56.5q-70 0 -110.5 45t-40.5 107q0 79 52 139t128 60q72 0 112.5 -43.5t40.5 -110.5z" />
    <glyph glyph-name="dotlessi" unicode="&#x131;" horiz-adv-x="544" 
d="M522 1065l-184 -1065h-299l184 1065h299z" />
    <glyph glyph-name="Jcircumflex" unicode="&#x134;" horiz-adv-x="899" 
d="M948 1450l-174 -1001q-16 -91 -36.5 -160t-56 -132.5t-83.5 -104.5t-118.5 -65t-160.5 -24q-152 0 -249 80t-127 205l266 117q10 -45 38.5 -75t74.5 -30q67 0 96.5 51.5t48.5 165.5l168 973h313zM1155 1565h-213l-106 170l-160 -170h-225l286 295h238z" />
    <glyph glyph-name="jcircumflex" unicode="&#x135;" horiz-adv-x="544" 
d="M530 1065l-198 -1137q-17 -91 -45 -161.5t-76 -131.5t-123.5 -94t-175.5 -33q-55 0 -121 15l45 272q30 -10 58 -10q60 0 92 44t47 126l194 1110h303zM741 1206h-213l-106 170l-160 -170h-225l287 295h237z" />
    <glyph glyph-name="Kcommaaccent" unicode="&#x136;" horiz-adv-x="1148" 
d="M1286 1450l-504 -692l269 -758h-355l-211 680h-6l-119 -680h-311l252 1450h311l-104 -608h6l410 608h362zM625 -92l-217 -391h-203l192 391h228z" />
    <glyph glyph-name="kcommaaccent" unicode="&#x137;" horiz-adv-x="995" 
d="M1081 1065l-391 -504l213 -561h-313l-168 494h-4l-84 -494h-293l266 1548h295l-162 -919h4l304 436h333zM549 -92l-217 -391h-203l193 391h227z" />
    <glyph glyph-name="Lacute" unicode="&#x139;" horiz-adv-x="858" 
d="M807 291l-51 -291h-707l252 1450h315l-200 -1159h391zM854 1862l-283 -295h-206l229 295h260z" />
    <glyph glyph-name="lacute" unicode="&#x13a;" horiz-adv-x="546" 
d="M815 1950l-283 -295h-206l229 295h260zM612 1548l-270 -1548h-301l270 1548h301z" />
    <glyph glyph-name="Lcommaaccent" unicode="&#x13b;" horiz-adv-x="858" 
d="M807 291l-51 -291h-707l252 1450h315l-200 -1159h391zM500 -92l-217 -391h-203l192 391h228z" />
    <glyph glyph-name="lcommaaccent" unicode="&#x13c;" horiz-adv-x="546" 
d="M612 1548l-270 -1548h-301l270 1548h301zM303 -92l-217 -391h-203l193 391h227z" />
    <glyph glyph-name="Lcaron" unicode="&#x13d;" horiz-adv-x="858" 
d="M807 291l-51 -291h-707l252 1450h315l-200 -1159h391zM1063 1450l-217 -391h-203l193 391h227z" />
    <glyph glyph-name="lcaron" unicode="&#x13e;" horiz-adv-x="765" 
d="M612 1548l-270 -1548h-301l270 1548h301zM1020 1450l-217 -391h-203l193 391h227z" />
    <glyph glyph-name="Ldot" unicode="&#x13f;" horiz-adv-x="868" 
d="M807 291l-51 -291h-707l252 1450h315l-200 -1159h391zM958 938q0 -83 -52.5 -140t-129.5 -57q-70 0 -110.5 45t-40.5 107q0 79 52 139t128 60q72 0 112.5 -43.5t40.5 -110.5z" />
    <glyph glyph-name="ldot" unicode="&#x140;" horiz-adv-x="835" 
d="M612 1548l-270 -1548h-301l270 1548h301zM918 999q0 -83 -53 -139.5t-130 -56.5q-70 0 -110.5 44.5t-40.5 106.5q0 79 52 139t128 60q73 0 113.5 -43.5t40.5 -110.5z" />
    <glyph glyph-name="Lslash" unicode="&#x141;" horiz-adv-x="851" 
d="M856 1194l-51 -287l-330 -276l-59 -340h391l-51 -291h-707l68 387l-103 -88l49 289l103 88l135 774h315l-92 -532z" />
    <glyph glyph-name="lslash" unicode="&#x142;" horiz-adv-x="550" 
d="M633 1186l-49 -289l-101 -90l-141 -807h-301l94 543l-94 -80l51 289l92 79l127 717h301l-80 -452z" />
    <glyph glyph-name="Nacute" unicode="&#x143;" horiz-adv-x="1226" 
d="M1266 1450l-252 -1450h-338l-191 903h-6l-147 -903h-283l252 1450h346l182 -915h9l151 915h277zM1141 1862l-283 -295h-207l230 295h260z" />
    <glyph glyph-name="nacute" unicode="&#x144;" horiz-adv-x="1075" 
d="M961 1503l-283 -295h-207l229 295h261zM1006 840q0 -71 -21 -187l-113 -653h-299l115 653q8 50 8 76q0 105 -84 105q-60 0 -105.5 -58.5t-60.5 -150.5l-108 -625h-299l141 805q21 119 39 260h283q-7 -64 -21 -156h4q42 84 116 136.5t167 52.5q62 0 109.5 -22.5
t74.5 -60.5t40.5 -82.5t13.5 -92.5z" />
    <glyph glyph-name="Ncommaaccent" unicode="&#x145;" horiz-adv-x="1226" 
d="M1266 1450l-252 -1450h-338l-191 903h-6l-147 -903h-283l252 1450h346l182 -915h9l151 915h277zM637 -92l-217 -391h-203l193 391h227z" />
    <glyph glyph-name="ncommaaccent" unicode="&#x146;" horiz-adv-x="1075" 
d="M1006 840q0 -71 -21 -187l-113 -653h-299l115 653q8 50 8 76q0 105 -84 105q-60 0 -105.5 -58.5t-60.5 -150.5l-108 -625h-299l141 805q21 119 39 260h283q-7 -64 -21 -156h4q42 84 116 136.5t167 52.5q62 0 109.5 -22.5t74.5 -60.5t40.5 -82.5t13.5 -92.5zM549 -92
l-217 -391h-203l193 391h227z" />
    <glyph glyph-name="Ncaron" unicode="&#x147;" horiz-adv-x="1226" 
d="M1266 1450l-252 -1450h-338l-191 903h-6l-147 -903h-283l252 1450h346l182 -915h9l151 915h277zM1182 1860l-285 -295h-238l-182 295h213l105 -170l161 170h226z" />
    <glyph glyph-name="ncaron" unicode="&#x148;" horiz-adv-x="1075" 
d="M1036 1501l-284 -295h-238l-182 295h213l104 -170l162 170h225zM1006 840q0 -71 -21 -187l-113 -653h-299l115 653q8 50 8 76q0 105 -84 105q-60 0 -105.5 -58.5t-60.5 -150.5l-108 -625h-299l141 805q21 119 39 260h283q-7 -64 -21 -156h4q42 84 116 136.5t167 52.5
q62 0 109.5 -22.5t74.5 -60.5t40.5 -82.5t13.5 -92.5z" />
    <glyph glyph-name="Omacron" unicode="&#x14c;" horiz-adv-x="1243" 
d="M1237 930q0 -179 -48 -351.5t-133 -310t-215 -221.5t-282 -84q-220 0 -342.5 150t-122.5 403q0 143 29 283t87.5 264t138.5 219t189.5 150t233.5 55q226 0 345.5 -150t119.5 -407zM911 885q0 301 -170 301q-75 0 -138 -63.5t-101.5 -161t-60 -207t-21.5 -209.5
q0 -127 41 -203t133 -76q71 0 133 59.5t101 152t61 200t22 207.5zM1157 1796l-29 -162h-602l27 162h604z" />
    <glyph glyph-name="omacron" unicode="&#x14d;" horiz-adv-x="999" 
d="M973 1438l-29 -162h-602l27 162h604zM958 684q0 -140 -35 -268t-99.5 -228.5t-165 -160.5t-222.5 -60q-175 0 -275 113t-100 303q0 111 23 216t68 195t107.5 158t147.5 107t181 39q173 0 271.5 -113t98.5 -301zM670 659q0 85 -27 134t-82 49q-48 0 -89 -45t-65.5 -113
t-38.5 -142t-14 -139q0 -178 105 -178q64 0 114.5 74.5t73.5 171.5t23 188z" />
    <glyph glyph-name="Obreve" unicode="&#x14e;" horiz-adv-x="1243" 
d="M1237 930q0 -179 -48 -351.5t-133 -310t-215 -221.5t-282 -84q-220 0 -342.5 150t-122.5 403q0 143 29 283t87.5 264t138.5 219t189.5 150t233.5 55q226 0 345.5 -150t119.5 -407zM911 885q0 301 -170 301q-75 0 -138 -63.5t-101.5 -161t-60 -207t-21.5 -209.5
q0 -127 41 -203t133 -76q71 0 133 59.5t101 152t61 200t22 207.5zM1151 1853q-36 -151 -126.5 -217.5t-215.5 -66.5q-56 0 -103 14.5t-85.5 46.5t-60 88.5t-21.5 134.5h161q0 -58 35.5 -85t87.5 -27q59 0 104.5 25.5t59.5 86.5h164z" />
    <glyph glyph-name="obreve" unicode="&#x14f;" horiz-adv-x="999" 
d="M967 1495q-68 -285 -342 -285q-56 0 -103 15t-85.5 46.5t-60.5 88.5t-22 135h162q0 -57 36 -85t87 -28q58 0 104 27t60 86h164zM958 684q0 -140 -35 -268t-99.5 -228.5t-165 -160.5t-222.5 -60q-175 0 -275 113t-100 303q0 111 23 216t68 195t107.5 158t147.5 107t181 39
q173 0 271.5 -113t98.5 -301zM670 659q0 85 -27 134t-82 49q-48 0 -89 -45t-65.5 -113t-38.5 -142t-14 -139q0 -178 105 -178q64 0 114.5 74.5t73.5 171.5t23 188z" />
    <glyph glyph-name="Ohungarumlaut" unicode="&#x150;" horiz-adv-x="1243" 
d="M1237 930q0 -179 -48 -351.5t-133 -310t-215 -221.5t-282 -84q-220 0 -342.5 150t-122.5 403q0 143 29 283t87.5 264t138.5 219t189.5 150t233.5 55q226 0 345.5 -150t119.5 -407zM911 885q0 301 -170 301q-75 0 -138 -63.5t-101.5 -161t-60 -207t-21.5 -209.5
q0 -127 41 -203t133 -76q71 0 133 59.5t101 152t61 200t22 207.5zM1339 1860l-280 -295h-207l231 295h256zM997 1860l-282 -295h-205l229 295h258z" />
    <glyph glyph-name="ohungarumlaut" unicode="&#x151;" horiz-adv-x="999" 
d="M1174 1501l-281 -295h-207l232 295h256zM831 1501l-282 -295h-205l229 295h258zM958 684q0 -140 -35 -268t-99.5 -228.5t-165 -160.5t-222.5 -60q-175 0 -275 113t-100 303q0 111 23 216t68 195t107.5 158t147.5 107t181 39q173 0 271.5 -113t98.5 -301zM670 659
q0 85 -27 134t-82 49q-48 0 -89 -45t-65.5 -113t-38.5 -142t-14 -139q0 -178 105 -178q64 0 114.5 74.5t73.5 171.5t23 188z" />
    <glyph glyph-name="OE" unicode="&#x152;" horiz-adv-x="1474" 
d="M1552 1450l-49 -276h-375l-53 -302h348l-45 -258h-348l-55 -331h403l-49 -283h-745q-246 0 -368 136t-122 382q0 145 29.5 280.5t90.5 254.5t147.5 207t208.5 139t266 51h716zM834 1176h-50q-101 0 -187 -90t-133.5 -230.5t-47.5 -292.5q0 -143 56 -216t157 -73h49z" />
    <glyph glyph-name="oe" unicode="&#x153;" horiz-adv-x="1525" 
d="M1491 723q0 -114 -31 -262h-532q-6 -40 -6 -68q0 -75 30.5 -119.5t89.5 -44.5q93 0 158 117l205 -133q-59 -110 -160.5 -178t-232.5 -68q-99 0 -172.5 43t-104.5 127q-52 -81 -130 -125.5t-173 -44.5q-175 0 -273 113t-98 303q0 139 36.5 267.5t102 228.5t166 159.5
t220.5 59.5q101 0 171.5 -43.5t94.5 -128.5q54 81 130.5 127.5t164.5 46.5q177 0 260.5 -102.5t83.5 -274.5zM1229 727q0 141 -96 141q-63 0 -110 -68t-62 -151h260q8 40 8 78zM670 659q0 85 -27 134t-82 49q-48 0 -89 -45t-65.5 -113t-38.5 -142t-14 -139q0 -178 105 -178
q64 0 114.5 74.5t73.5 171.5t23 188z" />
    <glyph glyph-name="Racute" unicode="&#x154;" horiz-adv-x="1097" 
d="M1124 1077q0 -163 -73.5 -276.5t-200.5 -157.5l162 -643h-332l-121 584h-106l-101 -584h-303l252 1450h426q193 0 295 -94t102 -279zM811 1036q0 78 -41.5 114t-105.5 36h-107l-65 -379h102q94 0 155.5 60t61.5 169zM1040 1862l-282 -295h-207l229 295h260z" />
    <glyph glyph-name="racute" unicode="&#x155;" horiz-adv-x="675" 
d="M813 1503l-283 -295h-206l229 295h260zM782 1092l-67 -304q-36 9 -64 9q-79 0 -139 -79t-80 -190l-92 -528h-301l141 805q33 185 39 260h281q-2 -30 -23 -184h6q43 106 106.5 161.5t141.5 55.5q36 0 51 -6z" />
    <glyph glyph-name="Rcommaaccent" unicode="&#x156;" horiz-adv-x="1097" 
d="M1124 1077q0 -163 -73.5 -276.5t-200.5 -157.5l162 -643h-332l-121 584h-106l-101 -584h-303l252 1450h426q193 0 295 -94t102 -279zM811 1036q0 78 -41.5 114t-105.5 36h-107l-65 -379h102q94 0 155.5 60t61.5 169zM602 -92l-217 -391h-203l193 391h227z" />
    <glyph glyph-name="rcommaaccent" unicode="&#x157;" horiz-adv-x="675" 
d="M782 1092l-67 -304q-36 9 -64 9q-79 0 -139 -79t-80 -190l-92 -528h-301l141 805q33 185 39 260h281q-2 -30 -23 -184h6q43 106 106.5 161.5t141.5 55.5q36 0 51 -6zM301 -92l-217 -391h-203l193 391h227z" />
    <glyph glyph-name="Rcaron" unicode="&#x158;" horiz-adv-x="1097" 
d="M1124 1077q0 -163 -73.5 -276.5t-200.5 -157.5l162 -643h-332l-121 584h-106l-101 -584h-303l252 1450h426q193 0 295 -94t102 -279zM811 1036q0 78 -41.5 114t-105.5 36h-107l-65 -379h102q94 0 155.5 60t61.5 169zM1112 1860l-285 -295h-237l-182 295h213l104 -170
l162 170h225z" />
    <glyph glyph-name="rcaron" unicode="&#x159;" horiz-adv-x="675" 
d="M913 1501l-284 -295h-238l-182 295h213l104 -170l162 170h225zM782 1092l-67 -304q-36 9 -64 9q-79 0 -139 -79t-80 -190l-92 -528h-301l141 805q33 185 39 260h281q-2 -30 -23 -184h6q43 106 106.5 161.5t141.5 55.5q36 0 51 -6z" />
    <glyph glyph-name="Sacute" unicode="&#x15a;" horiz-adv-x="946" 
d="M1036 1346l-186 -228q-36 40 -87 64t-106 24q-66 0 -122 -48t-56 -134q0 -57 33.5 -95t110.5 -83q39 -23 70 -45t68 -58t61.5 -74.5t41.5 -92.5t17 -115q0 -121 -42 -218t-113 -157t-160 -91.5t-187 -31.5q-128 0 -240 44t-176 112l187 235q43 -47 103.5 -76.5
t123.5 -29.5q72 0 126 48.5t54 127.5q0 60 -36 106.5t-118 92.5q-42 24 -74.5 47t-65.5 56.5t-54.5 70.5t-35 88t-13.5 110q0 211 140 351.5t359 140.5q122 0 221 -38t156 -103zM1001 1862l-282 -295h-207l229 295h260z" />
    <glyph glyph-name="sacute" unicode="&#x15b;" horiz-adv-x="804" 
d="M860 1503l-282 -295h-207l229 295h260zM825 993l-155 -194q-66 69 -162 69q-49 0 -84 -28.5t-35 -79.5q0 -40 24 -63t95 -60q217 -109 217 -291q0 -81 -24.5 -147t-64.5 -108.5t-93.5 -71t-108.5 -40.5t-112 -12q-102 0 -197.5 36.5t-155.5 98.5l166 193q85 -92 187 -92
q52 0 87 29t35 81q0 45 -33.5 77t-105.5 67q-90 43 -142 107t-52 165q0 95 37.5 168.5t98.5 115.5t131 63.5t142 21.5q91 0 172.5 -29t132.5 -76z" />
    <glyph glyph-name="Scircumflex" unicode="&#x15c;" horiz-adv-x="946" 
d="M1036 1346l-186 -228q-36 40 -87 64t-106 24q-66 0 -122 -48t-56 -134q0 -57 33.5 -95t110.5 -83q39 -23 70 -45t68 -58t61.5 -74.5t41.5 -92.5t17 -115q0 -121 -42 -218t-113 -157t-160 -91.5t-187 -31.5q-128 0 -240 44t-176 112l187 235q43 -47 103.5 -76.5
t123.5 -29.5q72 0 126 48.5t54 127.5q0 60 -36 106.5t-118 92.5q-42 24 -74.5 47t-65.5 56.5t-54.5 70.5t-35 88t-13.5 110q0 211 140 351.5t359 140.5q122 0 221 -38t156 -103zM1036 1565h-213l-106 170l-160 -170h-225l286 295h238z" />
    <glyph glyph-name="scircumflex" unicode="&#x15d;" horiz-adv-x="804" 
d="M901 1206h-213l-106 170l-160 -170h-225l286 295h238zM825 993l-155 -194q-66 69 -162 69q-49 0 -84 -28.5t-35 -79.5q0 -40 24 -63t95 -60q217 -109 217 -291q0 -81 -24.5 -147t-64.5 -108.5t-93.5 -71t-108.5 -40.5t-112 -12q-102 0 -197.5 36.5t-155.5 98.5l166 193
q85 -92 187 -92q52 0 87 29t35 81q0 45 -33.5 77t-105.5 67q-90 43 -142 107t-52 165q0 95 37.5 168.5t98.5 115.5t131 63.5t142 21.5q91 0 172.5 -29t132.5 -76z" />
    <glyph glyph-name="Scedilla" unicode="&#x15e;" horiz-adv-x="946" 
d="M571 -276q0 -55 -27.5 -97t-72 -65t-93.5 -34t-99 -11q-53 0 -117 13t-107 34l70 123q60 -31 145 -31q103 0 103 61q0 54 -72 54q-40 0 -84 -13l-51 54l133 155q-105 12 -193.5 53t-142.5 99l187 235q43 -47 103.5 -76.5t123.5 -29.5q72 0 126 48.5t54 127.5
q0 60 -36 106.5t-118 92.5q-42 24 -74.5 47t-65.5 56.5t-54.5 70.5t-35 88t-13.5 110q0 211 140 351.5t359 140.5q122 0 221 -38t156 -103l-186 -228q-36 40 -87 64t-106 24q-66 0 -122 -48t-56 -134q0 -57 33.5 -95t110.5 -83q39 -23 70 -45t68 -58t61.5 -74.5t41.5 -92.5
t17 -115q0 -108 -33.5 -197t-92 -148.5t-132 -96t-158.5 -48.5l-86 -98q24 4 45 4q59 0 103 -37.5t44 -115.5z" />
    <glyph glyph-name="scedilla" unicode="&#x15f;" horiz-adv-x="804" 
d="M532 -276q0 -55 -27.5 -97t-72 -65t-93.5 -34t-99 -11q-53 0 -117 13t-107 34l70 123q60 -31 145 -31q103 0 103 61q0 54 -72 54q-40 0 -84 -13l-51 54l135 159q-87 9 -165 43.5t-128 87.5l166 193q85 -92 187 -92q52 0 87 29t35 81q0 45 -33.5 77t-105.5 67
q-90 43 -142 107t-52 165q0 95 37.5 168.5t98.5 115.5t131 63.5t142 21.5q91 0 172.5 -29t132.5 -76l-155 -194q-66 69 -162 69q-49 0 -84 -28.5t-35 -79.5q0 -40 24 -63t95 -60q217 -109 217 -291q0 -81 -24 -146t-66 -108t-92 -70.5t-109 -41.5l-94 -107q24 4 45 4
q59 0 103 -37.5t44 -115.5z" />
    <glyph glyph-name="Scaron" unicode="&#x160;" horiz-adv-x="946" 
d="M1036 1346l-186 -228q-36 40 -87 64t-106 24q-66 0 -122 -48t-56 -134q0 -57 33.5 -95t110.5 -83q39 -23 70 -45t68 -58t61.5 -74.5t41.5 -92.5t17 -115q0 -121 -42 -218t-113 -157t-160 -91.5t-187 -31.5q-128 0 -240 44t-176 112l187 235q43 -47 103.5 -76.5
t123.5 -29.5q72 0 126 48.5t54 127.5q0 60 -36 106.5t-118 92.5q-42 24 -74.5 47t-65.5 56.5t-54.5 70.5t-35 88t-13.5 110q0 211 140 351.5t359 140.5q122 0 221 -38t156 -103zM1077 1860l-284 -295h-238l-182 295h213l104 -170l162 170h225z" />
    <glyph glyph-name="scaron" unicode="&#x161;" horiz-adv-x="804" 
d="M936 1501l-285 -295h-237l-183 295h213l105 -170l162 170h225zM825 993l-155 -194q-66 69 -162 69q-49 0 -84 -28.5t-35 -79.5q0 -40 24 -63t95 -60q217 -109 217 -291q0 -81 -24.5 -147t-64.5 -108.5t-93.5 -71t-108.5 -40.5t-112 -12q-102 0 -197.5 36.5t-155.5 98.5
l166 193q85 -92 187 -92q52 0 87 29t35 81q0 45 -33.5 77t-105.5 67q-90 43 -142 107t-52 165q0 95 37.5 168.5t98.5 115.5t131 63.5t142 21.5q91 0 172.5 -29t132.5 -76z" />
    <glyph glyph-name="Tcommaaccent" unicode="&#x162;" horiz-adv-x="837" 
d="M1008 1450l-47 -268h-267l-207 -1182h-311l207 1182h-266l47 268h844zM442 -92l-217 -391h-202l192 391h227z" />
    <glyph glyph-name="tcommaaccent" unicode="&#x163;" horiz-adv-x="624" 
d="M705 1065l-46 -240h-172l-79 -436q-9 -45 -9 -70q0 -90 88 -90q33 0 72 13l-39 -228q-69 -32 -155 -32q-130 0 -198.5 62.5t-68.5 176.5q0 26 8 92l91 512h-142l43 240h140l45 260h288l-47 -260h181zM383 -92l-217 -391h-203l193 391h227z" />
    <glyph glyph-name="Tcaron" unicode="&#x164;" horiz-adv-x="837" 
d="M1008 1450l-47 -268h-267l-207 -1182h-311l207 1182h-266l47 268h844zM997 1860l-284 -295h-238l-182 295h213l104 -170l162 170h225z" />
    <glyph glyph-name="tcaron" unicode="&#x165;" horiz-adv-x="727" 
d="M705 1065l-46 -240h-172l-79 -436q-9 -45 -9 -70q0 -90 88 -90q33 0 72 13l-39 -228q-69 -32 -155 -32q-130 0 -198.5 62.5t-68.5 176.5q0 26 8 92l91 512h-142l43 240h140l45 260h288l-47 -260h181zM1036 1518l-217 -392h-203l193 392h227z" />
    <glyph glyph-name="Tbar" unicode="&#x166;" horiz-adv-x="837" 
d="M799 963l-29 -156h-141l-142 -807h-311l141 807h-141l27 156h141l39 219h-266l47 268h844l-47 -268h-267l-39 -219h144z" />
    <glyph glyph-name="tbar" unicode="&#x167;" horiz-adv-x="624" 
d="M590 674l-31 -150h-127l-24 -135q-9 -45 -9 -70q0 -90 88 -90q33 0 72 13l-39 -228q-69 -32 -155 -32q-130 0 -198.5 62.5t-68.5 176.5q0 26 8 92l37 211h-116l28 150h115l27 151h-142l43 240h140l45 260h288l-47 -260h181l-46 -240h-172l-28 -151h131z" />
    <glyph glyph-name="Utilde" unicode="&#x168;" horiz-adv-x="1179" 
d="M1247 1450l-160 -913q-18 -103 -43.5 -184t-69 -156.5t-101.5 -125t-142.5 -79t-191.5 -29.5q-213 0 -325 113t-112 299q0 77 15 162l159 913h318l-156 -889q-14 -82 -14 -131q0 -166 135 -166q51 0 89 22t63 65t40 92.5t27 117.5l154 889h315zM1141 1827
q-22 -115 -82 -184.5t-141 -69.5q-75 0 -142 47q-39 28 -59 36.5t-47 8.5q-29 0 -51 -22.5t-31 -59.5h-123q22 112 82 181t141 69q71 0 141 -49q41 -27 62.5 -36t48.5 -9q60 0 80 88h121z" />
    <glyph glyph-name="utilde" unicode="&#x169;" horiz-adv-x="1075" 
d="M1014 1468q-22 -115 -82 -184.5t-141 -69.5q-74 0 -142 48q-39 28 -59 36.5t-47 8.5q-29 0 -51 -22.5t-31 -59.5h-123q21 109 82 180q60 70 141 70q70 0 141 -50q41 -27 62.5 -36t48.5 -9q60 0 80 88h121zM1049 1065l-142 -805q-29 -166 -41 -260h-280q9 83 20 156h-6
q-42 -86 -115 -137.5t-166 -51.5q-62 0 -109 22.5t-74 60.5t-40.5 82.5t-13.5 92.5q0 75 20 185l113 655h299l-115 -653q-8 -54 -8 -76q0 -105 84 -105q60 0 104 58t62 151l109 625h299z" />
    <glyph glyph-name="Umacron" unicode="&#x16a;" horiz-adv-x="1179" 
d="M1247 1450l-160 -913q-18 -103 -43.5 -184t-69 -156.5t-101.5 -125t-142.5 -79t-191.5 -29.5q-213 0 -325 113t-112 299q0 77 15 162l159 913h318l-156 -889q-14 -82 -14 -131q0 -166 135 -166q51 0 89 22t63 65t40 92.5t27 117.5l154 889h315zM1120 1796l-28 -162h-603
l27 162h604z" />
    <glyph glyph-name="umacron" unicode="&#x16b;" horiz-adv-x="1075" 
d="M997 1438l-28 -162h-602l26 162h604zM1049 1065l-142 -805q-29 -166 -41 -260h-280q9 83 20 156h-6q-42 -86 -115 -137.5t-166 -51.5q-62 0 -109 22.5t-74 60.5t-40.5 82.5t-13.5 92.5q0 75 20 185l113 655h299l-115 -653q-8 -54 -8 -76q0 -105 84 -105q60 0 104 58
t62 151l109 625h299z" />
    <glyph glyph-name="Ubreve" unicode="&#x16c;" horiz-adv-x="1179" 
d="M1247 1450l-160 -913q-18 -103 -43.5 -184t-69 -156.5t-101.5 -125t-142.5 -79t-191.5 -29.5q-213 0 -325 113t-112 299q0 77 15 162l159 913h318l-156 -889q-14 -82 -14 -131q0 -166 135 -166q51 0 89 22t63 65t40 92.5t27 117.5l154 889h315zM1122 1853
q-36 -151 -126.5 -217.5t-215.5 -66.5q-56 0 -103 14.5t-85.5 46.5t-60 88.5t-21.5 134.5h162q0 -58 35.5 -85t87.5 -27q59 0 104 25.5t59 86.5h164z" />
    <glyph glyph-name="ubreve" unicode="&#x16d;" horiz-adv-x="1075" 
d="M995 1495q-68 -285 -342 -285q-119 0 -194.5 67.5t-75.5 217.5h162q0 -57 36 -85t87 -28q58 0 103.5 26.5t59.5 86.5h164zM1049 1065l-142 -805q-29 -166 -41 -260h-280q9 83 20 156h-6q-42 -86 -115 -137.5t-166 -51.5q-62 0 -109 22.5t-74 60.5t-40.5 82.5t-13.5 92.5
q0 75 20 185l113 655h299l-115 -653q-8 -54 -8 -76q0 -105 84 -105q60 0 104 58t62 151l109 625h299z" />
    <glyph glyph-name="Uring" unicode="&#x16e;" horiz-adv-x="1179" 
d="M1247 1450l-160 -913q-18 -103 -43.5 -184t-69 -156.5t-101.5 -125t-142.5 -79t-191.5 -29.5q-213 0 -325 113t-112 299q0 77 15 162l159 913h318l-156 -889q-14 -82 -14 -131q0 -166 135 -166q51 0 89 22t63 65t40 92.5t27 117.5l154 889h315zM1006 1784
q0 -103 -67.5 -178.5t-164.5 -75.5q-84 0 -131 50t-47 130q0 107 64 184.5t157 77.5q90 0 139.5 -53t49.5 -135zM913 1776q0 46 -25 78t-73 32q-59 0 -94 -50.5t-35 -117.5q0 -46 24.5 -75t71.5 -29q56 0 93.5 49.5t37.5 112.5z" />
    <glyph glyph-name="uring" unicode="&#x16f;" horiz-adv-x="1075" 
d="M879 1425q0 -103 -67.5 -178.5t-164.5 -75.5q-84 0 -131 50.5t-47 130.5q0 108 64 185t157 77q90 0 139.5 -53.5t49.5 -135.5zM786 1417q0 47 -25 79t-73 32q-59 0 -94 -50.5t-35 -117.5q0 -46 24.5 -75.5t71.5 -29.5q56 0 93.5 49.5t37.5 112.5zM1049 1065l-142 -805
q-29 -166 -41 -260h-280q9 83 20 156h-6q-42 -86 -115 -137.5t-166 -51.5q-62 0 -109 22.5t-74 60.5t-40.5 82.5t-13.5 92.5q0 75 20 185l113 655h299l-115 -653q-8 -54 -8 -76q0 -105 84 -105q60 0 104 58t62 151l109 625h299z" />
    <glyph glyph-name="Uhungarumlaut" unicode="&#x170;" horiz-adv-x="1179" 
d="M1247 1450l-160 -913q-18 -103 -43.5 -184t-69 -156.5t-101.5 -125t-142.5 -79t-191.5 -29.5q-213 0 -325 113t-112 299q0 77 15 162l159 913h318l-156 -889q-14 -82 -14 -131q0 -166 135 -166q51 0 89 22t63 65t40 92.5t27 117.5l154 889h315zM1333 1860l-280 -295h-207
l231 295h256zM991 1860l-282 -295h-205l229 295h258z" />
    <glyph glyph-name="uhungarumlaut" unicode="&#x171;" horiz-adv-x="1075" 
d="M1208 1501l-280 -295h-207l231 295h256zM866 1501l-282 -295h-205l229 295h258zM1049 1065l-142 -805q-29 -166 -41 -260h-280q9 83 20 156h-6q-42 -86 -115 -137.5t-166 -51.5q-62 0 -109 22.5t-74 60.5t-40.5 82.5t-13.5 92.5q0 75 20 185l113 655h299l-115 -653
q-8 -54 -8 -76q0 -105 84 -105q60 0 104 58t62 151l109 625h299z" />
    <glyph glyph-name="Uogonek" unicode="&#x172;" horiz-adv-x="1179" 
d="M436 -475q-77 0 -130.5 41.5t-53.5 130.5q0 137 197 272q-169 24 -258 133t-89 273q0 77 15 162l159 913h318l-156 -889q-14 -82 -14 -131q0 -166 135 -166q51 0 89 22t63 65t40 92.5t27 117.5l154 889h315l-160 -913q-16 -91 -38 -165t-57.5 -144.5t-82 -121t-113 -86.5
t-149.5 -49q-103 -79 -144.5 -126t-41.5 -89q0 -57 53 -57q59 0 107 39l38 -131q-106 -82 -223 -82z" />
    <glyph glyph-name="uogonek" unicode="&#x173;" horiz-adv-x="1075" 
d="M614 -475q-77 0 -130.5 41.5t-53.5 130.5q0 154 246 303h-90q9 83 20 156h-6q-42 -86 -115 -137.5t-166 -51.5q-62 0 -109 22.5t-74 60.5t-40.5 82.5t-13.5 92.5q0 75 20 185l113 655h299l-115 -653q-8 -54 -8 -76q0 -105 84 -105q60 0 104 58t62 151l109 625h299
l-142 -805q-29 -166 -41 -260h-2q-125 -94 -175 -146.5t-50 -97.5q0 -57 53 -57q59 0 107 39l39 -131q-106 -82 -224 -82z" />
    <glyph glyph-name="Wcircumflex" unicode="&#x174;" horiz-adv-x="1624" 
d="M1778 1450l-531 -1450h-336l-6 991h-6l-350 -991h-344l-12 1450h315l-25 -1028h11l342 1028h305l-8 -1028h6l331 1028h308zM1352 1565h-213l-107 170l-160 -170h-225l287 295h237z" />
    <glyph glyph-name="wcircumflex" unicode="&#x175;" horiz-adv-x="1388" 
d="M1178 1206h-213l-107 170l-160 -170h-225l287 295h237zM1475 1065l-431 -1065h-309l-12 657h-2l-264 -657h-299l-37 1065h297l-10 -696h4l258 696h252l10 -696h4l238 696h301z" />
    <glyph glyph-name="Ycircumflex" unicode="&#x176;" horiz-adv-x="1009" 
d="M1186 1450l-529 -926l-92 -524h-317l92 524l-197 926h332l76 -602h6l287 602h342zM1026 1565h-213l-106 170l-160 -170h-225l286 295h238z" />
    <glyph glyph-name="ycircumflex" unicode="&#x177;" horiz-adv-x="937" 
d="M952 1206h-213l-106 170l-160 -170h-225l287 295h237zM1032 1065l-510 -1153q-34 -78 -64.5 -133.5t-72 -109.5t-86.5 -87.5t-105.5 -53.5t-132.5 -20q-74 0 -143 21l55 266q21 -14 76 -14q48 0 79 27.5t54 82.5l39 91l-117 1083h310l26 -743h6l285 743h301z" />
    <glyph glyph-name="Ydieresis" unicode="&#x178;" horiz-adv-x="1009" 
d="M1186 1450l-529 -926l-92 -524h-317l92 524l-197 926h332l76 -602h6l287 602h342zM1034 1743q0 -70 -44 -118t-109 -48q-60 0 -94.5 38t-34.5 91q0 66 44 116t109 50q61 0 95 -36t34 -93zM653 1743q0 -71 -43.5 -118.5t-109.5 -47.5q-59 0 -93 38t-34 91q0 67 43.5 116.5
t109.5 49.5q60 0 93.5 -36t33.5 -93z" />
    <glyph glyph-name="Zacute" unicode="&#x179;" horiz-adv-x="925" 
d="M1026 1450l-43 -250l-608 -915h454l-49 -285h-821l43 256l608 918h-407l49 276h774zM995 1862l-282 -295h-207l229 295h260z" />
    <glyph glyph-name="zacute" unicode="&#x17a;" horiz-adv-x="794" 
d="M856 1503l-283 -295h-206l229 295h260zM838 1065l-39 -238l-469 -577h372l-43 -250h-698l43 246l461 567h-334l43 252h664z" />
    <glyph glyph-name="Zdotaccent" unicode="&#x17b;" horiz-adv-x="925" 
d="M1026 1450l-43 -250l-608 -915h454l-49 -285h-821l43 256l608 918h-407l49 276h774zM844 1747q0 -84 -52.5 -140.5t-129.5 -56.5q-70 0 -111 45t-41 107q0 79 52 139t128 60q73 0 113.5 -43.5t40.5 -110.5z" />
    <glyph glyph-name="zdotaccent" unicode="&#x17c;" horiz-adv-x="794" 
d="M709 1389q0 -83 -53 -140t-130 -57q-70 0 -110.5 44.5t-40.5 106.5q0 79 52 139t128 60q73 0 113.5 -43t40.5 -110zM838 1065l-39 -238l-469 -577h372l-43 -250h-698l43 246l461 567h-334l43 252h664z" />
    <glyph glyph-name="Zcaron" unicode="&#x17d;" horiz-adv-x="925" 
d="M1026 1450l-43 -250l-608 -915h454l-49 -285h-821l43 256l608 918h-407l49 276h774zM1055 1860l-285 -295h-238l-182 295h213l105 -170l161 170h226z" />
    <glyph glyph-name="zcaron" unicode="&#x17e;" horiz-adv-x="794" 
d="M930 1501l-285 -295h-237l-183 295h213l105 -170l162 170h225zM838 1065l-39 -238l-469 -577h372l-43 -250h-698l43 246l461 567h-334l43 252h664z" />
    <glyph glyph-name="florin" unicode="&#x192;" horiz-adv-x="1062" 
d="M1184 1432l-117 -248q-45 28 -92 28q-56 0 -93 -36.5t-65 -116.5l-55 -162h207l-39 -223h-246l-211 -615q-122 -346 -407 -346q-96 0 -158 23l82 260q22 -14 59 -14q54 0 86.5 42t63.5 132l176 518h-187l41 223h211l47 145q27 82 55 143t68.5 120.5t89 97.5t116 61
t149.5 23q136 0 219 -55z" />
    <glyph glyph-name="Scommaaccent" unicode="&#x218;" horiz-adv-x="946" 
d="M1036 1346l-186 -228q-36 40 -87 64t-106 24q-66 0 -122 -48t-56 -134q0 -57 33.5 -95t110.5 -83q39 -23 70 -45t68 -58t61.5 -74.5t41.5 -92.5t17 -115q0 -121 -42 -218t-113 -157t-160 -91.5t-187 -31.5q-128 0 -240 44t-176 112l187 235q43 -47 103.5 -76.5
t123.5 -29.5q72 0 126 48.5t54 127.5q0 60 -36 106.5t-118 92.5q-42 24 -74.5 47t-65.5 56.5t-54.5 70.5t-35 88t-13.5 110q0 211 140 351.5t359 140.5q122 0 221 -38t156 -103zM463 -104l-217 -392h-203l193 392h227z" />
    <glyph glyph-name="scommaaccent" unicode="&#x219;" horiz-adv-x="804" 
d="M825 993l-155 -194q-66 69 -162 69q-49 0 -84 -28.5t-35 -79.5q0 -40 24 -63t95 -60q217 -109 217 -291q0 -81 -24.5 -147t-64.5 -108.5t-93.5 -71t-108.5 -40.5t-112 -12q-102 0 -197.5 36.5t-155.5 98.5l166 193q85 -92 187 -92q52 0 87 29t35 81q0 45 -33.5 77
t-105.5 67q-90 43 -142 107t-52 165q0 95 37.5 168.5t98.5 115.5t131 63.5t142 21.5q91 0 172.5 -29t132.5 -76zM453 -92l-217 -391h-203l192 391h228z" />
    <glyph glyph-name="uni021A" unicode="&#x21a;" horiz-adv-x="837" 
d="M1008 1450l-47 -268h-267l-207 -1182h-311l207 1182h-266l47 268h844zM442 -92l-217 -391h-202l192 391h227z" />
    <glyph glyph-name="uni021B" unicode="&#x21b;" horiz-adv-x="624" 
d="M705 1065l-46 -240h-172l-79 -436q-9 -45 -9 -70q0 -90 88 -90q33 0 72 13l-39 -228q-69 -32 -155 -32q-130 0 -198.5 62.5t-68.5 176.5q0 26 8 92l91 512h-142l43 240h140l45 260h288l-47 -260h181zM383 -92l-217 -391h-203l193 391h227z" />
    <glyph glyph-name="circumflex" unicode="&#x2c6;" 
d="M752 1206h-213l-107 170l-160 -170h-225l287 295h237z" />
    <glyph glyph-name="caron" unicode="&#x2c7;" 
d="M805 1501l-285 -295h-237l-183 295h213l105 -170l162 170h225z" />
    <glyph glyph-name="uni02C9" unicode="&#x2c9;" 
d="M743 1796l-28 -162h-602l26 162h604z" />
    <glyph glyph-name="breve" unicode="&#x2d8;" 
d="M760 1495q-68 -285 -342 -285q-56 0 -103 15t-85.5 46.5t-60.5 88.5t-22 135h162q0 -57 36 -85t87 -28q58 0 104 27t60 86h164z" />
    <glyph glyph-name="dotaccent" unicode="&#x2d9;" 
d="M586 1389q0 -83 -53 -140t-130 -57q-70 0 -110.5 44.5t-40.5 106.5q0 79 52 139t128 60q73 0 113.5 -43t40.5 -110z" />
    <glyph glyph-name="ring" unicode="&#x2da;" 
d="M641 1425q0 -103 -67 -178.5t-164 -75.5q-84 0 -131.5 50.5t-47.5 130.5q0 108 64.5 185t157.5 77q90 0 139 -53.5t49 -135.5zM549 1417q0 47 -25 79t-73 32q-59 0 -94 -50.5t-35 -117.5q0 -46 24.5 -75.5t71.5 -29.5q56 0 93.5 49.5t37.5 112.5z" />
    <glyph glyph-name="ogonek" unicode="&#x2db;" 
d="M100 -475q-77 0 -130.5 41.5t-53.5 130.5q0 154 246 303h188q-125 -94 -175 -146.5t-50 -97.5q0 -57 53 -57q59 0 107 39l39 -131q-106 -82 -224 -82z" />
    <glyph glyph-name="tilde" unicode="&#x2dc;" 
d="M764 1468q-22 -115 -82 -184.5t-141 -69.5q-74 0 -142 48q-39 28 -59 36.5t-47 8.5q-29 0 -51 -22.5t-31 -59.5h-123q21 109 82 180q60 70 141 70q71 0 142 -50q41 -27 62 -36t48 -9q60 0 80 88h121z" />
    <glyph glyph-name="hungarumlaut" unicode="&#x2dd;" 
d="M909 1501l-280 -295h-207l231 295h256zM567 1501l-282 -295h-205l229 295h258z" />
    <glyph glyph-name="uni0394" unicode="&#x394;" horiz-adv-x="1454" 
d="M1436 0h-1418l549 1450h287zM987 297l-282 733l-267 -733h549z" />
    <glyph glyph-name="uni03A9" unicode="&#x3a9;" horiz-adv-x="1579" 
d="M1475 0h-596v449q129 29 200 137q68 103 68 243q0 106 -50.5 189.5t-130.5 126.5t-173 43q-95 0 -176 -43t-132 -126.5t-51 -191.5q0 -139 73.5 -240.5t192.5 -137.5v-449h-596v295h342v22q-159 49 -249 189q-93 142 -93 323q0 142 54.5 264t147 205.5t217.5 131
t265 47.5q189 0 344.5 -78.5t249 -226.5t93.5 -338t-89 -329.5t-253 -187.5v-22h342v-295z" />
    <glyph glyph-name="uni03BC" unicode="&#x3bc;" horiz-adv-x="1363" 
d="M182 1020h332v-508q0 -32 3 -62t13.5 -66.5t26.5 -63t46 -44.5t69 -18q97 0 141.5 63t44.5 164v535h332v-1020h-318v117h-2q-75 -131 -227 -131q-85 0 -129 41v-490h-332v1483z" />
    <glyph glyph-name="pi" unicode="&#x3c0;" horiz-adv-x="1363" 
d="M1284 37q-102 -51 -244 -51q-73 0 -124 21t-78.5 61t-39.5 88.5t-12 111.5v471h-235v-739h-340v739h-141v281h1210v-281h-160v-411q0 -88 72 -88q36 0 92 24v-227z" />
    <glyph glyph-name="endash" unicode="&#x2013;" horiz-adv-x="724" 
d="M715 662l-37 -197h-639l37 197h639z" />
    <glyph glyph-name="emdash" unicode="&#x2014;" horiz-adv-x="929" 
d="M924 662l-35 -197h-844l35 197h844z" />
    <glyph glyph-name="quoteleft" unicode="&#x2018;" horiz-adv-x="452" 
d="M565 1450l-192 -522h-230l219 522h203z" />
    <glyph glyph-name="quoteright" unicode="&#x2019;" horiz-adv-x="452" 
d="M565 1450l-219 -522h-203l193 522h229z" />
    <glyph glyph-name="quotesinglbase" unicode="&#x201a;" horiz-adv-x="452" 
d="M360 287l-217 -523h-202l192 523h227z" />
    <glyph glyph-name="quotedblleft" unicode="&#x201c;" horiz-adv-x="788" 
d="M565 1450l-192 -522h-230l219 522h203zM901 1450l-192 -522h-228l217 522h203z" />
    <glyph glyph-name="quotedblright" unicode="&#x201d;" horiz-adv-x="786" 
d="M565 1450l-219 -522h-203l193 522h229zM899 1450l-217 -522h-203l193 522h227z" />
    <glyph glyph-name="quotedblbase" unicode="&#x201e;" horiz-adv-x="786" 
d="M690 287l-217 -523h-205l193 523h229zM354 287l-217 -523h-203l193 523h227z" />
    <glyph glyph-name="dagger" unicode="&#x2020;" horiz-adv-x="884" 
d="M954 1040l-45 -258h-278l-185 -1050h-262l185 1050h-279l45 258h279l71 410h265l-72 -410h276z" />
    <glyph glyph-name="daggerdbl" unicode="&#x2021;" horiz-adv-x="884" 
d="M963 1081l-45 -250h-277l-86 -481h279l-46 -250h-276l-63 -368h-265l64 368h-279l45 250h279l84 481h-279l45 250h277l65 369h265l-66 -369h279z" />
    <glyph glyph-name="bullet" unicode="&#x2022;" horiz-adv-x="1024" 
d="M874 725q0 -151 -105.5 -257t-256.5 -106t-256.5 106t-105.5 257t105.5 256.5t256.5 105.5t256.5 -105.5t105.5 -256.5z" />
    <glyph glyph-name="ellipsis" unicode="&#x2026;" horiz-adv-x="1843" 
d="M1661 184q0 -86 -53.5 -144t-132.5 -58q-72 0 -113 45.5t-41 109.5q0 81 52.5 143t131.5 62q74 0 115 -44.5t41 -113.5zM432 184q0 -86 -53.5 -144t-132.5 -58q-72 0 -113 45.5t-41 109.5q0 81 52.5 143t131.5 62q74 0 115 -44.5t41 -113.5zM1047 184q0 -86 -53.5 -144
t-133.5 -58q-71 0 -112 45.5t-41 109.5q0 81 52.5 143t131.5 62q74 0 115 -44.5t41 -113.5z" />
    <glyph glyph-name="perthousand" unicode="&#x2030;" horiz-adv-x="1972" 
d="M731 1198q0 -119 -41.5 -223.5t-122.5 -171t-184 -66.5q-114 0 -176 75t-62 200q0 121 41.5 226.5t121.5 172t181 66.5q117 0 179.5 -76.5t62.5 -202.5zM537 1184q0 112 -68 112q-39 0 -70 -45.5t-45 -105t-14 -115.5q0 -51 17.5 -80.5t50.5 -29.5q39 0 70 45t45 104
t14 115zM1313 434q0 -119 -41.5 -223.5t-122.5 -171t-184 -66.5q-114 0 -176 75t-62 200q0 121 41.5 226.5t121.5 172t181 66.5q117 0 179.5 -76.5t62.5 -202.5zM1118 420q0 112 -67 112q-39 0 -70 -45.5t-45 -105t-14 -115.5q0 -51 17 -80.5t50 -29.5q39 0 70 45t45 104
t14 115zM1950 434q0 -119 -41.5 -223.5t-122.5 -171t-184 -66.5q-114 0 -176 75t-62 200q0 121 41.5 226.5t121.5 172t181 66.5q117 0 179.5 -76.5t62.5 -202.5zM1755 420q0 112 -67 112q-39 0 -70 -45.5t-45 -105t-14 -115.5q0 -51 17 -80.5t50 -29.5q39 0 70 45t45 104
t14 115zM1235 1450l-881 -1495l-133 57l883 1499z" />
    <glyph glyph-name="guilsinglleft" unicode="&#x2039;" horiz-adv-x="509" 
d="M520 920l-250 -390l113 -387l-168 -67l-137 473l299 459z" />
    <glyph glyph-name="guilsinglright" unicode="&#x203a;" horiz-adv-x="509" 
d="M453 537l-299 -459l-144 88l250 387l-113 389l168 68z" />
    <glyph glyph-name="fraction" unicode="&#x2044;" horiz-adv-x="204" 
d="M616 1460l-825 -1499l-123 41l826 1503z" />
    <glyph glyph-name="Euro" unicode="&#x20ac;" horiz-adv-x="1062" 
d="M1171 1444l-100 -246q-24 13 -72.5 22t-93.5 9q-96 0 -170.5 -60t-120.5 -172h398l-82 -198h-389q-23 -84 -25 -144h365l-78 -194h-291q4 -106 66 -167t159 -61q108 0 191 46l-10 -263q-99 -55 -246 -55q-213 0 -337 138.5t-132 361.5h-162l80 194h94q4 77 27 144h-138
l84 198h101q196 492 643 492q64 0 134 -13t105 -32z" />
    <glyph glyph-name="afii61289" unicode="&#x2113;" horiz-adv-x="1024" 
d="M1044 1204q0 -169 -127 -323.5t-411 -339.5q-53 -211 -53 -260q0 -42 23.5 -64t60.5 -22q72 0 198 79h4l76 -178q-180 -125 -373 -125q-141 0 -219 70t-78 184q0 32 17 115l-121 -84h-4l-80 174l258 168l100 473q38 186 159.5 296t289.5 110q124 0 202 -79t78 -194z
M788 1190q0 35 -16.5 59.5t-42.5 24.5q-65 0 -92 -127l-74 -340q99 82 162 185.5t63 197.5z" />
    <glyph glyph-name="trademark" unicode="&#x2122;" horiz-adv-x="1556" 
d="M811 606v844h276l125 -549l117 549h279v-844h-191v535h-4l-129 -535h-160l-125 535h-4v-535h-184zM369 606v645h-162v199h528v-199h-160v-645h-206z" />
    <glyph glyph-name="Omega" unicode="&#x2126;" horiz-adv-x="1579" 
d="M1475 0h-596v449q129 29 200 137q68 103 68 243q0 106 -50.5 189.5t-130.5 126.5t-173 43q-95 0 -176 -43t-132 -126.5t-51 -191.5q0 -139 73.5 -240.5t192.5 -137.5v-449h-596v295h342v22q-159 49 -249 189q-93 142 -93 323q0 142 54.5 264t147 205.5t217.5 131
t265 47.5q189 0 344.5 -78.5t249 -226.5t93.5 -338t-89 -329.5t-253 -187.5v-22h342v-295z" />
    <glyph glyph-name="estimated" unicode="&#x212e;" horiz-adv-x="1236" 
d="M1149 530h-827v-370q121 -121 296 -121q128 0 224 59t172 187l71 -43q-95 -148 -201.5 -212.5t-265.5 -64.5q-157 0 -278.5 75.5t-185.5 203.5t-64 286q0 159 64 287t185.5 203.5t278.5 75.5q235 0 382 -158t149 -408zM322 604h596v297q-129 123 -302 123
q-171 0 -294 -123v-297z" />
    <glyph glyph-name="partialdiff" unicode="&#x2202;" horiz-adv-x="1363" 
d="M874 877q-1 57 -17 111t-46.5 100.5t-82.5 75t-118 28.5q-78 0 -145.5 -28t-134.5 -107l-158 229q191 191 440 191q132 0 236.5 -44.5t170.5 -117t109 -171.5t60.5 -199.5t17.5 -209.5q0 -75 -6 -144.5t-23 -147.5t-43.5 -144t-70 -127.5t-100.5 -104.5t-138 -68.5
t-178 -25.5q-223 0 -364.5 139t-141.5 357q0 207 132.5 337t359.5 130q132 0 241 -59zM860 598q-96 74 -188 74q-91 0 -141 -59.5t-50 -157.5q0 -92 48 -150.5t124 -58.5q71 0 119.5 49.5t68 120t19.5 155.5v27z" />
    <glyph glyph-name="Delta" unicode="&#x2206;" horiz-adv-x="1454" 
d="M1436 0h-1418l549 1450h287zM987 297l-282 733l-267 -733h549z" />
    <glyph glyph-name="product" unicode="&#x220f;" horiz-adv-x="1542" 
d="M1423 -438h-311v1775h-682v-1775h-309v2048h1302v-2048z" />
    <glyph glyph-name="summation" unicode="&#x2211;" horiz-adv-x="1363" 
d="M1319 -438h-1266v227l598 809l-573 784v228h1216v-273h-823l524 -737l-559 -766h883v-272z" />
    <glyph glyph-name="minus" unicode="&#x2212;" horiz-adv-x="1363" 
d="M1225 496h-1086v252h1086v-252z" />
    <glyph glyph-name="uni2215" unicode="&#x2215;" horiz-adv-x="204" 
d="M616 1460l-825 -1499l-123 41l826 1503z" />
    <glyph glyph-name="uni2219" unicode="&#x2219;" horiz-adv-x="536" 
d="M451 567q0 -86 -54.5 -143t-134.5 -57q-72 0 -112.5 45t-40.5 110q0 79 53.5 141t130.5 62q74 0 116 -44.5t42 -113.5z" />
    <glyph glyph-name="radical" unicode="&#x221a;" horiz-adv-x="1165" 
d="M1186 1610l-438 -2048h-259l-296 614l-105 -49l-111 233l359 162l229 -489l324 1577h297z" />
    <glyph glyph-name="infinity" unicode="&#x221e;" horiz-adv-x="1714" 
d="M1622 545q0 -167 -101 -279t-274 -112q-115 0 -208 56.5t-181 154.5q-46 -49 -81 -80.5t-83.5 -64t-103 -48.5t-117.5 -16q-172 0 -276.5 110t-104.5 277q0 165 101.5 274t271.5 109q121 0 212 -59t181 -165q42 50 79 86t86 70t106 52t120 18q170 0 271.5 -109
t101.5 -274zM1380 539q0 64 -37 104.5t-100 40.5q-59 0 -116 -41.5t-117 -105.5q126 -140 239 -140q60 0 95.5 40t35.5 102zM705 537q-145 145 -240 145q-57 0 -94 -41.5t-37 -101.5q0 -63 37 -101.5t100 -38.5q106 0 234 138z" />
    <glyph glyph-name="integral" unicode="&#x222b;" horiz-adv-x="1296" 
d="M1063 1425q0 -58 -38 -97.5t-97 -39.5q-36 0 -61.5 17t-36.5 38t-24.5 42t-27.5 26q-5 -4 -8.5 -10t-5.5 -12t-4 -14.5t-2.5 -14t-1 -16t-0.5 -14.5v-14.5v-12.5q0 -29 2 -85t2 -85v-902q0 -155 -4 -231q-3 -71 -12 -129t-32.5 -117.5t-59.5 -100t-96.5 -66t-139.5 -25.5
q-41 0 -83 10.5t-81.5 31t-64.5 59t-25 87.5q0 20 10 37q11 41 46 67.5t81 26.5q36 0 60.5 -17t34 -37.5t22.5 -40.5t26 -24q25 13 25 97q1 31 -1.5 87t-2.5 77v69v946q0 50 0.5 84t4.5 85t10 87t18.5 81t30 76t44 62.5t60 51t79.5 31.5t101 12q38 0 79.5 -10t81.5 -30.5
t65.5 -57.5t25.5 -85z" />
    <glyph glyph-name="approxequal" unicode="&#x2248;" horiz-adv-x="1363" 
d="M1188 958q-17 -187 -103.5 -290t-226.5 -103q-55 0 -130 20.5t-136.5 45t-129 45t-108.5 20.5q-40 0 -67 -32.5t-37 -79.5h-197q6 74 27.5 137.5t59.5 118.5t101 86.5t144 31.5q70 0 162 -30t182.5 -60t157.5 -30q86 0 102 120h199zM1186 506q-6 -57 -19.5 -107.5
t-39 -101t-60.5 -87t-88 -59t-119 -22.5q-56 0 -132 21t-138 45.5t-129.5 45.5t-108.5 21t-69 -34.5t-37 -92.5h-197q5 59 19 113t40 105.5t61.5 89t88 60.5t115.5 23q57 0 128.5 -19.5t129 -43t129 -43t127.5 -19.5q75 0 100 105h199z" />
    <glyph glyph-name="notequal" unicode="&#x2260;" horiz-adv-x="1363" 
d="M1165 225h-559l-151 -299l-236 115l96 184h-209v260h343l88 172h-431v261h564l153 296l236 -112l-96 -184h202v-261h-336l-88 -172h424v-260z" />
    <glyph glyph-name="lessequal" unicode="&#x2264;" horiz-adv-x="1363" 
d="M1202 37h-1040v252h1040v-252zM1202 315l-1040 439v211l1040 438v-279l-627 -268l627 -260v-281z" />
    <glyph glyph-name="greaterequal" unicode="&#x2265;" horiz-adv-x="1363" 
d="M162 37v252h1040v-252h-1040zM162 315v281l626 260l-626 268v279l1040 -438v-211z" />
    <glyph glyph-name="lozenge" unicode="&#x25ca;" horiz-adv-x="1241" 
d="M1118 729l-377 -801h-245l-371 801l373 801h243zM829 729l-211 494l-206 -494l206 -493z" />
    <glyph glyph-name="uniF8FF" unicode="&#xf8ff;" horiz-adv-x="1048" 
d="M455 240h114v137h-114v-137zM461 479h94q0 107 12 148q11 38 88 106q75 69 102 123t27 123q0 120 -72 194t-182 74q-115 0 -189 -69.5t-87 -210.5l102 -17q11 100 56 147.5t112 47.5q64 0 110 -50.5t46 -123.5q0 -41 -19.5 -75.5t-82.5 -94.5q-67 -67 -95 -121
q-26 -51 -26 -166zM946 102h-844v1264h844v-1264zM1049 1470h-1049v-1470h1049v1470z" />
    <glyph glyph-name="ydieresis.sc" horiz-adv-x="862" 
d="M1034 1194l-452 -782l-74 -412h-311l71 412l-157 782h317l49 -485h4l221 485h332zM934 1462q0 -70 -44.5 -118t-109.5 -48q-60 0 -94.5 38t-34.5 91q0 66 45 117t109 51q61 0 95 -36.5t34 -94.5zM553 1462q0 -71 -44 -118.5t-110 -47.5q-59 0 -93 38t-34 91
q0 67 44 117.5t110 50.5q60 0 93.5 -37t33.5 -94z" />
    <glyph glyph-name="n.sc" horiz-adv-x="1077" 
d="M1090 1194l-207 -1194h-324l-129 664h-4l-107 -664h-274l207 1194h328l122 -674h5l110 674h273z" />
    <glyph glyph-name="umacron.sc" horiz-adv-x="1062" 
d="M1090 1194l-129 -741q-15 -87 -37 -155.5t-60 -132t-89.5 -105t-127 -66.5t-170.5 -25q-185 0 -284 95.5t-99 252.5q0 46 15 138l127 739h313l-127 -717q-12 -78 -12 -108q0 -113 90 -113q75 0 108.5 55.5t50.5 165.5l123 717h308zM1022 1516l-29 -162h-602l27 162h604z
" />
    <glyph glyph-name="ohungarumlaut.sc" horiz-adv-x="1083" 
d="M1059 764q0 -119 -24 -234t-73 -216.5t-117 -178.5t-162 -121.5t-202 -44.5q-186 0 -290.5 125.5t-104.5 335.5q0 120 24 235t72.5 216.5t115.5 178t160 121t199 44.5q197 0 299.5 -123t102.5 -338zM748 719q0 219 -127 219q-67 0 -120.5 -81.5t-78.5 -187.5t-25 -204
q0 -205 127 -205q65 0 118.5 76.5t79.5 180.5t26 202zM1214 1579l-280 -295h-207l231 295h256zM872 1579l-282 -295h-205l229 295h258z" />
    <glyph glyph-name="iogonek.sc" horiz-adv-x="552" 
d="M106 -475q-77 0 -130.5 41.5t-53.5 130.5q0 154 246 303h-123l207 1194h313l-209 -1194q-125 -94 -175 -146.5t-50 -97.5q0 -57 53 -57q59 0 107 39l39 -131q-106 -82 -224 -82z" />
    <glyph glyph-name="p.sc" horiz-adv-x="931" 
d="M965 868q0 -222 -121 -339t-322 -117h-102l-74 -412h-301l207 1194h373q65 0 123 -18t108 -55t79.5 -102t29.5 -151zM688 827q0 55 -27 85t-75 30h-80l-47 -287h73q72 0 114 47t42 125z" />
    <glyph glyph-name="macron.sc" 
d="M743 1516l-28 -162h-602l26 162h604z" />
    <glyph glyph-name="ugrave.sc" horiz-adv-x="1062" 
d="M1090 1194l-129 -741q-15 -87 -37 -155.5t-60 -132t-89.5 -105t-127 -66.5t-170.5 -25q-185 0 -284 95.5t-99 252.5q0 46 15 138l127 739h313l-127 -717q-12 -78 -12 -108q0 -113 90 -113q75 0 108.5 55.5t50.5 165.5l123 717h308zM784 1286h-206l-263 295h258z" />
    <glyph glyph-name="oe.sc" horiz-adv-x="1263" 
d="M1303 1194l-46 -264h-290l-37 -199h266l-39 -242h-268l-39 -217h317l-49 -272h-624q-213 0 -317.5 119t-104.5 323q0 117 24 225.5t75.5 204.5t124.5 167.5t178.5 113t230.5 41.5h598zM688 934h-31q-77 0 -141 -68.5t-98.5 -172.5t-34.5 -214q0 -103 42 -158t116 -55h34z
" />
    <glyph glyph-name="udieresis.sc" horiz-adv-x="1062" 
d="M1090 1194l-129 -741q-15 -87 -37 -155.5t-60 -132t-89.5 -105t-127 -66.5t-170.5 -25q-185 0 -284 95.5t-99 252.5q0 46 15 138l127 739h313l-127 -717q-12 -78 -12 -108q0 -113 90 -113q75 0 108.5 55.5t50.5 165.5l123 717h308zM1038 1462q0 -70 -44 -118t-109 -48
q-60 0 -94.5 38t-34.5 91q0 66 44.5 117t108.5 51q61 0 95 -36.5t34 -94.5zM657 1462q0 -71 -43.5 -118.5t-109.5 -47.5q-59 0 -93 38t-34 91q0 67 43.5 117.5t109.5 50.5q60 0 93.5 -37t33.5 -94z" />
    <glyph glyph-name="grave.sc" 
d="M567 1286h-207l-262 295h258z" />
    <glyph glyph-name="hungarumlaut.cap" 
d="M909 1860l-280 -295h-207l231 295h256zM567 1860l-282 -295h-205l229 295h258z" />
    <glyph glyph-name="otilde.sc" horiz-adv-x="1083" 
d="M1059 764q0 -119 -24 -234t-73 -216.5t-117 -178.5t-162 -121.5t-202 -44.5q-186 0 -290.5 125.5t-104.5 335.5q0 120 24 235t72.5 216.5t115.5 178t160 121t199 44.5q197 0 299.5 -123t102.5 -338zM748 719q0 219 -127 219q-67 0 -120.5 -81.5t-78.5 -187.5t-25 -204
q0 -205 127 -205q65 0 118.5 76.5t79.5 180.5t26 202zM1047 1546q-22 -115 -82.5 -184.5t-141.5 -69.5q-74 0 -141 47q-38 28 -59 36.5t-48 8.5q-29 0 -50.5 -22t-30.5 -59h-123q22 111 82 180t141 69q71 0 141 -49q41 -27 62.5 -36t48.5 -9q60 0 80 88h121z" />
    <glyph glyph-name="imacron.sc" horiz-adv-x="552" 
d="M565 1194l-209 -1194h-311l207 1194h313zM762 1516l-29 -162h-602l27 162h604z" />
    <glyph glyph-name="ocircumflex.sc" horiz-adv-x="1083" 
d="M1059 764q0 -119 -24 -234t-73 -216.5t-117 -178.5t-162 -121.5t-202 -44.5q-186 0 -290.5 125.5t-104.5 335.5q0 120 24 235t72.5 216.5t115.5 178t160 121t199 44.5q197 0 299.5 -123t102.5 -338zM748 719q0 219 -127 219q-67 0 -120.5 -81.5t-78.5 -187.5t-25 -204
q0 -205 127 -205q65 0 118.5 76.5t79.5 180.5t26 202zM1028 1284h-213l-106 170l-160 -170h-225l286 295h238z" />
    <glyph glyph-name="perthousand.sc" horiz-adv-x="1841" 
d="M602 979q0 -164 -84 -282.5t-221 -118.5q-107 0 -164 68.5t-57 178.5q0 105 36 195.5t106.5 147.5t162.5 57q107 0 164 -68t57 -178zM418 967q0 88 -56 88q-45 0 -73.5 -72t-28.5 -143q0 -40 14.5 -64t42.5 -24q32 0 56 37t34.5 85t10.5 93zM1227 371q0 -164 -84 -283
t-221 -119q-107 0 -164.5 69t-57.5 179q0 105 36 195t107 147t163 57q107 0 164 -67.5t57 -177.5zM1042 358q0 88 -55 88q-45 0 -73.5 -72t-28.5 -143q0 -40 14.5 -64t42.5 -24q32 0 55.5 37t34 84.5t10.5 93.5zM1806 371q0 -164 -84 -283t-221 -119q-107 0 -164 69t-57 179
q0 105 36 195t106.5 147t162.5 57q107 0 164 -67.5t57 -177.5zM1622 358q0 88 -55 88q-45 0 -74 -72t-29 -143q0 -40 15 -64t43 -24q32 0 55.5 37t34 84.5t10.5 93.5zM350 -49l-151 67l749 1233l150 -71z" />
    <glyph glyph-name="napostrophe.sc" horiz-adv-x="1351" 
d="M461 1194l-217 -391h-203l192 391h228zM1364 1194l-207 -1194h-323l-129 664h-5l-106 -664h-275l207 1194h328l123 -674h4l111 674h272z" />
    <glyph glyph-name="ij.sc" horiz-adv-x="1376" 
d="M565 1194l-209 -1194h-311l207 1194h313zM1403 1194l-137 -803q-13 -76 -30.5 -135t-49 -115t-75 -92t-108 -58t-147.5 -22q-139 0 -224 71.5t-118 190.5l260 115q7 -38 28 -63t56 -25q50 0 71.5 38.5t35.5 121.5l133 776h305z" />
    <glyph glyph-name="percent.sc" horiz-adv-x="1263" 
d="M602 979q0 -164 -84 -282.5t-221 -118.5q-107 0 -164 68.5t-57 178.5q0 105 36 195.5t106.5 147.5t162.5 57q107 0 164 -68t57 -178zM418 967q0 88 -56 88q-45 0 -73.5 -72t-28.5 -143q0 -40 14.5 -64t42.5 -24q32 0 56 37t34.5 85t10.5 93zM1227 371q0 -164 -84 -283
t-221 -119q-107 0 -164.5 69t-57.5 179q0 105 36 195t107 147t163 57q107 0 164 -67.5t57 -177.5zM1042 358q0 88 -55 88q-45 0 -73.5 -72t-28.5 -143q0 -40 14.5 -64t42.5 -24q32 0 55.5 37t34 84.5t10.5 93.5zM350 -49l-151 67l749 1233l150 -71z" />
    <glyph glyph-name="obreve.sc" horiz-adv-x="1083" 
d="M1059 764q0 -119 -24 -234t-73 -216.5t-117 -178.5t-162 -121.5t-202 -44.5q-186 0 -290.5 125.5t-104.5 335.5q0 120 24 235t72.5 216.5t115.5 178t160 121t199 44.5q197 0 299.5 -123t102.5 -338zM748 719q0 219 -127 219q-67 0 -120.5 -81.5t-78.5 -187.5t-25 -204
q0 -205 127 -205q65 0 118.5 76.5t79.5 180.5t26 202zM1024 1573q-68 -285 -342 -285q-119 0 -194.5 67.5t-75.5 217.5h161q0 -59 39 -86q34 -27 84 -27q58 0 104 27t60 86h164z" />
    <glyph glyph-name="two.onum" horiz-adv-x="1040" 
d="M29 0l45 274q33 22 95 63q73 49 109 72.5t96 65.5t89.5 66t72.5 59.5t63.5 61t43 57t31 60.5t8.5 59q0 57 -31 91t-92 34q-111 0 -182 -138l-242 86q67 146 185.5 229t281.5 83q174 0 276.5 -88.5t102.5 -249.5q0 -46 -9.5 -90t-22.5 -80.5t-39.5 -75.5t-48.5 -67.5
t-63 -65t-68.5 -59.5t-79.5 -59.5t-82 -56.5t-89 -59v-6h412l-45 -266h-817z" />
    <glyph glyph-name="nine.sc" horiz-adv-x="983" 
d="M956 864q0 -210 -172 -454l-297 -410h-354l318 424l-2 2q-18 -6 -54 -6q-130 0 -197 82t-67 223q0 69 15.5 137t50.5 134t86.5 116.5t129.5 81.5t173 31q175 0 272.5 -98t97.5 -263zM668 846q0 58 -25.5 93.5t-73.5 35.5q-66 0 -108.5 -71.5t-42.5 -164.5q0 -54 24 -88.5
t74 -34.5q63 0 107.5 64t44.5 166z" />
    <glyph glyph-name="oacute.sc" horiz-adv-x="1083" 
d="M1059 764q0 -119 -24 -234t-73 -216.5t-117 -178.5t-162 -121.5t-202 -44.5q-186 0 -290.5 125.5t-104.5 335.5q0 120 24 235t72.5 216.5t115.5 178t160 121t199 44.5q197 0 299.5 -123t102.5 -338zM748 719q0 219 -127 219q-67 0 -120.5 -81.5t-78.5 -187.5t-25 -204
q0 -205 127 -205q65 0 118.5 76.5t79.5 180.5t26 202zM1049 1581l-283 -295h-207l229 295h261z" />
    <glyph glyph-name="idotaccent.sc" horiz-adv-x="552" 
d="M565 1194l-209 -1194h-311l207 1194h313zM614 1487q0 -83 -52.5 -140t-129.5 -57q-70 0 -110.5 45t-40.5 107q0 79 52 138.5t128 59.5q73 0 113 -43t40 -110z" />
    <glyph glyph-name="ucircumflex.sc" horiz-adv-x="1062" 
d="M1090 1194l-129 -741q-15 -87 -37 -155.5t-60 -132t-89.5 -105t-127 -66.5t-170.5 -25q-185 0 -284 95.5t-99 252.5q0 46 15 138l127 739h313l-127 -717q-12 -78 -12 -108q0 -113 90 -113q75 0 108.5 55.5t50.5 165.5l123 717h308zM1020 1284h-213l-107 170l-159 -170
h-226l287 295h238z" />
    <glyph glyph-name="macron.cap" 
d="M743 1796l-28 -162h-602l26 162h604z" />
    <glyph glyph-name="oslash.sc" horiz-adv-x="1083" 
d="M1106 1227l-117 -172q70 -121 70 -291q0 -119 -24 -234t-73 -216.5t-117 -178.5t-162 -121.5t-202 -44.5q-133 0 -229 68l-98 -150l-117 76l121 176q-72 116 -72 291q0 120 24 235t72.5 216.5t115.5 178t160 121t199 44.5q142 0 238 -68l94 141zM369 449v-35l356 520
q-32 47 -98 47q-59 0 -110 -53.5t-82 -135.5t-48.5 -172.5t-17.5 -170.5zM770 737v31l-352 -510q35 -41 98 -41q57 0 106.5 50.5t81 129t49 168t17.5 172.5z" />
    <glyph glyph-name="yacute.sc" horiz-adv-x="862" 
d="M1034 1194l-452 -782l-74 -412h-311l71 412l-157 782h317l49 -485h4l221 485h332zM946 1581l-282 -295h-207l229 295h260z" />
    <glyph glyph-name="uhungarumlaut.sc" horiz-adv-x="1062" 
d="M1090 1194l-129 -741q-15 -87 -37 -155.5t-60 -132t-89.5 -105t-127 -66.5t-170.5 -25q-185 0 -284 95.5t-99 252.5q0 46 15 138l127 739h313l-127 -717q-12 -78 -12 -108q0 -113 90 -113q75 0 108.5 55.5t50.5 165.5l123 717h308zM1237 1579l-281 -295h-206l231 295h256
zM895 1579l-283 -295h-204l229 295h258z" />
    <glyph glyph-name="omacron.sc" horiz-adv-x="1083" 
d="M1059 764q0 -119 -24 -234t-73 -216.5t-117 -178.5t-162 -121.5t-202 -44.5q-186 0 -290.5 125.5t-104.5 335.5q0 120 24 235t72.5 216.5t115.5 178t160 121t199 44.5q197 0 299.5 -123t102.5 -338zM748 719q0 219 -127 219q-67 0 -120.5 -81.5t-78.5 -187.5t-25 -204
q0 -205 127 -205q65 0 118.5 76.5t79.5 180.5t26 202zM1030 1516l-29 -162h-602l27 162h604z" />
    <glyph glyph-name="z.sc" horiz-adv-x="841" 
d="M897 1194l-41 -233l-471 -689h358l-49 -272h-710l43 240l481 692h-330l47 262h672z" />
    <glyph glyph-name="questiondown.sc" horiz-adv-x="835" 
d="M12 244q0 61 16.5 111t52.5 91t71.5 70t93.5 68q80 56 92 129l8 41h266l-10 -64q-14 -86 -56.5 -144.5t-119.5 -113.5l-33 -24q-45 -30 -65.5 -58.5t-20.5 -68.5q0 -36 22 -59t60 -23q49 0 80.5 34t46.5 80l244 -59q-18 -56 -50 -104t-80.5 -90t-121 -66.5t-160.5 -24.5
q-151 0 -243.5 74t-92.5 201zM342 1022q0 82 52.5 136t127.5 54q71 0 110.5 -43t39.5 -104q0 -75 -51.5 -133t-124.5 -58q-71 0 -112.5 42.5t-41.5 105.5z" />
    <glyph glyph-name="idieresis.sc" horiz-adv-x="552" 
d="M565 1194l-209 -1194h-311l207 1194h313zM778 1462q0 -70 -44 -118t-109 -48q-60 0 -94.5 38t-34.5 91q0 66 44.5 117t108.5 51q61 0 95 -36.5t34 -94.5zM397 1462q0 -71 -43.5 -118.5t-109.5 -47.5q-59 0 -93 38t-34 91q0 67 43.5 117.5t109.5 50.5q60 0 93.5 -37
t33.5 -94z" />
    <glyph glyph-name="one.sc" horiz-adv-x="983" 
d="M846 1194l-207 -1194h-305l149 852l-194 -109l-99 232l396 219h260z" />
    <glyph glyph-name="question.sc" horiz-adv-x="835" 
d="M885 950q0 -61 -16.5 -111t-52.5 -91t-71.5 -70t-93.5 -68q-80 -56 -92 -129l-8 -41h-266l10 64q14 86 56.5 144.5t119.5 113.5l33 24q45 30 65.5 58.5t20.5 68.5q0 36 -22 59t-60 23q-49 0 -80.5 -34t-46.5 -80l-244 59q18 56 50 104t80.5 90t121 66.5t160.5 24.5
q151 0 243.5 -74t92.5 -201zM555 172q0 -82 -52.5 -136t-127.5 -54q-71 0 -110.5 43t-39.5 104q0 75 51.5 132.5t124.5 57.5q71 0 112.5 -42.5t41.5 -104.5z" />
    <glyph glyph-name="iacute.sc" horiz-adv-x="552" 
d="M565 1194l-209 -1194h-311l207 1194h313zM778 1581l-282 -295h-207l229 295h260z" />
    <glyph glyph-name="three.sc" horiz-adv-x="983" 
d="M922 932q0 -108 -58 -194t-151 -111v-4q66 -22 102.5 -88.5t36.5 -145.5q0 -98 -35.5 -179t-95 -133t-136.5 -80t-161 -28q-163 0 -259.5 82.5t-121.5 214.5l264 74q27 -115 123 -115q60 0 98.5 44t38.5 114q0 52 -38 83.5t-97 31.5h-63l37 227h73q69 0 111.5 40.5
t42.5 111.5q0 37 -23.5 65.5t-66.5 28.5q-78 0 -129 -101l-238 76q37 97 104 161.5t143 91t163 26.5q90 0 164 -29.5t123 -97.5t49 -166z" />
    <glyph glyph-name="ordfeminine.sc" horiz-adv-x="655" 
d="M655 801h-180v104h-149l-43 -104h-191l297 669h244zM479 1047v266h-4l-104 -266h108z" />
    <glyph glyph-name="l.sc" horiz-adv-x="776" 
d="M721 279l-49 -279h-627l207 1194h313l-162 -915h318z" />
    <glyph glyph-name="scommaaccent.sc" horiz-adv-x="825" 
d="M444 -92l-217 -391h-202l192 391h227zM887 1108l-176 -219q-28 31 -69 50t-83 19q-49 0 -88 -31t-39 -93q0 -38 24.5 -63t86.5 -60q41 -25 71 -49t66 -64t56 -94.5t20 -118.5q0 -104 -36.5 -185.5t-98.5 -130.5t-137.5 -74.5t-159.5 -25.5q-111 0 -206.5 34.5
t-152.5 90.5l174 225q80 -77 180 -77q51 0 88 30t37 86q0 41 -26 73t-88 71q-45 26 -76.5 51.5t-62 62.5t-46.5 87t-16 112q0 175 118.5 292.5t309.5 117.5q107 0 194.5 -31.5t135.5 -85.5z" />
    <glyph glyph-name="uring.sc" horiz-adv-x="1062" 
d="M1090 1194l-129 -741q-15 -87 -37 -155.5t-60 -132t-89.5 -105t-127 -66.5t-170.5 -25q-185 0 -284 95.5t-99 252.5q0 46 15 138l127 739h313l-127 -717q-12 -78 -12 -108q0 -113 90 -113q75 0 108.5 55.5t50.5 165.5l123 717h308zM918 1503q0 -103 -67.5 -178.5
t-164.5 -75.5q-84 0 -131 50.5t-47 130.5q0 108 64 185t157 77q90 0 139.5 -53.5t49.5 -135.5zM825 1495q0 47 -25 79t-73 32q-59 0 -94 -50.5t-35 -117.5q0 -46 24.5 -75.5t71.5 -29.5q56 0 93.5 49.5t37.5 112.5z" />
    <glyph glyph-name="i.sc" horiz-adv-x="552" 
d="M565 1194l-209 -1194h-311l207 1194h313z" />
    <glyph glyph-name="hcircumflex.sc" horiz-adv-x="1085" 
d="M1098 1194l-209 -1194h-301l86 483h-242l-84 -483h-303l207 1194h303l-76 -434h240l76 434h303zM1032 1284h-213l-106 170l-160 -170h-225l286 295h238z" />
    <glyph glyph-name="ograve.sc" horiz-adv-x="1083" 
d="M1059 764q0 -119 -24 -234t-73 -216.5t-117 -178.5t-162 -121.5t-202 -44.5q-186 0 -290.5 125.5t-104.5 335.5q0 120 24 235t72.5 216.5t115.5 178t160 121t199 44.5q197 0 299.5 -123t102.5 -338zM748 719q0 219 -127 219q-67 0 -120.5 -81.5t-78.5 -187.5t-25 -204
q0 -205 127 -205q65 0 118.5 76.5t79.5 180.5t26 202zM811 1286h-207l-262 295h258z" />
    <glyph glyph-name="ycircumflex.sc" horiz-adv-x="862" 
d="M1034 1194l-452 -782l-74 -412h-311l71 412l-157 782h317l49 -485h4l221 485h332zM930 1284h-213l-107 170l-159 -170h-226l287 295h238z" />
    <glyph glyph-name="o.sc" horiz-adv-x="1083" 
d="M1059 764q0 -119 -24 -234t-73 -216.5t-117 -178.5t-162 -121.5t-202 -44.5q-186 0 -290.5 125.5t-104.5 335.5q0 120 24 235t72.5 216.5t115.5 178t160 121t199 44.5q197 0 299.5 -123t102.5 -338zM748 719q0 219 -127 219q-67 0 -120.5 -81.5t-78.5 -187.5t-25 -204
q0 -205 127 -205q65 0 118.5 76.5t79.5 180.5t26 202z" />
    <glyph glyph-name="scircumflex.sc" horiz-adv-x="825" 
d="M887 1108l-176 -219q-28 31 -69 50t-83 19q-49 0 -88 -31t-39 -93q0 -38 24.5 -63t86.5 -60q41 -25 71 -49t66 -64t56 -94.5t20 -118.5q0 -104 -36.5 -185.5t-98.5 -130.5t-137.5 -74.5t-159.5 -25.5q-111 0 -206.5 34.5t-152.5 90.5l174 225q80 -77 180 -77q51 0 88 30
t37 86q0 41 -26 73t-88 71q-45 26 -76.5 51.5t-62 62.5t-46.5 87t-16 112q0 175 118.5 292.5t309.5 117.5q107 0 194.5 -31.5t135.5 -85.5zM940 1284h-213l-106 170l-160 -170h-225l286 295h238z" />
    <glyph glyph-name="j.sc" horiz-adv-x="800" 
d="M827 1194l-137 -803q-13 -76 -30.5 -135t-49 -115t-74.5 -92t-107.5 -58t-147.5 -22q-139 0 -224 71.5t-118 190.5l260 115q7 -38 28 -63t56 -25q50 0 71 38.5t35 121.5l133 776h305z" />
    <glyph glyph-name="igrave.sc" horiz-adv-x="552" 
d="M565 1194l-209 -1194h-311l207 1194h313zM557 1286h-207l-262 295h258z" />
    <glyph glyph-name="aring.sc" horiz-adv-x="964" 
d="M883 0h-295l-4 199h-277l-80 -199h-313l514 1194h399zM588 432l-8 498h-7l-190 -498h205zM868 1503q0 -103 -67 -178.5t-164 -75.5q-84 0 -131 50.5t-47 130.5q0 108 64 185t157 77q90 0 139 -53.5t49 -135.5zM776 1495q0 47 -25 79t-73 32q-59 0 -94 -50.5t-35 -117.5
q0 -46 24.5 -75.5t71.5 -29.5q56 0 93.5 49.5t37.5 112.5z" />
    <glyph glyph-name="ring.sc" 
d="M641 1503q0 -103 -67 -178.5t-164 -75.5q-84 0 -131.5 50.5t-47.5 130.5q0 108 64.5 185t157.5 77q90 0 139 -53.5t49 -135.5zM549 1495q0 47 -25 79t-73 32q-59 0 -94 -50.5t-35 -117.5q0 -46 24.5 -75.5t71.5 -29.5q56 0 93.5 49.5t37.5 112.5z" />
    <glyph glyph-name="hungarumlaut.sc" 
d="M909 1579l-280 -295h-207l231 295h256zM567 1579l-282 -295h-205l229 295h258z" />
    <glyph glyph-name="sterling.sc" horiz-adv-x="983" 
d="M956 1159l-129 -231q-35 28 -96 28q-60 0 -90.5 -41.5t-44.5 -113.5l-12 -72h188l-41 -235h-184l-39 -226h287l-47 -268h-699l47 268h129l39 226h-127l43 235h121l18 96q10 59 27 110.5t49.5 106.5t75.5 94t109 64t147 25q71 0 134 -19t95 -47z" />
    <glyph glyph-name="nacute.sc" horiz-adv-x="1077" 
d="M1090 1194l-207 -1194h-324l-129 664h-4l-107 -664h-274l207 1194h328l122 -674h5l110 674h273zM1047 1581l-283 -295h-207l229 295h261z" />
    <glyph glyph-name="ubreve.sc" horiz-adv-x="1062" 
d="M1090 1194l-129 -741q-15 -87 -37 -155.5t-60 -132t-89.5 -105t-127 -66.5t-170.5 -25q-185 0 -284 95.5t-99 252.5q0 46 15 138l127 739h313l-127 -717q-12 -78 -12 -108q0 -113 90 -113q75 0 108.5 55.5t50.5 165.5l123 717h308zM1012 1573q-68 -285 -342 -285
q-56 0 -103 15t-85.5 46.5t-60.5 88.5t-22 135h162q0 -59 39 -86q35 -27 84 -27q58 0 104 27t60 86h164z" />
    <glyph glyph-name="seven.sc" horiz-adv-x="983" 
d="M975 1194l-39 -227l-514 -967h-326l510 930h-428l43 264h754z" />
    <glyph glyph-name="odieresis.sc" horiz-adv-x="1083" 
d="M1059 764q0 -119 -24 -234t-73 -216.5t-117 -178.5t-162 -121.5t-202 -44.5q-186 0 -290.5 125.5t-104.5 335.5q0 120 24 235t72.5 216.5t115.5 178t160 121t199 44.5q197 0 299.5 -123t102.5 -338zM748 719q0 219 -127 219q-67 0 -120.5 -81.5t-78.5 -187.5t-25 -204
q0 -205 127 -205q65 0 118.5 76.5t79.5 180.5t26 202zM1047 1462q0 -70 -44.5 -118t-109.5 -48q-60 0 -94.5 38t-34.5 91q0 66 45 117t109 51q61 0 95 -36.5t34 -94.5zM666 1462q0 -71 -44 -118.5t-110 -47.5q-59 0 -93 38t-34 91q0 67 44 117.5t110 50.5q60 0 93.5 -37
t33.5 -94z" />
    <glyph glyph-name="zcaron.sc" horiz-adv-x="841" 
d="M897 1194l-41 -233l-471 -689h358l-49 -272h-710l43 240l481 692h-330l47 262h672zM979 1579l-285 -295h-237l-183 295h213l105 -170l162 170h225z" />
    <glyph glyph-name="nine.onum" horiz-adv-x="1089" 
d="M551 274l-2 5q-44 -33 -127 -33q-151 0 -235.5 105.5t-84.5 269.5q0 112 33 216.5t96 192t167.5 140.5t234.5 53q195 0 305.5 -116t110.5 -308q0 -276 -178 -563t-525 -564l-250 152q131 97 259.5 221t195.5 229zM408 635q0 -77 34 -125.5t101 -48.5q89 0 145.5 92.5
t56.5 224.5q-2 81 -37 130.5t-98 49.5q-93 0 -147.5 -96.5t-54.5 -226.5z" />
    <glyph glyph-name="germandbls.sc" horiz-adv-x="1650" 
d="M887 1108l-176 -219q-28 31 -69 50t-83 19q-49 0 -88 -31t-39 -93q0 -38 24.5 -63t86.5 -60q41 -25 71 -49t66 -64t56 -94.5t20 -118.5q0 -104 -36.5 -185.5t-98.5 -130.5t-137.5 -74.5t-159.5 -25.5q-111 0 -206.5 34.5t-152.5 90.5l174 225q80 -77 180 -77q51 0 88 30
t37 86q0 41 -26 73t-88 71q-45 26 -76.5 51.5t-62 62.5t-46.5 87t-16 112q0 175 118.5 292.5t309.5 117.5q107 0 194.5 -31.5t135.5 -85.5zM1712 1108l-176 -219q-28 31 -69 50t-83 19q-49 0 -88 -31t-39 -93q0 -38 24.5 -63t86.5 -60q41 -25 71 -49t66 -64t56 -94.5
t20 -118.5q0 -104 -36.5 -185.5t-98.5 -130.5t-137.5 -74.5t-159.5 -25.5q-111 0 -205.5 34.5t-152.5 90.5l174 225q80 -77 180 -77q51 0 88 30t37 86q0 41 -26 73t-89 71q-45 26 -76.5 51.5t-62 62.5t-46.5 87t-16 112q0 175 118.5 292.5t309.5 117.5q107 0 194.5 -31.5
t135.5 -85.5z" />
    <glyph glyph-name="aacute.sc" horiz-adv-x="964" 
d="M883 0h-295l-4 199h-277l-80 -199h-313l514 1194h399zM588 432l-8 498h-7l-190 -498h205zM1010 1581l-283 -295h-207l230 295h260z" />
    <glyph glyph-name="q.sc" horiz-adv-x="1083" 
d="M1059 766q0 -149 -57 -308t-142 -218v-7l182 7l-45 -240h-516q-190 0 -292.5 112.5t-102.5 317.5q0 149 38.5 289.5t108.5 254t180.5 182.5t243.5 69q196 0 299 -123.5t103 -335.5zM748 731q0 55 -9.5 98t-39.5 76t-78 33q-67 0 -120.5 -81.5t-78.5 -187.5t-25 -204
q0 -205 119 -205q66 0 121.5 79.5t83 186.5t27.5 205z" />
    <glyph glyph-name="exclamdown.sc" horiz-adv-x="587" 
d="M61 0l136 754h299l-131 -754h-304zM231 1020q0 82 50.5 135t124.5 53q69 0 107 -42t38 -103q0 -74 -49.5 -131.5t-122.5 -57.5q-71 0 -109.5 41.5t-38.5 104.5z" />
    <glyph glyph-name="jcircumflex.sc" horiz-adv-x="800" 
d="M827 1194l-137 -803q-13 -76 -30.5 -135t-49 -115t-74.5 -92t-107.5 -58t-147.5 -22q-139 0 -224 71.5t-118 190.5l260 115q7 -38 28 -63t56 -25q50 0 71 38.5t35 121.5l133 776h305zM1024 1284h-213l-106 170l-160 -170h-226l287 295h238z" />
    <glyph glyph-name="lacute.sc" horiz-adv-x="776" 
d="M721 279l-49 -279h-627l207 1194h313l-162 -915h318zM797 1581l-283 -295h-207l230 295h260z" />
    <glyph glyph-name="zacute.sc" horiz-adv-x="841" 
d="M897 1194l-41 -233l-471 -689h358l-49 -272h-710l43 240l481 692h-330l47 262h672zM928 1581l-283 -295h-207l230 295h260z" />
    <glyph glyph-name="six.onum" horiz-adv-x="1089" 
d="M571 930l4 -4q43 32 125 32q151 0 236.5 -105t85.5 -269q0 -90 -20 -177t-63.5 -166t-105 -139t-150.5 -95.5t-194 -35.5q-196 0 -306.5 115.5t-110.5 306.5q0 252 167.5 540t516.5 576l250 -149q-124 -93 -246 -211.5t-189 -218.5zM717 569q0 77 -34.5 125.5
t-102.5 48.5q-85 0 -145 -98t-60 -229q2 -81 37 -132t98 -51q94 0 150.5 100t56.5 236z" />
    <glyph glyph-name="k.sc" horiz-adv-x="997" 
d="M1126 1194l-401 -578l201 -616h-332l-145 545h-9l-94 -545h-301l207 1194h303l-86 -492h6l309 492h342z" />
    <glyph glyph-name="tcommaaccent.sc" horiz-adv-x="757" 
d="M395 -92l-217 -391h-203l193 391h227zM872 1194l-45 -262h-217l-164 -932h-305l164 932h-215l45 262h737z" />
    <glyph glyph-name="r.sc" horiz-adv-x="997" 
d="M983 877q0 -131 -60.5 -226t-162.5 -131l135 -520h-311l-97 461h-69l-82 -461h-291l207 1194h377q166 0 260 -81.5t94 -235.5zM690 838q0 56 -30.5 81t-75.5 25h-82l-47 -272h75q68 0 114 42t46 124z" />
    <glyph glyph-name="lslash.sc" horiz-adv-x="776" 
d="M743 1079l-51 -286l-231 -179l-58 -335h318l-49 -279h-627l66 373l-111 -88l51 290l111 89l92 530h311l-53 -293z" />
    <glyph glyph-name="scaron.sc" horiz-adv-x="825" 
d="M887 1108l-176 -219q-28 31 -69 50t-83 19q-49 0 -88 -31t-39 -93q0 -38 24.5 -63t86.5 -60q41 -25 71 -49t66 -64t56 -94.5t20 -118.5q0 -104 -36.5 -185.5t-98.5 -130.5t-137.5 -74.5t-159.5 -25.5q-111 0 -206.5 34.5t-152.5 90.5l174 225q80 -77 180 -77q51 0 88 30
t37 86q0 41 -26 73t-88 71q-45 26 -76.5 51.5t-62 62.5t-46.5 87t-16 112q0 175 118.5 292.5t309.5 117.5q107 0 194.5 -31.5t135.5 -85.5zM981 1579l-285 -295h-237l-183 295h213l105 -170l162 170h225z" />
    <glyph glyph-name="icircumflex.sc" horiz-adv-x="552" 
d="M565 1194l-209 -1194h-311l207 1194h313zM770 1284h-213l-106 170l-160 -170h-225l286 295h238z" />
    <glyph glyph-name="itilde.sc" horiz-adv-x="552" 
d="M565 1194l-209 -1194h-311l207 1194h313zM780 1546q-22 -115 -82 -184.5t-141 -69.5q-74 0 -141 47q-38 28 -59 36.5t-48 8.5q-29 0 -51 -22t-31 -59h-123q22 111 82 180t142 69q71 0 141 -49q41 -27 62.5 -36t48.5 -9q59 0 79 88h121z" />
    <glyph glyph-name="s.sc" horiz-adv-x="825" 
d="M887 1108l-176 -219q-28 31 -69 50t-83 19q-49 0 -88 -31t-39 -93q0 -38 24.5 -63t86.5 -60q41 -25 71 -49t66 -64t56 -94.5t20 -118.5q0 -104 -36.5 -185.5t-98.5 -130.5t-137.5 -74.5t-159.5 -25.5q-111 0 -206.5 34.5t-152.5 90.5l174 225q80 -77 180 -77q51 0 88 30
t37 86q0 41 -26 73t-88 71q-45 26 -76.5 51.5t-62 62.5t-46.5 87t-16 112q0 175 118.5 292.5t309.5 117.5q107 0 194.5 -31.5t135.5 -85.5z" />
    <glyph glyph-name="hbar.sc" horiz-adv-x="1085" 
d="M1098 1194l-209 -1194h-301l80 451h-242l-78 -451h-303l207 1194h303l-33 -190h240l33 190h303zM473 719h240l20 121h-239z" />
    <glyph glyph-name="y.sc" horiz-adv-x="862" 
d="M1034 1194l-452 -782l-74 -412h-311l71 412l-157 782h317l49 -485h4l221 485h332z" />
    <glyph glyph-name="kcommaaccent.sc" horiz-adv-x="997" 
d="M588 -92l-217 -391h-203l192 391h228zM1126 1194l-401 -578l201 -616h-332l-145 545h-9l-94 -545h-301l207 1194h303l-86 -492h6l309 492h342z" />
    <glyph glyph-name="zdotaccent.sc" horiz-adv-x="841" 
d="M897 1194l-41 -233l-471 -689h358l-49 -272h-710l43 240l481 692h-330l47 262h672zM756 1487q0 -83 -53 -140t-130 -57q-70 0 -110.5 45t-40.5 107q0 79 52 138.5t128 59.5q73 0 113.5 -43t40.5 -110z" />
    <glyph glyph-name="exclam.sc" horiz-adv-x="587" 
d="M580 1194l-136 -754h-299l131 754h304zM410 174q0 -82 -50 -135t-124 -53q-69 0 -107.5 42t-38.5 103q0 74 49.5 131t122.5 57q71 0 109.5 -41t38.5 -104z" />
    <glyph glyph-name="a.sc" horiz-adv-x="964" 
d="M883 0h-295l-4 199h-277l-80 -199h-313l514 1194h399zM588 432l-8 498h-7l-190 -498h205z" />
    <glyph glyph-name="h.sc" horiz-adv-x="1085" 
d="M1098 1194l-209 -1194h-301l86 483h-242l-84 -483h-303l207 1194h303l-76 -434h240l76 434h303z" />
    <glyph glyph-name="m.sc" horiz-adv-x="1398" 
d="M1411 1194l-209 -1194h-299l139 760h-6l-307 -760h-246l-28 760h-6l-130 -760h-274l209 1194h387l37 -776h8l299 776h426z" />
    <glyph glyph-name="tilde.sc" 
d="M764 1546q-22 -115 -82 -184.5t-141 -69.5q-75 0 -142 47q-39 28 -59 36.5t-47 8.5q-29 0 -51 -22t-31 -59h-123q22 111 82 180t141 69q72 0 142 -49q41 -27 62 -36t48 -9q60 0 80 88h121z" />
    <glyph glyph-name="grave.cap" 
d="M567 1565h-207l-262 295h258z" />
    <glyph glyph-name="seven.onum" horiz-adv-x="962" 
d="M1004 1190l-43 -246q-433 -749 -703 -1276l-307 66q132 245 335 602.5t332 572.5h-499l49 281h836z" />
    <glyph glyph-name="tbar.sc" horiz-adv-x="757" 
d="M129 737h139l37 195h-215l45 262h737l-45 -262h-217l-37 -195h160l-33 -180h-157l-97 -557h-305l99 557h-144z" />
    <glyph glyph-name="acute.cap" 
d="M737 1862l-282 -295h-207l229 295h260z" />
    <glyph glyph-name="wcircumflex.sc" horiz-adv-x="1470" 
d="M1604 1194l-465 -1194h-336l-12 737h-3l-286 -737h-326l-39 1194h322l-15 -780h2l283 780h275l12 -780h4l258 780h326zM1223 1284h-213l-107 170l-160 -170h-225l287 295h237z" />
    <glyph glyph-name="ebreve.sc" horiz-adv-x="804" 
d="M844 1194l-45 -264h-291l-37 -199h266l-39 -242h-268l-39 -217h318l-47 -272h-617l207 1194h592zM897 1573q-68 -285 -342 -285q-119 0 -194.5 67.5t-75.5 217.5h161q0 -59 39 -86q35 -27 84 -27q58 0 104 27t60 86h164z" />
    <glyph glyph-name="ncommaaccent.sc" horiz-adv-x="1077" 
d="M602 -92l-217 -391h-203l193 391h227zM1090 1194l-207 -1194h-324l-129 664h-4l-107 -664h-274l207 1194h328l122 -674h5l110 674h273z" />
    <glyph glyph-name="three.onum" horiz-adv-x="1021" 
d="M961 897q-268 -197 -422 -297l2 -6q20 4 37 4q143 0 227 -106.5t84 -264.5q0 -113 -39 -211.5t-115 -176t-198.5 -122.5t-278.5 -45q-129 0 -240 21l54 276q83 -18 174 -18q56 0 110 13t104.5 41t81.5 80.5t31 121.5q0 88 -57.5 134t-163.5 46q-84 0 -190 -27l-15 234
q254 166 461 321l2 9h-420l50 266h776z" />
    <glyph glyph-name="one.onum" horiz-adv-x="866" 
d="M754 1190l-207 -1190h-301l151 850l-194 -113l-99 230l392 223h258z" />
    <glyph glyph-name="ntilde.sc" horiz-adv-x="1077" 
d="M1090 1194l-207 -1194h-324l-129 664h-4l-107 -664h-274l207 1194h328l122 -674h5l110 674h273zM1044 1546q-22 -115 -82 -184.5t-141 -69.5q-74 0 -141 47q-38 28 -59 36.5t-48 8.5q-29 0 -50.5 -22t-30.5 -59h-123q22 111 82 180t141 69q71 0 141 -49q41 -27 62.5 -36
t48.5 -9q60 0 80 88h120z" />
    <glyph glyph-name="w.sc" horiz-adv-x="1470" 
d="M1604 1194l-465 -1194h-336l-12 737h-3l-286 -737h-326l-39 1194h322l-15 -780h2l283 780h275l12 -780h4l258 780h326z" />
    <glyph glyph-name="acute.sc" 
d="M737 1581l-282 -295h-207l229 295h260z" />
    <glyph glyph-name="four.sc" horiz-adv-x="983" 
d="M768 231l-41 -231h-278l40 231h-454l43 248l471 715h377l-125 -715h125l-41 -248h-117zM598 883h-6l-248 -404h182z" />
    <glyph glyph-name="Euro.sc" horiz-adv-x="983" 
d="M1010 1188l-92 -230q-52 25 -132 25q-148 0 -219 -160h314l-70 -172h-313q-14 -52 -17 -102h297l-69 -172h-226q4 -74 51 -117t121 -43q82 0 154 33l-12 -240q-95 -41 -203 -41q-181 0 -287 112.5t-112 295.5h-144l74 172h76q0 30 16 102h-113l72 172h82q155 404 539 404
q59 0 121.5 -10.5t91.5 -28.5z" />
    <glyph glyph-name="dotaccent.cap" 
d="M586 1747q0 -84 -53 -140.5t-130 -56.5q-70 0 -110.5 45t-40.5 107q0 79 52 139t128 60q73 0 113.5 -43.5t40.5 -110.5z" />
    <glyph glyph-name="aogonek.sc" horiz-adv-x="964" 
d="M526 -475q-77 0 -130.5 41.5t-53.5 130.5q0 154 246 303l-4 199h-277l-80 -199h-313l514 1194h399l56 -1194h-107q-125 -94 -175 -146.5t-50 -97.5q0 -57 53 -57q59 0 107 39l39 -131q-106 -82 -224 -82zM588 432l-8 498h-7l-190 -498h205z" />
    <glyph glyph-name="five.onum" horiz-adv-x="978" 
d="M512 918l-74 -287q38 6 70 6q163 0 256.5 -104.5t93.5 -266.5q0 -124 -35 -225t-94.5 -168.5t-141.5 -113.5t-172.5 -66.5t-191.5 -20.5t-225 19l51 276q85 -16 162 -16q167 0 248.5 79t81.5 199q0 96 -67 145.5t-171 49.5q-73 0 -203 -29l197 795h707l-54 -272h-438z
" />
    <glyph glyph-name="florin.sc" horiz-adv-x="983" 
d="M1022 1180l-107 -226q-35 21 -73 21q-84 0 -129 -127l-33 -96h172l-39 -217h-205l-157 -467q-49 -148 -132.5 -224.5t-238.5 -76.5q-91 0 -148 16l78 254q15 -12 49 -12q44 0 70.5 31t48.5 96l125 383h-147l39 217h172l30 92q31 91 64.5 155t82.5 118t118.5 81t160.5 27
q127 0 199 -45z" />
    <glyph glyph-name="atilde.sc" horiz-adv-x="964" 
d="M883 0h-295l-4 199h-277l-80 -199h-313l514 1194h399zM588 432l-8 498h-7l-190 -498h205zM993 1546q-22 -115 -82 -184.5t-141 -69.5q-74 0 -141 47q-38 28 -59 36.5t-48 8.5q-29 0 -51 -22t-31 -59h-123q22 111 82 180t142 69q71 0 141 -49q41 -27 62.5 -36t48.5 -9
q59 0 79 88h121z" />
    <glyph glyph-name="dollar.sc" horiz-adv-x="983" 
d="M338 4q-174 18 -275 115l166 215q77 -74 172 -74q46 0 82.5 30.5t36.5 80.5q0 39 -25 69t-85 68q-42 24 -72 48t-59.5 59.5t-44.5 83t-15 106.5q0 143 86 248.5t232 132.5l26 139h154l-25 -135q80 -7 145 -36t103 -71l-168 -209q-27 30 -65.5 49t-77.5 19
q-45 0 -83 -31.5t-38 -87.5q0 -36 23 -60.5t81 -57.5q38 -23 67.5 -46t63.5 -60.5t53 -89.5t19 -114q0 -164 -91 -263t-230 -124l-29 -145h-154z" />
    <glyph glyph-name="ccedilla.sc" horiz-adv-x="888" 
d="M651 -276q0 -55 -27.5 -97t-72.5 -65t-94 -34t-99 -11q-53 0 -116.5 13t-106.5 34l70 123q60 -31 145 -31q103 0 103 61q0 54 -72 54q-40 0 -84 -13l-51 54l145 170q-147 32 -226 152t-79 302q0 155 43 298t118 252t185 174t236 65q222 0 331 -140l-194 -221
q-25 37 -56.5 55.5t-80.5 18.5q-79 0 -142 -73.5t-94 -177t-31 -208.5q0 -219 158 -219q82 0 148 70l122 -228q-105 -117 -284 -131l-86 -98q24 4 45 4q59 0 103 -37.5t44 -115.5z" />
    <glyph glyph-name="gbreve.sc" horiz-adv-x="1034" 
d="M1010 1087l-197 -229q-54 72 -145 72q-66 0 -120.5 -44t-86.5 -113t-49 -146.5t-17 -151.5q0 -97 40 -159t124 -62q52 0 94 20l35 199h-158l43 252h439l-113 -655q-149 -101 -369 -101q-214 0 -329 129t-115 342q0 206 72 384.5t208 289.5t306 111q123 0 209 -38.5
t129 -99.5zM1030 1573q-68 -285 -342 -285q-119 0 -194.5 67.5t-75.5 217.5h162q0 -60 38 -86q34 -27 84 -27q58 0 104 27t60 86h164z" />
    <glyph glyph-name="lcaron.sc" horiz-adv-x="868" 
d="M999 1194l-217 -391h-202l192 391h227zM721 279l-49 -279h-627l207 1194h313l-162 -915h318z" />
    <glyph glyph-name="racute.sc" horiz-adv-x="997" 
d="M983 877q0 -131 -60.5 -226t-162.5 -131l135 -520h-311l-97 461h-69l-82 -461h-291l207 1194h377q166 0 260 -81.5t94 -235.5zM690 838q0 56 -30.5 81t-75.5 25h-82l-47 -272h75q68 0 114 42t46 124zM952 1581l-282 -295h-207l229 295h260z" />
    <glyph glyph-name="dcroat.sc" horiz-adv-x="1052" 
d="M1028 725q0 -100 -16 -194.5t-59 -193.5t-109 -171.5t-174 -119t-246 -46.5h-379l88 506h-94l37 209h94l82 479h338q116 0 201.5 -33.5t136.5 -97t75.5 -147.5t24.5 -191zM731 705q0 225 -156 225h-71l-37 -215h154l-35 -209h-154l-41 -236h72q65 0 118 42t84.5 108.5
t48.5 140.5t17 144z" />
    <glyph glyph-name="four.onum" horiz-adv-x="1083" 
d="M590 279l72 415h284l-72 -415h148l-49 -267h-139l-60 -340h-291l60 340h-574l51 287l596 928h334l-618 -948h258z" />
    <glyph glyph-name="tilde.cap" 
d="M764 1827q-22 -115 -82 -184.5t-141 -69.5q-75 0 -142 47q-39 28 -59 36.5t-47 8.5q-29 0 -51 -22.5t-31 -59.5h-123q22 112 82 181t141 69q72 0 142 -49q41 -27 62 -36t48 -9q60 0 80 88h121z" />
    <glyph glyph-name="utilde.sc" horiz-adv-x="1062" 
d="M1090 1194l-129 -741q-15 -87 -37 -155.5t-60 -132t-89.5 -105t-127 -66.5t-170.5 -25q-185 0 -284 95.5t-99 252.5q0 46 15 138l127 739h313l-127 -717q-12 -78 -12 -108q0 -113 90 -113q75 0 108.5 55.5t50.5 165.5l123 717h308zM1042 1546q-22 -115 -82 -184.5
t-141 -69.5q-74 0 -141 47q-38 28 -59 36.5t-48 8.5q-29 0 -51 -22t-31 -59h-122q22 111 82 180t141 69q71 0 141 -49q41 -27 62.5 -36t48.5 -9q60 0 80 88h120z" />
    <glyph glyph-name="acircumflex.sc" horiz-adv-x="964" 
d="M883 0h-295l-4 199h-277l-80 -199h-313l514 1194h399zM588 432l-8 498h-7l-190 -498h205zM1001 1284h-213l-106 170l-160 -170h-225l287 295h237z" />
    <glyph glyph-name="fi.sc" horiz-adv-x="1327" 
d="M1339 1194l-206 -1194h-312l207 1194h311zM850 1194l-49 -270h-291l-37 -211h266l-41 -258h-266l-80 -455h-307l207 1194h598z" />
    <glyph glyph-name="ldot.sc" horiz-adv-x="868" 
d="M721 279l-49 -279h-627l207 1194h313l-162 -915h318zM895 709q0 -83 -52.5 -140t-129.5 -57q-70 0 -111 45t-41 107q0 79 52 138.5t128 59.5q73 0 113.5 -43t40.5 -110z" />
    <glyph glyph-name="zero.sc" horiz-adv-x="983" 
d="M944 807q0 -70 -7 -144t-24 -157t-43.5 -158.5t-68 -145.5t-93.5 -121t-124.5 -81.5t-157.5 -30.5q-74 0 -133 23.5t-97.5 63t-63.5 94t-35.5 113.5t-10.5 126q0 69 6.5 142t23.5 156t42.5 158.5t66.5 145.5t92 121.5t123.5 82t157.5 30.5q74 0 134 -23.5t99 -63
t65 -93.5t37 -113t11 -125zM645 805q0 151 -70 151q-44 0 -82.5 -68.5t-60.5 -165t-34.5 -187t-12.5 -146.5q0 -147 68 -147q46 0 85 69t61 165.5t34 185t12 143.5z" />
    <glyph glyph-name="b.sc" horiz-adv-x="985" 
d="M977 918q0 -113 -56 -187t-145 -104v-6q67 -20 110.5 -79t43.5 -147q0 -82 -24.5 -149.5t-66 -112t-96.5 -75.5t-114 -44.5t-121 -13.5h-463l207 1194h414q45 0 87 -8.5t83.5 -29t72 -51t49.5 -79t19 -108.5zM688 852q0 43 -29 69.5t-73 26.5h-92l-41 -233h98
q56 0 96.5 35.5t40.5 101.5zM635 399q0 55 -32.5 81t-76.5 26h-106l-47 -258h110q67 0 109.5 40t42.5 111z" />
    <glyph glyph-name="caron.cap" 
d="M805 1860l-285 -295h-237l-183 295h213l105 -170l162 170h225z" />
    <glyph glyph-name="two.sc" horiz-adv-x="983" 
d="M934 903q0 -120 -56.5 -210t-183.5 -204l-250 -221h390l-48 -268h-761l49 262l440 408q119 113 119 200q0 35 -20.5 64t-63.5 29q-46 0 -77 -36.5t-42 -99.5l-285 35q44 176 160.5 269.5t284.5 93.5q154 0 249 -85.5t95 -236.5z" />
    <glyph glyph-name="dotaccent.sc" 
d="M586 1487q0 -83 -53 -140t-130 -57q-70 0 -110.5 45t-40.5 107q0 79 52 138.5t128 59.5q73 0 113.5 -43t40.5 -110z" />
    <glyph glyph-name="yen.sc" horiz-adv-x="983" 
d="M1042 1194l-280 -459h123l-33 -194h-221l-21 -117h219l-34 -195h-220l-38 -229h-293l39 229h-213l32 195h215l21 117h-215l35 194h131l-125 459h285l81 -430l224 430h288z" />
    <glyph glyph-name="scedilla.sc" horiz-adv-x="825" 
d="M508 -276q0 -55 -27.5 -97t-72.5 -65t-94 -34t-99 -11q-53 0 -116.5 13t-106.5 34l69 123q60 -31 146 -31q102 0 102 61q0 54 -71 54q-40 0 -84 -13l-52 54l140 163q-86 10 -159 42t-118 77l174 225q80 -77 180 -77q51 0 88 30t37 86q0 41 -26 73t-88 71
q-45 26 -76.5 51.5t-62 62.5t-46.5 87t-16 112q0 175 118.5 292.5t309.5 117.5q107 0 194.5 -31.5t135.5 -85.5l-176 -219q-28 31 -69 50t-83 19q-49 0 -88 -31t-39 -93q0 -38 24.5 -63t86.5 -60q41 -25 71 -49t66 -64t56 -94.5t20 -118.5q0 -177 -99.5 -281.5
t-250.5 -128.5l-91 -102q24 4 45 4q59 0 103.5 -37.5t44.5 -115.5z" />
    <glyph glyph-name="cent.sc" horiz-adv-x="983" 
d="M745 1073q103 -15 168 -76l-147 -225q-38 41 -96 41q-60 0 -108.5 -62.5t-72.5 -149.5t-24 -173q0 -176 119 -176q47 0 104 37l76 -228q-78 -62 -201 -71l-28 -154h-129l28 162q-126 30 -189 135.5t-63 259.5q0 157 50 302t150.5 250.5t231.5 127.5l29 158h129z" />
    <glyph glyph-name="uogonek.sc" horiz-adv-x="1062" 
d="M389 -475q-77 0 -130.5 41.5t-53.5 130.5q0 139 203 276q-153 18 -233.5 110t-80.5 234q0 46 15 138l127 739h313l-127 -717q-12 -78 -12 -108q0 -113 90 -113q75 0 108.5 55.5t50.5 165.5l123 717h308l-129 -741q-16 -92 -41 -163.5t-64 -135t-99 -106.5t-139 -62
q-113 -85 -158.5 -136t-45.5 -94q0 -57 53 -57q58 0 106 39l39 -131q-106 -82 -223 -82z" />
    <glyph glyph-name="emacron.sc" horiz-adv-x="804" 
d="M844 1194l-45 -264h-291l-37 -199h266l-39 -242h-268l-39 -217h318l-47 -272h-617l207 1194h592zM893 1516l-29 -162h-602l27 162h604z" />
    <glyph glyph-name="rcaron.sc" horiz-adv-x="997" 
d="M983 877q0 -131 -60.5 -226t-162.5 -131l135 -520h-311l-97 461h-69l-82 -461h-291l207 1194h377q166 0 260 -81.5t94 -235.5zM690 838q0 56 -30.5 81t-75.5 25h-82l-47 -272h75q68 0 114 42t46 124zM1014 1579l-285 -295h-237l-183 295h213l105 -170l161 170h226z" />
    <glyph glyph-name="eth.sc" horiz-adv-x="1052" 
d="M1028 725q0 -100 -16 -194.5t-59 -193.5t-109 -171.5t-174 -119t-246 -46.5h-379l88 506h-94l37 209h94l82 479h338q116 0 201.5 -33.5t136.5 -97t75.5 -147.5t24.5 -191zM731 705q0 225 -156 225h-71l-37 -215h154l-35 -209h-154l-41 -236h72q65 0 118 42t84.5 108.5
t48.5 140.5t17 144z" />
    <glyph glyph-name="ampersand.sc" horiz-adv-x="1093" 
d="M1094 643l-254 -356l178 -287h-326l-53 96q-90 -127 -277 -127q-135 0 -219 79t-84 224q0 134 70.5 234.5t187.5 161.5q-57 97 -57 196q0 169 101 265t257 96q135 0 207 -69.5t72 -186.5q0 -119 -73 -210t-189 -149l86 -141l106 174h267zM672 940q0 38 -18 61t-50 23
q-43 0 -69.5 -41t-26.5 -94q0 -72 35 -127q129 66 129 178zM535 279l-119 215q-46 -23 -75.5 -71.5t-29.5 -109.5q0 -47 25.5 -79.5t73.5 -32.5q71 0 125 78z" />
    <glyph glyph-name="eight.onum" horiz-adv-x="1062" 
d="M1077 1135q0 -133 -68 -229t-184 -138v-4q73 -32 120.5 -110t47.5 -181q0 -220 -137 -360t-371 -140q-196 0 -315 100t-119 275q0 152 85.5 267t207.5 149v4q-69 35 -108 102t-39 152q0 91 31 172t89.5 144.5t152 101t210.5 37.5q196 0 296.5 -93.5t100.5 -248.5z
M776 1112q0 63 -31 100t-88 37q-77 0 -123.5 -68t-46.5 -163q0 -61 30.5 -103.5t86.5 -42.5q75 0 123.5 74.5t48.5 165.5zM680 483q0 73 -34 116.5t-93 43.5q-78 0 -135.5 -80.5t-57.5 -183.5q0 -74 34.5 -119t99.5 -45q57 0 100.5 40t64.5 100.5t21 127.5z" />
    <glyph glyph-name="ncaron.sc" horiz-adv-x="1077" 
d="M1090 1194l-207 -1194h-324l-129 664h-4l-107 -664h-274l207 1194h328l122 -674h5l110 674h273zM1075 1579l-284 -295h-238l-182 295h213l104 -170l162 170h225z" />
    <glyph glyph-name="x.sc" horiz-adv-x="960" 
d="M1098 1194l-369 -586l176 -608h-332l-92 410l-225 -410h-354l405 633l-168 561h324l86 -367l196 367h353z" />
    <glyph glyph-name="breve.sc" 
d="M760 1573q-68 -285 -342 -285q-56 0 -103 15t-85.5 46.5t-60.5 88.5t-22 135h162q0 -59 39 -86q34 -27 84 -27q58 0 104 27t60 86h164z" />
    <glyph glyph-name="fl.sc" horiz-adv-x="1550" 
d="M1495 279l-49 -279h-625l207 1194h311l-159 -915h315zM850 1194l-49 -270h-291l-37 -211h266l-41 -258h-266l-80 -455h-307l207 1194h598z" />
    <glyph glyph-name="dcaron.sc" horiz-adv-x="1052" 
d="M1028 725q0 -100 -16 -194.5t-59 -193.5t-109 -171.5t-174 -119t-246 -46.5h-379l207 1194h338q116 0 201.5 -33.5t136.5 -97t75.5 -147.5t24.5 -191zM725 705q0 105 -38.5 165t-119.5 60h-57l-113 -660h60q65 0 118 42t84.5 108.5t48.5 140.5t17 144zM1022 1579
l-285 -295h-237l-183 295h213l105 -170l162 170h225z" />
    <glyph glyph-name="agrave.sc" horiz-adv-x="964" 
d="M883 0h-295l-4 199h-277l-80 -199h-313l514 1194h399zM588 432l-8 498h-7l-190 -498h205zM764 1286h-207l-262 295h258z" />
    <glyph glyph-name="rcommaaccent.sc" horiz-adv-x="997" 
d="M573 -92l-217 -391h-202l192 391h227zM983 877q0 -131 -60.5 -226t-162.5 -131l135 -520h-311l-97 461h-69l-82 -461h-291l207 1194h377q166 0 260 -81.5t94 -235.5zM690 838q0 56 -30.5 81t-75.5 25h-82l-47 -272h75q68 0 114 42t46 124z" />
    <glyph glyph-name="u.sc" horiz-adv-x="1062" 
d="M1090 1194l-129 -741q-15 -87 -37 -155.5t-60 -132t-89.5 -105t-127 -66.5t-170.5 -25q-185 0 -284 95.5t-99 252.5q0 46 15 138l127 739h313l-127 -717q-12 -78 -12 -108q0 -113 90 -113q75 0 108.5 55.5t50.5 165.5l123 717h308z" />
    <glyph glyph-name="uacute.sc" horiz-adv-x="1062" 
d="M1090 1194l-129 -741q-15 -87 -37 -155.5t-60 -132t-89.5 -105t-127 -66.5t-170.5 -25q-185 0 -284 95.5t-99 252.5q0 46 15 138l127 739h313l-127 -717q-12 -78 -12 -108q0 -113 90 -113q75 0 108.5 55.5t50.5 165.5l123 717h308zM1049 1581l-283 -295h-207l229 295h261
z" />
    <glyph glyph-name="zero.onum" horiz-adv-x="1132" 
d="M664 1221q194 0 297.5 -122.5t103.5 -336.5q0 -149 -39 -290t-110 -253.5t-181.5 -181t-242.5 -68.5q-186 0 -291 125.5t-105 335.5q0 149 39 289.5t109.5 253t180 180.5t239.5 68zM631 948q-53 0 -99.5 -49.5t-75 -124t-45 -157.5t-16.5 -156q0 -213 133 -213
q54 0 100.5 48.5t75.5 123t45.5 158.5t16.5 159q0 211 -135 211z" />
    <glyph glyph-name="eacute.sc" horiz-adv-x="804" 
d="M844 1194l-45 -264h-291l-37 -199h266l-39 -242h-268l-39 -217h318l-47 -272h-617l207 1194h592zM936 1581l-283 -295h-207l230 295h260z" />
    <glyph glyph-name="dotlessj" horiz-adv-x="544" 
d="M530 1065l-198 -1137q-17 -91 -45 -161.5t-76 -131.5t-123.5 -94t-175.5 -33q-55 0 -121 15l45 272q30 -10 58 -10q60 0 92 44t47 126l194 1110h303z" />
    <glyph glyph-name="eight.sc" horiz-adv-x="983" 
d="M954 934q0 -109 -57.5 -191.5t-151.5 -115.5v-4q58 -27 98 -90.5t40 -149.5q0 -181 -119 -297.5t-320 -116.5q-171 0 -276 86.5t-105 231.5q0 127 70.5 219.5t169.5 120.5v6q-57 26 -90 82t-33 125q0 76 27 144.5t78.5 122.5t133.5 86t185 32q170 0 260 -79t90 -212z
M666 907q0 105 -86 105q-56 0 -90.5 -54.5t-34.5 -123.5q0 -45 21 -75t67 -30q53 0 88 55.5t35 122.5zM588 397q0 52 -23 85.5t-71 33.5q-59 0 -98.5 -61.5t-39.5 -139.5q0 -49 23.5 -83.5t69.5 -34.5q67 0 103 60.5t36 139.5z" />
    <glyph glyph-name="dieresis.sc" 
d="M762 1462q0 -70 -44.5 -118t-109.5 -48q-60 0 -94.5 38t-34.5 91q0 66 45 117t109 51q61 0 95 -36.5t34 -94.5zM381 1462q0 -71 -44 -118.5t-110 -47.5q-59 0 -93 38t-34 91q0 67 44 117.5t110 50.5q60 0 93.5 -37t33.5 -94z" />
    <glyph glyph-name="edieresis.sc" horiz-adv-x="804" 
d="M844 1194l-45 -264h-291l-37 -199h266l-39 -242h-268l-39 -217h318l-47 -272h-617l207 1194h592zM903 1462q0 -70 -44 -118t-109 -48q-60 0 -94.5 38t-34.5 91q0 66 44.5 117t108.5 51q61 0 95 -36.5t34 -94.5zM522 1462q0 -71 -43.5 -118.5t-109.5 -47.5q-59 0 -93 38
t-34 91q0 67 43.5 117.5t109.5 50.5q60 0 93.5 -37t33.5 -94z" />
    <glyph glyph-name="caron.alt" 
d="M666 1450l-217 -391h-203l192 391h228z" />
    <glyph glyph-name="amacron.sc" horiz-adv-x="964" 
d="M883 0h-295l-4 199h-277l-80 -199h-313l514 1194h399zM588 432l-8 498h-7l-190 -498h205zM979 1516l-29 -162h-602l27 162h604z" />
    <glyph glyph-name="ccircumflex.sc" horiz-adv-x="888" 
d="M999 1085l-194 -221q-25 37 -56.5 55.5t-80.5 18.5q-79 0 -142 -73.5t-94 -177t-31 -208.5q0 -219 158 -219q82 0 148 70l122 -228q-123 -133 -331 -133q-196 0 -304 127t-108 340q0 155 43 298t118 252t185 174t236 65q222 0 331 -140zM1038 1284h-213l-106 170
l-160 -170h-225l287 295h237z" />
    <glyph glyph-name="g.sc" horiz-adv-x="1034" 
d="M1010 1087l-197 -229q-54 72 -145 72q-66 0 -120.5 -44t-86.5 -113t-49 -146.5t-17 -151.5q0 -97 40 -159t124 -62q52 0 94 20l35 199h-158l43 252h439l-113 -655q-149 -101 -369 -101q-214 0 -329 129t-115 342q0 206 72 384.5t208 289.5t306 111q123 0 209 -38.5
t129 -99.5z" />
    <glyph glyph-name="ecaron.sc" horiz-adv-x="804" 
d="M844 1194l-45 -264h-291l-37 -199h266l-39 -242h-268l-39 -217h318l-47 -272h-617l207 1194h592zM954 1579l-284 -295h-238l-182 295h213l104 -170l162 170h225z" />
    <glyph glyph-name="eogonek.sc" horiz-adv-x="804" 
d="M369 -475q-77 0 -131 41.5t-54 130.5q0 154 246 303h-385l207 1194h592l-45 -264h-291l-37 -199h266l-39 -242h-268l-39 -217h318l-47 -272h-44q-125 -94 -175 -146.5t-50 -97.5q0 -57 53 -57q59 0 107 39l39 -131q-106 -82 -223 -82z" />
    <glyph glyph-name="lcommaaccent.sc" horiz-adv-x="776" 
d="M483 -92l-217 -391h-203l193 391h227zM721 279l-49 -279h-627l207 1194h313l-162 -915h318z" />
    <glyph glyph-name="ae.sc" horiz-adv-x="1280" 
d="M1319 1194l-45 -264h-291l-37 -199h266l-38 -242h-269l-39 -217h318l-47 -272h-592l35 199h-226l-96 -199h-324l617 1194h768zM707 922h-11l-231 -473h160z" />
    <glyph glyph-name="ccaron.sc" horiz-adv-x="888" 
d="M999 1085l-194 -221q-25 37 -56.5 55.5t-80.5 18.5q-79 0 -142 -73.5t-94 -177t-31 -208.5q0 -219 158 -219q82 0 148 70l122 -228q-123 -133 -331 -133q-196 0 -304 127t-108 340q0 155 43 298t118 252t185 174t236 65q222 0 331 -140zM1090 1579l-285 -295h-238
l-182 295h213l104 -170l162 170h226z" />
    <glyph glyph-name="v.sc" horiz-adv-x="956" 
d="M1098 1194l-506 -1194h-391l-70 1194h328l2 -825h6l297 825h334z" />
    <glyph glyph-name="thorn.sc" horiz-adv-x="931" 
d="M934 700q0 -223 -122 -339.5t-325 -116.5h-100l-41 -244h-301l207 1194h295l-29 -166h76q64 0 122 -18t108 -55t80 -103t30 -152zM655 666q0 114 -102 114h-78l-49 -288h74q71 0 113 47.5t42 126.5z" />
    <glyph glyph-name="ring.cap" 
d="M641 1784q0 -103 -67 -178.5t-164 -75.5q-84 0 -131.5 50t-47.5 130q0 107 64.5 184.5t157.5 77.5q90 0 139 -53t49 -135zM549 1776q0 46 -25 78t-73 32q-59 0 -94 -50.5t-35 -117.5q0 -46 24.5 -75t71.5 -29q56 0 93.5 49.5t37.5 112.5z" />
    <glyph glyph-name="e.sc" horiz-adv-x="804" 
d="M844 1194l-45 -264h-291l-37 -199h266l-39 -242h-268l-39 -217h318l-47 -272h-617l207 1194h592z" />
    <glyph glyph-name="abreve.sc" horiz-adv-x="964" 
d="M883 0h-295l-4 199h-277l-80 -199h-313l514 1194h399zM588 432l-8 498h-7l-190 -498h205zM971 1573q-68 -285 -342 -285q-56 0 -103 15t-85.5 46.5t-60.5 88.5t-22 135h162q0 -59 39 -86q35 -27 84 -27q58 0 104 27t60 86h164z" />
    <glyph glyph-name="adieresis.sc" horiz-adv-x="964" 
d="M883 0h-295l-4 199h-277l-80 -199h-313l514 1194h399zM588 432l-8 498h-7l-190 -498h205zM993 1462q0 -70 -44 -118t-109 -48q-60 0 -94.5 38t-34.5 91q0 66 44.5 117t108.5 51q61 0 95 -36.5t34 -94.5zM612 1462q0 -71 -43.5 -118.5t-109.5 -47.5q-59 0 -93 38t-34 91
q0 67 43.5 117.5t109.5 50.5q60 0 93.5 -37t33.5 -94z" />
    <glyph glyph-name="five.sc" horiz-adv-x="983" 
d="M924 1194l-47 -256h-359l-43 -182q54 14 94 14q137 0 216 -93t79 -231q0 -112 -35.5 -203.5t-96.5 -150.5t-141 -91t-171 -32q-150 0 -251 79t-122 224l262 82q9 -57 40.5 -92t80.5 -35q65 0 105 53.5t40 129.5q0 71 -40 107t-109 36q-51 0 -129.5 -16t-134.5 -37
l147 694h615z" />
    <glyph glyph-name="ecircumflex.sc" horiz-adv-x="804" 
d="M844 1194l-45 -264h-291l-37 -199h266l-39 -242h-268l-39 -217h318l-47 -272h-617l207 1194h592zM905 1284h-213l-106 170l-160 -170h-225l286 295h238z" />
    <glyph glyph-name="circumflex.cap" 
d="M752 1565h-213l-107 170l-160 -170h-225l287 295h237z" />
    <glyph glyph-name="commaaccent" 
d="M313 -92l-217 -391h-202l192 391h227z" />
    <glyph glyph-name="cacute.sc" horiz-adv-x="888" 
d="M999 1085l-194 -221q-25 37 -56.5 55.5t-80.5 18.5q-79 0 -142 -73.5t-94 -177t-31 -208.5q0 -219 158 -219q82 0 148 70l122 -228q-123 -133 -331 -133q-196 0 -304 127t-108 340q0 155 43 298t118 252t185 174t236 65q222 0 331 -140zM1067 1581l-283 -295h-206
l229 295h260z" />
    <glyph glyph-name="breve.cap" 
d="M760 1853q-36 -151 -126.5 -217.5t-215.5 -66.5q-56 0 -103 14.5t-85.5 46.5t-60.5 88.5t-22 134.5h162q0 -58 35.5 -85t87.5 -27q59 0 104.5 25.5t59.5 86.5h164z" />
    <glyph glyph-name="edotaccent.sc" horiz-adv-x="804" 
d="M844 1194l-45 -264h-291l-37 -199h266l-39 -242h-268l-39 -217h318l-47 -272h-617l207 1194h592zM741 1487q0 -83 -52.5 -140t-129.5 -57q-70 0 -110.5 45t-40.5 107q0 79 52 138.5t128 59.5q73 0 113 -43t40 -110z" />
    <glyph glyph-name="six.sc" horiz-adv-x="983" 
d="M70 330q0 210 172 454l297 410h354l-318 -416l3 -2q33 10 67 10q110 0 180 -86.5t70 -222.5q0 -69 -15.5 -138t-50.5 -136.5t-86.5 -118.5t-129.5 -83t-173 -32q-175 0 -272.5 98t-97.5 263zM358 356q0 -61 24 -99t75 -38q68 0 109.5 74.5t41.5 169.5q0 54 -24 88.5
t-74 34.5q-63 0 -107.5 -64t-44.5 -166z" />
    <glyph glyph-name="egrave.sc" horiz-adv-x="804" 
d="M844 1194l-45 -264h-291l-37 -199h266l-39 -242h-268l-39 -217h318l-47 -272h-617l207 1194h592zM694 1286h-207l-262 295h258z" />
    <glyph glyph-name="c.sc" horiz-adv-x="888" 
d="M999 1085l-194 -221q-25 37 -56.5 55.5t-80.5 18.5q-79 0 -142 -73.5t-94 -177t-31 -208.5q0 -219 158 -219q82 0 148 70l122 -228q-123 -133 -331 -133q-196 0 -304 127t-108 340q0 155 43 298t118 252t185 174t236 65q222 0 331 -140z" />
    <glyph glyph-name="circumflex.sc" 
d="M752 1284h-213l-107 170l-160 -170h-225l287 295h237z" />
    <glyph glyph-name="t.sc" horiz-adv-x="757" 
d="M872 1194l-45 -262h-217l-164 -932h-305l164 932h-215l45 262h737z" />
    <glyph glyph-name="dieresis.cap" 
d="M762 1743q0 -70 -44.5 -118t-109.5 -48q-60 0 -94.5 38t-34.5 91q0 66 44.5 116t109.5 50q61 0 95 -36t34 -93zM381 1743q0 -71 -44 -118.5t-110 -47.5q-59 0 -93 38t-34 91q0 66 44 116t110 50q60 0 93.5 -36t33.5 -93z" />
    <glyph glyph-name="sacute.sc" horiz-adv-x="825" 
d="M887 1108l-176 -219q-28 31 -69 50t-83 19q-49 0 -88 -31t-39 -93q0 -38 24.5 -63t86.5 -60q41 -25 71 -49t66 -64t56 -94.5t20 -118.5q0 -104 -36.5 -185.5t-98.5 -130.5t-137.5 -74.5t-159.5 -25.5q-111 0 -206.5 34.5t-152.5 90.5l174 225q80 -77 180 -77q51 0 88 30
t37 86q0 41 -26 73t-88 71q-45 26 -76.5 51.5t-62 62.5t-46.5 87t-16 112q0 175 118.5 292.5t309.5 117.5q107 0 194.5 -31.5t135.5 -85.5zM938 1581l-283 -295h-206l229 295h260z" />
    <glyph glyph-name="caron.sc" 
d="M805 1579l-285 -295h-237l-183 295h213l105 -170l162 170h225z" />
    <glyph glyph-name="d.sc" horiz-adv-x="1052" 
d="M1028 725q0 -100 -16 -194.5t-59 -193.5t-109 -171.5t-174 -119t-246 -46.5h-379l207 1194h338q116 0 201.5 -33.5t136.5 -97t75.5 -147.5t24.5 -191zM725 705q0 105 -38.5 165t-119.5 60h-57l-113 -660h60q65 0 118 42t84.5 108.5t48.5 140.5t17 144z" />
    <glyph glyph-name="cdotaccent.sc" horiz-adv-x="888" 
d="M999 1085l-194 -221q-25 37 -56.5 55.5t-80.5 18.5q-79 0 -142 -73.5t-94 -177t-31 -208.5q0 -219 158 -219q82 0 148 70l122 -228q-123 -133 -331 -133q-196 0 -304 127t-108 340q0 155 43 298t118 252t185 174t236 65q222 0 331 -140zM883 1487q0 -83 -53 -140
t-130 -57q-70 0 -110.5 45t-40.5 107q0 79 52 138.5t128 59.5q73 0 113.5 -43t40.5 -110z" />
    <glyph glyph-name="f.sc" horiz-adv-x="774" 
d="M850 1194l-49 -270h-291l-37 -211h266l-41 -258h-266l-80 -455h-307l207 1194h598z" />
    <glyph glyph-name="commaaccent.alt" 
d="M258 1206l217 391h203l-193 -391h-227z" />
    <glyph glyph-name="tcaron.sc" horiz-adv-x="757" 
d="M872 1194l-45 -262h-217l-164 -932h-305l164 932h-215l45 262h737zM920 1579l-285 -295h-238l-182 295h213l104 -170l162 170h226z" />
    <glyph glyph-name="gdotaccent.sc" horiz-adv-x="1034" 
d="M1010 1087l-197 -229q-54 72 -145 72q-66 0 -120.5 -44t-86.5 -113t-49 -146.5t-17 -151.5q0 -97 40 -159t124 -62q52 0 94 20l35 199h-158l43 252h439l-113 -655q-149 -101 -369 -101q-214 0 -329 129t-115 342q0 206 72 384.5t208 289.5t306 111q123 0 209 -38.5
t129 -99.5zM874 1487q0 -83 -52.5 -140t-129.5 -57q-70 0 -110.5 45t-40.5 107q0 79 52 138.5t128 59.5q73 0 113 -43t40 -110z" />
    <glyph glyph-name="gcommaaccent.sc" horiz-adv-x="1034" 
d="M639 -92l-217 -391h-203l193 391h227zM1010 1087l-197 -229q-54 72 -145 72q-66 0 -120.5 -44t-86.5 -113t-49 -146.5t-17 -151.5q0 -97 40 -159t124 -62q52 0 94 20l35 199h-158l43 252h439l-113 -655q-149 -101 -369 -101q-214 0 -329 129t-115 342q0 206 72 384.5
t208 289.5t306 111q123 0 209 -38.5t129 -99.5z" />
    <glyph glyph-name="gcircumflex.sc" horiz-adv-x="1034" 
d="M1010 1087l-197 -229q-54 72 -145 72q-66 0 -120.5 -44t-86.5 -113t-49 -146.5t-17 -151.5q0 -97 40 -159t124 -62q52 0 94 20l35 199h-158l43 252h439l-113 -655q-149 -101 -369 -101q-214 0 -329 129t-115 342q0 206 72 384.5t208 289.5t306 111q123 0 209 -38.5
t129 -99.5zM1036 1284h-213l-106 170l-160 -170h-225l286 295h238z" />
    </font>
</defs>
</svg>
