<?xml version="1.0" encoding="utf-8"?>
<!-- Generator: Adobe Illustrator 23.0.0, SVG Export Plug-In . SVG Version: 6.00 Build 0)  -->
<svg version="1.1" id="Layer_1" xmlns="http://www.w3.org/2000/svg" xmlns:xlink="http://www.w3.org/1999/xlink" x="0px" y="0px"
	 viewBox="0 0 120 52.9" style="enable-background:new 0 0 120 52.9;" xml:space="preserve">
<style type="text/css">
	.st0{fill:#EA5B34;}
	.st1{fill:#082947;}
	.st2{fill:#D81F28;}
	.st3{fill:#FFFFFF;}
</style>
<g>
	<path class="st0" d="M747.3,99.1h-17.1c-3.7,0-6.7-3-6.7-6.7l0,0c0-3.7,3-6.7,6.7-6.7h17.1c3.7,0,6.7,3,6.7,6.7l0,0
		C754.1,96.1,751,99.1,747.3,99.1z"/>
	<g>
		<g>
			<path class="st1" d="M732.2,89.8l1.6,1.5c0.1,0.1,0.1,0.1,0.2,0.1c0.1,0,0.2,0,0.2-0.1c0.1-0.1,0.1-0.3,0-0.5l-1-0.9h8.3
				c1.4,0,2.6,1.2,2.6,2.6s-1.2,2.6-2.6,2.6h-3.2c-0.2,0-0.3,0.1-0.3,0.3s0.1,0.3,0.3,0.3h3.2c1.8,0,3.3-1.5,3.3-3.3
				s-1.5-3.3-3.3-3.3h-8.3l1-1.1c0.1-0.1,0.1-0.3,0-0.5c-0.1-0.1-0.3-0.1-0.5,0l-1.5,1.7c-0.1,0.1-0.1,0.1-0.1,0.2
				C732.1,89.6,732.1,89.7,732.2,89.8z"/>
		</g>
	</g>
</g>
<g>
	<path class="st2" d="M93.5,52.9h-67C11.9,52.9,0,41,0,26.5l0,0C0,11.9,11.9,0,26.5,0h67.1C108.1,0,120,11.9,120,26.5l0,0
		C120,41,108.1,52.9,93.5,52.9z"/>
	<g>
		<path class="st3" d="M34.1,16.2l6.3,5.7c0.2,0.2,0.6,0.3,0.9,0.3c0.3,0,0.7-0.1,1-0.4c0.5-0.5,0.4-1.3-0.1-1.8l-4.1-3.7h32.6
			C76.4,16.4,81,21,81,26.6s-4.6,10.3-10.3,10.3H58.1c-0.7,0-1.3,0.6-1.3,1.3s0.6,1.3,1.3,1.3h12.6c7.1,0,12.8-5.8,12.8-12.8
			c0-7.1-5.8-12.8-12.8-12.8H38l3.9-4.3c0.5-0.5,0.4-1.3-0.1-1.8S40.5,7.4,40,7.9l-6,6.6c-0.2,0.3-0.3,0.6-0.3,0.9
			C33.7,15.7,33.9,16,34.1,16.2z"/>
	</g>
</g>
</svg>
