<?xml version="1.0" encoding="utf-8"?>
<!-- Generator: Adobe Illustrator 17.0.0, SVG Export Plug-In . SVG Version: 6.00 Build 0)  -->
<!DOCTYPE svg PUBLIC "-//W3C//DTD SVG 1.1//EN" "http://www.w3.org/Graphics/SVG/1.1/DTD/svg11.dtd">
<svg version="1.1" id="Layer_1" xmlns="http://www.w3.org/2000/svg" xmlns:xlink="http://www.w3.org/1999/xlink" x="0px" y="0px"
	 width="150px" height="150px" viewBox="0 0 150 150" enable-background="new 0 0 150 150" xml:space="preserve">
<g>
	<g>
		<defs>
			<circle id="SVGID_1_" cx="74.998" cy="75" r="75"/>
		</defs>
		<clipPath id="SVGID_2_">
			<use xlink:href="#SVGID_1_"  overflow="visible"/>
		</clipPath>
		
			<linearGradient id="SVGID_3_" gradientUnits="userSpaceOnUse" x1="85.362" y1="87.4648" x2="87.1964" y2="87.4648" gradientTransform="matrix(74.1848 75.1358 75.1358 -74.1848 -12907.6982 70.4178)">
			<stop  offset="0" style="stop-color:#FA6496"/>
			<stop  offset="0.004" style="stop-color:#FA6496"/>
			<stop  offset="1" style="stop-color:#5192D6"/>
		</linearGradient>
		<polygon clip-path="url(#SVGID_2_)" fill="url(#SVGID_3_)" points="75.955,-74.994 224.994,75.955 74.045,224.994 -74.994,74.045 
					"/>
	</g>
	<g>
		<defs>
			<polygon id="SVGID_4_" points="58.402,81.18 58.536,88.406 64.758,85.728 64.702,78.029 			"/>
		</defs>
		<clipPath id="SVGID_5_">
			<use xlink:href="#SVGID_4_"  overflow="visible"/>
		</clipPath>
		
			<linearGradient id="SVGID_6_" gradientUnits="userSpaceOnUse" x1="68.8481" y1="78.8741" x2="70.6824" y2="78.8741" gradientTransform="matrix(3.4652 0 0 -3.4652 -180.1671 356.5284)">
			<stop  offset="0" style="stop-color:#D6969B"/>
			<stop  offset="0.3252" style="stop-color:#E9A9AE"/>
			<stop  offset="0.6659" style="stop-color:#F6B5BA"/>
			<stop  offset="0.9921" style="stop-color:#FAB9BE"/>
			<stop  offset="1" style="stop-color:#FAB9BE"/>
		</linearGradient>
		<rect x="58.402" y="78.029" clip-path="url(#SVGID_5_)" fill="url(#SVGID_6_)" width="6.356" height="10.377"/>
	</g>
	<g>
		<defs>
			<polygon id="SVGID_7_" points="40.748,111.209 26.142,123.163 31.429,123.608 44.648,113.348 48.333,109.309 42.599,106.279 			
				"/>
		</defs>
		<clipPath id="SVGID_8_">
			<use xlink:href="#SVGID_7_"  overflow="visible"/>
		</clipPath>
		
			<linearGradient id="SVGID_9_" gradientUnits="userSpaceOnUse" x1="79.8737" y1="84.193" x2="81.7081" y2="84.193" gradientTransform="matrix(12.097 0 0 -12.097 -940.0898 1133.425)">
			<stop  offset="0" style="stop-color:#FAB9BE"/>
			<stop  offset="0.0079" style="stop-color:#FAB9BE"/>
			<stop  offset="1" style="stop-color:#BF8286"/>
		</linearGradient>
		<rect x="26.142" y="106.279" clip-path="url(#SVGID_8_)" fill="url(#SVGID_9_)" width="22.191" height="17.33"/>
	</g>
	<g>
		<defs>
			<rect id="SVGID_10_" x="0" y="0.002" width="149.998" height="149.998"/>
		</defs>
		<clipPath id="SVGID_11_">
			<use xlink:href="#SVGID_10_"  overflow="visible"/>
		</clipPath>
		<path clip-path="url(#SVGID_11_)" fill="#FACBCE" d="M53.687,67.219c0,0-0.814,10.247,4.845,15.068
			c0.416,0.352,0.987,0.46,1.517,0.33c1.427-0.352,4.212-1.475,5.725-4.99c0,0,3.905-10.007-1.018-11.781
			C59.832,64.075,53.687,67.219,53.687,67.219"/>
		<path clip-path="url(#SVGID_11_)" fill="#2F3B7A" d="M68.545,62.992c0,0-1.998-10.469-12.109-3.153c0,0-2.288,2.26-8.436,1.8
			c-1.279-0.095-2.152,1.297-1.486,2.403c2.277,3.779,7.591,9.508,17.225,4.249l0.624,6.118c0,0,2.06-2.713,2.372-0.378
			c0.312,2.332-2.185,3.907-2.185,3.907s0.202,4.799,0.202,4.483C64.751,82.104,77.532,66.838,68.545,62.992"/>
		<path clip-path="url(#SVGID_11_)" fill="#1E2859" d="M66.967,71.151c0.068-2.897-0.332-6.705-2.44-9.352
			c-1.585-1.987-3.896-3.01-6.868-3.043c-0.297,0.002-0.543,0.238-0.547,0.539c-0.004,0.303,0.237,0.548,0.534,0.552
			c2.634,0.029,4.665,0.915,6.037,2.636c1.823,2.286,2.223,5.657,2.196,8.337c-0.231-0.039-0.466-0.064-0.708-0.064
			c-2.41,0-4.364,1.976-4.364,4.41c0,1.442,0.684,2.715,1.739,3.518c-0.681,0.624-1.424,1.262-1.959,1.609
			c-0.095-0.112-0.237-0.183-0.394-0.183c-0.292,0-0.526,0.238-0.526,0.532c0,0.294,0.235,0.532,0.526,0.532
			c0.29,0,0.526-0.238,0.526-0.532c0-0.046-0.007-0.09-0.018-0.132c0.569-0.369,1.345-1.033,2.047-1.677
			c0.693,0.47,1.526,0.745,2.423,0.745c2.41,0,4.364-1.974,4.364-4.412C69.536,73.38,68.481,71.843,66.967,71.151"/>
	</g>
	<g>
		<defs>
			<path id="SVGID_12_" d="M7.633,129.143c0,4.571,30.514,8.279,68.154,8.279c37.642,0,68.156-3.707,68.156-8.279
				c0-4.571-30.514-8.277-68.156-8.277C38.147,120.866,7.633,124.571,7.633,129.143"/>
		</defs>
		<clipPath id="SVGID_13_">
			<use xlink:href="#SVGID_12_"  overflow="visible"/>
		</clipPath>
		
			<linearGradient id="SVGID_14_" gradientUnits="userSpaceOnUse" x1="88.818" y1="84.6687" x2="90.6524" y2="84.6687" gradientTransform="matrix(-0.2378 15.2174 15.2174 0.2378 -1191.174 -1265.4832)">
			<stop  offset="0" style="stop-color:#679FD7"/>
			<stop  offset="0.2354" style="stop-color:#639DD7"/>
			<stop  offset="0.4804" style="stop-color:#5697D7"/>
			<stop  offset="0.7296" style="stop-color:#428DD8"/>
			<stop  offset="0.9805" style="stop-color:#257ED9"/>
			<stop  offset="1" style="stop-color:#227DD9"/>
		</linearGradient>
		<polygon clip-path="url(#SVGID_13_)" fill="url(#SVGID_14_)" points="144.201,120.87 143.909,139.551 7.374,137.417 
			7.666,118.736 		"/>
	</g>
	<g>
		<defs>
			<polygon id="SVGID_15_" points="101.3,122.57 96.088,128.356 124.687,128.356 121.025,122.335 			"/>
		</defs>
		<clipPath id="SVGID_16_">
			<use xlink:href="#SVGID_15_"  overflow="visible"/>
		</clipPath>
		
			<linearGradient id="SVGID_17_" gradientUnits="userSpaceOnUse" x1="80.1486" y1="87.928" x2="81.983" y2="87.928" gradientTransform="matrix(7.1331 -9.5108 -9.5108 -7.1331 365.1021 1527.9543)">
			<stop  offset="0" style="stop-color:#2F3B7A"/>
			<stop  offset="0.0079" style="stop-color:#2F3B7A"/>
			<stop  offset="1" style="stop-color:#4D5AA1"/>
		</linearGradient>
		<polygon clip-path="url(#SVGID_16_)" fill="url(#SVGID_17_)" points="93.199,126.188 106.384,108.608 127.577,124.503 
			114.391,142.083 		"/>
	</g>
	<g>
		<defs>
			<polygon id="SVGID_18_" points="30.805,128.009 56.043,128.009 62.133,122.044 35.74,121.688 			"/>
		</defs>
		<clipPath id="SVGID_19_">
			<use xlink:href="#SVGID_18_"  overflow="visible"/>
		</clipPath>
		
			<linearGradient id="SVGID_20_" gradientUnits="userSpaceOnUse" x1="71.2568" y1="85.5635" x2="73.0912" y2="85.5635" gradientTransform="matrix(5.231 -2.774 -2.774 -5.231 -101.1644 776.5903)">
			<stop  offset="0" style="stop-color:#2F3B7A"/>
			<stop  offset="0.0079" style="stop-color:#2F3B7A"/>
			<stop  offset="1" style="stop-color:#4D5AA1"/>
		</linearGradient>
		<polygon clip-path="url(#SVGID_19_)" fill="url(#SVGID_20_)" points="28.189,123.075 55.257,108.721 64.75,126.622 
			37.682,140.976 		"/>
	</g>
	<g>
		<defs>
			<path id="SVGID_21_" d="M58.494,84.816c0,0-8.702,2.57-11.458,6.657c-2.755,4.085-6.294,13.876-6.294,13.876l5.149,3.458
				l3.647-4.432l1.174,17.165l20.613-0.503l0.479-16.611l0.286,2.57l0.947,4.823l7.501-2.02c0,0,0.002-0.106-0.004-0.303
				c-0.035-2.154-0.459-15.143-5.523-18.704c-0.295-0.205-0.582-0.409-0.87-0.611c-5.147-3.603-9.411-6.479-9.411-6.479
				S59.595,86.417,58.494,84.816"/>
		</defs>
		<clipPath id="SVGID_22_">
			<use xlink:href="#SVGID_21_"  overflow="visible"/>
		</clipPath>
		
			<linearGradient id="SVGID_23_" gradientUnits="userSpaceOnUse" x1="80.3015" y1="87.8907" x2="82.1359" y2="87.8907" gradientTransform="matrix(11.8886 -7.6087 -7.6087 -11.8886 -242.7545 1769.682)">
			<stop  offset="0" style="stop-color:#4399F0"/>
			<stop  offset="1" style="stop-color:#1D43B8"/>
		</linearGradient>
		<polygon clip-path="url(#SVGID_22_)" fill="url(#SVGID_23_)" points="23.563,94.697 68.976,65.633 97.719,110.545 52.307,139.608 
					"/>
	</g>
	<g>
		<defs>
			<path id="SVGID_24_" d="M8.165,93.885c-1.911,0-3.474,1.563-3.474,3.474v21.094c0,1.911,1.563,3.474,3.474,3.474h38.647
				c1.913,0,3.476-1.563,3.476-3.474V97.36c0-1.911-1.563-3.474-3.476-3.474H8.165z"/>
		</defs>
		<clipPath id="SVGID_25_">
			<use xlink:href="#SVGID_24_"  overflow="visible"/>
		</clipPath>
		
			<linearGradient id="SVGID_26_" gradientUnits="userSpaceOnUse" x1="77.938" y1="100.132" x2="79.7725" y2="100.132" gradientTransform="matrix(-0.0793 -6.1028 -6.1028 0.0793 644.9635 591.6805)">
			<stop  offset="0" style="stop-color:#2F3B7A"/>
			<stop  offset="0.0079" style="stop-color:#2F3B7A"/>
			<stop  offset="1" style="stop-color:#4D5AA1"/>
		</linearGradient>
		<polygon clip-path="url(#SVGID_25_)" fill="url(#SVGID_26_)" points="4.698,122.52 4.326,93.89 50.281,93.293 50.653,121.923 		
			"/>
	</g>
	<g>
		<defs>
			<path id="SVGID_27_" d="M23.675,127.859c-0.73,0-1.324,0.594-1.324,1.324v0.305c0,0.728,0.594,1.324,1.324,1.324h5.903
				c0.73,0,1.326-0.596,1.326-1.324v-0.305c0-0.73-0.596-1.324-1.326-1.324H23.675z"/>
		</defs>
		<clipPath id="SVGID_28_">
			<use xlink:href="#SVGID_27_"  overflow="visible"/>
		</clipPath>
		
			<linearGradient id="SVGID_29_" gradientUnits="userSpaceOnUse" x1="89.7459" y1="81.4358" x2="91.5803" y2="81.4358" gradientTransform="matrix(0.2011 11.3941 11.3941 -0.2011 -919.6388 -895.7679)">
			<stop  offset="0" style="stop-color:#2F3B7A"/>
			<stop  offset="0.0079" style="stop-color:#2F3B7A"/>
			<stop  offset="1" style="stop-color:#4D5AA1"/>
		</linearGradient>
		<polygon clip-path="url(#SVGID_28_)" fill="url(#SVGID_29_)" points="30.902,127.708 30.956,130.811 22.353,130.963 
			22.298,127.86 		"/>
	</g>
	<g>
		<defs>
			<path id="SVGID_30_" d="M26.197,116.913c-1.506,0-2.741,1.235-2.741,2.742v8.015c0,1.508,1.235,2.742,2.741,2.742h0.859
				c1.508,0,2.741-1.235,2.741-2.742v-8.015c0-1.508-1.233-2.742-2.741-2.742H26.197z"/>
		</defs>
		<clipPath id="SVGID_31_">
			<use xlink:href="#SVGID_30_"  overflow="visible"/>
		</clipPath>
		
			<linearGradient id="SVGID_32_" gradientUnits="userSpaceOnUse" x1="89.7459" y1="81.4397" x2="91.5804" y2="81.4397" gradientTransform="matrix(0.2011 11.394 11.394 -0.2011 -919.5798 -895.7648)">
			<stop  offset="0" style="stop-color:#2F3B7A"/>
			<stop  offset="0.0079" style="stop-color:#2F3B7A"/>
			<stop  offset="1" style="stop-color:#4D5AA1"/>
		</linearGradient>
		<polygon clip-path="url(#SVGID_31_)" fill="url(#SVGID_32_)" points="29.794,116.801 30.035,130.408 23.459,130.524 
			23.218,116.917 		"/>
	</g>
	<g>
		<defs>
			<path id="SVGID_33_" d="M73.015,109.869c0,0,0.574,6.941,0.442,6.941s-12.777,4.054-12.777,4.054s-6.83-1.115-8.152,0
				c-1.321,1.112,2.24,1.424,2.24,1.424s-4.399,1.601-3.913,3.205c0.484,1.603,4.713,2.939,10.926-0.936
				c0,0,17.799-2.269,18.416-6.321c0.616-4.05-0.704-11.038-0.704-11.038L73.015,109.869z"/>
		</defs>
		<clipPath id="SVGID_34_">
			<use xlink:href="#SVGID_33_"  overflow="visible"/>
		</clipPath>
		
			<linearGradient id="SVGID_35_" gradientUnits="userSpaceOnUse" x1="80.8772" y1="90.5532" x2="82.7116" y2="90.5532" gradientTransform="matrix(5.148 -12.6905 -12.6905 -5.148 794.1345 1620.8571)">
			<stop  offset="0" style="stop-color:#FAB9BE"/>
			<stop  offset="0.0079" style="stop-color:#FAB9BE"/>
			<stop  offset="1" style="stop-color:#BF8286"/>
		</linearGradient>
		<polygon clip-path="url(#SVGID_34_)" fill="url(#SVGID_35_)" points="42.973,125.431 54.671,96.593 88.21,110.198 76.511,139.036 
					"/>
	</g>
	<g>
		<defs>
			<path id="SVGID_36_" d="M73.679,93.937c-1.137,2.832-2.535,7.833-1.629,13.938c0.22,1.475,0.248,2.623,0.761,4.232l7.545-1.35
				c0.015-1.684-0.053-12.298-3.003-17.132c-0.407-0.666-1.08-0.987-1.752-0.987C74.809,92.638,74.022,93.084,73.679,93.937"/>
		</defs>
		<clipPath id="SVGID_37_">
			<use xlink:href="#SVGID_36_"  overflow="visible"/>
		</clipPath>
		
			<linearGradient id="SVGID_38_" gradientUnits="userSpaceOnUse" x1="82.9208" y1="87.6927" x2="84.7552" y2="87.6927" gradientTransform="matrix(21.241 -12.8397 -12.8397 -21.241 -581.1623 3042.7551)">
			<stop  offset="0" style="stop-color:#4399F0"/>
			<stop  offset="1" style="stop-color:#1D43B8"/>
		</linearGradient>
		<polygon clip-path="url(#SVGID_37_)" fill="url(#SVGID_38_)" points="62.525,97.848 77.902,88.553 88.99,106.897 73.613,116.191 
					"/>
	</g>
	<g>
		<defs>
			<path id="SVGID_39_" d="M105.703,63.056L105.703,63.056 M105.703,63.056c0,0,0.026,0.116,1.435,11.351
				c1.499,11.968,4.856,24.165,4.856,24.165l3.282-6.083c3.878,2.071,10.711-0.95,10.711-0.95l-1.638-0.367
				c0.649-0.238,1.014-0.49,1.014-0.49c-6.762-4.615-6.426-15.154-6.426-15.154c1.203-10.133-5.966-12.553-5.966-12.553
				c-1.213-1.726-2.416-2.306-3.485-2.306C107.315,60.671,105.703,63.054,105.703,63.056"/>
		</defs>
		<clipPath id="SVGID_40_">
			<use xlink:href="#SVGID_39_"  overflow="visible"/>
		</clipPath>
		
			<linearGradient id="SVGID_41_" gradientUnits="userSpaceOnUse" x1="83.6611" y1="92.9041" x2="85.4955" y2="92.9041" gradientTransform="matrix(-3.5842 -7.6887 -7.6887 3.5842 1136.2753 403.2996)">
			<stop  offset="0" style="stop-color:#CB236D"/>
			<stop  offset="1" style="stop-color:#4C246D"/>
		</linearGradient>
		<polygon clip-path="url(#SVGID_40_)" fill="url(#SVGID_41_)" points="109.323,106.34 91.188,67.436 122.365,52.902 140.5,91.806 
					"/>
	</g>
	<g>
		<defs>
			<polygon id="SVGID_42_" points="105.332,83.737 105.248,83.717 105.624,88.655 109.56,91.383 113.046,88.266 113.308,83.693 			
				"/>
		</defs>
		<clipPath id="SVGID_43_">
			<use xlink:href="#SVGID_42_"  overflow="visible"/>
		</clipPath>
		
			<linearGradient id="SVGID_44_" gradientUnits="userSpaceOnUse" x1="77.3134" y1="80.5088" x2="79.1478" y2="80.5088" gradientTransform="matrix(4.3941 0.0049 -0.0049 -4.4893 -234.0811 448.5778)">
			<stop  offset="0" style="stop-color:#D6969B"/>
			<stop  offset="0.3252" style="stop-color:#E9A9AE"/>
			<stop  offset="0.6659" style="stop-color:#F6B5BA"/>
			<stop  offset="0.9921" style="stop-color:#FAB9BE"/>
			<stop  offset="1" style="stop-color:#FAB9BE"/>
		</linearGradient>
		<polygon clip-path="url(#SVGID_43_)" fill="url(#SVGID_44_)" points="105.239,83.684 113.308,83.693 113.317,91.392 
			105.248,91.383 		"/>
	</g>
	<g>
		<defs>
			<rect id="SVGID_45_" x="0" y="0.002" width="149.998" height="149.998"/>
		</defs>
		<clipPath id="SVGID_46_">
			<use xlink:href="#SVGID_45_"  overflow="visible"/>
		</clipPath>
		<path clip-path="url(#SVGID_46_)" fill="#FACBCE" d="M101.703,77.192c0,0,1.924,7.339,6.699,9.976
			c0.571,0.316,1.269,0.273,1.811-0.088c1.871-1.258,6.14-4.793,6.586-11.106c0.569-8.112-7.794-11.995-7.794-11.995
			S100.322,68.106,101.703,77.192"/>
	</g>
	<g>
		<defs>
			<path id="SVGID_47_" d="M108.361,62.966c-0.882-0.295-2.221,0.503-2.221,0.503c-8.279,3.357-4.166,15.548-4.166,15.548
				c7.675-4.958,6.507-13.34,6.507-13.34c3.04,13.934,9.438,11.049,9.438,11.049l-0.182-3.489
				c-0.884-9.132-4.647-10.702-7.129-10.702C109.309,62.535,108.361,62.966,108.361,62.966"/>
		</defs>
		<clipPath id="SVGID_48_">
			<use xlink:href="#SVGID_47_"  overflow="visible"/>
		</clipPath>
		
			<linearGradient id="SVGID_49_" gradientUnits="userSpaceOnUse" x1="80.8119" y1="82.1367" x2="82.6463" y2="82.1367" gradientTransform="matrix(5.8055 1.7268 1.7268 -5.8055 -510.4129 406.1993)">
			<stop  offset="0" style="stop-color:#CB236D"/>
			<stop  offset="1" style="stop-color:#4C246D"/>
		</linearGradient>
		<polygon clip-path="url(#SVGID_48_)" fill="url(#SVGID_49_)" points="99.491,57.054 122.584,63.923 116.288,85.093 93.194,78.224 
					"/>
	</g>
	<g>
		<defs>
			<path id="SVGID_50_" d="M105.493,87.195c0,0-11.52,3.014-13.824,9.917c-2.304,6.901-3.21,16.631-2.797,19.124
				c0.411,2.497,5.432,7.07,5.432,7.07h34.276l-0.741-24.574c0,0,0.987-5.613-14.752-11.537
				C113.086,87.195,109.65,89.917,105.493,87.195"/>
		</defs>
		<clipPath id="SVGID_51_">
			<use xlink:href="#SVGID_50_"  overflow="visible"/>
		</clipPath>
		
			<linearGradient id="SVGID_52_" gradientUnits="userSpaceOnUse" x1="77.7795" y1="95.3341" x2="79.6139" y2="95.3341" gradientTransform="matrix(0.0793 -4.914 -4.914 -0.0793 571.0104 490.9904)">
			<stop  offset="0" style="stop-color:#4399F0"/>
			<stop  offset="1" style="stop-color:#1D43B8"/>
		</linearGradient>
		<polygon clip-path="url(#SVGID_51_)" fill="url(#SVGID_52_)" points="87.877,123.296 88.47,86.544 129.408,87.205 
			128.815,123.956 		"/>
	</g>
	<g>
		<defs>
			<path id="SVGID_53_" d="M108.718,61.424c-1.636,0.033-2.953,0.637-2.939,1.348c0.013,0.714,1.352,1.268,2.988,1.236
				c1.638-0.033,2.953-0.637,2.941-1.35c-0.015-0.693-1.284-1.236-2.864-1.236C108.803,61.422,108.761,61.424,108.718,61.424"/>
		</defs>
		<clipPath id="SVGID_54_">
			<use xlink:href="#SVGID_53_"  overflow="visible"/>
		</clipPath>
		
			<linearGradient id="SVGID_55_" gradientUnits="userSpaceOnUse" x1="88.0313" y1="102.2591" x2="89.8657" y2="102.2591" gradientTransform="matrix(-1.9661 -2.2044 -2.2044 1.9661 509.6883 58.4827)">
			<stop  offset="0" style="stop-color:#CB236D"/>
			<stop  offset="1" style="stop-color:#4C246D"/>
		</linearGradient>
		<polygon clip-path="url(#SVGID_54_)" fill="url(#SVGID_55_)" points="108.404,66.998 104.465,62.581 109.082,58.463 
			113.022,62.88 		"/>
	</g>
	<g>
		<defs>
			<rect id="SVGID_56_" x="0" y="0.002" width="149.998" height="149.998"/>
		</defs>
		<clipPath id="SVGID_57_">
			<use xlink:href="#SVGID_56_"  overflow="visible"/>
		</clipPath>
		<path clip-path="url(#SVGID_57_)" fill="#1E2859" d="M118.76,78.086l-0.204-3.878c-0.035-0.684-0.332-1.295-0.785-1.743
			c-0.128-1.062-0.365-2.19-0.701-3.221c-0.859-2.647-3.107-7.059-8.625-6.936c-5.866,0.411-7.407,6.142-7.796,8.587
			c-0.057,0.358-0.114,0.833-0.154,1.345c-0.875,0.415-1.462,1.335-1.409,2.366l0.189,3.621c0.072,1.356,1.227,2.409,2.57,2.337
			c0.609-0.033,1.154-0.294,1.563-0.692c1.027,1.427,2.759,3.496,4.753,4.5c0.017,0.339,0.294,0.611,0.635,0.611
			c0.352,0,0.64-0.288,0.64-0.646c0-0.356-0.288-0.644-0.64-0.644c-0.259,0-0.481,0.156-0.582,0.38
			c-1.911-0.994-3.605-3.04-4.603-4.426c0.367-0.459,0.578-1.047,0.545-1.678l-0.191-3.623c-0.072-1.356-1.225-2.409-2.568-2.337
			h-0.002c0.149-1.554,0.554-3.443,1.464-5.1c1.257-2.291,3.157-3.54,5.626-3.715c3.087-0.061,5.428,1.409,6.96,4.403
			c0.719,1.405,1.132,2.911,1.35,4.254c-0.31-0.108-0.644-0.161-0.989-0.143c-1.438,0.075-2.55,1.326-2.475,2.779l0.204,3.878
			c0.075,1.451,1.313,2.577,2.75,2.502C117.722,80.79,118.835,79.539,118.76,78.086"/>
	</g>
	<g>
		<defs>
			<path id="SVGID_58_" d="M92.909,95.7c-1.915,0-3.478,1.563-3.478,3.476v21.094c0,1.91,1.563,3.474,3.478,3.474h38.646
				c1.911,0,3.476-1.565,3.476-3.474V99.176c0-1.913-1.565-3.476-3.476-3.476H92.909z"/>
		</defs>
		<clipPath id="SVGID_59_">
			<use xlink:href="#SVGID_58_"  overflow="visible"/>
		</clipPath>
		
			<linearGradient id="SVGID_60_" gradientUnits="userSpaceOnUse" x1="78.5047" y1="93.0686" x2="80.3391" y2="93.0686" gradientTransform="matrix(0 -6.8954 -6.8954 0 753.9758 668.6397)">
			<stop  offset="0" style="stop-color:#2F3B7A"/>
			<stop  offset="0.0079" style="stop-color:#2F3B7A"/>
			<stop  offset="1" style="stop-color:#4D5AA1"/>
		</linearGradient>
		<rect x="89.431" y="95.7" clip-path="url(#SVGID_59_)" fill="url(#SVGID_60_)" width="45.6" height="28.045"/>
	</g>
	<g>
		<defs>
			<path id="SVGID_61_" d="M109.124,128.666c-0.728,0-1.323,0.598-1.323,1.324v0.306c0,0.728,0.594,1.324,1.323,1.324h5.907
				c0.728,0,1.323-0.596,1.323-1.324v-0.306c0-0.726-0.594-1.324-1.323-1.324H109.124z"/>
		</defs>
		<clipPath id="SVGID_62_">
			<use xlink:href="#SVGID_61_"  overflow="visible"/>
		</clipPath>
		
			<linearGradient id="SVGID_63_" gradientUnits="userSpaceOnUse" x1="89.2066" y1="85.0759" x2="91.041" y2="85.0759" gradientTransform="matrix(0.6032 12.8016 12.8016 -0.6032 -1031.8928 -982.8476)">
			<stop  offset="0" style="stop-color:#2F3B7A"/>
			<stop  offset="0.0079" style="stop-color:#2F3B7A"/>
			<stop  offset="1" style="stop-color:#4D5AA1"/>
		</linearGradient>
		<polygon clip-path="url(#SVGID_62_)" fill="url(#SVGID_63_)" points="116.334,128.264 116.492,131.614 107.82,132.023 
			107.662,128.672 		"/>
	</g>
	<g>
		<defs>
			<path id="SVGID_64_" d="M111.648,117.723c-1.506,0-2.741,1.231-2.741,2.741v8.015c0,1.508,1.235,2.741,2.741,2.741h0.859
				c1.508,0,2.741-1.233,2.741-2.741v-8.015c0-1.51-1.233-2.741-2.741-2.741H111.648z"/>
		</defs>
		<clipPath id="SVGID_65_">
			<use xlink:href="#SVGID_64_"  overflow="visible"/>
		</clipPath>
		
			<linearGradient id="SVGID_66_" gradientUnits="userSpaceOnUse" x1="89.2066" y1="85.0854" x2="91.041" y2="85.0854" gradientTransform="matrix(0.6032 12.8016 12.8016 -0.6032 -1031.7485 -982.8554)">
			<stop  offset="0" style="stop-color:#2F3B7A"/>
			<stop  offset="0.0079" style="stop-color:#2F3B7A"/>
			<stop  offset="1" style="stop-color:#4D5AA1"/>
		</linearGradient>
		<polygon clip-path="url(#SVGID_65_)" fill="url(#SVGID_66_)" points="115.233,117.425 115.882,131.189 108.921,131.517 
			108.273,117.753 		"/>
	</g>
	<g>
		<defs>
			<rect id="SVGID_67_" x="0" y="0.002" width="149.998" height="149.998"/>
		</defs>
		<clipPath id="SVGID_68_">
			<use xlink:href="#SVGID_67_"  overflow="visible"/>
		</clipPath>
		<path clip-path="url(#SVGID_68_)" fill="#FFFFFF" d="M29.212,72.96h10.867c1.352,0,2.458,1.108,2.458,2.46v2.033
			c0,1.354-1.106,2.46-2.458,2.46H38.8l1.031,1.878l-3.695-1.878h-6.925c-1.352,0-2.46-1.106-2.46-2.46V75.42
			C26.752,74.068,27.86,72.96,29.212,72.96 M39.51,76.438c0-0.624-0.508-1.128-1.13-1.128s-1.126,0.504-1.126,1.128
			c0,0.622,0.504,1.126,1.126,1.126S39.51,77.06,39.51,76.438 M34.783,77.565c0.622,0,1.128-0.504,1.128-1.126
			c0-0.624-0.506-1.128-1.128-1.128c-0.624,0-1.128,0.504-1.128,1.128C33.655,77.06,34.159,77.565,34.783,77.565 M31.186,77.565
			c0.622,0,1.124-0.504,1.124-1.126c0-0.624-0.503-1.128-1.124-1.128c-0.624,0-1.128,0.504-1.128,1.128
			C30.057,77.06,30.562,77.565,31.186,77.565"/>
	</g>
	<g>
		<defs>
			<path id="SVGID_69_" d="M37.253,76.438c0,0.622,0.506,1.126,1.126,1.126c0.624,0,1.13-0.504,1.13-1.126
				c0-0.624-0.506-1.126-1.13-1.126C37.76,75.312,37.253,75.814,37.253,76.438"/>
		</defs>
		<clipPath id="SVGID_70_">
			<use xlink:href="#SVGID_69_"  overflow="visible"/>
		</clipPath>
		
			<linearGradient id="SVGID_71_" gradientUnits="userSpaceOnUse" x1="141.3128" y1="64.7947" x2="143.1474" y2="64.7947" gradientTransform="matrix(-1.2299 0 0 -1.2299 213.3077 156.1281)">
			<stop  offset="0" style="stop-color:#4399F0"/>
			<stop  offset="1" style="stop-color:#1D43B8"/>
		</linearGradient>
		<rect x="37.253" y="75.312" clip-path="url(#SVGID_70_)" fill="url(#SVGID_71_)" width="2.256" height="2.253"/>
	</g>
	<g>
		<defs>
			<path id="SVGID_72_" d="M33.654,76.438c0,0.622,0.504,1.126,1.13,1.126c0.622,0,1.128-0.504,1.128-1.126
				c0-0.624-0.506-1.126-1.128-1.126C34.159,75.312,33.654,75.814,33.654,76.438"/>
		</defs>
		<clipPath id="SVGID_73_">
			<use xlink:href="#SVGID_72_"  overflow="visible"/>
		</clipPath>
		
			<linearGradient id="SVGID_74_" gradientUnits="userSpaceOnUse" x1="142.6431" y1="64.7947" x2="144.4791" y2="64.7947" gradientTransform="matrix(-1.2299 0 0 -1.2299 211.3464 156.1281)">
			<stop  offset="0" style="stop-color:#4399F0"/>
			<stop  offset="1" style="stop-color:#1D43B8"/>
		</linearGradient>
		<rect x="33.654" y="75.312" clip-path="url(#SVGID_73_)" fill="url(#SVGID_74_)" width="2.258" height="2.253"/>
	</g>
	<g>
		<defs>
			<path id="SVGID_75_" d="M30.057,76.438c0,0.622,0.504,1.126,1.128,1.126c0.622,0,1.126-0.504,1.126-1.126
				c0-0.624-0.504-1.126-1.126-1.126C30.561,75.312,30.057,75.814,30.057,76.438"/>
		</defs>
		<clipPath id="SVGID_76_">
			<use xlink:href="#SVGID_75_"  overflow="visible"/>
		</clipPath>
		
			<linearGradient id="SVGID_77_" gradientUnits="userSpaceOnUse" x1="144.0457" y1="64.7665" x2="145.881" y2="64.7665" gradientTransform="matrix(-1.2284 0 0 -1.2284 209.255 155.9963)">
			<stop  offset="0" style="stop-color:#4399F0"/>
			<stop  offset="1" style="stop-color:#1D43B8"/>
		</linearGradient>
		<rect x="30.057" y="75.312" clip-path="url(#SVGID_76_)" fill="url(#SVGID_77_)" width="2.254" height="2.253"/>
	</g>
	<g>
		<defs>
			<rect id="SVGID_78_" x="0" y="0.002" width="149.998" height="149.998"/>
		</defs>
		<clipPath id="SVGID_79_">
			<use xlink:href="#SVGID_78_"  overflow="visible"/>
		</clipPath>
		<path clip-path="url(#SVGID_79_)" fill="#FFFFFF" d="M106.748,47.257h-0.559l5.375,9.853l-14.226-9.853H60.236
			c-3.375,0-6.129-2.752-6.129-6.129v-13.45c0-3.375,2.753-6.127,6.129-6.127h46.512c3.381,0,6.129,2.752,6.129,6.127v13.45
			C112.876,44.506,110.128,47.257,106.748,47.257"/>
	</g>
	<g>
		<defs>
			<path id="SVGID_80_" d="M61.462,25.658c-0.33,0-0.6,0.271-0.6,0.602s0.27,0.602,0.6,0.602h31.211c0.33,0,0.6-0.271,0.6-0.602
				s-0.27-0.602-0.6-0.602H61.462z"/>
		</defs>
		<clipPath id="SVGID_81_">
			<use xlink:href="#SVGID_80_"  overflow="visible"/>
		</clipPath>
		
			<linearGradient id="SVGID_82_" gradientUnits="userSpaceOnUse" x1="82.6994" y1="87.6766" x2="84.5338" y2="87.6766" gradientTransform="matrix(17.6681 0 0 -17.6681 -1400.2811 1575.3403)">
			<stop  offset="0" style="stop-color:#4399F0"/>
			<stop  offset="1" style="stop-color:#1D43B8"/>
		</linearGradient>
		<rect x="60.862" y="25.658" clip-path="url(#SVGID_81_)" fill="url(#SVGID_82_)" width="32.41" height="1.203"/>
	</g>
	<g>
		<defs>
			<path id="SVGID_83_" d="M61.462,30.015c-0.33,0-0.6,0.271-0.6,0.602c0,0.33,0.27,0.602,0.6,0.602h42.835
				c0.33,0,0.6-0.271,0.6-0.602c0-0.33-0.27-0.602-0.6-0.602H61.462z"/>
		</defs>
		<clipPath id="SVGID_84_">
			<use xlink:href="#SVGID_83_"  overflow="visible"/>
		</clipPath>
		
			<linearGradient id="SVGID_85_" gradientUnits="userSpaceOnUse" x1="83.5707" y1="87.6794" x2="85.4051" y2="87.6794" gradientTransform="matrix(24.0052 0 0 -24.0052 -1945.2722 2135.3809)">
			<stop  offset="0" style="stop-color:#4399F0"/>
			<stop  offset="1" style="stop-color:#1D43B8"/>
		</linearGradient>
		<rect x="60.862" y="30.015" clip-path="url(#SVGID_84_)" fill="url(#SVGID_85_)" width="44.035" height="1.203"/>
	</g>
	<g>
		<defs>
			<path id="SVGID_86_" d="M61.453,34.375c-0.327,0-0.591,0.264-0.591,0.589v0.02c0,0.325,0.264,0.593,0.591,0.593h42.854
				c0.325,0,0.591-0.268,0.591-0.593v-0.02c0-0.325-0.266-0.589-0.591-0.589H61.453z"/>
		</defs>
		<clipPath id="SVGID_87_">
			<use xlink:href="#SVGID_86_"  overflow="visible"/>
		</clipPath>
		
			<linearGradient id="SVGID_88_" gradientUnits="userSpaceOnUse" x1="83.5707" y1="87.5967" x2="85.4051" y2="87.5967" gradientTransform="matrix(24.0052 0 0 -24.0052 -1945.2722 2137.7559)">
			<stop  offset="0" style="stop-color:#4399F0"/>
			<stop  offset="1" style="stop-color:#1D43B8"/>
		</linearGradient>
		<rect x="60.862" y="34.375" clip-path="url(#SVGID_87_)" fill="url(#SVGID_88_)" width="44.035" height="1.202"/>
	</g>
	<g>
		<defs>
			<path id="SVGID_89_" d="M61.462,38.732c-0.33,0-0.6,0.268-0.6,0.598c0,0.332,0.27,0.604,0.6,0.604h31.211
				c0.33,0,0.6-0.271,0.6-0.604c0-0.33-0.27-0.598-0.6-0.598H61.462z"/>
		</defs>
		<clipPath id="SVGID_90_">
			<use xlink:href="#SVGID_89_"  overflow="visible"/>
		</clipPath>
		
			<linearGradient id="SVGID_91_" gradientUnits="userSpaceOnUse" x1="82.6994" y1="87.3399" x2="84.5338" y2="87.3399" gradientTransform="matrix(17.6681 0 0 -17.6681 -1400.2811 1582.4657)">
			<stop  offset="0" style="stop-color:#4399F0"/>
			<stop  offset="1" style="stop-color:#1D43B8"/>
		</linearGradient>
		<rect x="60.862" y="38.732" clip-path="url(#SVGID_90_)" fill="url(#SVGID_91_)" width="32.41" height="1.202"/>
	</g>
	<g>
		<defs>
			<path id="SVGID_92_" d="M95.056,42.3c0,0.792,0.64,1.435,1.431,1.435c0.792,0,1.433-0.642,1.433-1.435
				c0-0.789-0.64-1.431-1.433-1.431C95.696,40.869,95.056,41.511,95.056,42.3"/>
		</defs>
		<clipPath id="SVGID_93_">
			<use xlink:href="#SVGID_92_"  overflow="visible"/>
		</clipPath>
		
			<linearGradient id="SVGID_94_" gradientUnits="userSpaceOnUse" x1="58.6212" y1="79.669" x2="60.4546" y2="79.669" gradientTransform="matrix(1.5618 0 0 -1.5618 3.4983 166.7324)">
			<stop  offset="0" style="stop-color:#4399F0"/>
			<stop  offset="1" style="stop-color:#1D43B8"/>
		</linearGradient>
		<rect x="95.056" y="40.869" clip-path="url(#SVGID_93_)" fill="url(#SVGID_94_)" width="2.864" height="2.865"/>
	</g>
	<g>
		<defs>
			<path id="SVGID_95_" d="M99.876,42.3c0,0.792,0.642,1.435,1.433,1.435c0.792,0,1.433-0.642,1.433-1.435
				c0-0.789-0.64-1.431-1.433-1.431C100.519,40.869,99.876,41.511,99.876,42.3"/>
		</defs>
		<clipPath id="SVGID_96_">
			<use xlink:href="#SVGID_95_"  overflow="visible"/>
		</clipPath>
		
			<linearGradient id="SVGID_97_" gradientUnits="userSpaceOnUse" x1="60.0245" y1="79.669" x2="61.8591" y2="79.669" gradientTransform="matrix(1.5618 0 0 -1.5618 6.1273 166.7324)">
			<stop  offset="0" style="stop-color:#4399F0"/>
			<stop  offset="1" style="stop-color:#1D43B8"/>
		</linearGradient>
		<rect x="99.876" y="40.869" clip-path="url(#SVGID_96_)" fill="url(#SVGID_97_)" width="2.865" height="2.865"/>
	</g>
	<g>
		<defs>
			<path id="SVGID_98_" d="M104.738,42.3c0,0.792,0.64,1.435,1.433,1.435c0.791,0,1.433-0.642,1.433-1.435
				c0-0.789-0.642-1.431-1.433-1.431C105.378,40.869,104.738,41.511,104.738,42.3"/>
		</defs>
		<clipPath id="SVGID_99_">
			<use xlink:href="#SVGID_98_"  overflow="visible"/>
		</clipPath>
		
			<linearGradient id="SVGID_100_" gradientUnits="userSpaceOnUse" x1="61.4403" y1="79.669" x2="63.2749" y2="79.669" gradientTransform="matrix(1.5618 0 0 -1.5618 8.7773 166.7324)">
			<stop  offset="0" style="stop-color:#4399F0"/>
			<stop  offset="1" style="stop-color:#1D43B8"/>
		</linearGradient>
		<rect x="104.738" y="40.869" clip-path="url(#SVGID_99_)" fill="url(#SVGID_100_)" width="2.865" height="2.865"/>
	</g>
	<g>
		<defs>
			<rect id="SVGID_101_" x="0" y="0.002" width="149.998" height="149.998"/>
		</defs>
		<clipPath id="SVGID_102_">
			<use xlink:href="#SVGID_101_"  overflow="visible"/>
		</clipPath>
		<path clip-path="url(#SVGID_102_)" fill="#FFFFFF" d="M40.399,63.73H28.385c-1.627,0-2.957-1.332-2.957-2.957V41.753
			c0-1.625,1.33-2.957,2.957-2.957h12.014c1.625,0,2.957,1.332,2.957,2.957v19.019C43.356,62.398,42.024,63.73,40.399,63.73"/>
	</g>
	<g>
		<defs>
			<path id="SVGID_103_" d="M28.479,45.196c0,0.686,0.556,1.244,1.244,1.244c0.684,0,1.242-0.558,1.242-1.244
				c0-0.686-0.558-1.242-1.242-1.242C29.035,43.954,28.479,44.51,28.479,45.196"/>
		</defs>
		<clipPath id="SVGID_104_">
			<use xlink:href="#SVGID_103_"  overflow="visible"/>
		</clipPath>
		
			<linearGradient id="SVGID_105_" gradientUnits="userSpaceOnUse" x1="32.0923" y1="77.4251" x2="33.9267" y2="77.4251" gradientTransform="matrix(1.355 0 0 -1.355 -15.0062 150.1092)">
			<stop  offset="0" style="stop-color:#4399F0"/>
			<stop  offset="1" style="stop-color:#1D43B8"/>
		</linearGradient>
		<rect x="28.479" y="43.954" clip-path="url(#SVGID_104_)" fill="url(#SVGID_105_)" width="2.486" height="2.486"/>
	</g>
	<g>
		<defs>
			<path id="SVGID_106_" d="M28.479,49.72c0,0.686,0.556,1.244,1.244,1.244c0.684,0,1.242-0.558,1.242-1.244
				c0-0.686-0.558-1.244-1.242-1.244C29.035,48.476,28.479,49.034,28.479,49.72"/>
		</defs>
		<clipPath id="SVGID_107_">
			<use xlink:href="#SVGID_106_"  overflow="visible"/>
		</clipPath>
		
			<linearGradient id="SVGID_108_" gradientUnits="userSpaceOnUse" x1="32.0923" y1="75.9074" x2="33.9267" y2="75.9074" gradientTransform="matrix(1.355 0 0 -1.355 -15.0062 152.5754)">
			<stop  offset="0" style="stop-color:#4399F0"/>
			<stop  offset="1" style="stop-color:#1D43B8"/>
		</linearGradient>
		<rect x="28.479" y="48.476" clip-path="url(#SVGID_107_)" fill="url(#SVGID_108_)" width="2.486" height="2.487"/>
	</g>
	<g>
		<defs>
			<path id="SVGID_109_" d="M28.479,54.244c0,0.686,0.556,1.244,1.244,1.244c0.684,0,1.242-0.558,1.242-1.244
				c0-0.686-0.558-1.242-1.242-1.242C29.035,53.002,28.479,53.558,28.479,54.244"/>
		</defs>
		<clipPath id="SVGID_110_">
			<use xlink:href="#SVGID_109_"  overflow="visible"/>
		</clipPath>
		
			<linearGradient id="SVGID_111_" gradientUnits="userSpaceOnUse" x1="32.0923" y1="74.3883" x2="33.9267" y2="74.3883" gradientTransform="matrix(1.355 0 0 -1.355 -15.0062 155.0416)">
			<stop  offset="0" style="stop-color:#4399F0"/>
			<stop  offset="1" style="stop-color:#1D43B8"/>
		</linearGradient>
		<rect x="28.479" y="53.002" clip-path="url(#SVGID_110_)" fill="url(#SVGID_111_)" width="2.486" height="2.486"/>
	</g>
	<g>
		<defs>
			<path id="SVGID_112_" d="M28.479,58.769c0,0.686,0.556,1.242,1.244,1.242c0.684,0,1.242-0.556,1.242-1.242
				c0-0.686-0.558-1.244-1.242-1.244C29.035,57.525,28.479,58.083,28.479,58.769"/>
		</defs>
		<clipPath id="SVGID_113_">
			<use xlink:href="#SVGID_112_"  overflow="visible"/>
		</clipPath>
		
			<linearGradient id="SVGID_114_" gradientUnits="userSpaceOnUse" x1="32.0923" y1="72.8699" x2="33.9267" y2="72.8699" gradientTransform="matrix(1.355 0 0 -1.355 -15.0062 157.5078)">
			<stop  offset="0" style="stop-color:#4399F0"/>
			<stop  offset="1" style="stop-color:#1D43B8"/>
		</linearGradient>
		<rect x="28.479" y="57.525" clip-path="url(#SVGID_113_)" fill="url(#SVGID_114_)" width="2.486" height="2.486"/>
	</g>
	<g>
		<defs>
			<polygon id="SVGID_115_" points="36.16,44.233 35.052,42.744 34.854,42.892 36.156,44.64 39.306,40.557 39.112,40.407 			"/>
		</defs>
		<clipPath id="SVGID_116_">
			<use xlink:href="#SVGID_115_"  overflow="visible"/>
		</clipPath>
		
			<linearGradient id="SVGID_117_" gradientUnits="userSpaceOnUse" x1="57.0987" y1="82.5975" x2="58.933" y2="82.5975" gradientTransform="matrix(2.4271 0 0 -2.4271 -103.7297 242.9949)">
			<stop  offset="0" style="stop-color:#4399F0"/>
			<stop  offset="1" style="stop-color:#1D43B8"/>
		</linearGradient>
		<rect x="34.854" y="40.407" clip-path="url(#SVGID_116_)" fill="url(#SVGID_117_)" width="4.452" height="4.234"/>
	</g>
	<g>
		<defs>
			<path id="SVGID_118_" d="M33.511,45.822c-0.068,0-0.123,0.057-0.123,0.125c0,0.066,0.055,0.123,0.123,0.123h6.591
				c0.068,0,0.123-0.057,0.123-0.123c0-0.068-0.055-0.125-0.123-0.125H33.511z"/>
		</defs>
		<clipPath id="SVGID_119_">
			<use xlink:href="#SVGID_118_"  overflow="visible"/>
		</clipPath>
		
			<linearGradient id="SVGID_120_" gradientUnits="userSpaceOnUse" x1="67.0021" y1="84.0646" x2="68.8363" y2="84.0646" gradientTransform="matrix(3.7274 0 0 -3.7274 -216.3562 359.2889)">
			<stop  offset="0" style="stop-color:#4399F0"/>
			<stop  offset="1" style="stop-color:#1D43B8"/>
		</linearGradient>
		<rect x="33.388" y="45.822" clip-path="url(#SVGID_119_)" fill="url(#SVGID_120_)" width="6.837" height="0.248"/>
	</g>
	<g>
		<defs>
			<path id="SVGID_121_" d="M33.262,50.235c-0.068,0-0.121,0.055-0.121,0.123c0,0.068,0.053,0.125,0.121,0.125h6.591
				c0.07,0,0.125-0.057,0.125-0.125c0-0.068-0.055-0.123-0.125-0.123H33.262z"/>
		</defs>
		<clipPath id="SVGID_122_">
			<use xlink:href="#SVGID_121_"  overflow="visible"/>
		</clipPath>
		
			<linearGradient id="SVGID_123_" gradientUnits="userSpaceOnUse" x1="66.9721" y1="83.5258" x2="68.8063" y2="83.5258" gradientTransform="matrix(3.7274 0 0 -3.7274 -216.4908 361.693)">
			<stop  offset="0" style="stop-color:#4399F0"/>
			<stop  offset="1" style="stop-color:#1D43B8"/>
		</linearGradient>
		<rect x="33.141" y="50.235" clip-path="url(#SVGID_122_)" fill="url(#SVGID_123_)" width="6.837" height="0.248"/>
	</g>
	<g>
		<defs>
			<path id="SVGID_124_" d="M33.262,54.642c-0.068,0-0.121,0.057-0.121,0.123c0,0.068,0.053,0.125,0.121,0.125h6.591
				c0.07,0,0.125-0.057,0.125-0.125c0-0.066-0.055-0.123-0.125-0.123H33.262z"/>
		</defs>
		<clipPath id="SVGID_125_">
			<use xlink:href="#SVGID_124_"  overflow="visible"/>
		</clipPath>
		
			<linearGradient id="SVGID_126_" gradientUnits="userSpaceOnUse" x1="66.9721" y1="82.9882" x2="68.8063" y2="82.9882" gradientTransform="matrix(3.7274 0 0 -3.7274 -216.4908 364.0952)">
			<stop  offset="0" style="stop-color:#4399F0"/>
			<stop  offset="1" style="stop-color:#1D43B8"/>
		</linearGradient>
		<rect x="33.141" y="54.642" clip-path="url(#SVGID_125_)" fill="url(#SVGID_126_)" width="6.837" height="0.248"/>
	</g>
	<g>
		<defs>
			<path id="SVGID_127_" d="M33.262,59.501c-0.068,0-0.121,0.053-0.121,0.123c0,0.068,0.053,0.125,0.121,0.125h6.591
				c0.07,0,0.125-0.057,0.125-0.125c0-0.07-0.055-0.123-0.125-0.123H33.262z"/>
		</defs>
		<clipPath id="SVGID_128_">
			<use xlink:href="#SVGID_127_"  overflow="visible"/>
		</clipPath>
		
			<linearGradient id="SVGID_129_" gradientUnits="userSpaceOnUse" x1="66.9721" y1="82.395" x2="68.8063" y2="82.395" gradientTransform="matrix(3.7274 0 0 -3.7274 -216.4908 366.7435)">
			<stop  offset="0" style="stop-color:#4399F0"/>
			<stop  offset="1" style="stop-color:#1D43B8"/>
		</linearGradient>
		<rect x="33.141" y="59.501" clip-path="url(#SVGID_128_)" fill="url(#SVGID_129_)" width="6.837" height="0.248"/>
	</g>
</g>
</svg>
