<?xml version="1.0" encoding="utf-8"?>
<!-- Generator: Adobe Illustrator 23.0.0, SVG Export Plug-In . SVG Version: 6.00 Build 0)  -->
<svg version="1.1" xmlns="http://www.w3.org/2000/svg" xmlns:xlink="http://www.w3.org/1999/xlink" x="0px" y="0px"
	 viewBox="0 0 135 135" style="enable-background:new 0 0 135 135;" xml:space="preserve">
<style type="text/css">
	.st0{display:none;}
	.st1{fill:none;stroke:#161515;stroke-width:5.1989;stroke-miterlimit:10;}
	.st2{fill:#161515;}
	.st3{fill:#0049DB;}
	.st4{fill:#FFFFFF;}
</style>
<g id="Layer_1" class="st0">
</g>
<g id="Layer_2">
	<g>
		<path class="st3" d="M122.8,133.5H12.2c-6.2,0-11.2-5-11.2-11.2V11.6c0-6.2,5-11.2,11.2-11.2h110.7c6.2,0,11.2,5,11.2,11.2v110.7
			C134.1,128.5,129.1,133.5,122.8,133.5z M12.2,5.5c-3.3,0-6.1,2.7-6.1,6.1v110.7c0,3.3,2.7,6.1,6.1,6.1h110.7
			c3.3,0,6.1-2.7,6.1-6.1V11.6c0-3.3-2.7-6.1-6.1-6.1H12.2z"/>
	</g>
	<g>
		<rect x="14.3" y="15.7" class="st3" width="5.1" height="14.5"/>
	</g>
	<g>
		<rect x="26.9" y="15.7" class="st3" width="5.1" height="14.5"/>
	</g>
	<g>
		<rect x="39.6" y="15.7" class="st3" width="5.1" height="14.5"/>
	</g>
	<g>
		<rect x="52.1" y="15.7" class="st3" width="5.1" height="14.5"/>
	</g>
	<g>
		<rect x="77.1" y="15.7" class="st3" width="5.1" height="14.5"/>
	</g>
	<g>
		<rect x="89.7" y="15.7" class="st3" width="5.1" height="14.5"/>
	</g>
	<g>
		<rect x="102.3" y="15.7" class="st3" width="5.1" height="14.5"/>
	</g>
	<g>
		<rect x="114.9" y="15.7" class="st3" width="5.1" height="14.5"/>
	</g>
	<g>
		<rect x="65" y="15.7" class="st3" width="5.1" height="14.5"/>
	</g>
	<g>
		<path class="st3" d="M39.8,59c-2.1,0-4-1.1-4-4c0-2.9,1.9-4,4-4h27.4c4.5,0,8,3.4,8,8v15.3c0,3.2-0.6,5.5-3.1,7.7
			c2.5,2.2,3.1,4.5,3.1,7.7v15.3c0,4.5-3.4,8-8,8H39.8c-2.1,0-4-1.1-4-4c0-2.9,1.9-4,4-4h27.4V91.9c0-4.5-1.8-5.8-4-5.8H47.6
			c-2.1,0-4-1.1-4-4c0-2.9,1.9-4,4-4h15.6c2.2,0,4-1.4,4-5.8V59H39.8z"/>
		<path class="st3" d="M88.4,105.1h27.4c2.1,0,4,1.1,4,4c0,2.9-1.9,4-4,4H80.5v-26c0-6,3-9,9-9h22.4V59H84.4c-2.1,0-4-1.1-4-4
			c0-2.9,1.9-4,4-4h26.5c2.6,0,4.5,0.4,6.5,2.2c2.2,2.1,2.5,4.2,2.5,7.1v16.4c0,2.9-0.2,5-2.5,7.1c-2,1.8-3.8,2.2-6.5,2.2H88.4
			V105.1z"/>
	</g>
	<g>
		<path class="st3" d="M21,102.3l-5.5-6.6c-0.4-0.5-0.9-1-0.9-1.7c0-1,0.8-1.9,1.8-1.9c1.1,0,1.8,1.1,2.4,1.9l4.6,5.7l4.6-5.7
			c0.6-0.8,1.4-1.9,2.5-1.9c1,0,1.8,0.9,1.8,1.9c0,0.7-0.5,1.2-0.9,1.7l-5.5,6.6l5.5,6.6c0.4,0.5,0.9,1,0.9,1.7c0,1-0.8,1.9-1.8,1.9
			c-1.1,0-1.8-1.1-2.5-1.9l-4.6-5.7l-4.6,5.7c-0.6,0.8-1.4,1.9-2.4,1.9c-1,0-1.8-0.9-1.8-1.9c0-0.7,0.5-1.2,0.9-1.7L21,102.3z"/>
	</g>
</g>
</svg>
