<?xml version="1.0" encoding="utf-8"?>
<!-- Generator: Adobe Illustrator 23.0.0, SVG Export Plug-In . SVG Version: 6.00 Build 0)  -->
<svg version="1.1" id="Layer_1" xmlns="http://www.w3.org/2000/svg" xmlns:xlink="http://www.w3.org/1999/xlink" x="0px" y="0px"
	 viewBox="0 0 156.9 45.5" style="enable-background:new 0 0 156.9 45.5;" xml:space="preserve">
<style type="text/css">
	.st0{fill:#FFFFFF;}
	.st1{fill:#B0191F;}
</style>
<rect x="42.2" class="st0" width="3.1" height="45.1"/>
<g>
	<path class="st0" d="M55.5,7.7h2.9c1.8,0,2.7,1,2.7,2.9v5.9c0,1.9-0.9,2.9-2.7,2.9h-2.9V7.7z M57.4,9.4v8.3h1
		c0.6,0,0.9-0.3,0.9-1.1v-6.1c0-0.8-0.3-1.1-0.9-1.1H57.4z"/>
	<path class="st0" d="M62.3,7.7h1.8v11.7h-1.8V7.7z"/>
	<path class="st0" d="M68.3,12.9h2.6v3.7c0,1.9-0.9,2.9-2.7,2.9c-1.8,0-2.7-1.1-2.7-2.9v-6.1c0-1.9,0.9-2.9,2.7-2.9
		c1.8,0,2.7,1.1,2.7,2.9v1.1h-1.7v-1.3c0-0.8-0.4-1.2-1-1.2c-0.6,0-0.9,0.3-0.9,1.2v6.3c0,0.8,0.4,1.1,0.9,1.1c0.6,0,1-0.3,1-1.1
		v-2.2h-0.8V12.9z"/>
	<path class="st0" d="M72,7.7h1.8v11.7H72V7.7z"/>
	<path class="st0" d="M74.6,7.7h5.7v1.7h-1.9v10h-1.8v-10h-1.9V7.7z"/>
	<path class="st0" d="M86.4,19.4h-1.9l-0.3-2.1H82l-0.3,2.1H80l1.9-11.7h2.7L86.4,19.4z M82.2,15.7H84l-0.9-5.9L82.2,15.7z"/>
	<path class="st0" d="M87.3,7.7h1.8v10h3v1.7h-4.9V7.7z"/>
	<path class="st0" d="M101.4,19.4h-1.9l-0.3-2.1H97l-0.3,2.1H95l1.9-11.7h2.7L101.4,19.4z M97.3,15.7H99l-0.9-5.9L97.3,15.7z"/>
	<path class="st0" d="M106.1,19.4c-0.1-0.3-0.2-0.5-0.2-1.4v-1.8c0-1.1-0.4-1.5-1.2-1.5h-0.6v4.8h-1.8V7.7h2.8
		c1.9,0,2.7,0.9,2.7,2.7v0.9c0,1.2-0.4,2-1.2,2.4c0.9,0.4,1.2,1.3,1.2,2.5V18c0,0.6,0,1,0.2,1.4H106.1z M104.1,9.4V13h0.7
		c0.7,0,1.1-0.3,1.1-1.2v-1.2c0-0.8-0.3-1.2-0.9-1.2H104.1z"/>
	<path class="st0" d="M108.5,7.7h5.7v1.7h-1.9v10h-1.8v-10h-1.9V7.7z"/>
	<path class="st0" d="M117.4,7.6c1.8,0,2.7,1.1,2.7,2.9v0.4h-1.7v-0.5c0-0.8-0.3-1.2-0.9-1.2c-0.6,0-0.9,0.3-0.9,1.2
		c0,2.4,3.6,2.9,3.6,6.2c0,1.9-0.9,2.9-2.7,2.9c-1.8,0-2.7-1.1-2.7-2.9v-0.7h1.7v0.8c0,0.8,0.4,1.1,0.9,1.1s0.9-0.3,0.9-1.1
		c0-2.4-3.6-2.9-3.6-6.2C114.7,8.6,115.6,7.6,117.4,7.6z"/>
	<path class="st0" d="M58,27.6c1.8,0,2.7,1.1,2.7,2.9v0.4H59v-0.5c0-0.8-0.3-1.2-0.9-1.2c-0.6,0-0.9,0.3-0.9,1.2
		c0,2.4,3.6,2.9,3.6,6.2c0,1.9-0.9,2.9-2.7,2.9s-2.7-1.1-2.7-2.9v-0.7H57v0.8c0,0.8,0.4,1.1,0.9,1.1c0.6,0,0.9-0.3,0.9-1.1
		c0-2.4-3.6-2.9-3.6-6.2C55.3,28.6,56.2,27.6,58,27.6z"/>
	<path class="st0" d="M67.7,39.4h-1.9l-0.3-2.1h-2.2L63,39.4h-1.7l1.9-11.7h2.7L67.7,39.4z M63.5,35.7h1.8l-0.9-5.9L63.5,35.7z"/>
	<path class="st0" d="M68.6,27.7h1.8v10h3v1.7h-4.9V27.7z"/>
	<path class="st0" d="M76,32.6h2.5v1.7H76v3.4h3.2v1.7h-5V27.7h5v1.7H76V32.6z"/>
	<path class="st0" d="M82.8,27.6c1.8,0,2.7,1.1,2.7,2.9v0.4h-1.7v-0.5c0-0.8-0.3-1.2-0.9-1.2c-0.6,0-0.9,0.3-0.9,1.2
		c0,2.4,3.6,2.9,3.6,6.2c0,1.9-0.9,2.9-2.7,2.9s-2.7-1.1-2.7-2.9v-0.7h1.7v0.8c0,0.8,0.4,1.1,0.9,1.1s0.9-0.3,0.9-1.1
		c0-2.4-3.6-2.9-3.6-6.2C80.1,28.6,81,27.6,82.8,27.6z"/>
	<path class="st0" d="M94.5,35v1.6c0,1.9-0.9,2.9-2.7,2.9S89,38.5,89,36.6v-6.1c0-1.9,0.9-2.9,2.7-2.9s2.7,1.1,2.7,2.9v1.1h-1.7
		v-1.3c0-0.8-0.4-1.2-1-1.2c-0.6,0-0.9,0.3-0.9,1.2v6.3c0,0.8,0.4,1.1,0.9,1.1c0.6,0,1-0.3,1-1.1V35H94.5z"/>
	<path class="st0" d="M95.5,30.5c0-1.9,1-2.9,2.8-2.9c1.8,0,2.8,1.1,2.8,2.9v6.1c0,1.9-1,2.9-2.8,2.9c-1.8,0-2.8-1.1-2.8-2.9V30.5z
		 M97.3,36.7c0,0.8,0.4,1.2,1,1.2c0.6,0,0.9-0.3,0.9-1.2v-6.3c0-0.8-0.4-1.2-0.9-1.2c-0.6,0-1,0.3-1,1.2V36.7z"/>
	<path class="st0" d="M106,39.4c-0.1-0.3-0.2-0.5-0.2-1.4v-1.8c0-1.1-0.4-1.5-1.2-1.5H104v4.8h-1.8V27.7h2.8c1.9,0,2.7,0.9,2.7,2.7
		v0.9c0,1.2-0.4,2-1.2,2.4c0.9,0.4,1.2,1.3,1.2,2.5V38c0,0.6,0,1,0.2,1.4H106z M104,29.4V33h0.7c0.7,0,1.1-0.3,1.1-1.2v-1.2
		c0-0.8-0.3-1.2-0.9-1.2H104z"/>
	<path class="st0" d="M114.3,30.6v1.5c0,1.9-0.9,2.9-2.7,2.9h-0.9v4.4h-1.8V27.7h2.7C113.4,27.7,114.3,28.7,114.3,30.6z M110.7,29.4
		v4h0.9c0.6,0,0.9-0.3,0.9-1.1v-1.8c0-0.8-0.3-1.1-0.9-1.1H110.7z"/>
	<path class="st0" d="M115.1,30.5c0-1.9,1-2.9,2.8-2.9c1.8,0,2.8,1.1,2.8,2.9v6.1c0,1.9-1,2.9-2.8,2.9c-1.8,0-2.8-1.1-2.8-2.9V30.5z
		 M117,36.7c0,0.8,0.4,1.2,1,1.2c0.6,0,0.9-0.3,0.9-1.2v-6.3c0-0.8-0.4-1.2-0.9-1.2c-0.6,0-1,0.3-1,1.2V36.7z"/>
	<path class="st0" d="M125.7,39.4c-0.1-0.3-0.2-0.5-0.2-1.4v-1.8c0-1.1-0.4-1.5-1.2-1.5h-0.6v4.8h-1.8V27.7h2.8
		c1.9,0,2.7,0.9,2.7,2.7v0.9c0,1.2-0.4,2-1.2,2.4c0.9,0.4,1.2,1.3,1.2,2.5V38c0,0.6,0,1,0.2,1.4H125.7z M123.7,29.4V33h0.7
		c0.7,0,1.1-0.3,1.1-1.2v-1.2c0-0.8-0.3-1.2-0.9-1.2H123.7z"/>
	<path class="st0" d="M134.5,39.4h-1.9l-0.3-2.1h-2.3l-0.3,2.1h-1.7l1.9-11.7h2.7L134.5,39.4z M130.3,35.7h1.8l-0.9-5.9L130.3,35.7z
		"/>
	<path class="st0" d="M134.8,27.7h5.7v1.7h-1.9v10h-1.8v-10h-1.9V27.7z"/>
	<path class="st0" d="M141.3,27.7h1.8v11.7h-1.8V27.7z"/>
	<path class="st0" d="M144.3,30.5c0-1.9,1-2.9,2.8-2.9c1.8,0,2.8,1.1,2.8,2.9v6.1c0,1.9-1,2.9-2.8,2.9c-1.8,0-2.8-1.1-2.8-2.9V30.5z
		 M146.1,36.7c0,0.8,0.4,1.2,1,1.2c0.6,0,0.9-0.3,0.9-1.2v-6.3c0-0.8-0.4-1.2-0.9-1.2c-0.6,0-1,0.3-1,1.2V36.7z"/>
	<path class="st0" d="M152.7,30.9v8.5H151V27.7h2.3l1.9,7v-7h1.6v11.7H155L152.7,30.9z"/>
</g>
<g>
	<path class="st0" d="M16.1,6.8C7.2,6.8,0,14,0,22.9c0,8.9,7.2,16.1,16.1,16.1s16.1-7.2,16.1-16.1C32.1,14,24.9,6.8,16.1,6.8z
		 M17,36c-6.4,0-11.7-5.2-11.7-11.7S10.5,12.6,17,12.6c6.4,0,11.7,5.2,11.7,11.7S23.4,36,17,36z"/>
	<path class="st0" d="M27.1,25.6c0,4.4-3.6,8-8.1,8c-4.5,0-8.1-3.6-8.1-8c0-4.4,3.6-8,8.1-8C23.5,17.6,27.1,21.2,27.1,25.6z"/>
</g>
</svg>
