<?xml version="1.0" encoding="utf-8"?>
<!-- Generator: Adobe Illustrator 23.0.0, SVG Export Plug-In . SVG Version: 6.00 Build 0)  -->
<svg version="1.1" id="Layer_1" xmlns="http://www.w3.org/2000/svg" xmlns:xlink="http://www.w3.org/1999/xlink" x="0px" y="0px"
	 viewBox="0 0 32.1 45.5" style="enable-background:new 0 0 32.1 45.5;" xml:space="preserve">
<style type="text/css">
	.st0{fill:#FFFFFF;}
	.st1{fill:#B0191F;}
</style>
<g>
	<path class="st0" d="M16.1,6.8C7.2,6.8,0,14,0,22.9c0,8.9,7.2,16.1,16.1,16.1s16.1-7.2,16.1-16.1C32.1,14,24.9,6.8,16.1,6.8z
		 M17,36c-6.4,0-11.7-5.2-11.7-11.7S10.5,12.6,17,12.6c6.4,0,11.7,5.2,11.7,11.7S23.4,36,17,36z"/>
	<path class="st0" d="M27.1,25.6c0,4.4-3.6,8-8.1,8c-4.5,0-8.1-3.6-8.1-8c0-4.4,3.6-8,8.1-8C23.5,17.6,27.1,21.2,27.1,25.6z"/>
</g>
</svg>
