<?xml version="1.0" encoding="utf-8"?>
<!-- Generator: Adobe Illustrator 23.0.0, SVG Export Plug-In . SVG Version: 6.00 Build 0)  -->
<svg version="1.1" id="Layer_1" xmlns="http://www.w3.org/2000/svg" xmlns:xlink="http://www.w3.org/1999/xlink" x="0px" y="0px"
	 viewBox="0 0 469.2 45.5" style="enable-background:new 0 0 469.2 45.5;" xml:space="preserve">
<style type="text/css">
	.st0{fill:#FFFFFF;}
	.st1{fill:#B0191F;}
</style>
<g>
	<path class="st0" d="M16.1,6.8C7.2,6.8,0,14,0,22.9c0,8.9,7.2,16.1,16.1,16.1s16.1-7.2,16.1-16.1C32.1,14,24.9,6.8,16.1,6.8z
		 M17,36c-6.4,0-11.7-5.2-11.7-11.7S10.5,12.6,17,12.6c6.4,0,11.7,5.2,11.7,11.7S23.4,36,17,36z"/>
	<path class="st0" d="M27.1,25.6c0,4.4-3.6,8-8.1,8c-4.5,0-8.1-3.6-8.1-8c0-4.4,3.6-8,8.1-8C23.5,17.6,27.1,21.2,27.1,25.6z"/>
</g>
<rect x="42.2" class="st0" width="3.1" height="45.1"/>
<g>
	<path class="st0" d="M58.6,9.8h6.9c4.4,0,6.5,2.4,6.5,6.9v14.1c0,4.5-2.2,6.9-6.5,6.9h-6.9V9.8z M63,13.8v20h2.5
		c1.4,0,2.2-0.7,2.2-2.7V16.5c0-2-0.8-2.7-2.2-2.7H63z"/>
	<path class="st0" d="M74.9,9.8h4.4v27.9h-4.4V9.8z"/>
	<path class="st0" d="M89.1,22.1h6.1V31c0,4.5-2.2,7-6.5,7s-6.5-2.6-6.5-7V16.5c0-4.5,2.2-7,6.5-7s6.5,2.6,6.5,7v2.7h-4.2v-3
		c0-2-0.9-2.8-2.3-2.8c-1.4,0-2.3,0.8-2.3,2.8v15.1c0,2,0.9,2.7,2.3,2.7c1.4,0,2.3-0.7,2.3-2.7v-5.1h-2V22.1z"/>
	<path class="st0" d="M98.1,9.8h4.4v27.9h-4.4V9.8z"/>
	<path class="st0" d="M104.4,9.8H118v4h-4.6v24H109v-24h-4.6V9.8z"/>
	<path class="st0" d="M132.6,37.7h-4.4l-0.8-5.1H122l-0.8,5.1h-4l4.5-27.9h6.4L132.6,37.7z M122.6,28.8h4.2l-2.1-14.1L122.6,28.8z"
		/>
	<path class="st0" d="M134.6,9.8h4.4v24h7.2v4h-11.6V9.8z"/>
	<path class="st0" d="M168.5,37.7h-4.4l-0.8-5.1H158l-0.8,5.1h-4l4.5-27.9h6.4L168.5,37.7z M158.5,28.8h4.2l-2.1-14.1L158.5,28.8z"
		/>
	<path class="st0" d="M179.8,37.7c-0.2-0.7-0.4-1.2-0.4-3.4v-4.4c0-2.6-0.9-3.6-2.9-3.6H175v11.4h-4.4V9.8h6.6
		c4.6,0,6.5,2.1,6.5,6.4v2.2c0,2.9-0.9,4.8-2.9,5.7c2.2,0.9,2.9,3,2.9,5.9v4.3c0,1.4,0,2.4,0.5,3.4H179.8z M175,13.8v8.6h1.7
		c1.6,0,2.6-0.7,2.6-3v-2.8c0-2-0.7-2.9-2.2-2.9H175z"/>
	<path class="st0" d="M185.3,9.8h13.6v4h-4.6v24h-4.4v-24h-4.6V9.8z"/>
	<path class="st0" d="M206.7,9.4c4.3,0,6.5,2.6,6.5,7v0.9h-4.2v-1.2c0-2-0.8-2.8-2.2-2.8c-1.4,0-2.2,0.8-2.2,2.8
		c0,5.7,8.6,6.8,8.6,14.8c0,4.5-2.2,7-6.5,7c-4.3,0-6.5-2.6-6.5-7v-1.7h4.2v2c0,2,0.9,2.7,2.3,2.7s2.3-0.7,2.3-2.7
		c0-5.7-8.6-6.8-8.6-14.8C200.3,12,202.5,9.4,206.7,9.4z"/>
	<path class="st0" d="M227.9,9.4c4.3,0,6.5,2.6,6.5,7v0.9h-4.2v-1.2c0-2-0.8-2.8-2.2-2.8c-1.4,0-2.2,0.8-2.2,2.8
		c0,5.7,8.6,6.8,8.6,14.8c0,4.5-2.2,7-6.5,7c-4.3,0-6.5-2.6-6.5-7v-1.7h4.2v2c0,2,0.9,2.7,2.3,2.7s2.3-0.7,2.3-2.7
		c0-5.7-8.6-6.8-8.6-14.8C221.4,12,223.6,9.4,227.9,9.4z"/>
	<path class="st0" d="M251.1,37.7h-4.4l-0.8-5.1h-5.4l-0.8,5.1h-4l4.5-27.9h6.4L251.1,37.7z M241.1,28.8h4.2l-2.1-14.1L241.1,28.8z"
		/>
	<path class="st0" d="M253.1,9.8h4.4v24h7.2v4h-11.6V9.8z"/>
	<path class="st0" d="M271,21.5h6v4h-6v8.2h7.6v4h-12V9.8h12v4H271V21.5z"/>
	<path class="st0" d="M287.3,9.4c4.3,0,6.5,2.6,6.5,7v0.9h-4.2v-1.2c0-2-0.8-2.8-2.2-2.8c-1.4,0-2.2,0.8-2.2,2.8
		c0,5.7,8.6,6.8,8.6,14.8c0,4.5-2.2,7-6.5,7c-4.3,0-6.5-2.6-6.5-7v-1.7h4.2v2c0,2,0.9,2.7,2.3,2.7s2.3-0.7,2.3-2.7
		c0-5.7-8.6-6.8-8.6-14.8C280.8,12,283,9.4,287.3,9.4z"/>
	<path class="st0" d="M315.2,27.3V31c0,4.5-2.2,7-6.5,7c-4.3,0-6.5-2.6-6.5-7V16.5c0-4.5,2.2-7,6.5-7c4.3,0,6.5,2.6,6.5,7v2.7H311
		v-3c0-2-0.9-2.8-2.3-2.8c-1.4,0-2.3,0.8-2.3,2.8v15.1c0,2,0.9,2.7,2.3,2.7c1.4,0,2.3-0.7,2.3-2.7v-4H315.2z"/>
	<path class="st0" d="M317.5,16.5c0-4.5,2.4-7,6.7-7c4.3,0,6.7,2.6,6.7,7V31c0,4.5-2.4,7-6.7,7c-4.3,0-6.7-2.6-6.7-7V16.5z
		 M321.9,31.3c0,2,0.9,2.8,2.3,2.8c1.4,0,2.3-0.8,2.3-2.8V16.2c0-2-0.9-2.8-2.3-2.8c-1.4,0-2.3,0.8-2.3,2.8V31.3z"/>
	<path class="st0" d="M342.9,37.7c-0.2-0.7-0.4-1.2-0.4-3.4v-4.4c0-2.6-0.9-3.6-2.9-3.6h-1.5v11.4h-4.4V9.8h6.6
		c4.6,0,6.5,2.1,6.5,6.4v2.2c0,2.9-0.9,4.8-2.9,5.7c2.2,0.9,2.9,3,2.9,5.9v4.3c0,1.4,0,2.4,0.5,3.4H342.9z M338.1,13.8v8.6h1.7
		c1.6,0,2.6-0.7,2.6-3v-2.8c0-2-0.7-2.9-2.2-2.9H338.1z"/>
	<path class="st0" d="M362.7,16.7v3.6c0,4.5-2.2,6.9-6.5,6.9h-2.1v10.5h-4.4V9.8h6.5C360.6,9.8,362.7,12.2,362.7,16.7z M354.1,13.8
		v9.5h2.1c1.4,0,2.2-0.6,2.2-2.6v-4.2c0-2-0.8-2.6-2.2-2.6H354.1z"/>
	<path class="st0" d="M364.6,16.5c0-4.5,2.4-7,6.7-7c4.3,0,6.7,2.6,6.7,7V31c0,4.5-2.4,7-6.7,7c-4.3,0-6.7-2.6-6.7-7V16.5z
		 M369,31.3c0,2,0.9,2.8,2.3,2.8c1.4,0,2.3-0.8,2.3-2.8V16.2c0-2-0.9-2.8-2.3-2.8c-1.4,0-2.3,0.8-2.3,2.8V31.3z"/>
	<path class="st0" d="M390,37.7c-0.2-0.7-0.4-1.2-0.4-3.4v-4.4c0-2.6-0.9-3.6-2.9-3.6h-1.5v11.4h-4.4V9.8h6.6c4.6,0,6.5,2.1,6.5,6.4
		v2.2c0,2.9-0.9,4.8-2.9,5.7c2.2,0.9,2.9,3,2.9,5.9v4.3c0,1.4,0,2.4,0.5,3.4H390z M385.2,13.8v8.6h1.7c1.6,0,2.6-0.7,2.6-3v-2.8
		c0-2-0.7-2.9-2.2-2.9H385.2z"/>
	<path class="st0" d="M411,37.7h-4.4l-0.8-5.1h-5.4l-0.8,5.1h-4l4.5-27.9h6.4L411,37.7z M401,28.8h4.2l-2.1-14.1L401,28.8z"/>
	<path class="st0" d="M411.8,9.8h13.6v4h-4.6v24h-4.4v-24h-4.6V9.8z"/>
	<path class="st0" d="M427.3,9.8h4.4v27.9h-4.4V9.8z"/>
	<path class="st0" d="M434.5,16.5c0-4.5,2.4-7,6.7-7c4.3,0,6.7,2.6,6.7,7V31c0,4.5-2.4,7-6.7,7c-4.3,0-6.7-2.6-6.7-7V16.5z
		 M438.9,31.3c0,2,0.9,2.8,2.3,2.8c1.4,0,2.3-0.8,2.3-2.8V16.2c0-2-0.9-2.8-2.3-2.8c-1.4,0-2.3,0.8-2.3,2.8V31.3z"/>
	<path class="st0" d="M454.6,17.5v20.2h-4V9.8h5.5l4.5,16.7V9.8h3.9v27.9h-4.5L454.6,17.5z"/>
</g>
</svg>
