<?xml version="1.0" encoding="utf-8"?>
<!-- Generator: Adobe Illustrator 16.0.0, SVG Export Plug-In . SVG Version: 6.00 Build 0)  -->
<!DOCTYPE svg PUBLIC "-//W3C//DTD SVG 1.1//EN" "http://www.w3.org/Graphics/SVG/1.1/DTD/svg11.dtd">
<svg version="1.1" id="Layer_1" xmlns="http://www.w3.org/2000/svg" xmlns:xlink="http://www.w3.org/1999/xlink" x="0px" y="0px"
	 width="700px" height="201.213px" viewBox="0 98.5 700 201.213" enable-background="new 0 98.5 700 201.213" xml:space="preserve">
<rect x="188.273" y="98.502" fill="#AA0909" width="13.83" height="201.21"/>
<g>
	<path fill="#AA0909" d="M247.61,132.855h12.938c8.03,0,12.046,4.461,12.046,12.938v26.323c0,8.477-4.016,12.938-12.046,12.938
		H247.61V132.855z M256.087,140.44v37.03h4.461c2.677,0,4.015-1.338,4.015-4.908v-27.215c0-3.569-1.338-4.907-4.015-4.907H256.087z"
		/>
	<path fill="#AA0909" d="M277.948,132.855h8.031v52.199h-8.031V132.855z"/>
	<path fill="#AA0909" d="M304.716,156.055h11.6v16.507c0,8.477-4.015,12.938-12.045,12.938c-8.031,0-12.046-4.908-12.046-12.938
		v-27.215c0-8.477,4.015-12.938,12.046-12.938c8.03,0,12.045,4.908,12.045,12.938v4.908h-7.584v-5.8
		c0-3.569-1.785-5.354-4.461-5.354c-2.677,0-4.016,1.338-4.016,5.354v28.107c0,3.569,1.785,4.908,4.016,4.908
		c2.677,0,4.461-1.338,4.461-4.908v-9.815h-3.569v-6.692H304.716z"/>
	<path fill="#AA0909" d="M321.224,132.855h8.031v52.199h-8.031V132.855z"/>
	<path fill="#AA0909" d="M332.823,132.855h25.431v7.584h-8.477v44.614h-8.031V140.44h-8.477v-7.584H332.823z"/>
	<path fill="#AA0909" d="M385.469,185.054h-8.477l-1.339-9.369h-9.815l-1.338,9.369h-7.585l8.478-52.199h12.045L385.469,185.054z
		 M366.73,168.547h8.031l-4.016-26.323L366.73,168.547z"/>
	<path fill="#AA0909" d="M389.484,132.855h8.03v44.614h13.384v7.584h-21.861v-52.199H389.484z"/>
	<path fill="#AA0909" d="M452.39,185.054h-8.477l-1.338-9.369h-9.815l-1.339,9.369h-7.584l8.477-52.199h12.046L452.39,185.054z
		 M434.099,168.547h7.584l-4.016-26.323L434.099,168.547z"/>
	<path fill="#AA0909" d="M473.358,185.054c-0.445-1.338-0.892-2.231-0.892-6.246v-8.031c0-4.907-1.785-6.692-5.354-6.692h-2.678
		V185.5h-8.03v-52.645h12.492c8.477,0,12.046,4.015,12.046,12.046v4.015c0,5.354-1.784,8.923-5.354,10.708
		c4.015,1.785,5.354,5.8,5.354,11.153v8.031c0,2.677,0,4.461,0.893,6.246H473.358z M464.436,140.44v16.061h3.123
		c3.123,0,4.908-1.338,4.908-5.354v-5.354c0-3.569-1.339-5.354-4.016-5.354H464.436z"/>
	<path fill="#AA0909" d="M484.066,132.855h25.43v7.584h-8.477v44.614h-8.03V140.44h-8.477v-7.584H484.066z"/>
	<path fill="#AA0909" d="M523.773,132.409c8.03,0,12.046,4.908,12.046,12.938v1.785h-7.585v-2.23c0-3.569-1.338-5.354-4.016-5.354
		c-2.677,0-4.015,1.338-4.015,5.354c0,10.708,16.062,12.938,16.062,27.661c0,8.477-4.016,12.938-12.047,12.938
		c-8.03,0-12.045-4.908-12.045-12.938v-3.123h7.584v3.569c0,3.569,1.784,4.908,4.016,4.908c2.23,0,4.015-1.338,4.015-4.908
		c0-10.708-16.061-12.938-16.061-27.661C511.728,136.871,515.742,132.409,523.773,132.409z"/>
	<path fill="#AA0909" d="M258.764,221.639c8.03,0,12.046,4.906,12.046,12.938v1.785h-7.584v-2.231c0-3.569-1.338-5.354-4.016-5.354
		c-2.677,0-4.015,1.339-4.015,5.354c0,10.708,16.061,12.938,16.061,27.661c0,8.477-4.015,12.938-12.046,12.938
		c-8.03,0-12.046-4.906-12.046-12.938v-3.123h7.139v3.569c0,3.569,1.785,4.907,4.015,4.907c2.677,0,4.015-1.338,4.015-4.907
		c0-10.708-16.061-12.938-16.061-27.661C246.718,226.1,250.733,221.639,258.764,221.639z"/>
	<path fill="#AA0909" d="M302.04,274.283h-8.477l-1.339-9.369h-9.815l-1.338,9.369h-7.584l8.477-52.199h12.046L302.04,274.283z
		 M283.301,257.775h8.031l-4.015-26.322L283.301,257.775z"/>
	<path fill="#AA0909" d="M306.055,222.084h8.031v44.615h13.384v7.584h-21.861v-52.199H306.055z"/>
	<path fill="#AA0909" d="M339.069,243.945h11.154v7.584h-11.154v15.17h14.276v7.584h-22.307v-52.199h22.307v7.584h-14.276V243.945z"
		/>
	<path fill="#AA0909" d="M369.407,221.639c8.03,0,12.046,4.906,12.046,12.938v1.785h-7.584v-2.231c0-3.569-1.339-5.354-4.016-5.354
		s-4.016,1.339-4.016,5.354c0,10.708,16.062,12.938,16.062,27.661c0,8.477-4.016,12.938-12.046,12.938
		c-8.031,0-12.046-4.906-12.046-12.938v-3.123h7.585v3.569c0,3.569,1.784,4.907,4.015,4.907c2.231,0,4.016-1.338,4.016-4.907
		c0-10.708-16.062-12.938-16.062-27.661C357.361,226.1,361.377,221.639,369.407,221.639z"/>
	<path fill="#AA0909" d="M421.606,254.652v7.139c0,8.477-4.016,12.938-12.046,12.938c-8.031,0-12.492-4.461-12.492-12.938v-27.215
		c0-8.477,4.016-12.938,12.046-12.938s12.046,4.906,12.046,12.938v4.908h-7.585v-5.801c0-3.568-1.784-5.354-4.461-5.354
		s-4.016,1.338-4.016,5.354v28.107c0,3.568,1.785,4.908,4.016,4.908c2.677,0,4.461-1.34,4.461-4.908v-7.139H421.606z"/>
	<path fill="#AA0909" d="M426.067,234.576c0-8.477,4.462-12.938,12.492-12.938s12.492,4.906,12.492,12.938v27.215
		c0,8.477-4.462,12.938-12.492,12.938s-12.492-4.906-12.492-12.938V234.576z M434.099,262.237c0,3.569,1.784,5.354,4.461,5.354
		s4.016-1.339,4.016-5.354V234.13c0-3.569-1.785-5.354-4.016-5.354c-2.677,0-4.461,1.339-4.461,5.354V262.237z"/>
	<path fill="#AA0909" d="M472.913,274.283c-0.446-1.339-0.893-2.23-0.893-6.246v-8.031c0-4.907-1.784-6.691-5.354-6.691h-2.677
		v21.414h-8.031v-52.645h12.492c8.477,0,12.046,4.016,12.046,12.046v4.016c0,5.354-1.784,8.923-5.354,10.707
		c4.016,1.784,5.354,5.8,5.354,11.153v8.031c0,2.677,0,4.461,0.893,6.246H472.913z M463.99,229.668v16.063h3.123
		c3.122,0,4.907-1.339,4.907-5.354v-5.354c0-3.569-1.339-5.354-4.016-5.354H463.99z"/>
	<path fill="#AA0909" d="M509.942,235.022v6.692c0,8.477-4.015,12.938-12.046,12.938h-4.015v19.631h-8.031v-52.199h12.046
		C505.928,222.084,509.942,226.545,509.942,235.022z M493.882,229.668v17.846h4.015c2.677,0,4.016-1.338,4.016-4.906v-8.031
		c0-3.569-1.339-4.908-4.016-4.908H493.882z"/>
	<path fill="#AA0909" d="M513.512,234.576c0-8.477,4.462-12.938,12.492-12.938s12.492,4.906,12.492,12.938v27.215
		c0,8.477-4.462,12.938-12.492,12.938s-12.492-4.906-12.492-12.938V234.576z M521.988,262.237c0,3.569,1.785,5.354,4.462,5.354
		s4.015-1.339,4.015-5.354V234.13c0-3.569-1.784-5.354-4.015-5.354c-2.677,0-4.462,1.339-4.462,5.354V262.237z"/>
	<path fill="#AA0909" d="M560.803,274.283c-0.445-1.339-0.892-2.23-0.892-6.246v-8.031c0-4.907-1.785-6.691-5.354-6.691h-2.677
		v21.414h-8.03v-52.645h12.492c8.477,0,12.046,4.016,12.046,12.046v4.016c0,5.354-1.785,8.923-5.354,10.707
		c4.015,1.784,5.354,5.8,5.354,11.153v8.031c0,2.677,0,4.461,0.892,6.246H560.803z M551.88,229.668v16.063h3.123
		c3.123,0,4.908-1.339,4.908-5.354v-5.354c0-3.569-1.339-5.354-4.016-5.354H551.88z"/>
	<path fill="#AA0909" d="M600.063,274.283h-8.477l-1.338-9.369h-10.262l-1.339,9.369h-7.584l8.477-52.199h12.046L600.063,274.283z
		 M581.326,257.775h8.03l-4.016-26.322L581.326,257.775z"/>
	<path fill="#AA0909" d="M601.402,222.084h25.43v7.584h-8.477v44.615h-8.03v-44.615h-8.477v-7.584H601.402z"/>
	<path fill="#AA0909" d="M630.401,222.084h8.031v52.199h-8.031V222.084z"/>
	<path fill="#AA0909" d="M643.786,234.576c0-8.477,4.461-12.938,12.492-12.938c8.03,0,12.491,4.906,12.491,12.938v27.215
		c0,8.477-4.461,12.938-12.491,12.938c-8.031,0-12.492-4.906-12.492-12.938V234.576z M651.816,262.237
		c0,3.569,1.784,5.354,4.462,5.354c2.677,0,4.015-1.339,4.015-5.354V234.13c0-3.569-1.784-5.354-4.015-5.354
		c-2.678,0-4.462,1.339-4.462,5.354V262.237z"/>
	<path fill="#AA0909" d="M681.262,236.361v37.922h-7.584v-52.199h10.261l8.478,31.23v-31.23h7.138v52.199h-8.03L681.262,236.361z"/>
</g>
<g>
	<path fill="#AA0909" d="M71.829,128.84C32.123,128.84,0,160.962,0,200.67c0,39.706,32.123,71.828,71.829,71.828
		c39.707,0,71.829-32.122,71.829-71.828C143.212,160.962,111.09,128.84,71.829,128.84z M75.845,259.114
		c-28.553,0-52.199-23.2-52.199-52.199s23.2-52.199,52.199-52.199c28.553,0,52.199,23.2,52.199,52.199
		S104.397,259.114,75.845,259.114z"/>
	<path fill="#AA0909" d="M120.905,212.715c0,19.631-16.062,35.691-36.138,35.691c-20.077,0-36.138-16.061-36.138-35.691
		c0-19.63,16.061-35.691,36.138-35.691C104.844,177.023,120.905,193.085,120.905,212.715z"/>
</g>
</svg>
