<?xml version="1.0" encoding="utf-8"?>
<!-- Generator: Adobe Illustrator 23.0.0, SVG Export Plug-In . SVG Version: 6.00 Build 0)  -->
<svg version="1.1" id="Layer_1" xmlns="http://www.w3.org/2000/svg" xmlns:xlink="http://www.w3.org/1999/xlink" x="0px" y="0px"
	 viewBox="0 0 143.7 201.2" style="enable-background:new 0 0 143.7 201.2;" xml:space="preserve">
<style type="text/css">
	.st0{fill:#AA0909;}
</style>
<rect x="188.3" class="st0" width="13.8" height="201.2"/>
<g>
	<path class="st0" d="M247.6,34.4h12.9c8,0,12,4.5,12,12.9v26.3c0,8.5-4,12.9-12,12.9h-12.9V34.4z M256.1,41.9v37h4.5
		c2.7,0,4-1.3,4-4.9V46.8c0-3.6-1.3-4.9-4-4.9C260.6,41.9,256.1,41.9,256.1,41.9z"/>
	<path class="st0" d="M277.9,34.4h8v52.2h-8V34.4z"/>
	<path class="st0" d="M304.7,57.6h11.6v16.5c0,8.5-4,12.9-12,12.9s-12-4.9-12-12.9V46.8c0-8.5,4-12.9,12-12.9s12,4.9,12,12.9v4.9
		h-7.6V46c0-3.6-1.8-5.4-4.5-5.4s-4,1.3-4,5.4v28.1c0,3.6,1.8,4.9,4,4.9c2.7,0,4.5-1.3,4.5-4.9v-9.8h-3.6v-6.7
		C305.1,57.6,304.7,57.6,304.7,57.6z"/>
	<path class="st0" d="M321.2,34.4h8v52.2h-8V34.4z"/>
	<path class="st0" d="M332.8,34.4h25.4V42h-8.5v44.6h-8V41.9h-8.5v-7.6L332.8,34.4L332.8,34.4z"/>
	<path class="st0" d="M385.5,86.6H377l-1.3-9.4h-9.8l-1.3,9.4H357l8.5-52.2h12L385.5,86.6z M366.7,70h8l-4-26.3L366.7,70z"/>
	<path class="st0" d="M389.5,34.4h8V79h13.4v7.6H389V34.4H389.5L389.5,34.4z"/>
	<path class="st0" d="M452.4,86.6h-8.5l-1.3-9.4h-9.8l-1.3,9.4h-7.6l8.5-52.2h12L452.4,86.6z M434.1,70h7.6l-4-26.3L434.1,70z"/>
	<path class="st0" d="M473.4,86.6c-0.4-1.3-0.9-2.2-0.9-6.2v-8c0-4.9-1.8-6.7-5.4-6.7h-2.7V87h-8V34.4h12.5c8.5,0,12,4,12,12v4
		c0,5.4-1.8,8.9-5.4,10.7c4,1.8,5.4,5.8,5.4,11.2v8c0,2.7,0,4.5,0.9,6.2L473.4,86.6L473.4,86.6z M464.4,41.9V58h3.1
		c3.1,0,4.9-1.3,4.9-5.4v-5.4c0-3.6-1.3-5.4-4-5.4L464.4,41.9L464.4,41.9z"/>
	<path class="st0" d="M484.1,34.4h25.4V42H501v44.6h-8V41.9h-8.5v-7.6L484.1,34.4L484.1,34.4z"/>
	<path class="st0" d="M523.8,33.9c8,0,12,4.9,12,12.9v1.8h-7.6v-2.2c0-3.6-1.3-5.4-4-5.4s-4,1.3-4,5.4c0,10.7,16.1,12.9,16.1,27.7
		c0,8.5-4,12.9-12,12.9s-12-4.9-12-12.9V71h7.6v3.6c0,3.6,1.8,4.9,4,4.9s4-1.3,4-4.9c0-10.7-16.1-12.9-16.1-27.7
		C511.7,38.4,515.7,33.9,523.8,33.9z"/>
	<path class="st0" d="M258.8,123.1c8,0,12,4.9,12,12.9v1.8h-7.6v-2.2c0-3.6-1.3-5.4-4-5.4s-4,1.3-4,5.4c0,10.7,16.1,12.9,16.1,27.7
		c0,8.5-4,12.9-12,12.9s-12-4.9-12-12.9v-3.1h7.1v3.6c0,3.6,1.8,4.9,4,4.9c2.7,0,4-1.3,4-4.9c0-10.7-16.1-12.9-16.1-27.7
		C246.7,127.6,250.7,123.1,258.8,123.1z"/>
	<path class="st0" d="M302,175.8h-8.5l-1.3-9.4h-9.8l-1.3,9.4h-7.6l8.5-52.2h12L302,175.8z M283.3,159.3h8l-4-26.3L283.3,159.3z"/>
	<path class="st0" d="M306.1,123.6h8v44.6h13.4v7.6h-21.9v-52.2L306.1,123.6L306.1,123.6z"/>
	<path class="st0" d="M339.1,145.4h11.2v7.6h-11.2v15.2h14.3v7.6H331v-52.2h22.3v7.6H339v14.2H339.1z"/>
	<path class="st0" d="M369.4,123.1c8,0,12,4.9,12,12.9v1.8h-7.6v-2.2c0-3.6-1.3-5.4-4-5.4s-4,1.3-4,5.4c0,10.7,16.1,12.9,16.1,27.7
		c0,8.5-4,12.9-12,12.9s-12-4.9-12-12.9v-3.1h7.6v3.6c0,3.6,1.8,4.9,4,4.9s4-1.3,4-4.9c0-10.7-16.1-12.9-16.1-27.7
		C357.4,127.6,361.4,123.1,369.4,123.1z"/>
	<path class="st0" d="M421.6,156.2v7.1c0,8.5-4,12.9-12,12.9s-12.5-4.5-12.5-12.9v-27.2c0-8.5,4-12.9,12-12.9s12,4.9,12,12.9v4.9
		h-7.6v-5.8c0-3.6-1.8-5.4-4.5-5.4s-4,1.3-4,5.4v28.1c0,3.6,1.8,4.9,4,4.9c2.7,0,4.5-1.3,4.5-4.9v-7.1H421.6L421.6,156.2z"/>
	<path class="st0" d="M426.1,136.1c0-8.5,4.5-12.9,12.5-12.9s12.5,4.9,12.5,12.9v27.2c0,8.5-4.5,12.9-12.5,12.9s-12.5-4.9-12.5-12.9
		V136.1z M434.1,163.7c0,3.6,1.8,5.4,4.5,5.4s4-1.3,4-5.4v-28.1c0-3.6-1.8-5.4-4-5.4c-2.7,0-4.5,1.3-4.5,5.4V163.7z"/>
	<path class="st0" d="M472.9,175.8c-0.4-1.3-0.9-2.2-0.9-6.2v-8c0-4.9-1.8-6.7-5.4-6.7H464v21.4h-8v-52.6h12.5c8.5,0,12,4,12,12v4
		c0,5.4-1.8,8.9-5.4,10.7c4,1.8,5.4,5.8,5.4,11.2v8c0,2.7,0,4.5,0.9,6.2H472.9z M464,131.2v16.1h3.1c3.1,0,4.9-1.3,4.9-5.4v-5.4
		c0-3.6-1.3-5.4-4-5.4L464,131.2L464,131.2z"/>
	<path class="st0" d="M509.9,136.5v6.7c0,8.5-4,12.9-12,12.9h-4v19.6h-8v-52.2h12C505.9,123.6,509.9,128,509.9,136.5z M493.9,131.2
		V149h4c2.7,0,4-1.3,4-4.9v-8c0-3.6-1.3-4.9-4-4.9L493.9,131.2L493.9,131.2z"/>
	<path class="st0" d="M513.5,136.1c0-8.5,4.5-12.9,12.5-12.9s12.5,4.9,12.5,12.9v27.2c0,8.5-4.5,12.9-12.5,12.9s-12.5-4.9-12.5-12.9
		V136.1z M522,163.7c0,3.6,1.8,5.4,4.5,5.4s4-1.3,4-5.4v-28.1c0-3.6-1.8-5.4-4-5.4c-2.7,0-4.5,1.3-4.5,5.4V163.7z"/>
	<path class="st0" d="M560.8,175.8c-0.4-1.3-0.9-2.2-0.9-6.2v-8c0-4.9-1.8-6.7-5.4-6.7h-2.7v21.4h-8v-52.6h12.5c8.5,0,12,4,12,12v4
		c0,5.4-1.8,8.9-5.4,10.7c4,1.8,5.4,5.8,5.4,11.2v8c0,2.7,0,4.5,0.9,6.2H560.8z M551.9,131.2v16.1h3.1c3.1,0,4.9-1.3,4.9-5.4v-5.4
		c0-3.6-1.3-5.4-4-5.4L551.9,131.2L551.9,131.2z"/>
	<path class="st0" d="M600.1,175.8h-8.5l-1.3-9.4H580l-1.3,9.4h-7.6l8.5-52.2h12L600.1,175.8z M581.3,159.3h8l-4-26.3L581.3,159.3z"
		/>
	<path class="st0" d="M601.4,123.6h25.4v7.6h-8.5v44.6h-8v-44.6h-8.5v-7.6L601.4,123.6L601.4,123.6z"/>
	<path class="st0" d="M630.4,123.6h8v52.2h-8V123.6z"/>
	<path class="st0" d="M643.8,136.1c0-8.5,4.5-12.9,12.5-12.9s12.5,4.9,12.5,12.9v27.2c0,8.5-4.5,12.9-12.5,12.9s-12.5-4.9-12.5-12.9
		V136.1z M651.8,163.7c0,3.6,1.8,5.4,4.5,5.4s4-1.3,4-5.4v-28.1c0-3.6-1.8-5.4-4-5.4c-2.7,0-4.5,1.3-4.5,5.4V163.7z"/>
	<path class="st0" d="M681.3,137.9v37.9h-7.6v-52.2H684l8.5,31.2v-31.2h7.1v52.2h-8L681.3,137.9z"/>
</g>
<g>
	<path class="st0" d="M71.8,12C32.1,12,0,44.2,0,83.9s32.1,71.8,71.8,71.8s71.8-32.1,71.8-71.8C143.3,44.2,111.1,12,71.8,12z
		 M75.8,142.3c-28.6,0-52.2-23.2-52.2-52.2s23.2-52.2,52.2-52.2c28.6,0,52.2,23.2,52.2,52.2S104.4,142.3,75.8,142.3z"/>
	<path class="st0" d="M120.9,95.9c0,19.6-16.1,35.7-36.1,35.7c-20.1,0-36.1-16.1-36.1-35.7s16.1-35.7,36.1-35.7
		S120.9,76.3,120.9,95.9z"/>
</g>
</svg>
