<?xml version="1.0" encoding="utf-8"?>
<!-- Generator: Adobe Illustrator 23.0.0, SVG Export Plug-In . SVG Version: 6.00 Build 0)  -->
<svg version="1.1" xmlns="http://www.w3.org/2000/svg" xmlns:xlink="http://www.w3.org/1999/xlink" x="0px" y="0px"
	 viewBox="0 0 1400 1400" style="enable-background:new 0 0 1400 1400;" xml:space="preserve">
<style type="text/css">
	.st0{display:none;}
	.st1{display:inline;}
	.st2{fill:#010101;}
	.st3{fill:#020202;}
	.st4{fill:#040302;}
	.st5{fill:#050403;}
	.st6{fill:#060404;}
	.st7{fill:#080505;}
	.st8{fill:#090605;}
	.st9{fill:#0A0706;}
	.st10{fill:#0C0807;}
	.st11{fill:#0D0907;}
	.st12{fill:#0E0908;}
	.st13{fill:#0F0A09;}
	.st14{fill:#100B09;}
	.st15{fill:#120C0A;}
	.st16{fill:#130C0B;}
	.st17{fill:#140D0B;}
	.st18{fill:#150E0C;}
	.st19{fill:#160E0C;}
	.st20{fill:#170F0D;}
	.st21{fill:#18100D;}
	.st22{fill:#18100E;}
	.st23{fill:#19110E;}
	.st24{fill:#1A110F;}
	.st25{fill:#1B120F;}
	.st26{fill:#1C1210;}
	.st27{fill:#1D1310;}
	.st28{fill:#1E1311;}
	.st29{fill:#1F1411;}
	.st30{fill:#201512;}
	.st31{fill:#211512;}
	.st32{fill:#221612;}
	.st33{fill:#231613;}
	.st34{fill:#241613;}
	.st35{fill:#241714;}
	.st36{fill:#251714;}
	.st37{fill:#261814;}
	.st38{fill:#271815;}
	.st39{fill:#281815;}
	.st40{fill:#281915;}
	.st41{fill:#291915;}
	.st42{fill:#2A1A16;}
	.st43{fill:#2B1A16;}
	.st44{fill:#2C1B17;}
	.st45{fill:#2D1B17;}
	.st46{fill:#2E1B17;}
	.st47{fill:#2E1C17;}
	.st48{fill:#2F1C18;}
	.st49{fill:#301C18;}
	.st50{fill:#311C18;}
	.st51{fill:#311D18;}
	.st52{fill:#321D18;}
	.st53{fill:#331D19;}
	.st54{fill:#341E19;}
	.st55{fill:#351E19;}
	.st56{fill:#361E19;}
	.st57{fill:#371F1A;}
	.st58{fill:#381F1A;}
	.st59{fill:#391F1A;}
	.st60{fill:#39201A;}
	.st61{fill:#3A201B;}
	.st62{fill:#3B201B;}
	.st63{fill:#3C201B;}
	.st64{fill:#3C211B;}
	.st65{fill:#3D211B;}
	.st66{fill:#3E211B;}
	.st67{fill:#3F211C;}
	.st68{fill:#3F221C;}
	.st69{fill:#40221C;}
	.st70{fill:#41221C;}
	.st71{fill:#42221C;}
	.st72{fill:#43231D;}
	.st73{fill:#44231D;}
	.st74{fill:#45231D;}
	.st75{fill:#46231D;}
	.st76{fill:#47241D;}
	.st77{fill:#48241D;}
	.st78{fill:#49241E;}
	.st79{fill:#4A241E;}
	.st80{fill:#4B251E;}
	.st81{fill:#4C251E;}
	.st82{fill:#4D251E;}
	.st83{fill:#4E251E;}
	.st84{fill:#4F251E;}
	.st85{fill:#4F261E;}
	.st86{fill:#50261F;}
	.st87{fill:#51261F;}
	.st88{fill:#52261F;}
	.st89{fill:#53261F;}
	.st90{fill:#54261F;}
	.st91{fill:#55271F;}
	.st92{fill:#56271F;}
	.st93{fill:#57271F;}
	.st94{fill:#582720;}
	.st95{fill:#592720;}
	.st96{fill:#5A2720;}
	.st97{fill:#5B2820;}
	.st98{fill:#5C2820;}
	.st99{fill:#5D2820;}
	.st100{fill:#5E2820;}
	.st101{fill:#5F2820;}
	.st102{fill:#602820;}
	.st103{fill:#612820;}
	.st104{fill:#622821;}
	.st105{fill:#632921;}
	.st106{fill:#642921;}
	.st107{fill:#652921;}
	.st108{fill:#662921;}
	.st109{fill:#672921;}
	.st110{fill:#682921;}
	.st111{fill:#692921;}
	.st112{fill:#6A2921;}
	.st113{fill:#6B2921;}
	.st114{fill:#6C2922;}
	.st115{fill:#6D2922;}
	.st116{fill:#6E2922;}
	.st117{fill:#6F2A22;}
	.st118{fill:#702A22;}
	.st119{fill:#712A22;}
	.st120{fill:#722A22;}
	.st121{fill:#732A22;}
	.st122{fill:#742A22;}
	.st123{fill:#752A22;}
	.st124{fill:#762A22;}
	.st125{fill:#772A22;}
	.st126{fill:#782A23;}
	.st127{fill:#792A23;}
	.st128{fill:#7A2A23;}
	.st129{fill:#7B2A23;}
	.st130{fill:#7C2A23;}
	.st131{fill:#7D2A23;}
	.st132{fill:#7E2A23;}
	.st133{fill:#7F2A23;}
	.st134{fill:#802A23;}
	.st135{fill:#812A23;}
	.st136{fill:#822A23;}
	.st137{fill:#832A23;}
	.st138{fill:#842A23;}
	.st139{fill:#852A23;}
	.st140{fill:#862A23;}
	.st141{fill:#872923;}
	.st142{fill:#882923;}
	.st143{fill:#892923;}
	.st144{fill:#8A2923;}
	.st145{fill:#8B2923;}
	.st146{fill:#8C2923;}
	.st147{fill:#8D2923;}
	.st148{fill:#8E2924;}
	.st149{fill:#8F2924;}
	.st150{fill:#902824;}
	.st151{fill:#912824;}
	.st152{fill:#922824;}
	.st153{fill:#932824;}
	.st154{fill:#942824;}
	.st155{fill:#952824;}
	.st156{fill:#962824;}
	.st157{fill:#972724;}
	.st158{fill:#982724;}
	.st159{fill:#992724;}
	.st160{fill:#9A2724;}
	.st161{fill:#9B2724;}
	.st162{fill:#9C2624;}
	.st163{fill:#9D2624;}
	.st164{fill:#9E2624;}
	.st165{fill:#9F2524;}
	.st166{fill:#A02524;}
	.st167{fill:#A12524;}
	.st168{fill:#A22524;}
	.st169{fill:#A32424;}
	.st170{fill:#A42424;}
	.st171{fill:#A52424;}
	.st172{fill:#A62324;}
	.st173{fill:#A72324;}
	.st174{fill:#A82324;}
	.st175{fill:#A92324;}
	.st176{fill:#AA2224;}
	.st177{fill:#AB2224;}
	.st178{fill:#AC2124;}
	.st179{fill:#AD2124;}
	.st180{fill:#AE2124;}
	.st181{fill:#AF2024;}
	.st182{fill:#B02024;}
	.st183{fill:url(#SVGID_1_);}
	.st184{fill:#DBD123;}
	.st185{fill:#030202;}
	.st186{fill:#040303;}
	.st187{fill:#070504;}
	.st188{fill:#0D0908;}
	.st189{fill:#110C0A;}
	.st190{fill:#130D0B;}
	.st191{fill:#140D0C;}
	.st192{fill:#160F0D;}
	.st193{fill:#17100E;}
	.st194{fill:#221613;}
	.st195{fill:#251815;}
	.st196{fill:#261815;}
	.st197{fill:#271916;}
	.st198{fill:#281916;}
	.st199{fill:#291A16;}
	.st200{fill:#2A1A17;}
	.st201{fill:#2B1B17;}
	.st202{fill:#2D1B18;}
	.st203{fill:#2E1C18;}
	.st204{fill:#301D19;}
	.st205{fill:#311D19;}
	.st206{fill:#321E1A;}
	.st207{fill:#331E1A;}
	.st208{fill:#341E1A;}
	.st209{fill:#351F1A;}
	.st210{fill:#361F1B;}
	.st211{fill:#37201B;}
	.st212{fill:#38201B;}
	.st213{fill:#39201C;}
	.st214{fill:#3A211C;}
	.st215{fill:#3B211C;}
	.st216{fill:#3C211C;}
	.st217{fill:#3D221D;}
	.st218{fill:#3E221D;}
	.st219{fill:#3F231D;}
	.st220{fill:#40231E;}
	.st221{fill:#41231E;}
	.st222{fill:#42241E;}
	.st223{fill:#43241E;}
	.st224{fill:#44241F;}
	.st225{fill:#45251F;}
	.st226{fill:#46251F;}
	.st227{fill:#47251F;}
	.st228{fill:#48251F;}
	.st229{fill:#49261F;}
	.st230{fill:#4A2620;}
	.st231{fill:#4B2620;}
	.st232{fill:#4C2720;}
	.st233{fill:#4D2720;}
	.st234{fill:#4E2721;}
	.st235{fill:#4F2721;}
	.st236{fill:#502821;}
	.st237{fill:#512821;}
	.st238{fill:#522821;}
	.st239{fill:#532821;}
	.st240{fill:#542922;}
	.st241{fill:#552922;}
	.st242{fill:#562922;}
	.st243{fill:#572922;}
	.st244{fill:#582922;}
	.st245{fill:#592A22;}
	.st246{fill:#5A2A22;}
	.st247{fill:#5B2A23;}
	.st248{fill:#5C2A23;}
	.st249{fill:#5D2A23;}
	.st250{fill:#5E2B23;}
	.st251{fill:#5F2B23;}
	.st252{fill:#602B23;}
	.st253{fill:#612B23;}
	.st254{fill:#622C24;}
	.st255{fill:#632C24;}
	.st256{fill:#642C24;}
	.st257{fill:#652C24;}
	.st258{fill:#662C24;}
	.st259{fill:#672C24;}
	.st260{fill:#682C24;}
	.st261{fill:#692D24;}
	.st262{fill:#6A2D24;}
	.st263{fill:#6B2D25;}
	.st264{fill:#6C2D25;}
	.st265{fill:#6D2D25;}
	.st266{fill:#6E2D25;}
	.st267{fill:#6F2D25;}
	.st268{fill:#702E25;}
	.st269{fill:#712E25;}
	.st270{fill:#722E25;}
	.st271{fill:#732E25;}
	.st272{fill:#742E25;}
	.st273{fill:#752E25;}
	.st274{fill:#762E26;}
	.st275{fill:#772E26;}
	.st276{fill:#782E26;}
	.st277{fill:#792E26;}
	.st278{fill:#7A2F26;}
	.st279{fill:#7C2F26;}
	.st280{fill:#7D2F26;}
	.st281{fill:#7E2F26;}
	.st282{fill:#7F2F26;}
	.st283{fill:#802F26;}
	.st284{fill:#812F26;}
	.st285{fill:#822F27;}
	.st286{fill:#832F27;}
	.st287{fill:#842F27;}
	.st288{fill:#852F27;}
	.st289{fill:#862F27;}
	.st290{fill:#882F27;}
	.st291{fill:#892F27;}
	.st292{fill:#8A2F27;}
	.st293{fill:#8B2F27;}
	.st294{fill:#8C2F27;}
	.st295{fill:#8D2F27;}
	.st296{fill:#8E3027;}
	.st297{fill:#8F3027;}
	.st298{fill:#913028;}
	.st299{fill:#923028;}
	.st300{fill:#933028;}
	.st301{fill:#943028;}
	.st302{fill:#952F28;}
	.st303{fill:#962F28;}
	.st304{fill:#972F28;}
	.st305{fill:#992F28;}
	.st306{fill:#9A2F28;}
	.st307{fill:#9B2F28;}
	.st308{fill:#9C2F28;}
	.st309{fill:#9D2F28;}
	.st310{fill:#9E2F28;}
	.st311{fill:#A02F28;}
	.st312{fill:#A12F28;}
	.st313{fill:#A22F28;}
	.st314{fill:#A32E28;}
	.st315{fill:#A42E28;}
	.st316{fill:#A52E28;}
	.st317{fill:#A72E28;}
	.st318{fill:#A82E28;}
	.st319{fill:#A92E28;}
	.st320{fill:#AA2D28;}
	.st321{fill:#AB2D28;}
	.st322{fill:#AD2D28;}
	.st323{fill:#AE2D28;}
	.st324{fill:#AF2D28;}
	.st325{fill:#B02C28;}
	.st326{fill:#B12C28;}
	.st327{fill:#B22C28;}
	.st328{fill:#B42C28;}
	.st329{fill:#B52C28;}
	.st330{fill:#B62B28;}
	.st331{fill:#B72B28;}
	.st332{fill:#B82B28;}
	.st333{fill:#BA2A28;}
	.st334{fill:#BB2A28;}
	.st335{fill:#BC2A28;}
	.st336{fill:#BD2928;}
	.st337{fill:#BF2928;}
	.st338{fill:#C02928;}
	.st339{fill:#C12828;}
	.st340{fill:#C22828;}
	.st341{fill:#C42828;}
	.st342{fill:#C52728;}
	.st343{fill:#C62728;}
	.st344{fill:#C72628;}
	.st345{fill:#C92628;}
	.st346{fill:#CA2528;}
	.st347{fill:#CB2528;}
	.st348{fill:#CC2428;}
	.st349{fill:#CE2428;}
	.st350{fill:#CF2328;}
	.st351{fill:#D02328;}
	.st352{fill:#D22228;}
	.st353{fill:#D32228;}
	.st354{fill:#D42128;}
	.st355{fill:#D62128;}
	.st356{fill:#D72028;}
	.st357{fill:#D91F28;}
	.st358{fill:url(#SVGID_2_);}
	.st359{opacity:0.75;}
	.st360{fill:url(#SVGID_3_);}
	.st361{fill:url(#SVGID_4_);}
	.st362{fill:url(#SVGID_5_);}
	.st363{fill:url(#SVGID_6_);}
	.st364{fill:url(#SVGID_7_);}
	.st365{opacity:0.5;fill:url(#SVGID_8_);}
	.st366{opacity:0.5;fill:url(#SVGID_9_);}
	.st367{opacity:0.5;fill:url(#SVGID_10_);}
	.st368{opacity:0.5;fill:url(#SVGID_11_);}
	.st369{opacity:0.5;fill:url(#SVGID_12_);}
	.st370{fill:url(#SVGID_13_);}
	.st371{fill:url(#SVGID_14_);}
	.st372{fill:url(#SVGID_15_);}
	.st373{fill:url(#SVGID_16_);}
	.st374{fill:url(#SVGID_17_);}
	.st375{fill:url(#SVGID_18_);}
	.st376{fill:url(#SVGID_19_);}
	.st377{fill:url(#SVGID_20_);}
	.st378{fill:url(#SVGID_21_);}
	.st379{fill:url(#SVGID_22_);}
	.st380{fill:url(#SVGID_23_);}
	.st381{fill:url(#SVGID_24_);}
	.st382{fill:url(#SVGID_25_);}
	.st383{fill:url(#SVGID_26_);}
	.st384{fill:url(#SVGID_27_);}
	.st385{fill:url(#SVGID_28_);}
	.st386{fill:url(#SVGID_29_);}
	.st387{fill:url(#SVGID_30_);}
	.st388{fill:url(#SVGID_31_);}
	.st389{fill:url(#SVGID_32_);}
	.st390{fill:url(#SVGID_33_);}
	.st391{fill:url(#SVGID_34_);}
	.st392{opacity:0.5;fill:url(#SVGID_35_);}
	.st393{fill:url(#SVGID_36_);}
	.st394{fill:#D3C516;}
	.st395{fill:#BCBCBC;}
	.st396{fill:#E8F1F9;}
	.st397{fill:#8E8E8E;}
	.st398{fill:#05436D;}
	.st399{fill:#5E85DD;}
	.st400{fill:url(#SVGID_37_);}
	.st401{fill:url(#SVGID_38_);}
	.st402{fill:url(#SVGID_39_);}
	.st403{fill:url(#SVGID_40_);}
	.st404{fill:#FFFFFF;}
	.st405{opacity:0.5;fill:#FFFFFF;}
	.st406{fill:url(#SVGID_41_);}
	.st407{fill:url(#SVGID_42_);}
	.st408{fill:url(#SVGID_43_);}
	.st409{opacity:0.5;fill:#5E85DD;}
	.st410{fill:url(#SVGID_44_);}
	.st411{fill:url(#SVGID_45_);}
	.st412{fill:url(#SVGID_46_);}
	.st413{fill:url(#SVGID_47_);}
	.st414{fill:url(#SVGID_48_);}
	.st415{fill:url(#SVGID_49_);}
	.st416{fill:url(#SVGID_50_);}
	.st417{fill:url(#SVGID_51_);}
	.st418{fill:url(#SVGID_52_);}
	.st419{fill:url(#SVGID_53_);}
	.st420{fill:url(#SVGID_54_);}
	.st421{fill:url(#SVGID_55_);}
	.st422{fill:url(#SVGID_56_);}
	.st423{fill:#3968BC;}
</style>
<g id="Layer_1">
	<g>
		
			<linearGradient id="SVGID_1_" gradientUnits="userSpaceOnUse" x1="176.2706" y1="451.3195" x2="1223.7295" y2="451.3195" gradientTransform="matrix(1 0 0 -1 0 1397.6801)">
			<stop  offset="0" style="stop-color:#858032"/>
			<stop  offset="1" style="stop-color:#B8B033"/>
		</linearGradient>
		<path class="st183" d="M1222.9,764.6c0.3,92.7,0.6,185.4,0.8,278c0.1,29.8,0,60.6-12.2,87.7c-15.2,33.9-47.1,57.1-79.4,75.4
			c-75.4,42.6-160.1,66.6-245.6,81.2c-204.8,35-422.4,16.2-608.1-77c-37.1-18.6-75-42.5-91.4-80.5c-10.9-25.4-10.9-53.9-10.7-81.5
			c0.8-98.2,1.5-196.4,2.3-294.7c104-35.4,208-70.9,311.9-106.3c12-4.1,24.5-6.5,36.4-10.3c13.8-4.4,27-13.5,40.2-19.5
			c24.8-11.3,56.2-26.1,84-26.1c61.4-7.8,122.4,13.3,180.7,34.1c130.3,46.4,260.6,92.7,390.9,139.1
			C1222.9,764.4,1222.9,764.5,1222.9,764.6z"/>
		<g>
			<path class="st184" d="M1142,651c107,61.8,107.6,162,1.3,223.8c-243.6,141.6-639.7,141.6-884.7,0.1
				c-107.3-62-107.9-162.1-1.5-223.9l248.5-144.4c106.3-61.8,279.3-61.8,386.3,0L1142,651z"/>
		</g>
		<g>
			<g>
				<path class="st2" d="M724.3,348c-24.4,0-44.2-19.9-44.2-44.4s19.8-44.4,44.2-44.4s44.2,19.9,44.2,44.4
					C768.6,328.1,748.8,348,724.3,348z M719.7,236c-33.8,0-61.2,27.4-61.2,61.2s27.4,61.2,61.2,61.2s61.2-27.4,61.2-61.2
					S753.5,236,719.7,236z"/>
				<ellipse class="st2" cx="732.2" cy="307.1" rx="30.8" ry="31.1"/>
			</g>
			<g>
				<path class="st185" d="M724.4,350.3c-25.1,0-45.4-20.4-45.4-45.6s20.3-45.6,45.4-45.6s45.4,20.4,45.4,45.6
					C769.8,329.9,749.5,350.3,724.4,350.3z M719.6,235.2c-34.7,0-62.9,28.2-62.9,62.9s28.2,62.9,62.9,62.9s62.9-28.2,62.9-62.9
					S754.4,235.2,719.6,235.2z"/>
				<ellipse class="st185" cx="732.4" cy="308.3" rx="31.7" ry="31.9"/>
			</g>
			<g>
				<path class="st186" d="M724.4,352.6c-25.8,0-46.6-21-46.6-46.8s20.9-46.8,46.6-46.8s46.6,21,46.6,46.8S750.2,352.6,724.4,352.6z
					 M719.5,234.5c-35.7,0-64.6,28.9-64.6,64.6s28.9,64.6,64.6,64.6c35.7,0,64.6-28.9,64.6-64.6S755.2,234.5,719.5,234.5z"/>
				<ellipse class="st186" cx="732.7" cy="309.5" rx="32.5" ry="32.8"/>
			</g>
			<g>
				<path class="st6" d="M724.4,354.9c-26.4,0-47.9-21.5-47.9-48s21.4-48,47.9-48c26.4,0,47.9,21.5,47.9,48S750.9,354.9,724.4,354.9
					z M719.4,233.7c-36.6,0-66.3,29.7-66.3,66.3s29.7,66.3,66.3,66.3s66.3-29.7,66.3-66.3S756,233.7,719.4,233.7z"/>
				<ellipse class="st6" cx="732.9" cy="310.7" rx="33.4" ry="33.6"/>
			</g>
			<g>
				<path class="st187" d="M724.4,357.2c-27.1,0-49.1-22.1-49.1-49.3c0-27.2,22-49.3,49.1-49.3s49.1,22.1,49.1,49.3
					C773.5,335.2,751.6,357.2,724.4,357.2z M719.3,232.9c-37.5,0-68,30.4-68,68s30.4,68,68,68s68-30.4,68-68
					S756.9,232.9,719.3,232.9z"/>
				<ellipse class="st187" cx="733.1" cy="311.9" rx="34.2" ry="34.5"/>
			</g>
			<g>
				<path class="st8" d="M724.5,359.5c-27.8,0-50.3-22.6-50.3-50.5s22.5-50.5,50.3-50.5s50.3,22.6,50.3,50.5
					S752.3,359.5,724.5,359.5z M719.2,232.2c-38.5,0-69.6,31.2-69.6,69.6s31.2,69.6,69.6,69.6c38.5,0,69.6-31.2,69.6-69.6
					S757.7,232.2,719.2,232.2z"/>
				<ellipse class="st8" cx="733.4" cy="313" rx="35.1" ry="35.3"/>
			</g>
			<g>
				<path class="st9" d="M724.5,361.8c-28.5,0-51.5-23.1-51.5-51.7s23.1-51.7,51.5-51.7c28.5,0,51.5,23.1,51.5,51.7
					S753,361.8,724.5,361.8z M719.1,231.4c-39.4,0-71.3,31.9-71.3,71.3s31.9,71.3,71.3,71.3s71.3-31.9,71.3-71.3
					S758.5,231.4,719.1,231.4z"/>
				<ellipse class="st9" cx="733.6" cy="314.2" rx="35.9" ry="36.2"/>
			</g>
			<g>
				<path class="st10" d="M724.5,364.2c-29.1,0-52.7-23.7-52.7-52.9c0-29.2,23.6-52.9,52.7-52.9c29.1,0,52.7,23.7,52.7,52.9
					C777.3,340.5,753.7,364.2,724.5,364.2z M719,230.6c-40.3,0-73,32.7-73,73s32.7,73,73,73s73-32.7,73-73S759.4,230.6,719,230.6z"
					/>
				<ellipse class="st10" cx="733.9" cy="315.4" rx="36.8" ry="37.1"/>
			</g>
			<g>
				<path class="st188" d="M724.6,366.5c-29.8,0-54-24.2-54-54.1s24.2-54.1,54-54.1s54,24.2,54,54.1S754.4,366.5,724.6,366.5z
					 M718.9,229.9c-41.3,0-74.7,33.4-74.7,74.7s33.4,74.7,74.7,74.7s74.7-33.4,74.7-74.7S760.2,229.9,718.9,229.9z"/>
				<ellipse class="st188" cx="734.1" cy="316.6" rx="37.6" ry="37.9"/>
			</g>
			<g>
				<path class="st13" d="M724.6,368.8c-30.5,0-55.2-24.8-55.2-55.4s24.7-55.4,55.2-55.4s55.2,24.8,55.2,55.4
					S755.1,368.8,724.6,368.8z M718.8,229.1c-42.2,0-76.4,34.2-76.4,76.4s34.3,76.4,76.4,76.4s76.4-34.2,76.4-76.4
					S761,229.1,718.8,229.1z"/>
				<ellipse class="st13" cx="734.4" cy="317.8" rx="38.5" ry="38.8"/>
			</g>
			<g>
				<path class="st14" d="M724.6,371.1c-31.1,0-56.4-25.3-56.4-56.6s25.2-56.6,56.4-56.6s56.4,25.3,56.4,56.6
					S755.8,371.1,724.6,371.1z M718.7,228.3c-43.1,0-78.1,35-78.1,78.1s35,78.1,78.1,78.1s78.1-35,78.1-78.1
					S761.9,228.3,718.7,228.3z"/>
				<ellipse class="st14" cx="734.6" cy="319" rx="39.3" ry="39.6"/>
			</g>
			<g>
				<path class="st189" d="M724.6,373.4c-31.8,0-57.6-25.9-57.6-57.8s25.8-57.8,57.6-57.8s57.6,25.9,57.6,57.8
					S756.5,373.4,724.6,373.4z M718.6,227.6c-44,0-79.8,35.7-79.8,79.8s35.7,79.8,79.8,79.8c44,0,79.8-35.7,79.8-79.8
					S762.7,227.6,718.6,227.6z"/>
				<ellipse class="st189" cx="734.8" cy="320.2" rx="40.2" ry="40.5"/>
			</g>
			<g>
				<path class="st190" d="M724.7,375.7c-32.5,0-58.8-26.4-58.8-59s26.3-59,58.8-59s58.8,26.4,58.8,59S757.2,375.7,724.7,375.7z
					 M718.5,226.8c-45,0-81.4,36.5-81.4,81.4c0,45,36.5,81.4,81.4,81.4s81.4-36.5,81.4-81.4C800,263.2,763.5,226.8,718.5,226.8z"/>
				<ellipse class="st190" cx="735.1" cy="321.4" rx="41" ry="41.3"/>
			</g>
			<g>
				<path class="st191" d="M724.7,378c-33.2,0-60-27-60-60.3s26.9-60.3,60-60.3c33.2,0,60,27,60,60.3S757.8,378,724.7,378z
					 M718.4,226c-45.9,0-83.1,37.2-83.1,83.1s37.2,83.1,83.1,83.1c45.9,0,83.1-37.2,83.1-83.1S764.4,226,718.4,226z"/>
				<ellipse class="st191" cx="735.3" cy="322.6" rx="41.9" ry="42.2"/>
			</g>
			<g>
				<path class="st18" d="M724.7,380.3c-33.8,0-61.3-27.5-61.3-61.5s27.4-61.5,61.3-61.5s61.3,27.5,61.3,61.5
					S758.5,380.3,724.7,380.3z M718.3,225.2c-46.8,0-84.8,38-84.8,84.8s38,84.8,84.8,84.8s84.8-38,84.8-84.8
					S765.2,225.2,718.3,225.2z"/>
				<ellipse class="st18" cx="735.6" cy="323.7" rx="42.7" ry="43"/>
			</g>
			<g>
				<path class="st192" d="M724.7,382.7c-34.5,0-62.5-28.1-62.5-62.7s28-62.7,62.5-62.7s62.5,28.1,62.5,62.7
					S759.2,382.7,724.7,382.7z M718.2,224.5c-47.8,0-86.5,38.7-86.5,86.5s38.7,86.5,86.5,86.5s86.5-38.7,86.5-86.5
					S766,224.5,718.2,224.5z"/>
				<ellipse class="st192" cx="735.8" cy="324.9" rx="43.6" ry="43.9"/>
			</g>
			<g>
				<path class="st193" d="M724.8,385c-35.2,0-63.7-28.6-63.7-63.9s28.5-63.9,63.7-63.9s63.7,28.6,63.7,63.9S759.9,385,724.8,385z
					 M718.1,223.7c-48.7,0-88.2,39.5-88.2,88.2s39.5,88.2,88.2,88.2s88.2-39.5,88.2-88.2S766.8,223.7,718.1,223.7z"/>
				<ellipse class="st193" cx="736.1" cy="326.1" rx="44.4" ry="44.8"/>
			</g>
			<g>
				<path class="st22" d="M724.8,387.3c-35.8,0-64.9-29.2-64.9-65.1s29.1-65.1,64.9-65.1c35.8,0,64.9,29.2,64.9,65.1
					S760.6,387.3,724.8,387.3z M718,222.9c-49.6,0-89.9,40.2-89.9,89.9s40.2,89.9,89.9,89.9c49.6,0,89.9-40.2,89.9-89.9
					S767.7,222.9,718,222.9z"/>
				<ellipse class="st22" cx="736.3" cy="327.3" rx="45.3" ry="45.6"/>
			</g>
			<g>
				<path class="st24" d="M724.8,389.6c-36.5,0-66.1-29.7-66.1-66.4s29.6-66.4,66.1-66.4s66.1,29.7,66.1,66.4
					S761.3,389.6,724.8,389.6z M717.9,222.2c-50.6,0-91.6,41-91.6,91.6s41,91.6,91.6,91.6s91.6-41,91.6-91.6
					S768.5,222.2,717.9,222.2z"/>
				<ellipse class="st24" cx="736.5" cy="328.5" rx="46.1" ry="46.5"/>
			</g>
			<g>
				<path class="st25" d="M724.9,391.9c-37.2,0-67.3-30.3-67.3-67.6s30.1-67.6,67.3-67.6s67.3,30.3,67.3,67.6S762,391.9,724.9,391.9
					z M717.8,221.4c-51.5,0-93.2,41.7-93.2,93.2s41.7,93.2,93.2,93.2s93.2-41.7,93.2-93.2S769.3,221.4,717.8,221.4z"/>
				<ellipse class="st25" cx="736.8" cy="329.7" rx="47" ry="47.3"/>
			</g>
			<g>
				<path class="st26" d="M724.9,394.2c-37.9,0-68.6-30.8-68.6-68.8s30.7-68.8,68.6-68.8c37.9,0,68.6,30.8,68.6,68.8
					S762.7,394.2,724.9,394.2z M717.7,220.6c-52.4,0-94.9,42.5-94.9,94.9s42.5,94.9,94.9,94.9s94.9-42.5,94.9-94.9
					S770.2,220.6,717.7,220.6z"/>
				<ellipse class="st26" cx="737" cy="330.9" rx="47.8" ry="48.2"/>
			</g>
			<g>
				<path class="st27" d="M724.9,396.5c-38.5,0-69.8-31.4-69.8-70s31.2-70,69.8-70s69.8,31.4,69.8,70S763.4,396.5,724.9,396.5z
					 M717.6,219.9c-53.4,0-96.6,43.3-96.6,96.6s43.3,96.6,96.6,96.6c53.4,0,96.6-43.3,96.6-96.6S771,219.9,717.6,219.9z"/>
				<ellipse class="st27" cx="737.3" cy="332.1" rx="48.7" ry="49"/>
			</g>
			<g>
				<path class="st28" d="M724.9,398.9c-39.2,0-71-31.9-71-71.2s31.8-71.2,71-71.2s71,31.9,71,71.2S764.1,398.9,724.9,398.9z
					 M717.5,219.1c-54.3,0-98.3,44-98.3,98.3s44,98.3,98.3,98.3s98.3-44,98.3-98.3S771.8,219.1,717.5,219.1z"/>
				<ellipse class="st28" cx="737.5" cy="333.2" rx="49.5" ry="49.9"/>
			</g>
			<g>
				<path class="st29" d="M725,401.2c-39.9,0-72.2-32.4-72.2-72.5s32.3-72.5,72.2-72.5s72.2,32.4,72.2,72.5S764.8,401.2,725,401.2z
					 M717.4,218.3c-55.2,0-100,44.8-100,100s44.8,100,100,100s100-44.8,100-100S772.7,218.3,717.4,218.3z"/>
				<ellipse class="st29" cx="737.8" cy="334.4" rx="50.4" ry="50.7"/>
			</g>
			<g>
				<path class="st30" d="M725,403.5c-40.6,0-73.4-33-73.4-73.7s32.9-73.7,73.4-73.7c40.6,0,73.4,33,73.4,73.7
					S765.5,403.5,725,403.5z M717.3,217.6c-56.2,0-101.7,45.5-101.7,101.7s45.6,101.6,101.7,101.6S819,375.4,819,319.2
					S773.5,217.6,717.3,217.6z"/>
				<ellipse class="st30" cx="738" cy="335.6" rx="51.2" ry="51.6"/>
			</g>
			<g>
				<path class="st31" d="M725,405.8c-41.2,0-74.6-33.5-74.6-74.9S683.8,256,725,256c41.2,0,74.6,33.5,74.6,74.9
					S766.2,405.8,725,405.8z M717.2,216.8c-57.1,0-103.4,46.3-103.4,103.4s46.3,103.4,103.4,103.4s103.4-46.3,103.4-103.4
					S774.3,216.8,717.2,216.8z"/>
				<ellipse class="st31" cx="738.2" cy="336.8" rx="52.1" ry="52.5"/>
			</g>
			<g>
				<path class="st194" d="M725,408.1c-41.9,0-75.9-34.1-75.9-76.1s34-76.1,75.9-76.1s75.9,34.1,75.9,76.1S766.9,408.1,725,408.1z
					 M717.1,216c-58,0-105,47-105,105s47,105,105,105s105-47,105-105S775.2,216,717.1,216z"/>
				<ellipse class="st194" cx="738.5" cy="338" rx="52.9" ry="53.3"/>
			</g>
			<g>
				<path class="st33" d="M725.1,410.4c-42.6,0-77.1-34.6-77.1-77.4s34.5-77.4,77.1-77.4s77.1,34.6,77.1,77.4
					S767.6,410.4,725.1,410.4z M717,215.3c-58.9,0-106.7,47.8-106.7,106.7S658.1,428.7,717,428.7S823.8,380.9,823.8,322
					S776,215.3,717,215.3z"/>
				<ellipse class="st33" cx="738.7" cy="339.2" rx="53.8" ry="54.2"/>
			</g>
			<g>
				<path class="st35" d="M725.1,412.7c-43.2,0-78.3-35.2-78.3-78.6s35.1-78.6,78.3-78.6s78.3,35.2,78.3,78.6
					S768.3,412.7,725.1,412.7z M716.9,214.5c-59.9,0-108.4,48.5-108.4,108.4S657,431.3,716.9,431.3s108.4-48.5,108.4-108.4
					S776.8,214.5,716.9,214.5z"/>
				<ellipse class="st35" cx="739" cy="340.4" rx="54.6" ry="55"/>
			</g>
			<g>
				<path class="st36" d="M725.1,415c-43.9,0-79.5-35.7-79.5-79.8s35.6-79.8,79.5-79.8s79.5,35.7,79.5,79.8S769,415,725.1,415z
					 M716.8,213.7c-60.8,0-110.1,49.3-110.1,110.1S656,433.9,716.8,433.9s110.1-49.3,110.1-110.1S777.7,213.7,716.8,213.7z"/>
				<ellipse class="st36" cx="739.2" cy="341.6" rx="55.5" ry="55.9"/>
			</g>
			<g>
				<path class="st195" d="M725.2,417.4c-44.6,0-80.7-36.3-80.7-81s36.1-81,80.7-81c44.6,0,80.7,36.3,80.7,81
					S769.7,417.4,725.2,417.4z M716.7,212.9c-61.7,0-111.8,50-111.8,111.8s50,111.8,111.8,111.8s111.8-50,111.8-111.8
					S778.5,212.9,716.7,212.9z"/>
				<ellipse class="st195" cx="739.5" cy="342.8" rx="56.3" ry="56.7"/>
			</g>
			<g>
				<path class="st196" d="M725.2,419.7c-45.3,0-81.9-36.8-81.9-82.2s36.7-82.2,81.9-82.2s81.9,36.8,81.9,82.2
					S770.4,419.7,725.2,419.7z M716.6,212.2c-62.7,0-113.5,50.8-113.5,113.5s50.8,113.5,113.5,113.5s113.5-50.8,113.5-113.5
					S779.3,212.2,716.6,212.2z"/>
				<ellipse class="st196" cx="739.7" cy="343.9" rx="57.2" ry="57.6"/>
			</g>
			<g>
				<path class="st197" d="M725.2,422c-45.9,0-83.2-37.4-83.2-83.5s37.2-83.5,83.2-83.5s83.2,37.4,83.2,83.5S771.1,422,725.2,422z
					 M716.5,211.4c-63.6,0-115.2,51.6-115.2,115.2s51.6,115.2,115.2,115.2s115.2-51.6,115.2-115.2S780.1,211.4,716.5,211.4z"/>
				<ellipse class="st197" cx="739.9" cy="345.1" rx="58" ry="58.4"/>
			</g>
			<g>
				<path class="st198" d="M725.2,424.3c-46.6,0-84.4-37.9-84.4-84.7s37.8-84.7,84.4-84.7c46.6,0,84.4,37.9,84.4,84.7
					S771.8,424.3,725.2,424.3z M716.4,210.6c-64.5,0-116.8,52.3-116.8,116.8s52.3,116.8,116.8,116.8s116.8-52.3,116.8-116.8
					S781,210.6,716.4,210.6z"/>
				<ellipse class="st198" cx="740.2" cy="346.3" rx="58.9" ry="59.3"/>
			</g>
			<g>
				<path class="st199" d="M725.3,426.6c-47.3,0-85.6-38.5-85.6-85.9s38.3-85.9,85.6-85.9s85.6,38.5,85.6,85.9
					S772.5,426.6,725.3,426.6z M716.3,209.9c-65.5,0-118.5,53.1-118.5,118.5s53.1,118.5,118.5,118.5s118.6-53,118.6-118.5
					S781.8,209.9,716.3,209.9z"/>
				<ellipse class="st199" cx="740.4" cy="347.5" rx="59.7" ry="60.1"/>
			</g>
			<g>
				<path class="st200" d="M725.3,428.9c-47.9,0-86.8-39-86.8-87.1s38.9-87.1,86.8-87.1s86.8,39,86.8,87.1S773.2,428.9,725.3,428.9z
					 M716.3,209.1c-66.4,0-120.2,53.8-120.2,120.2s53.8,120.2,120.2,120.2s120.2-53.8,120.2-120.2S782.6,209.1,716.3,209.1z"/>
				<ellipse class="st200" cx="740.7" cy="348.7" rx="60.6" ry="61"/>
			</g>
			<g>
				<path class="st201" d="M725.3,431.2c-48.6,0-88-39.6-88-88.4s39.4-88.4,88-88.4s88,39.6,88,88.4S773.9,431.2,725.3,431.2z
					 M716.2,208.3c-67.3,0-121.9,54.6-121.9,121.9s54.6,121.9,121.9,121.9s121.9-54.6,121.9-121.9S783.5,208.3,716.2,208.3z"/>
				<ellipse class="st201" cx="740.9" cy="349.9" rx="61.4" ry="61.9"/>
			</g>
			<g>
				<path class="st44" d="M725.3,433.5c-49.3,0-89.3-40.1-89.3-89.6s40-89.6,89.3-89.6s89.3,40.1,89.3,89.6S774.6,433.5,725.3,433.5
					z M716.1,207.6c-68.3,0-123.6,55.3-123.6,123.6s55.3,123.6,123.6,123.6s123.6-55.3,123.6-123.6S784.3,207.6,716.1,207.6z"/>
				<ellipse class="st44" cx="741.2" cy="351.1" rx="62.3" ry="62.7"/>
			</g>
			<g>
				<path class="st202" d="M725.4,435.9c-50,0-90.5-40.7-90.5-90.8s40.5-90.8,90.5-90.8s90.5,40.7,90.5,90.8
					S775.3,435.9,725.4,435.9z M716,206.8c-69.2,0-125.3,56.1-125.3,125.3S646.8,457.4,716,457.4s125.3-56.1,125.3-125.3
					S785.1,206.8,716,206.8z"/>
				<ellipse class="st202" cx="741.4" cy="352.3" rx="63.1" ry="63.6"/>
			</g>
			<g>
				<path class="st203" d="M725.4,438.2c-50.6,0-91.7-41.2-91.7-92s41-92,91.7-92s91.7,41.2,91.7,92S776,438.2,725.4,438.2z
					 M715.9,206c-70.1,0-127,56.8-127,127s56.8,127,127,127s127-56.8,127-127S786,206,715.9,206z"/>
				<ellipse class="st203" cx="741.6" cy="353.4" rx="64" ry="64.4"/>
			</g>
			<g>
				<path class="st48" d="M725.4,440.5c-51.3,0-92.9-41.7-92.9-93.2s41.6-93.2,92.9-93.2s92.9,41.7,92.9,93.2
					S776.7,440.5,725.4,440.5z M715.8,205.3c-71,0-128.6,57.6-128.6,128.6s57.5,128.6,128.6,128.6s128.6-57.6,128.6-128.6
					S786.8,205.3,715.8,205.3z"/>
				<ellipse class="st48" cx="741.9" cy="354.6" rx="64.8" ry="65.3"/>
			</g>
			<g>
				<path class="st204" d="M725.4,442.8c-52,0-94.1-42.3-94.1-94.5s42.1-94.5,94.1-94.5s94.1,42.3,94.1,94.5
					S777.4,442.8,725.4,442.8z M715.7,204.5c-72,0-130.3,58.3-130.3,130.3s58.3,130.3,130.3,130.3S846,406.8,846,334.8
					S787.6,204.5,715.7,204.5z"/>
				<ellipse class="st204" cx="742.1" cy="355.8" rx="65.7" ry="66.1"/>
			</g>
			<g>
				<path class="st204" d="M725.5,445.1c-52.7,0-95.3-42.8-95.3-95.7s42.7-95.7,95.3-95.7c52.7,0,95.3,42.8,95.3,95.7
					S778.1,445.1,725.5,445.1z M715.6,203.7c-72.9,0-132,59.1-132,132s59.1,132,132,132s132-59.1,132-132S788.5,203.7,715.6,203.7z"
					/>
				<ellipse class="st204" cx="742.4" cy="357" rx="66.5" ry="67"/>
			</g>
			<g>
				<path class="st205" d="M725.5,447.4c-53.3,0-96.6-43.4-96.6-96.9s43.2-96.9,96.6-96.9s96.6,43.4,96.6,96.9
					S778.8,447.4,725.5,447.4z M715.5,202.9c-73.8,0-133.7,59.9-133.7,133.7s59.9,133.7,133.7,133.7s133.7-59.9,133.7-133.7
					S789.3,202.9,715.5,202.9z"/>
				<ellipse class="st205" cx="742.6" cy="358.2" rx="67.4" ry="67.8"/>
			</g>
			<g>
				<path class="st206" d="M725.5,449.7c-54,0-97.8-43.9-97.8-98.1s43.8-98.1,97.8-98.1s97.8,43.9,97.8,98.1
					S779.5,449.7,725.5,449.7z M715.4,202.2c-74.8,0-135.4,60.6-135.4,135.4s60.6,135.3,135.4,135.3s135.3-60.6,135.3-135.3
					S790.1,202.2,715.4,202.2z"/>
				<ellipse class="st206" cx="742.9" cy="359.4" rx="68.2" ry="68.7"/>
			</g>
			<g>
				<path class="st207" d="M725.6,452.1c-54.7,0-99-44.5-99-99.3s44.3-99.3,99-99.3s99,44.5,99,99.3S780.2,452.1,725.6,452.1z
					 M715.3,201.4c-75.7,0-137.1,61.4-137.1,137.1s61.4,137.1,137.1,137.1s137.1-61.4,137.1-137.1S791,201.4,715.3,201.4z"/>
				<ellipse class="st207" cx="743.1" cy="360.6" rx="69.1" ry="69.6"/>
			</g>
			<g>
				<path class="st208" d="M725.6,454.4c-55.3,0-100.2-45-100.2-100.6s44.9-100.6,100.2-100.6s100.2,45,100.2,100.6
					S780.9,454.4,725.6,454.4z M715.2,200.6c-76.6,0-138.7,62.1-138.7,138.7S638.6,478,715.2,478s138.7-62.1,138.7-138.7
					S791.8,200.6,715.2,200.6z"/>
				<ellipse class="st208" cx="743.3" cy="361.8" rx="69.9" ry="70.4"/>
			</g>
			<g>
				<path class="st209" d="M725.6,456.7c-56,0-101.4-45.6-101.4-101.8s45.4-101.8,101.4-101.8S827,298.7,827,354.9
					S781.6,456.7,725.6,456.7z M715.1,199.9c-77.6,0-140.4,62.9-140.4,140.4s62.9,140.4,140.4,140.4s140.4-62.8,140.4-140.4
					S792.6,199.9,715.1,199.9z"/>
				<ellipse class="st209" cx="743.6" cy="363" rx="70.8" ry="71.3"/>
			</g>
			<g>
				<path class="st210" d="M725.6,459C668.9,459,623,412.9,623,356s46-103,102.6-103s102.6,46.1,102.6,103S782.3,459,725.6,459z
					 M715,199.1c-78.5,0-142.1,63.6-142.1,142.1S636.5,483.3,715,483.3s142.1-63.6,142.1-142.1S793.4,199.1,715,199.1z"/>
				<ellipse class="st210" cx="743.8" cy="364.1" rx="71.6" ry="72.1"/>
			</g>
			<g>
				<path class="st210" d="M725.7,461.3c-57.4,0-103.9-46.7-103.9-104.2s46.5-104.3,103.9-104.3S829.6,299.5,829.6,357
					S783,461.3,725.7,461.3z M714.9,198.3c-79.4,0-143.8,64.4-143.8,143.8s64.3,143.8,143.8,143.8s143.8-64.3,143.8-143.8
					S794.3,198.3,714.9,198.3z"/>
				<ellipse class="st210" cx="744.1" cy="365.3" rx="72.4" ry="73"/>
			</g>
			<g>
				<path class="st211" d="M725.7,463.6c-58,0-105.1-47.2-105.1-105.5s47.1-105.4,105.1-105.4s105.1,47.2,105.1,105.5
					S783.7,463.6,725.7,463.6z M714.8,197.6c-80.4,0-145.5,65.1-145.5,145.5s65.1,145.5,145.5,145.5s145.5-65.1,145.5-145.5
					S795.1,197.6,714.8,197.6z"/>
				<ellipse class="st211" cx="744.3" cy="366.5" rx="73.3" ry="73.8"/>
			</g>
			<g>
				<path class="st212" d="M725.7,465.9c-58.7,0-106.3-47.8-106.3-106.7S667,252.6,725.7,252.6S832,300.4,832,359.3
					S784.4,465.9,725.7,465.9z M714.7,196.8c-81.3,0-147.2,65.9-147.2,147.2s65.9,147.1,147.2,147.1s147.2-65.9,147.2-147.2
					S795.9,196.8,714.7,196.8z"/>
				<ellipse class="st212" cx="744.6" cy="367.7" rx="74.1" ry="74.7"/>
			</g>
			<g>
				<path class="st213" d="M725.7,468.2c-59.4,0-107.5-48.3-107.5-107.9s48.2-107.9,107.5-107.9s107.5,48.3,107.5,107.9
					S785.1,468.2,725.7,468.2z M714.6,196c-82.3,0-148.9,66.7-148.9,148.9s66.6,148.9,148.9,148.9s148.8-66.7,148.8-148.9
					S796.8,196,714.6,196z"/>
				<ellipse class="st213" cx="744.8" cy="368.9" rx="75" ry="75.5"/>
			</g>
			<g>
				<path class="st214" d="M725.8,470.6c-60,0-108.7-48.9-108.7-109.1s48.6-109.2,108.7-109.2c60,0,108.7,48.9,108.7,109.1
					S785.8,470.6,725.8,470.6z M714.5,195.3c-83.1,0-150.5,67.4-150.5,150.5s67.4,150.5,150.5,150.5S865,428.9,865,345.8
					S797.6,195.3,714.5,195.3z"/>
				<ellipse class="st214" cx="745" cy="370.1" rx="75.8" ry="76.4"/>
			</g>
			<g>
				<path class="st215" d="M725.8,472.9c-60.7,0-109.9-49.4-109.9-110.3s49.2-110.3,109.9-110.3s109.9,49.4,109.9,110.3
					S786.5,472.9,725.8,472.9z M714.4,194.5c-84.1,0-152.2,68.2-152.2,152.2s68.2,152.2,152.2,152.2s152.2-68.2,152.2-152.2
					S798.4,194.5,714.4,194.5z"/>
				<ellipse class="st215" cx="745.3" cy="371.3" rx="76.7" ry="77.3"/>
			</g>
			<g>
				<path class="st216" d="M725.8,475.2c-61.4,0-111.2-49.9-111.2-111.6S664.4,252,725.8,252S837,301.9,837,363.6
					S787.2,475.2,725.8,475.2z M714.3,193.7c-85,0-153.9,68.9-153.9,153.9s68.9,153.9,153.9,153.9s153.9-68.9,153.9-153.9
					S799.3,193.7,714.3,193.7z"/>
				<ellipse class="st216" cx="745.5" cy="372.5" rx="77.5" ry="78.1"/>
			</g>
			<g>
				<path class="st217" d="M725.9,477.5c-62.1,0-112.4-50.5-112.4-112.8s50.3-112.8,112.4-112.8s112.4,50.5,112.4,112.8
					S787.9,477.5,725.9,477.5z M714.2,193c-85.9,0-155.6,69.7-155.6,155.6s69.7,155.6,155.6,155.6s155.6-69.7,155.6-155.6
					S800.1,193,714.2,193z"/>
				<ellipse class="st217" cx="745.8" cy="373.6" rx="78.4" ry="79"/>
			</g>
			<g>
				<path class="st217" d="M725.9,479.8c-62.7,0-113.6-51-113.6-114s50.9-114,113.6-114s113.6,51,113.6,114S788.6,479.8,725.9,479.8
					z M714.1,192.2c-86.9,0-157.3,70.4-157.3,157.3s70.4,157.3,157.3,157.3s157.3-70.4,157.3-157.3S800.9,192.2,714.1,192.2z"/>
				<ellipse class="st217" cx="746" cy="374.8" rx="79.2" ry="79.8"/>
			</g>
			<g>
				<path class="st218" d="M725.9,482.1c-63.4,0-114.8-51.6-114.8-115.2s51.4-115.2,114.8-115.2s114.8,51.6,114.8,115.2
					S789.3,482.1,725.9,482.1z M714,191.4c-87.8,0-159,71.2-159,159s71.2,159,159,159s159-71.2,159-159S801.8,191.4,714,191.4z"/>
				<ellipse class="st218" cx="746.3" cy="376" rx="80.1" ry="80.7"/>
			</g>
			<g>
				<path class="st219" d="M725.9,484.4c-64.1,0-116-52.1-116-116.5s51.9-116.5,116-116.5s116,52.1,116,116.5S790,484.4,725.9,484.4
					z M713.9,190.6c-88.7,0-160.7,71.9-160.7,160.7S625.1,512,713.9,512s160.7-71.9,160.7-160.7S802.6,190.6,713.9,190.6z"/>
				<ellipse class="st219" cx="746.5" cy="377.2" rx="80.9" ry="81.5"/>
			</g>
			<g>
				<path class="st220" d="M726,486.8c-64.8,0-117.3-52.7-117.3-117.7S661.2,251.4,726,251.4s117.3,52.7,117.3,117.7
					S790.7,486.8,726,486.8z M713.8,189.9c-89.7,0-162.3,72.7-162.3,162.3s72.7,162.3,162.3,162.3s162.3-72.6,162.3-162.3
					S803.4,189.9,713.8,189.9z"/>
				<ellipse class="st220" cx="746.7" cy="378.4" rx="81.8" ry="82.4"/>
			</g>
			<g>
				<path class="st221" d="M726,489.1c-65.4,0-118.5-53.2-118.5-118.9s53-118.9,118.5-118.9s118.5,53.2,118.5,118.9
					S791.4,489.1,726,489.1z M713.7,189.1c-90.6,0-164,73.4-164,164s73.4,164,164,164s164-73.4,164-164S804.3,189.1,713.7,189.1z"/>
				<ellipse class="st221" cx="747" cy="379.6" rx="82.6" ry="83.2"/>
			</g>
			<g>
				<path class="st222" d="M726,491.4c-66.1,0-119.7-53.8-119.7-120.1S659.9,251.2,726,251.2s119.7,53.7,119.7,120.1
					S792.1,491.4,726,491.4z M713.6,188.3c-91.5,0-165.7,74.2-165.7,165.7s74.2,165.7,165.7,165.7S879.3,445.5,879.3,354
					S805.1,188.3,713.6,188.3z"/>
				<ellipse class="st222" cx="747.2" cy="380.8" rx="83.5" ry="84.1"/>
			</g>
			<g>
				<path class="st223" d="M726,493.7c-66.8,0-120.9-54.3-120.9-121.3S659.2,251.1,726,251.1s120.9,54.3,120.9,121.3
					S792.8,493.7,726,493.7z M713.5,187.6c-92.5,0-167.4,74.9-167.4,167.4S621,522.4,713.5,522.4S880.9,447.5,880.9,355
					S805.9,187.6,713.5,187.6z"/>
				<ellipse class="st223" cx="747.5" cy="382" rx="84.3" ry="85"/>
			</g>
			<g>
				<path class="st223" d="M726.1,496C658.7,496,604,441.1,604,373.4s54.6-122.5,122.1-122.5s122.1,54.9,122.1,122.6
					S793.5,496,726.1,496z M713.4,186.8c-93.4,0-169.1,75.7-169.1,169.1S620,525,713.4,525s169-75.7,169-169.1
					S806.7,186.8,713.4,186.8z"/>
				<ellipse class="st223" cx="747.7" cy="383.2" rx="85.2" ry="85.8"/>
			</g>
			<g>
				<path class="st224" d="M726.1,498.3c-68.1,0-123.3-55.4-123.3-123.8S658,250.7,726.1,250.7s123.3,55.4,123.3,123.8
					S794.2,498.3,726.1,498.3z M713.3,186c-94.3,0-170.8,76.5-170.8,170.8S619,527.6,713.3,527.6s170.8-76.5,170.8-170.8
					S807.6,186,713.3,186z"/>
				<ellipse class="st224" cx="748" cy="384.3" rx="86" ry="86.7"/>
			</g>
			<g>
				<path class="st225" d="M726.1,500.6c-68.8,0-124.6-56-124.6-125s55.8-125,124.6-125s124.6,56,124.6,125S794.9,500.6,726.1,500.6
					z M713.2,185.3c-95.2,0-172.5,77.2-172.5,172.5s77.2,172.5,172.5,172.5s172.5-77.2,172.5-172.5S808.4,185.3,713.2,185.3z"/>
				<ellipse class="st225" cx="748.2" cy="385.5" rx="86.9" ry="87.5"/>
			</g>
			<g>
				<path class="st226" d="M726.1,502.9c-69.5,0-125.8-56.5-125.8-126.2s56.4-126.2,125.8-126.2S851.9,307,851.9,376.7
					S795.6,502.9,726.1,502.9z M713.1,184.5c-96.2,0-174.1,78-174.1,174.1s78,174.1,174.1,174.1s174.1-78,174.1-174.1
					S809.2,184.5,713.1,184.5z"/>
				<ellipse class="st226" cx="748.4" cy="386.7" rx="87.7" ry="88.4"/>
			</g>
			<g>
				<path class="st227" d="M726.2,505.3c-70.1,0-127-57.1-127-127.4s56.9-127.4,127-127.4s127,57.1,127,127.4
					S796.3,505.3,726.2,505.3z M713,183.7c-97.1,0-175.8,78.7-175.8,175.8S615.9,535.3,713,535.3s175.8-78.7,175.8-175.8
					S810.1,183.7,713,183.7z"/>
				<ellipse class="st227" cx="748.7" cy="387.9" rx="88.6" ry="89.2"/>
			</g>
			<g>
				<path class="st228" d="M726.2,507.6C655.4,507.6,598,450,598,378.9s57.4-128.7,128.2-128.7s128.2,57.6,128.2,128.7
					S797,507.6,726.2,507.6z M712.9,183c-98,0-177.5,79.5-177.5,177.5S614.9,538,712.9,538s177.5-79.5,177.5-177.5
					S810.9,183,712.9,183z"/>
				<ellipse class="st228" cx="748.9" cy="389.1" rx="89.4" ry="90.1"/>
			</g>
			<g>
				<path class="st229" d="M726.2,509.9c-71.5,0-129.4-58.2-129.4-129.9s57.9-129.9,129.4-129.9S855.7,308.3,855.7,380
					S797.7,509.9,726.2,509.9z M712.8,182.2c-99,0-179.2,80.2-179.2,179.2s80.2,179.2,179.2,179.2S892,460.4,892,361.4
					S811.7,182.2,712.8,182.2z"/>
				<ellipse class="st229" cx="749.2" cy="390.3" rx="90.3" ry="90.9"/>
			</g>
			<g>
				<path class="st230" d="M726.3,512.2c-72.2,0-130.6-58.7-130.6-131.1S654.2,250,726.3,250s130.6,58.7,130.6,131.1
					S798.4,512.2,726.3,512.2z M712.7,181.4c-99.9,0-180.9,81-180.9,180.9s81,180.9,180.9,180.9s180.9-81,180.9-180.9
					S812.6,181.4,712.7,181.4z"/>
				<ellipse class="st230" cx="749.4" cy="391.5" rx="91.1" ry="91.8"/>
			</g>
			<g>
				<path class="st230" d="M726.3,514.5c-72.8,0-131.9-59.2-131.9-132.3s59-132.3,131.9-132.3s131.9,59.2,131.9,132.3
					S799.1,514.5,726.3,514.5z M712.6,180.6c-100.8,0-182.6,81.7-182.6,182.6s81.7,182.6,182.6,182.6s182.6-81.7,182.6-182.6
					S813.4,180.6,712.6,180.6z"/>
				<ellipse class="st230" cx="749.6" cy="392.7" rx="92" ry="92.7"/>
			</g>
			<g>
				<path class="st231" d="M726.3,516.8c-73.5,0-133.1-59.8-133.1-133.6s59.6-133.6,133.1-133.6s133.1,59.8,133.1,133.6
					S799.8,516.8,726.3,516.8z M712.5,179.9c-101.8,0-184.3,82.5-184.3,184.3s82.5,184.2,184.3,184.2s184.2-82.5,184.2-184.3
					S814.2,179.9,712.5,179.9z"/>
				<ellipse class="st231" cx="749.9" cy="393.9" rx="92.8" ry="93.5"/>
			</g>
			<g>
				<path class="st232" d="M726.3,519.1c-74.2,0-134.3-60.3-134.3-134.8s60.1-134.8,134.3-134.8s134.3,60.4,134.3,134.9
					S800.5,519.1,726.3,519.1z M712.4,179.1c-102.7,0-185.9,83.2-185.9,185.9s83.2,186,185.9,186s185.9-83.2,185.9-185.9
					S815.1,179.1,712.4,179.1z"/>
				<ellipse class="st232" cx="750.1" cy="395" rx="93.7" ry="94.4"/>
			</g>
			<g>
				<path class="st233" d="M726.4,521.5c-74.8,0-135.5-60.9-135.5-136s60.7-136,135.5-136s135.5,60.9,135.5,136
					S801.2,521.5,726.4,521.5z M712.3,178.3c-103.6,0-187.6,84-187.6,187.6s84,187.6,187.6,187.6s187.6-84,187.6-187.6
					S815.9,178.3,712.3,178.3z"/>
				<ellipse class="st233" cx="750.4" cy="396.2" rx="94.5" ry="95.2"/>
			</g>
			<g>
				<path class="st234" d="M726.4,523.8c-75.5,0-136.7-61.4-136.7-137.2s61.2-137.2,136.7-137.2s136.7,61.4,136.7,137.2
					S801.9,523.8,726.4,523.8z M712.2,177.6c-104.6,0-189.3,84.8-189.3,189.3s84.8,189.3,189.3,189.3s189.3-84.8,189.3-189.3
					S816.7,177.6,712.2,177.6z"/>
				<ellipse class="st234" cx="750.6" cy="397.4" rx="95.4" ry="96.1"/>
			</g>
			<g>
				<path class="st235" d="M726.4,526.1c-76.2,0-137.9-62-137.9-138.4s61.8-138.4,137.9-138.4s137.9,62,137.9,138.4
					S802.6,526.1,726.4,526.1z M712.1,176.8c-105.5,0-191,85.5-191,191s85.5,191,191,191s191-85.5,191-191S817.5,176.8,712.1,176.8z
					"/>
				<ellipse class="st235" cx="750.9" cy="398.6" rx="96.2" ry="96.9"/>
			</g>
			<g>
				<path class="st236" d="M726.4,528.4c-76.9,0-139.2-62.5-139.2-139.7S649.5,249,726.4,249s139.2,62.5,139.2,139.7
					S803.3,528.4,726.4,528.4z M712,176c-106.4,0-192.7,86.3-192.7,192.7S605.6,561.4,712,561.4s192.7-86.3,192.7-192.7
					S818.4,176,712,176z"/>
				<ellipse class="st236" cx="751.1" cy="399.8" rx="97.1" ry="97.8"/>
			</g>
			<g>
				<path class="st237" d="M726.5,530.7c-77.5,0-140.4-63.1-140.4-140.9s62.8-140.9,140.4-140.9S866.9,312,866.9,389.8
					S804,530.7,726.5,530.7z M711.9,175.3c-107.3,0-194.4,87-194.4,194.4s87,194.4,194.4,194.4s194.4-87,194.4-194.4
					S819.2,175.3,711.9,175.3z"/>
				<ellipse class="st237" cx="751.3" cy="401" rx="97.9" ry="98.6"/>
			</g>
			<g>
				<path class="st238" d="M726.5,533c-78.2,0-141.6-63.6-141.6-142.1s63.4-142.1,141.6-142.1s141.6,63.6,141.6,142.1
					S804.7,533,726.5,533z M711.8,174.5c-108.3,0-196.1,87.8-196.1,196.1s87.8,196.1,196.1,196.1s196.1-87.8,196.1-196.1
					S820,174.5,711.8,174.5z"/>
				<ellipse class="st238" cx="751.6" cy="402.2" rx="98.8" ry="99.5"/>
			</g>
			<g>
				<path class="st238" d="M726.5,535.3c-78.8,0-142.8-64.1-142.8-143.3s64-143.3,142.8-143.3S869.3,312.9,869.3,392
					S805.4,535.3,726.5,535.3z M711.7,173.7c-109.2,0-197.7,88.5-197.7,197.7s88.5,197.8,197.7,197.8s197.7-88.5,197.7-197.7
					S820.9,173.7,711.7,173.7z"/>
				<ellipse class="st238" cx="751.8" cy="403.4" rx="99.6" ry="100.3"/>
			</g>
			<g>
				<path class="st239" d="M726.6,537.6c-79.5,0-144-64.7-144-144.6s64.5-144.6,144-144.6s144,64.7,144,144.6
					S806.1,537.6,726.6,537.6z M711.6,173c-110.1,0-199.4,89.3-199.4,199.4s89.3,199.4,199.4,199.4S911,482.5,911,372.4
					S821.7,173,711.6,173z"/>
				<ellipse class="st239" cx="752.1" cy="404.5" rx="100.5" ry="101.2"/>
			</g>
			<g>
				<path class="st240" d="M726.6,540c-80.2,0-145.2-65.3-145.2-145.8s65-145.8,145.2-145.8s145.2,65.3,145.2,145.8
					S806.8,540,726.6,540z M711.5,172.2c-111.1,0-201.1,90-201.1,201.1s90,201.1,201.1,201.1s201.1-90,201.1-201.1
					S822.5,172.2,711.5,172.2z"/>
				<ellipse class="st240" cx="752.3" cy="405.7" rx="101.3" ry="102.1"/>
			</g>
			<g>
				<path class="st241" d="M726.6,542.3c-80.9,0-146.5-65.8-146.5-147s65.6-147,146.5-147s146.5,65.8,146.5,147
					S807.5,542.3,726.6,542.3z M711.4,171.4c-112,0-202.8,90.8-202.8,202.8S599.4,577,711.4,577s202.8-90.8,202.8-202.8
					S823.4,171.4,711.4,171.4z"/>
				<ellipse class="st241" cx="752.6" cy="406.9" rx="102.2" ry="102.9"/>
			</g>
			<g>
				<path class="st242" d="M726.6,544.6c-81.6,0-147.7-66.4-147.7-148.2S645,248.2,726.6,248.2s147.7,66.4,147.7,148.2
					S808.2,544.6,726.6,544.6z M711.3,170.6c-112.9,0-204.5,91.6-204.5,204.5s91.6,204.5,204.5,204.5s204.4-91.5,204.4-204.5
					S824.2,170.6,711.3,170.6z"/>
				<ellipse class="st242" cx="752.8" cy="408.1" rx="103" ry="103.8"/>
			</g>
			<g>
				<path class="st243" d="M726.7,546.9c-82.2,0-148.9-66.9-148.9-149.4S644.4,248,726.7,248s148.9,66.9,148.9,149.5
					S808.9,546.9,726.7,546.9z M711.2,169.9c-113.9,0-206.2,92.3-206.2,206.2s92.3,206.2,206.2,206.2s206.1-92.4,206.1-206.2
					S825,169.9,711.2,169.9z"/>
				<ellipse class="st243" cx="753" cy="409.3" rx="103.9" ry="104.6"/>
			</g>
			<g>
				<path class="st244" d="M726.7,549.2c-82.9,0-150.1-67.5-150.1-150.7s67.2-150.6,150.1-150.6s150.1,67.5,150.1,150.7
					S809.6,549.2,726.7,549.2z M711.1,169.1c-114.8,0-207.9,93.1-207.9,207.9s93.1,207.9,207.9,207.9S919,491.8,919,377
					S825.9,169.1,711.1,169.1z"/>
				<ellipse class="st244" cx="753.3" cy="410.5" rx="104.7" ry="105.5"/>
			</g>
			<g>
				<path class="st245" d="M726.7,551.5c-83.6,0-151.3-68-151.3-151.9s67.7-151.8,151.3-151.8S878,315.8,878,399.7
					S810.3,551.5,726.7,551.5z M711,168.3c-115.7,0-209.5,93.8-209.5,209.5S595.3,587.3,711,587.3s209.5-93.7,209.5-209.4
					S826.7,168.3,711,168.3z"/>
				<ellipse class="st245" cx="753.5" cy="411.7" rx="105.6" ry="106.3"/>
			</g>
			<g>
				<path class="st246" d="M726.7,553.8c-84.3,0-152.6-68.5-152.6-153.1s68.4-153.1,152.6-153.1s152.6,68.5,152.6,153.1
					S811,553.8,726.7,553.8z M710.9,167.6c-116.7,0-211.2,94.6-211.2,211.2S594.3,590,710.9,590s211.2-94.6,211.2-211.2
					S827.5,167.6,710.9,167.6z"/>
				<ellipse class="st246" cx="753.8" cy="412.9" rx="106.4" ry="107.2"/>
			</g>
			<g>
				<path class="st247" d="M726.8,556.1C641.9,556.1,573,487,573,401.8s68.8-154.3,153.8-154.3s153.8,69.1,153.8,154.3
					S811.7,556.1,726.8,556.1z M710.8,166.8c-117.6,0-212.9,95.3-212.9,212.9s95.3,212.9,212.9,212.9s212.9-95.3,212.9-212.9
					S828.4,166.8,710.8,166.8z"/>
				<ellipse class="st247" cx="754" cy="414.1" rx="107.3" ry="108"/>
			</g>
			<g>
				<path class="st248" d="M726.8,558.5c-85.6,0-155-69.6-155-155.5s69.4-155.5,155-155.5s155,69.6,155,155.5
					S812.4,558.5,726.8,558.5z M710.7,166c-118.5,0-214.6,96.1-214.6,214.6s96,214.6,214.6,214.6s214.6-96.1,214.6-214.6
					S829.2,166,710.7,166z"/>
				<ellipse class="st248" cx="754.3" cy="415.2" rx="108.1" ry="108.9"/>
			</g>
			<g>
				<path class="st249" d="M726.8,560.8c-86.3,0-156.2-70.2-156.2-156.8s69.9-156.8,156.2-156.8S883,317.4,883,404
					S813.1,560.8,726.8,560.8z M710.6,165.3c-119.4,0-216.3,96.8-216.3,216.3s96.8,216.3,216.3,216.3s216.3-96.8,216.3-216.3
					S830,165.3,710.6,165.3z"/>
				<ellipse class="st249" cx="754.5" cy="416.4" rx="109" ry="109.8"/>
			</g>
			<g>
				<path class="st250" d="M726.9,563.1c-86.9,0-157.4-70.7-157.4-158s70.5-158,157.4-158s157.4,70.7,157.4,158
					S813.8,563.1,726.9,563.1z M710.5,164.5c-120.4,0-218,97.6-218,218s97.6,218,218,218s218-97.6,218-218S830.8,164.5,710.5,164.5z
					"/>
				<ellipse class="st250" cx="754.7" cy="417.6" rx="109.8" ry="110.6"/>
			</g>
			<g>
				<path class="st250" d="M726.9,565.4c-87.6,0-158.6-71.3-158.6-159.2S639.3,247,726.9,247s158.6,71.3,158.6,159.2
					S814.5,565.4,726.9,565.4z M710.4,163.7c-121.3,0-219.7,98.3-219.7,219.7S589,603.1,710.4,603.1s219.7-98.3,219.7-219.7
					S831.7,163.7,710.4,163.7z"/>
				<ellipse class="st250" cx="755" cy="418.8" rx="110.7" ry="111.5"/>
			</g>
			<g>
				<path class="st251" d="M726.9,567.7c-88.3,0-159.9-71.8-159.9-160.4s71.6-160.4,159.9-160.4s159.9,71.8,159.9,160.4
					S815.2,567.7,726.9,567.7z M710.3,163C588.1,163,489,262.1,489,384.3s99.1,221.3,221.3,221.3s221.3-99.1,221.3-221.3
					S832.5,163,710.3,163z"/>
				<ellipse class="st251" cx="755.2" cy="420" rx="111.5" ry="112.3"/>
			</g>
			<g>
				<path class="st252" d="M726.9,570c-89,0-161.1-72.4-161.1-161.7s72.1-161.7,161.1-161.7S888,319,888,408.3S815.9,570,726.9,570z
					 M710.2,162.2c-123.2,0-223,99.9-223,223s99.9,223,223,223s223-99.9,223-223S833.3,162.2,710.2,162.2z"/>
				<ellipse class="st252" cx="755.5" cy="421.2" rx="112.4" ry="113.2"/>
			</g>
			<g>
				<path class="st253" d="M727,572.3c-89.6,0-162.3-72.9-162.3-162.9S637.4,246.5,727,246.5s162.3,72.9,162.3,162.9
					S816.6,572.3,727,572.3z M710.1,161.4C586,161.4,485.4,262,485.4,386.1S586,610.8,710.1,610.8s224.7-100.6,224.7-224.7
					S834.2,161.4,710.1,161.4z"/>
				<ellipse class="st253" cx="755.7" cy="422.4" rx="113.2" ry="114"/>
			</g>
			<g>
				<path class="st254" d="M727,574.7c-90.3,0-163.5-73.5-163.5-164.1S636.7,246.5,727,246.5s163.5,73.4,163.5,164.1
					S817.3,574.7,727,574.7z M710,160.7c-125,0-226.4,101.4-226.4,226.4S585,613.5,710,613.5s226.4-101.4,226.4-226.4
					S835,160.7,710,160.7z"/>
				<ellipse class="st254" cx="756" cy="423.6" rx="114.1" ry="114.9"/>
			</g>
			<g>
				<path class="st255" d="M727,577c-91,0-164.7-74-164.7-165.3S636.1,246.4,727,246.4s164.7,73.9,164.7,165.2S818,577,727,577z
					 M709.9,159.9c-126,0-228.1,102.1-228.1,228.1s102.1,228.1,228.1,228.1S938,513.9,938,388S835.8,159.9,709.9,159.9z"/>
				<ellipse class="st255" cx="756.2" cy="424.7" rx="114.9" ry="115.7"/>
			</g>
			<g>
				<path class="st256" d="M727,579.3c-91.6,0-165.9-74.6-165.9-166.5S635.4,246.3,727,246.3s165.9,74.6,165.9,166.5
					S818.7,579.3,727,579.3z M709.8,159.1C582.9,159.1,480,262,480,388.9s102.9,229.8,229.8,229.8s229.7-102.9,229.7-229.8
					S836.7,159.1,709.8,159.1z"/>
				<ellipse class="st256" cx="756.4" cy="425.9" rx="115.8" ry="116.6"/>
			</g>
			<g>
				<path class="st257" d="M727.1,581.6c-92.3,0-167.2-75.1-167.2-167.8s74.8-167.7,167.2-167.7s167.2,75.1,167.2,167.8
					S819.4,581.6,727.1,581.6z M709.7,158.3c-127.8,0-231.5,103.6-231.5,231.5s103.6,231.4,231.5,231.4s231.5-103.6,231.5-231.5
					S837.5,158.3,709.7,158.3z"/>
				<ellipse class="st257" cx="756.7" cy="427.1" rx="116.6" ry="117.5"/>
			</g>
			<g>
				<path class="st258" d="M727.1,583.9c-93,0-168.4-75.7-168.4-169s75.4-169,168.4-169s168.4,75.7,168.4,169
					S820.1,583.9,727.1,583.9z M709.6,157.6c-128.8,0-233.1,104.4-233.1,233.1s104.3,233.2,233.1,233.2s233.1-104.4,233.1-233.2
					S838.3,157.6,709.6,157.6z"/>
				<ellipse class="st258" cx="756.9" cy="428.3" rx="117.5" ry="118.3"/>
			</g>
			<g>
				<path class="st259" d="M727.1,586.2c-93.7,0-169.6-76.2-169.6-170.2s75.9-170.2,169.6-170.2S896.7,322,896.7,416
					S820.8,586.2,727.1,586.2z M709.5,156.8c-129.7,0-234.8,105.1-234.8,234.8s105.1,234.8,234.8,234.8s234.8-105.1,234.8-234.8
					S839.2,156.8,709.5,156.8z"/>
				<ellipse class="st259" cx="757.2" cy="429.5" rx="118.3" ry="119.2"/>
			</g>
			<g>
				<path class="st260" d="M727.1,588.5c-94.3,0-170.8-76.8-170.8-171.4s76.5-171.4,170.8-171.4s170.8,76.8,170.8,171.4
					S821.5,588.5,727.1,588.5z M709.4,156c-130.6,0-236.5,105.9-236.5,236.5S578.8,629,709.4,629s236.5-105.9,236.5-236.5
					S840,156,709.4,156z"/>
				<ellipse class="st260" cx="757.4" cy="430.7" rx="119.2" ry="120"/>
			</g>
			<g>
				<path class="st261" d="M727.2,590.8c-95,0-172-77.3-172-172.7s77-172.7,172-172.7s172,77.3,172,172.7S822.2,590.8,727.2,590.8z
					 M709.3,155.3c-131.6,0-238.2,106.6-238.2,238.2s106.6,238.2,238.2,238.2s238.2-106.6,238.2-238.2S840.8,155.3,709.3,155.3z"/>
				<ellipse class="st261" cx="757.7" cy="431.9" rx="120" ry="120.9"/>
			</g>
			<g>
				<path class="st262" d="M727.2,593.2c-95.7,0-173.2-77.8-173.2-173.9s77.6-173.9,173.2-173.9s173.2,77.8,173.2,173.9
					S822.9,593.2,727.2,593.2z M709.2,154.5c-132.5,0-239.9,107.4-239.9,239.9s107.4,239.9,239.9,239.9s239.9-107.4,239.9-239.9
					S841.7,154.5,709.2,154.5z"/>
				<ellipse class="st262" cx="757.9" cy="433.1" rx="120.8" ry="121.7"/>
			</g>
			<g>
				<path class="st263" d="M727.2,595.5c-96.4,0-174.5-78.4-174.5-175.1s78.1-175.1,174.5-175.1s174.5,78.4,174.5,175.1
					S823.6,595.5,727.2,595.5z M709.1,153.7c-133.4,0-241.6,108.2-241.6,241.6s108.2,241.6,241.6,241.6s241.6-108.2,241.6-241.6
					S842.5,153.7,709.1,153.7z"/>
				<ellipse class="st263" cx="758.1" cy="434.3" rx="121.7" ry="122.6"/>
			</g>
			<g>
				<path class="st264" d="M727.3,597.8c-97,0-175.7-78.9-175.7-176.3s78.7-176.3,175.7-176.3S903,324.1,903,421.5
					S824.3,597.8,727.3,597.8z M709,153c-134.4,0-243.3,108.9-243.3,243.2s108.9,243.2,243.2,243.2s243.2-108.9,243.2-243.2
					S843.3,153,709,153z"/>
				<ellipse class="st264" cx="758.4" cy="435.4" rx="122.5" ry="123.4"/>
			</g>
			<g>
				<path class="st265" d="M727.3,600.1c-97.7,0-176.9-79.5-176.9-177.5s79.2-177.5,176.9-177.5s176.9,79.5,176.9,177.5
					S825,600.1,727.3,600.1z M708.9,152.2C573.6,152.2,464,261.9,464,397.1S573.7,642,708.9,642s244.9-109.7,244.9-244.9
					S844.1,152.2,708.9,152.2z"/>
				<ellipse class="st265" cx="758.6" cy="436.6" rx="123.4" ry="124.3"/>
			</g>
			<g>
				<path class="st266" d="M727.3,602.4c-98.4,0-178.1-80-178.1-178.8s79.7-178.7,178.1-178.7s178.1,80,178.1,178.8
					S825.7,602.4,727.3,602.4z M708.8,151.4c-136.2,0-246.6,110.4-246.6,246.6s110.4,246.6,246.6,246.6S955.4,534.2,955.4,398
					S845,151.4,708.8,151.4z"/>
				<ellipse class="st266" cx="758.9" cy="437.8" rx="124.2" ry="125.2"/>
			</g>
			<g>
				<path class="st267" d="M727.3,604.7c-99,0-179.3-80.6-179.3-180s80.3-180,179.3-180s179.4,80.6,179.4,180
					S826.4,604.7,727.3,604.7z M708.7,150.7c-137.1,0-248.3,111.2-248.3,248.3s111.1,248.3,248.3,248.3S957,536.1,957,399
					S845.8,150.7,708.7,150.7z"/>
				<ellipse class="st267" cx="759.1" cy="439" rx="125.1" ry="126"/>
			</g>
			<g>
				<path class="st268" d="M727.4,607c-99.7,0-180.5-81.1-180.5-181.2s80.8-181.2,180.5-181.2s180.5,81.1,180.5,181.2
					S827.1,607,727.4,607z M708.6,149.9c-138.1,0-250,111.9-250,250s111.9,250,250,250s250-111.9,250-250S846.6,149.9,708.6,149.9z"
					/>
				<ellipse class="st268" cx="759.4" cy="440.2" rx="125.9" ry="126.9"/>
			</g>
			<g>
				<path class="st269" d="M727.4,609.4c-100.4,0-181.8-81.7-181.8-182.4S627,244.6,727.4,244.6s181.8,81.6,181.8,182.3
					S827.8,609.4,727.4,609.4z M708.5,149.1c-139,0-251.7,112.7-251.7,251.7s112.7,251.7,251.7,251.7s251.7-112.7,251.7-251.7
					S847.5,149.1,708.5,149.1z"/>
				<ellipse class="st269" cx="759.6" cy="441.4" rx="126.8" ry="127.7"/>
			</g>
			<g>
				<path class="st270" d="M727.4,611.7c-101.1,0-183-82.2-183-183.6s81.9-183.6,183-183.6s183,82.2,183,183.6
					S828.5,611.7,727.4,611.7z M708.4,148.3C568.5,148.3,455,261.7,455,401.7s113.4,253.4,253.4,253.4s253.3-113.5,253.3-253.4
					S848.3,148.3,708.4,148.3z"/>
				<ellipse class="st270" cx="759.8" cy="442.6" rx="127.6" ry="128.6"/>
			</g>
			<g>
				<path class="st271" d="M727.4,614c-101.7,0-184.2-82.8-184.2-184.9s82.5-184.9,184.2-184.9S911.6,327,911.6,429.1
					S829.2,614,727.4,614z M708.3,147.6c-140.9,0-255,114.2-255,255s114.2,255,255,255s255-114.2,255-255S849.1,147.6,708.3,147.6z"
					/>
				<ellipse class="st271" cx="760.1" cy="443.8" rx="128.5" ry="129.4"/>
			</g>
			<g>
				<path class="st272" d="M727.5,616.3c-102.4,0-185.4-83.3-185.4-186.1s83-186.1,185.4-186.1s185.4,83.3,185.4,186.1
					S829.9,616.3,727.5,616.3z M708.2,146.8c-141.8,0-256.7,114.9-256.7,256.7s114.9,256.7,256.7,256.7s256.7-114.9,256.7-256.7
					S850,146.8,708.2,146.8z"/>
				<ellipse class="st272" cx="760.3" cy="444.9" rx="129.3" ry="130.3"/>
			</g>
			<g>
				<path class="st273" d="M727.5,618.6c-103.1,0-186.6-83.9-186.6-187.3S624.5,244,727.5,244s186.6,83.9,186.6,187.3
					S830.6,618.6,727.5,618.6z M708.1,146c-142.7,0-258.4,115.7-258.4,258.5s115.7,258.4,258.4,258.4s258.4-115.7,258.4-258.4
					S850.8,146,708.1,146z"/>
				<ellipse class="st273" cx="760.6" cy="446.1" rx="130.2" ry="131.1"/>
			</g>
			<g>
				<path class="st274" d="M727.5,620.9c-103.7,0-187.8-84.4-187.8-188.5s84.1-188.5,187.8-188.5s187.9,84.4,187.9,188.5
					S831.3,620.9,727.5,620.9z M708,145.3c-143.7,0-260.1,116.5-260.1,260.1S564.4,665.5,708,665.5S968.1,549,968.1,405.4
					S851.6,145.3,708,145.3z"/>
				<ellipse class="st274" cx="760.8" cy="447.3" rx="131" ry="132"/>
			</g>
			<g>
				<path class="st275" d="M727.6,623.2c-104.4,0-189.1-85-189.1-189.8s84.7-189.8,189.1-189.8s189.1,85,189.1,189.8
					S832,623.2,727.6,623.2z M707.9,144.5c-144.6,0-261.8,117.2-261.8,261.8s117.2,261.8,261.8,261.8s261.8-117.2,261.8-261.8
					S852.5,144.5,707.9,144.5z"/>
				<ellipse class="st275" cx="761.1" cy="448.5" rx="131.9" ry="132.9"/>
			</g>
			<g>
				<path class="st276" d="M727.6,625.5c-105.1,0-190.3-85.5-190.3-191s85.2-191,190.3-191s190.3,85.5,190.3,191
					S832.7,625.5,727.6,625.5z M707.8,143.7c-145.5,0-263.5,118-263.5,263.5s118,263.5,263.5,263.5s263.5-118,263.5-263.5
					S853.3,143.7,707.8,143.7z"/>
				<ellipse class="st276" cx="761.3" cy="449.7" rx="132.7" ry="133.7"/>
			</g>
			<g>
				<path class="st277" d="M727.6,627.9c-105.8,0-191.5-86-191.5-192.2s85.7-192.2,191.5-192.2s191.5,86,191.5,192.2
					S833.4,627.9,727.6,627.9z M707.7,143c-146.4,0-265.2,118.7-265.2,265.2s118.7,265.1,265.2,265.1s265.2-118.7,265.2-265.2
					S854.1,143,707.7,143z"/>
				<ellipse class="st277" cx="761.5" cy="450.9" rx="133.6" ry="134.6"/>
			</g>
			<g>
				<path class="st278" d="M727.6,630.2c-106.4,0-192.7-86.6-192.7-193.4s86.3-193.4,192.7-193.4s192.8,86.5,192.8,193.4
					S834.1,630.2,727.6,630.2z M707.6,142.2c-147.4,0-266.9,119.5-266.9,266.8s119.5,266.9,266.9,266.9s266.8-119.5,266.8-266.8
					S855,142.2,707.6,142.2z"/>
				<ellipse class="st278" cx="761.8" cy="452.1" rx="134.4" ry="135.4"/>
			</g>
			<g>
				<path class="st279" d="M727.7,632.5c-107.1,0-193.9-87.1-193.9-194.6s86.8-194.7,193.9-194.7s193.9,87.1,193.9,194.6
					S834.8,632.5,727.7,632.5z M707.5,141.4C559.2,141.4,439,261.6,439,409.9s120.2,268.5,268.5,268.5S976,558.2,976,409.9
					S855.8,141.4,707.5,141.4z"/>
				<ellipse class="st279" cx="762" cy="453.3" rx="135.3" ry="136.3"/>
			</g>
			<g>
				<path class="st280" d="M727.7,634.8c-107.8,0-195.2-87.7-195.2-195.9s87.4-195.8,195.2-195.8s195.1,87.7,195.1,195.8
					S835.5,634.8,727.7,634.8z M707.4,140.7c-149.2,0-270.2,121-270.2,270.2s121,270.2,270.2,270.2s270.2-121,270.2-270.2
					S856.6,140.7,707.4,140.7z"/>
				<ellipse class="st280" cx="762.3" cy="454.5" rx="136.1" ry="137.1"/>
			</g>
			<g>
				<path class="st281" d="M727.7,637.1c-108.5,0-196.4-88.2-196.4-197.1s88-197.1,196.4-197.1S924.1,331.1,924.1,440
					S836.2,637.1,727.7,637.1z M707.3,139.9c-150.2,0-271.9,121.7-271.9,271.9s121.7,271.9,271.9,271.9S979.2,562,979.2,411.8
					S857.4,139.9,707.3,139.9z"/>
				<ellipse class="st281" cx="762.5" cy="455.6" rx="137" ry="138"/>
			</g>
			<g>
				<path class="st282" d="M727.7,639.4c-109.1,0-197.6-88.8-197.6-198.3s88.5-198.3,197.6-198.3s197.6,88.8,197.6,198.3
					S836.9,639.4,727.7,639.4z M707.2,139.1c-151.1,0-273.6,122.5-273.6,273.6s122.5,273.6,273.6,273.6s273.6-122.5,273.6-273.6
					S858.3,139.1,707.2,139.1z"/>
				<ellipse class="st282" cx="762.8" cy="456.8" rx="137.8" ry="138.8"/>
			</g>
			<g>
				<path class="st283" d="M727.8,641.7C618,641.7,529,552.4,529,442.2s89-199.5,198.8-199.5S926.6,332,926.6,442.2
					S837.6,641.7,727.8,641.7z M707.1,138.4c-152,0-275.3,123.2-275.3,275.3S555,688.9,707.1,688.9s275.3-123.2,275.3-275.3
					S859.1,138.4,707.1,138.4z"/>
				<ellipse class="st283" cx="763" cy="458" rx="138.7" ry="139.7"/>
			</g>
			<g>
				<path class="st284" d="M727.8,644.1c-110.5,0-200-89.9-200-200.7s89.6-200.7,200-200.7s200,89.9,200,200.7
					S838.3,644.1,727.8,644.1z M707,137.6c-153,0-277,124-277,277s124,277,277,277s277-124,277-277S859.9,137.6,707,137.6z"/>
				<ellipse class="st284" cx="763.2" cy="459.2" rx="139.5" ry="140.6"/>
			</g>
			<g>
				<path class="st285" d="M727.8,646.4c-111.1,0-201.2-90.4-201.2-202s90.1-202,201.2-202S929,332.8,929,444.4
					S839,646.4,727.8,646.4z M706.9,136.8c-153.9,0-278.6,124.8-278.6,278.6S553.1,694,706.9,694s278.6-124.8,278.6-278.6
					S860.8,136.8,706.9,136.8z"/>
				<ellipse class="st285" cx="763.5" cy="460.4" rx="140.4" ry="141.4"/>
			</g>
			<g>
				<path class="st286" d="M727.8,648.7c-111.8,0-202.5-91-202.5-203.2s90.6-203.2,202.5-203.2s202.5,91,202.5,203.2
					S839.7,648.7,727.8,648.7z M706.8,136C552,136,426.5,261.5,426.5,416.3S552,696.6,706.8,696.6s280.3-125.5,280.3-280.3
					S861.6,136,706.8,136z"/>
				<ellipse class="st286" cx="763.7" cy="461.6" rx="141.2" ry="142.3"/>
			</g>
			<g>
				<path class="st287" d="M727.9,651c-112.5,0-203.7-91.5-203.7-204.4s91.2-204.4,203.7-204.4s203.7,91.5,203.7,204.4
					S840.4,651,727.9,651z M706.7,135.3c-155.8,0-282,126.3-282,282s126.3,282,282,282s282-126.3,282-282S862.4,135.3,706.7,135.3z"
					/>
				<ellipse class="st287" cx="764" cy="462.8" rx="142.1" ry="143.1"/>
			</g>
			<g>
				<path class="st288" d="M727.9,653.3c-113.2,0-204.9-92.1-204.9-205.6S614.7,242,727.9,242s204.9,92.1,204.9,205.6
					S841.1,653.3,727.9,653.3z M706.6,134.5c-156.7,0-283.7,127-283.7,283.7s127,283.7,283.7,283.7s283.7-127,283.7-283.7
					S863.3,134.5,706.6,134.5z"/>
				<ellipse class="st288" cx="764.2" cy="464" rx="142.9" ry="144"/>
			</g>
			<g>
				<path class="st289" d="M727.9,655.6c-113.8,0-206.1-92.6-206.1-206.9s92.3-206.8,206.1-206.8S934,334.5,934,448.8
					S841.8,655.6,727.9,655.6z M706.5,133.7c-157.6,0-285.4,127.8-285.4,285.4s127.8,285.4,285.4,285.4s285.4-127.8,285.4-285.4
					S864.1,133.7,706.5,133.7z"/>
				<ellipse class="st289" cx="764.5" cy="465.2" rx="143.8" ry="144.8"/>
			</g>
			<g>
				<path class="st290" d="M728,657.9c-114.5,0-207.3-93.2-207.3-208.1S613.5,241.7,728,241.7s207.3,93.2,207.3,208.2
					S842.5,657.9,728,657.9z M706.4,133c-158.5,0-287.1,128.5-287.1,287.1s128.5,287.1,287.1,287.1s287.1-128.5,287.1-287.1
					S864.9,133,706.4,133z"/>
				<ellipse class="st290" cx="764.7" cy="466.3" rx="144.6" ry="145.7"/>
			</g>
			<g>
				<path class="st291" d="M728,660.2c-115.2,0-208.5-93.7-208.5-209.3S612.9,241.6,728,241.6s208.5,93.7,208.5,209.3
					S843.2,660.2,728,660.2z M706.3,132.2c-159.5,0-288.8,129.3-288.8,288.8s129.3,288.8,288.8,288.8S995.1,580.5,995.1,421
					S865.8,132.2,706.3,132.2z"/>
				<ellipse class="st291" cx="764.9" cy="467.5" rx="145.5" ry="146.5"/>
			</g>
			<g>
				<path class="st292" d="M728,662.6c-115.8,0-209.8-94.3-209.8-210.5S612.1,241.6,728,241.6s209.8,94.3,209.8,210.5
					S843.9,662.6,728,662.6z M706.2,131.4c-160.4,0-290.5,130.1-290.5,290.5s130,290.4,290.4,290.4s290.4-130,290.4-290.4
					S866.6,131.4,706.2,131.4z"/>
				<ellipse class="st292" cx="765.2" cy="468.7" rx="146.3" ry="147.4"/>
			</g>
			<g>
				<path class="st293" d="M728,664.9c-116.5,0-211-94.8-211-211.7s94.5-211.7,211-211.7s211,94.8,211,211.7S844.6,664.9,728,664.9z
					 M706.1,130.7C544.8,130.7,414,261.5,414,422.8s130.7,292.1,292.1,292.1s292.1-130.8,292.1-292.1S867.4,130.7,706.1,130.7z"/>
				<ellipse class="st293" cx="765.4" cy="469.9" rx="147.2" ry="148.2"/>
			</g>
			<g>
				<path class="st294" d="M728.1,667.2c-117.2,0-212.2-95.3-212.2-213s95-213,212.2-213s212.2,95.3,212.2,213
					S845.3,667.2,728.1,667.2z M706,129.9c-162.3,0-293.8,131.5-293.8,293.8S543.7,717.5,706,717.5S999.8,586,999.8,423.7
					S868.3,129.9,706,129.9z"/>
				<ellipse class="st294" cx="765.7" cy="471.1" rx="148" ry="149.1"/>
			</g>
			<g>
				<path class="st295" d="M728.1,669.5c-117.9,0-213.4-95.9-213.4-214.2s95.6-214.2,213.4-214.2S941.5,337,941.5,455.3
					S846,669.5,728.1,669.5z M705.9,129.1c-163.2,0-295.5,132.3-295.5,295.5s132.3,295.5,295.5,295.5s295.5-132.3,295.5-295.5
					S869.1,129.1,705.9,129.1z"/>
				<ellipse class="st295" cx="765.9" cy="472.3" rx="148.9" ry="150"/>
			</g>
			<g>
				<path class="st296" d="M728.1,671.8c-118.5,0-214.6-96.4-214.6-215.4S609.6,241,728.1,241s214.6,96.4,214.6,215.4
					S846.7,671.8,728.1,671.8z M705.8,128.4c-164.1,0-297.2,133.1-297.2,297.2s133.1,297.1,297.2,297.1S1003,589.6,1003,425.5
					S869.9,128.4,705.8,128.4z"/>
				<ellipse class="st296" cx="766.2" cy="473.5" rx="149.7" ry="150.8"/>
			</g>
			<g>
				<path class="st297" d="M728.1,674.1c-119.2,0-215.9-97-215.9-216.6s96.7-216.6,215.9-216.6S944,337.9,944,457.5
					S847.4,674.1,728.1,674.1z M705.7,127.6c-165.1,0-298.9,133.8-298.9,298.9s133.8,298.8,298.9,298.8s298.9-133.8,298.9-298.9
					S870.7,127.6,705.7,127.6z"/>
				<ellipse class="st297" cx="766.4" cy="474.7" rx="150.6" ry="151.7"/>
			</g>
			<g>
				<path class="st298" d="M728.2,676.4c-119.9,0-217.1-97.5-217.1-217.9s97.2-217.9,217.1-217.9s217.1,97.5,217.1,217.9
					S848.1,676.4,728.2,676.4z M705.6,126.8c-166,0-300.6,134.6-300.6,300.6s134.6,300.5,300.6,300.5s300.6-134.6,300.6-300.6
					S871.6,126.8,705.6,126.8z"/>
				<ellipse class="st298" cx="766.6" cy="475.8" rx="151.4" ry="152.5"/>
			</g>
			<g>
				<path class="st299" d="M728.2,678.7c-120.6,0-218.3-98.1-218.3-219.1s97.7-219.1,218.3-219.1s218.3,98.1,218.3,219.1
					S848.8,678.7,728.2,678.7z M705.5,126c-166.9,0-302.2,135.3-302.2,302.2s135.3,302.2,302.2,302.2s302.2-135.2,302.2-302.1
					S872.4,126,705.5,126z"/>
				<ellipse class="st299" cx="766.9" cy="477" rx="152.3" ry="153.4"/>
			</g>
			<g>
				<path class="st300" d="M728.2,681.1c-121.2,0-219.5-98.6-219.5-220.3S607,240.5,728.2,240.5s219.5,98.6,219.5,220.3
					S849.5,681.1,728.2,681.1z M705.4,125.3c-167.9,0-303.9,136.1-303.9,303.9s136.1,303.9,303.9,303.9s303.9-136.1,303.9-303.9
					S873.2,125.3,705.4,125.3z"/>
				<ellipse class="st300" cx="767.1" cy="478.2" rx="153.1" ry="154.2"/>
			</g>
			<g>
				<path class="st301" d="M728.3,683.4c-121.9,0-220.7-99.2-220.7-221.5s98.8-221.5,220.7-221.5S949,339.5,949,461.9
					S850.2,683.4,728.3,683.4z M705.3,124.5c-168.8,0-305.6,136.8-305.6,305.6s136.8,305.6,305.6,305.6s305.6-136.8,305.6-305.6
					S874.1,124.5,705.3,124.5z"/>
				<ellipse class="st301" cx="767.4" cy="479.4" rx="154" ry="155.1"/>
			</g>
			<g>
				<path class="st302" d="M728.3,685.7c-122.6,0-221.9-99.7-221.9-222.7s99.3-222.8,221.9-222.8s221.9,99.7,221.9,222.7
					S850.9,685.7,728.3,685.7z M705.2,123.7c-169.7,0-307.3,137.6-307.3,307.3s137.6,307.3,307.3,307.3s307.3-137.6,307.3-307.3
					S874.9,123.7,705.2,123.7z"/>
				<ellipse class="st302" cx="767.6" cy="480.6" rx="154.8" ry="155.9"/>
			</g>
			<g>
				<path class="st303" d="M728.3,688c-123.2,0-223.2-100.3-223.2-224S605,240,728.3,240s223.2,100.3,223.2,224S851.6,688,728.3,688
					z M705.1,123c-170.6,0-309,138.3-309,309s138.3,309,309,309s309-138.3,309-309S875.7,123,705.1,123z"/>
				<ellipse class="st303" cx="767.9" cy="481.8" rx="155.7" ry="156.8"/>
			</g>
			<g>
				<path class="st304" d="M728.3,690.3c-123.9,0-224.4-100.8-224.4-225.2s100.5-225.2,224.4-225.2s224.4,100.9,224.4,225.2
					S852.3,690.3,728.3,690.3z M705,122.2c-171.6,0-310.7,139.1-310.7,310.7S533.4,743.6,705,743.6s310.7-139.1,310.7-310.7
					S876.6,122.2,705,122.2z"/>
				<ellipse class="st304" cx="768.1" cy="483" rx="156.5" ry="157.7"/>
			</g>
			<g>
				<path class="st305" d="M728.4,692.6c-124.6,0-225.6-101.4-225.6-226.4s101-226.4,225.6-226.4S954,341.2,954,466.2
					S853,692.6,728.4,692.6z M704.9,121.4c-172.5,0-312.4,139.8-312.4,312.4s139.8,312.4,312.4,312.4s312.4-139.8,312.4-312.4
					S877.4,121.4,704.9,121.4z"/>
				<ellipse class="st305" cx="768.3" cy="484.2" rx="157.4" ry="158.5"/>
			</g>
			<g>
				<path class="st306" d="M728.4,694.9c-125.3,0-226.8-101.9-226.8-227.6s101.5-227.6,226.8-227.6s226.8,101.9,226.8,227.6
					S853.7,694.9,728.4,694.9z M704.8,120.7c-173.4,0-314,140.6-314,314s140.6,314,314,314s314-140.6,314-314
					S878.2,120.7,704.8,120.7z"/>
				<ellipse class="st306" cx="768.6" cy="485.4" rx="158.2" ry="159.4"/>
			</g>
			<g>
				<path class="st307" d="M728.4,697.3c-125.9,0-228-102.5-228-228.8s102.1-228.8,228-228.8s228,102.5,228,228.8
					S854.4,697.3,728.4,697.3z M704.7,119.9C530.3,119.9,389,261.3,389,435.6s141.3,315.7,315.7,315.7s315.7-141.4,315.7-315.7
					S879.1,119.9,704.7,119.9z"/>
				<ellipse class="st307" cx="768.8" cy="486.5" rx="159.1" ry="160.2"/>
			</g>
			<g>
				<path class="st308" d="M728.4,699.6c-126.6,0-229.2-103-229.2-230.1s102.6-230.1,229.2-230.1s229.3,103,229.3,230.1
					S855,699.6,728.4,699.6z M704.6,119.1c-175.3,0-317.4,142.1-317.4,317.4s142.1,317.4,317.4,317.4S1022,611.8,1022,436.5
					S879.9,119.1,704.6,119.1z"/>
				<ellipse class="st308" cx="769.1" cy="487.7" rx="159.9" ry="161.1"/>
			</g>
			<g>
				<path class="st309" d="M728.5,701.9C601.2,701.9,498,598.3,498,470.6s103.2-231.3,230.5-231.3s230.4,103.6,230.4,231.3
					S855.7,701.9,728.5,701.9z M704.5,118.4c-176.2,0-319.1,142.9-319.1,319.1s142.9,319.1,319.1,319.1s319.1-142.9,319.1-319.1
					S880.7,118.4,704.5,118.4z"/>
				<ellipse class="st309" cx="769.3" cy="488.9" rx="160.8" ry="161.9"/>
			</g>
			<g>
				<path class="st310" d="M728.5,704.2c-128,0-231.7-104.1-231.7-232.5s103.7-232.5,231.7-232.5s231.7,104.1,231.7,232.5
					S856.4,704.2,728.5,704.2z M704.4,117.6c-177.2,0-320.8,143.6-320.8,320.8s143.6,320.8,320.8,320.8s320.8-143.6,320.8-320.8
					S881.5,117.6,704.4,117.6z"/>
				<ellipse class="st310" cx="769.6" cy="490.1" rx="161.6" ry="162.8"/>
			</g>
			<g>
				<path class="st311" d="M728.5,706.5c-128.6,0-232.9-104.6-232.9-233.7s104.3-233.7,232.9-233.7s232.9,104.6,232.9,233.7
					S857.1,706.5,728.5,706.5z M704.3,116.8c-178.1,0-322.5,144.4-322.5,322.5s144.4,322.5,322.5,322.5s322.5-144.4,322.5-322.5
					S882.4,116.8,704.3,116.8z"/>
				<ellipse class="st311" cx="769.8" cy="491.3" rx="162.5" ry="163.6"/>
			</g>
			<g>
				<path class="st312" d="M728.6,708.8c-129.3,0-234.1-105.2-234.1-235s104.8-235,234.1-235s234.1,105.3,234.1,235.1
					S857.8,708.8,728.6,708.8z M704.2,116.1c-179,0-324.2,145.1-324.2,324.2s145.1,324.2,324.2,324.2s324.2-145.1,324.2-324.2
					S883.2,116.1,704.2,116.1z"/>
				<ellipse class="st312" cx="770" cy="492.5" rx="163.3" ry="164.5"/>
			</g>
			<g>
				<path class="st313" d="M728.6,711.1c-130,0-235.3-105.7-235.3-236.2s105.4-236.2,235.3-236.2s235.3,105.7,235.3,236.2
					S858.5,711.1,728.6,711.1z M704.1,115.3c-180,0-325.8,145.9-325.8,325.8s145.9,325.8,325.8,325.8s325.8-145.9,325.8-325.8
					S884,115.3,704.1,115.3z"/>
				<ellipse class="st313" cx="770.3" cy="493.7" rx="164.2" ry="165.4"/>
			</g>
			<g>
				<path class="st314" d="M728.6,713.4C598,713.4,492.1,607.1,492.1,476S598,238.6,728.6,238.6S965.2,344.9,965.2,476
					S859.2,713.4,728.6,713.4z M704,114.5c-180.9,0-327.5,146.6-327.5,327.5S523.1,769.5,704,769.5s327.5-146.6,327.5-327.5
					S884.9,114.5,704,114.5z"/>
				<ellipse class="st314" cx="770.5" cy="494.9" rx="165" ry="166.2"/>
			</g>
			<g>
				<path class="st315" d="M728.6,715.8c-131.3,0-237.8-106.8-237.8-238.6s106.5-238.6,237.8-238.6s237.8,106.8,237.8,238.6
					S859.9,715.8,728.6,715.8z M703.9,113.7c-181.8,0-329.2,147.4-329.2,329.3s147.4,329.2,329.2,329.2s329.2-147.4,329.2-329.2
					S885.7,113.7,703.9,113.7z"/>
				<ellipse class="st315" cx="770.8" cy="496" rx="165.9" ry="167.1"/>
			</g>
			<g>
				<path class="st316" d="M728.7,718.1c-132,0-239-107.4-239-239.8s107-239.8,239-239.8s239,107.4,239,239.8
					S860.6,718.1,728.7,718.1z M703.8,113c-182.7,0-330.9,148.1-330.9,330.9S521,774.8,703.8,774.8s330.9-148.2,330.9-330.9
					S886.5,113,703.8,113z"/>
				<ellipse class="st316" cx="771" cy="497.2" rx="166.7" ry="167.9"/>
			</g>
			<g>
				<path class="st317" d="M728.7,720.4c-132.7,0-240.2-107.9-240.2-241.1s107.5-241,240.2-241s240.2,107.9,240.2,241.1
					S861.3,720.4,728.7,720.4z M703.7,112.2c-183.7,0-332.6,148.9-332.6,332.6S520,777.4,703.7,777.4s332.6-148.9,332.6-332.6
					S887.4,112.2,703.7,112.2z"/>
				<ellipse class="st317" cx="771.2" cy="498.4" rx="167.6" ry="168.8"/>
			</g>
			<g>
				<path class="st318" d="M728.7,722.7c-133.3,0-241.4-108.5-241.4-242.3s108.1-242.3,241.4-242.3s241.4,108.5,241.4,242.3
					S862,722.7,728.7,722.7z M703.6,111.4c-184.6,0-334.3,149.7-334.3,334.3S519,780,703.6,780s334.3-149.7,334.3-334.3
					S888.2,111.4,703.6,111.4z"/>
				<ellipse class="st318" cx="771.5" cy="499.6" rx="168.4" ry="169.6"/>
			</g>
			<g>
				<path class="st319" d="M728.7,725c-134,0-242.6-109-242.6-243.5S594.7,238,728.7,238s242.6,109,242.6,243.5S862.7,725,728.7,725
					z M703.5,110.7c-185.5,0-336,150.4-336,336s150.4,336,336,336s336-150.4,336-336S889,110.7,703.5,110.7z"/>
				<ellipse class="st319" cx="771.7" cy="500.8" rx="169.3" ry="170.5"/>
			</g>
			<g>
				<path class="st320" d="M728.8,727.3C594.1,727.3,485,617.7,485,482.6s109.1-244.7,243.8-244.7s243.8,109.6,243.8,244.7
					S863.4,727.3,728.8,727.3z M703.4,109.9c-186.5,0-337.6,151.2-337.6,337.6S517,785.1,703.4,785.1S1041,633.9,1041,447.5
					S889.9,109.9,703.4,109.9z"/>
				<ellipse class="st320" cx="772" cy="502" rx="170.1" ry="171.3"/>
			</g>
			<g>
				<path class="st321" d="M728.8,729.6c-135.3,0-245.1-110.1-245.1-246s109.7-246,245.1-246s245.1,110.1,245.1,246
					S864.1,729.6,728.8,729.6z M703.3,109.1C515.9,109.1,364,261,364,448.4s151.9,339.3,339.3,339.3s339.3-151.9,339.3-339.3
					S890.7,109.1,703.3,109.1z"/>
				<ellipse class="st321" cx="772.2" cy="503.2" rx="170.9" ry="172.2"/>
			</g>
			<g>
				<path class="st322" d="M728.8,732c-136,0-246.3-110.7-246.3-247.2s110.3-247.2,246.3-247.2s246.3,110.7,246.3,247.2
					S864.8,732,728.8,732z M703.2,108.4c-188.3,0-341,152.7-341,341s152.7,341,341,341s341-152.7,341-341S891.5,108.4,703.2,108.4z"
					/>
				<ellipse class="st322" cx="772.5" cy="504.4" rx="171.8" ry="173.1"/>
			</g>
			<g>
				<path class="st323" d="M728.8,734.3c-136.7,0-247.5-111.2-247.5-248.4s110.8-248.4,247.5-248.4s247.5,111.2,247.5,248.4
					S865.5,734.3,728.8,734.3z M703.1,107.6c-189.3,0-342.7,153.4-342.7,342.7S513.8,793,703.1,793s342.7-153.4,342.7-342.7
					S892.4,107.6,703.1,107.6z"/>
				<ellipse class="st323" cx="772.7" cy="505.6" rx="172.6" ry="173.9"/>
			</g>
			<g>
				<path class="st324" d="M728.9,736.6c-137.4,0-248.7-111.8-248.7-249.6s111.4-249.6,248.7-249.6S977.6,349.2,977.6,487
					S866.2,736.6,728.9,736.6z M703,106.8c-190.2,0-344.4,154.2-344.4,344.4S512.8,795.6,703,795.6s344.4-154.2,344.4-344.4
					S893.2,106.8,703,106.8z"/>
				<ellipse class="st324" cx="772.9" cy="506.7" rx="173.5" ry="174.8"/>
			</g>
			<g>
				<path class="st325" d="M728.9,738.9c-138,0-249.9-112.3-249.9-250.8s111.9-250.8,249.9-250.8s249.9,112.3,249.9,250.8
					S866.9,738.9,728.9,738.9z M702.9,106.1c-191.1,0-346.1,154.9-346.1,346.1s154.9,346.1,346.1,346.1S1049,643.4,1049,452.2
					S894,106.1,702.9,106.1z"/>
				<ellipse class="st325" cx="773.2" cy="507.9" rx="174.3" ry="175.6"/>
			</g>
			<g>
				<path class="st326" d="M728.9,741.2c-138.7,0-251.2-112.9-251.2-252.1S590.1,237,728.9,237s251.2,112.9,251.2,252.1
					S867.6,741.2,728.9,741.2z M702.8,105.3C510.7,105.3,355,261,355,453s155.7,347.8,347.8,347.8s347.8-155.7,347.8-347.7
					S894.8,105.3,702.8,105.3z"/>
				<ellipse class="st326" cx="773.4" cy="509.1" rx="175.2" ry="176.5"/>
			</g>
			<g>
				<path class="st327" d="M729,743.5c-139.4,0-252.4-113.4-252.4-253.3s113-253.3,252.4-253.3s252.4,113.4,252.4,253.3
					S868.3,743.5,729,743.5z M702.7,104.5c-193,0-349.4,156.4-349.4,349.4s156.4,349.5,349.4,349.5S1052.1,647,1052.1,454
					S895.7,104.5,702.7,104.5z"/>
				<ellipse class="st327" cx="773.7" cy="510.3" rx="176" ry="177.3"/>
			</g>
			<g>
				<path class="st328" d="M729,745.8c-140.1,0-253.6-113.9-253.6-254.5S588.9,236.8,729,236.8s253.6,113.9,253.6,254.5
					S869,745.8,729,745.8z M702.6,103.7c-193.9,0-351.1,157.3-351.1,351.2S508.7,806,702.6,806s351.1-157.2,351.1-351.1
					S896.5,103.7,702.6,103.7z"/>
				<ellipse class="st328" cx="773.9" cy="511.5" rx="176.9" ry="178.2"/>
			</g>
			<g>
				<path class="st329" d="M729,748.1c-140.7,0-254.8-114.5-254.8-255.7S588.3,236.7,729,236.7s254.8,114.5,254.8,255.7
					S869.7,748.1,729,748.1z M702.5,103c-194.9,0-352.8,157.9-352.8,352.8s158,352.8,352.8,352.8s352.8-158,352.8-352.8
					S897.3,103,702.5,103z"/>
				<ellipse class="st329" cx="774.2" cy="512.7" rx="177.7" ry="179"/>
			</g>
			<g>
				<path class="st330" d="M729,750.5c-141.4,0-256-115-256-256.9s114.6-256.9,256-256.9s256,115,256,256.9S870.4,750.5,729,750.5z
					 M702.4,102.2c-195.8,0-354.5,158.7-354.5,354.5s158.7,354.5,354.5,354.5s354.5-158.7,354.5-354.5S898.2,102.2,702.4,102.2z"/>
				<ellipse class="st330" cx="774.4" cy="513.9" rx="178.6" ry="179.9"/>
			</g>
			<g>
				<path class="st331" d="M729.1,752.8c-142.1,0-257.2-115.6-257.2-258.2s115.2-258.2,257.2-258.2S986.3,352,986.3,494.6
					S871.1,752.8,729.1,752.8z M702.3,101.4c-196.7,0-356.2,159.5-356.2,356.2s159.5,356.2,356.2,356.2s356.2-159.5,356.2-356.2
					S899,101.4,702.3,101.4z"/>
				<ellipse class="st331" cx="774.6" cy="515.1" rx="179.4" ry="180.8"/>
			</g>
			<g>
				<path class="st332" d="M729.1,755.1c-142.7,0-258.5-116.1-258.5-259.4s115.7-259.4,258.5-259.4s258.5,116.1,258.5,259.4
					S871.8,755.1,729.1,755.1z M702.2,100.7c-197.6,0-357.9,160.2-357.9,357.9s160.2,357.9,357.9,357.9s357.9-160.2,357.9-357.9
					S899.8,100.7,702.2,100.7z"/>
				<ellipse class="st332" cx="774.9" cy="516.2" rx="180.3" ry="181.6"/>
			</g>
			<g>
				<path class="st333" d="M729.1,757.4c-143.4,0-259.7-116.7-259.7-260.6s116.3-260.6,259.7-260.6s259.7,116.7,259.7,260.6
					S872.5,757.4,729.1,757.4z M702.1,99.9c-198.6,0-359.5,161-359.5,359.5s161,359.5,359.5,359.5s359.5-161,359.5-359.5
					S900.7,99.9,702.1,99.9z"/>
				<ellipse class="st333" cx="775.1" cy="517.4" rx="181.1" ry="182.5"/>
			</g>
			<g>
				<path class="st334" d="M729.1,759.7c-144.1,0-260.9-117.2-260.9-261.8S585,236.1,729.1,236.1S990,353.3,990,497.9
					S873.2,759.7,729.1,759.7z M702,99.1c-199.5,0-361.2,161.7-361.2,361.2S502.5,821.5,702,821.5s361.2-161.7,361.2-361.2
					S901.5,99.1,702,99.1z"/>
				<ellipse class="st334" cx="775.4" cy="518.6" rx="182" ry="183.3"/>
			</g>
			<g>
				<path class="st335" d="M729.2,762c-144.8,0-262.1-117.8-262.1-263.1s117.3-263,262.1-263S991.3,353.7,991.3,499
					S873.9,762,729.2,762z M701.9,98.4C501.5,98.4,339,260.9,339,461.3s162.5,362.9,362.9,362.9s362.9-162.5,362.9-362.9
					S902.3,98.4,701.9,98.4z"/>
				<ellipse class="st335" cx="775.6" cy="519.8" rx="182.8" ry="184.2"/>
			</g>
			<g>
				<path class="st336" d="M729.2,764.3C583.8,764.3,465.9,646,465.9,500s117.9-264.3,263.3-264.3S992.5,354,992.5,500
					S874.6,764.3,729.2,764.3z M701.8,97.6c-201.4,0-364.6,163.2-364.6,364.6s163.2,364.6,364.6,364.6s364.6-163.2,364.6-364.6
					S903.2,97.6,701.8,97.6z"/>
				<ellipse class="st336" cx="775.9" cy="521" rx="183.7" ry="185"/>
			</g>
			<g>
				<path class="st337" d="M729.2,766.7c-146.1,0-264.5-118.9-264.5-265.5s118.4-265.5,264.5-265.5s264.5,118.9,264.5,265.5
					S875.3,766.7,729.2,766.7z M701.7,96.8c-202.3,0-366.3,164-366.3,366.3s164,366.3,366.3,366.3s366.3-164,366.3-366.3
					S904,96.8,701.7,96.8z"/>
				<ellipse class="st337" cx="776.1" cy="522.2" rx="184.5" ry="185.9"/>
			</g>
			<g>
				<path class="st338" d="M729.3,769c-146.8,0-265.8-119.4-265.8-266.7s119-266.7,265.8-266.7S995,354.9,995,502.2
					S876,769,729.3,769z M701.6,96.1c-203.2,0-368,164.7-368,368s164.7,368,368,368s368-164.7,368-368S904.8,96.1,701.6,96.1z"/>
				<ellipse class="st338" cx="776.3" cy="523.4" rx="185.4" ry="186.7"/>
			</g>
			<g>
				<path class="st339" d="M729.3,771.3c-147.4,0-267-120-267-267.9s119.5-267.9,267-267.9s267,120,267,267.9
					S876.7,771.3,729.3,771.3z M701.5,95.3c-204.2,0-369.7,165.5-369.7,369.7s165.5,369.7,369.7,369.7s369.7-165.5,369.7-369.7
					S905.7,95.3,701.5,95.3z"/>
				<ellipse class="st339" cx="776.6" cy="524.6" rx="186.2" ry="187.6"/>
			</g>
			<g>
				<path class="st340" d="M729.3,773.6c-148.1,0-268.2-120.5-268.2-269.2s120.1-269.2,268.2-269.2s268.2,120.5,268.2,269.2
					S877.4,773.6,729.3,773.6z M701.4,94.5c-205.1,0-371.3,166.3-371.3,371.3s166.3,371.3,371.3,371.3s371.3-166.1,371.3-371.2
					S906.5,94.5,701.4,94.5z"/>
				<ellipse class="st340" cx="776.8" cy="525.8" rx="187.1" ry="188.5"/>
			</g>
			<g>
				<path class="st341" d="M729.3,775.9c-148.8,0-269.4-121.1-269.4-270.4s120.6-270.4,269.4-270.4s269.4,121.1,269.4,270.4
					S878.1,775.9,729.3,775.9z M701.3,93.8c-206,0-373,167-373,373s167,373,373,373s373-167,373-373S907.3,93.8,701.3,93.8z"/>
				<ellipse class="st341" cx="777.1" cy="526.9" rx="187.9" ry="189.3"/>
			</g>
			<g>
				<path class="st342" d="M729.4,778.2c-149.5,0-270.7-121.6-270.7-271.6S579.9,235,729.3,235s270.6,121.6,270.6,271.6
					S878.8,778.2,729.4,778.2z M701.2,93c-207,0-374.7,167.8-374.7,374.7s167.8,374.7,374.7,374.7s374.7-167.8,374.7-374.7
					S908.1,93,701.2,93z"/>
				<ellipse class="st342" cx="777.3" cy="528.1" rx="188.8" ry="190.2"/>
			</g>
			<g>
				<path class="st343" d="M729.4,780.5c-150.1,0-271.8-122.1-271.8-272.8s121.7-272.8,271.8-272.8s271.8,122.1,271.8,272.8
					S879.5,780.5,729.4,780.5z M701.1,92.2c-207.9,0-376.4,168.5-376.4,376.4S493.2,845,701.1,845s376.4-168.5,376.4-376.4
					S909,92.2,701.1,92.2z"/>
				<ellipse class="st343" cx="777.6" cy="529.3" rx="189.6" ry="191"/>
			</g>
			<g>
				<path class="st344" d="M729.4,782.8c-150.8,0-273.1-122.7-273.1-274.1s122.3-274.1,273.1-274.1s273.1,122.7,273.1,274.1
					S880.2,782.8,729.4,782.8z M701,91.4c-208.8,0-378.1,169.3-378.1,378.1S492.2,847.6,701,847.6s378.1-169.3,378.1-378.1
					S909.8,91.4,701,91.4z"/>
				<ellipse class="st344" cx="777.8" cy="530.5" rx="190.5" ry="191.9"/>
			</g>
			<g>
				<path class="st345" d="M729.4,785.2c-151.4,0-274.2-123.3-274.2-275.3S578,234.6,729.5,234.6s274.2,123.3,274.2,275.3
					S880.9,785.2,729.4,785.2z M700.9,90.7c-209.7,0-379.8,170-379.8,379.8s170,379.8,379.8,379.8s379.8-170,379.8-379.8
					S910.6,90.7,700.9,90.7z"/>
				<ellipse class="st345" cx="778" cy="531.7" rx="191.3" ry="192.7"/>
			</g>
			<g>
				<path class="st346" d="M729.5,787.5C577.3,787.5,454,663.7,454,511s123.3-276.5,275.5-276.5S1005,358.3,1005,511
					S881.6,787.5,729.5,787.5z M700.8,89.9c-210.7,0-381.5,170.8-381.5,381.5s170.8,381.5,381.5,381.5s381.5-170.8,381.5-381.5
					S911.5,89.9,700.8,89.9z"/>
				<ellipse class="st346" cx="778.3" cy="532.9" rx="192.2" ry="193.6"/>
			</g>
			<g>
				<path class="st347" d="M729.5,789.8c-152.8,0-276.7-124.3-276.7-277.7s123.9-277.7,276.7-277.7s276.7,124.3,276.7,277.7
					S882.3,789.8,729.5,789.8z M700.7,89.1c-211.6,0-383.1,171.5-383.1,383.1s171.5,383.2,383.1,383.2s383.1-171.5,383.1-383.1
					S912.3,89.1,700.7,89.1z"/>
				<ellipse class="st347" cx="778.5" cy="534.1" rx="193" ry="194.4"/>
			</g>
			<g>
				<path class="st348" d="M729.5,792.1c-153.5,0-277.9-124.9-277.9-278.9S576,234.3,729.5,234.3s277.9,124.9,277.9,278.9
					S883,792.1,729.5,792.1z M700.6,88.4c-212.5,0-384.8,172.3-384.8,384.8S488.1,858,700.6,858s384.8-172.3,384.8-384.8
					S913.1,88.4,700.6,88.4z"/>
				<ellipse class="st348" cx="778.8" cy="535.3" rx="193.9" ry="195.3"/>
			</g>
			<g>
				<path class="st349" d="M729.6,794.4c-154.2,0-279.2-125.4-279.2-280.2S575.4,234,729.6,234s279.1,125.5,279.1,280.2
					S883.7,794.4,729.6,794.4z M700.5,87.6C487,87.6,314,260.6,314,474.1s173,386.5,386.5,386.5s386.5-173,386.5-386.5
					S914,87.6,700.5,87.6z"/>
				<ellipse class="st349" cx="779" cy="536.5" rx="194.7" ry="196.1"/>
			</g>
			<g>
				<path class="st350" d="M729.6,796.7c-154.8,0-280.4-126-280.4-281.4S574.7,234,729.6,234S1010,360,1010,515.4
					S884.4,796.7,729.6,796.7z M700.4,86.8C486,86.8,312.2,260.6,312.2,475S486,863.2,700.4,863.2s388.2-173.8,388.2-388.2
					S914.8,86.8,700.4,86.8z"/>
				<ellipse class="st350" cx="779.3" cy="537.6" rx="195.6" ry="197"/>
			</g>
			<g>
				<path class="st351" d="M729.6,799C574.1,799,448,672.5,448,516.4s126.1-282.6,281.6-282.6s281.6,126.5,281.6,282.6
					S885.1,799,729.6,799z M700.3,86.1C485,86.1,310.4,260.7,310.4,476S485,865.9,700.3,865.9s389.9-174.6,389.9-389.9
					S915.6,86.1,700.3,86.1z"/>
				<ellipse class="st351" cx="779.5" cy="538.8" rx="196.4" ry="197.9"/>
			</g>
			<g>
				<path class="st352" d="M729.6,801.3c-156.2,0-282.8-127.1-282.8-283.8s126.6-283.8,282.8-283.8s282.8,127.1,282.8,283.8
					S885.8,801.3,729.6,801.3z M700.2,85.3c-216.3,0-391.6,175.3-391.6,391.6s175.3,391.6,391.6,391.6s391.6-175.3,391.6-391.6
					S916.5,85.3,700.2,85.3z"/>
				<ellipse class="st352" cx="779.7" cy="540" rx="197.3" ry="198.7"/>
			</g>
			<g>
				<path class="st353" d="M729.7,803.7c-156.9,0-284-127.6-284-285s127.2-285,284-285s284,127.6,284,285S886.5,803.7,729.7,803.7z
					 M700.1,84.5c-217.2,0-393.3,176.1-393.3,393.3s176.1,393.3,393.3,393.3s393.3-176.1,393.3-393.3S917.3,84.5,700.1,84.5z"/>
				<ellipse class="st353" cx="780" cy="541.2" rx="198.1" ry="199.6"/>
			</g>
			<g>
				<path class="st354" d="M729.7,806c-157.5,0-285.2-128.2-285.2-286.3s127.7-286.3,285.2-286.3s285.2,128.2,285.2,286.3
					S887.2,806,729.7,806z M700,83.8c-218.1,0-394.9,176.8-394.9,394.9S481.9,873.6,700,873.6s394.9-176.8,394.9-394.9
					S918.1,83.8,700,83.8z"/>
				<ellipse class="st354" cx="780.2" cy="542.4" rx="199" ry="200.4"/>
			</g>
			<g>
				<path class="st355" d="M729.7,808.3c-158.2,0-286.5-128.7-286.5-287.5s128.3-287.5,286.5-287.5s286.5,128.7,286.5,287.5
					S887.9,808.3,729.7,808.3z M699.9,83c-219.1,0-396.6,177.6-396.6,396.6s177.6,396.6,396.6,396.6s396.6-177.6,396.6-396.6
					S919,83,699.9,83z"/>
				<ellipse class="st355" cx="780.5" cy="543.6" rx="199.8" ry="201.3"/>
			</g>
			<g>
				<path class="st356" d="M729.7,810.6C570.8,810.6,442,681.3,442,521.9s128.9-288.7,287.7-288.7s287.7,129.3,287.7,288.7
					S888.6,810.6,729.7,810.6z M699.8,82.2c-220,0-398.3,178.3-398.3,398.3s178.3,398.3,398.3,398.3s398.3-178.3,398.3-398.3
					S919.8,82.2,699.8,82.2z"/>
				<ellipse class="st356" cx="780.7" cy="544.8" rx="200.7" ry="202.1"/>
			</g>
			<g>
				<path class="st357" d="M729.8,812.9c-159.5,0-288.9-129.8-288.9-289.9s129.3-289.9,288.9-289.9s288.9,129.8,288.9,289.9
					S889.3,812.9,729.8,812.9z M699.7,81.4c-220.9,0-400,179.1-400,400s179.1,400,400,400s400-179.1,400-400S920.6,81.4,699.7,81.4z
					"/>
				<ellipse class="st357" cx="781" cy="546" rx="201.5" ry="203"/>
			</g>
		</g>
	</g>
</g>
<g id="Layer_2">
	<g class="st359">
		<linearGradient id="SVGID_2_" gradientUnits="userSpaceOnUse" x1="515.8168" y1="346.2684" x2="515.8168" y2="624.678">
			<stop  offset="0" style="stop-color:#9E9E9E"/>
			<stop  offset="1" style="stop-color:#FFFFFF;stop-opacity:0"/>
		</linearGradient>
		<rect x="462.3" y="321.6" class="st358" width="106.9" height="407.3"/>
		<linearGradient id="SVGID_3_" gradientUnits="userSpaceOnUse" x1="637.0685" y1="427.3228" x2="637.0685" y2="685.4382">
			<stop  offset="0" style="stop-color:#9E9E9E"/>
			<stop  offset="1" style="stop-color:#FFFFFF;stop-opacity:0"/>
		</linearGradient>
		<rect x="583.6" y="321.6" class="st360" width="107" height="407.3"/>
		<linearGradient id="SVGID_4_" gradientUnits="userSpaceOnUse" x1="758.3201" y1="313.668" x2="758.3201" y2="606.3088">
			<stop  offset="0" style="stop-color:#9E9E9E"/>
			<stop  offset="1" style="stop-color:#FFFFFF;stop-opacity:0"/>
		</linearGradient>
		<rect x="704.8" y="321.6" class="st361" width="106.9" height="407.3"/>
		<linearGradient id="SVGID_5_" gradientUnits="userSpaceOnUse" x1="879.5568" y1="186.1935" x2="879.5568" y2="568.6685">
			<stop  offset="0" style="stop-color:#9E9E9E"/>
			<stop  offset="1" style="stop-color:#FFFFFF;stop-opacity:0"/>
		</linearGradient>
		<rect x="826.1" y="196.6" class="st362" width="106.9" height="532.4"/>
		<linearGradient id="SVGID_6_" gradientUnits="userSpaceOnUse" x1="1000.8085" y1="154.0009" x2="1000.8085" y2="559.1628">
			<stop  offset="0" style="stop-color:#9E9E9E"/>
			<stop  offset="1" style="stop-color:#FFFFFF;stop-opacity:0"/>
		</linearGradient>
		<rect x="947.3" y="165" class="st363" width="107" height="563.9"/>
		<linearGradient id="SVGID_7_" gradientUnits="userSpaceOnUse" x1="1025.9635" y1="205.2591" x2="1028.6591" y2="616.3309">
			<stop  offset="0" style="stop-color:#9E9E9E"/>
			<stop  offset="1" style="stop-color:#FFFFFF;stop-opacity:0"/>
		</linearGradient>
		<rect x="1000.8" y="165" style="opacity:0.5;fill:url(#SVGID_7_);" width="53.5" height="563.9"/>
		<linearGradient id="SVGID_8_" gradientUnits="userSpaceOnUse" x1="904.8333" y1="245.3972" x2="907.3223" y2="624.9716">
			<stop  offset="0" style="stop-color:#9E9E9E"/>
			<stop  offset="1" style="stop-color:#FFFFFF;stop-opacity:0"/>
		</linearGradient>
		<rect x="879.6" y="208.2" class="st365" width="53.5" height="520.7"/>
		<linearGradient id="SVGID_9_" gradientUnits="userSpaceOnUse" x1="785.055" y1="313.2426" x2="785.055" y2="663.8411">
			<stop  offset="0" style="stop-color:#9E9E9E"/>
			<stop  offset="1" style="stop-color:#FFFFFF;stop-opacity:0"/>
		</linearGradient>
		<rect x="758.3" y="249.1" class="st366" width="53.5" height="479.8"/>
		<linearGradient id="SVGID_10_" gradientUnits="userSpaceOnUse" x1="663.8083" y1="385.3691" x2="663.8083" y2="668.6862">
			<stop  offset="0" style="stop-color:#9E9E9E"/>
			<stop  offset="1" style="stop-color:#FFFFFF;stop-opacity:0"/>
		</linearGradient>
		<rect x="637.1" y="249.1" class="st367" width="53.5" height="479.8"/>
		<linearGradient id="SVGID_11_" gradientUnits="userSpaceOnUse" x1="542.5517" y1="313.2426" x2="542.5517" y2="617.8029">
			<stop  offset="0" style="stop-color:#9E9E9E"/>
			<stop  offset="1" style="stop-color:#FFFFFF;stop-opacity:0"/>
		</linearGradient>
		<rect x="515.8" y="249.1" class="st368" width="53.5" height="479.8"/>
	</g>
	<g>
		<linearGradient id="SVGID_12_" gradientUnits="userSpaceOnUse" x1="879.5568" y1="129.7764" x2="879.5568" y2="497.7899">
			<stop  offset="0" style="stop-color:#F9EBE8"/>
			<stop  offset="1" style="stop-color:#EDDD1B"/>
		</linearGradient>
		<polygon style="fill:url(#SVGID_12_);" points="826.1,379 933,271.7 933,172.9 826.1,172.9 		"/>
		<linearGradient id="SVGID_13_" gradientUnits="userSpaceOnUse" x1="758.3151" y1="129.7765" x2="758.3151" y2="497.7899">
			<stop  offset="0" style="stop-color:#F9EBE8"/>
			<stop  offset="1" style="stop-color:#EDDD1B"/>
		</linearGradient>
		<polygon class="st370" points="704.8,478.6 719.3,490.7 811.8,393.9 811.8,237.3 704.8,237.3 		"/>
		<linearGradient id="SVGID_14_" gradientUnits="userSpaceOnUse" x1="1000.8085" y1="129.7751" x2="1000.8085" y2="497.7941">
			<stop  offset="0" style="stop-color:#F9EBE8"/>
			<stop  offset="1" style="stop-color:#EDDD1B"/>
		</linearGradient>
		<path class="st371" d="M947.3,132.1v76.1l97-18.9c2.1-0.4,4.3-0.6,6.5-0.6c1.2,0,2.3,0.1,3.4,0.2v-56.7H947.3z"/>
		<linearGradient id="SVGID_15_" gradientUnits="userSpaceOnUse" x1="515.8168" y1="129.7747" x2="515.8168" y2="497.7887">
			<stop  offset="0" style="stop-color:#F9EBE8"/>
			<stop  offset="1" style="stop-color:#EDDD1B"/>
		</linearGradient>
		<polygon class="st372" points="462.3,461.8 558.9,356.6 569.3,365.2 569.3,138.8 462.3,138.8 		"/>
		<linearGradient id="SVGID_16_" gradientUnits="userSpaceOnUse" x1="637.0685" y1="129.7747" x2="637.0685" y2="497.7885">
			<stop  offset="0" style="stop-color:#F9EBE8"/>
			<stop  offset="1" style="stop-color:#EDDD1B"/>
		</linearGradient>
		<polygon class="st373" points="583.6,377.2 690.5,466.7 690.5,203.2 583.6,203.2 		"/>
	</g>
	<linearGradient id="SVGID_17_" gradientUnits="userSpaceOnUse" x1="586.2994" y1="511.4117" x2="583.788" y2="513.0824">
		<stop  offset="0" style="stop-color:#FF3000"/>
		<stop  offset="1" style="stop-color:#BF2400"/>
	</linearGradient>
	<polygon class="st374" points="583.6,513.5 587.1,513.5 583.6,510.6 	"/>
	<g>
		
			<linearGradient id="SVGID_18_" gradientUnits="userSpaceOnUse" x1="830.3903" y1="1040.5492" x2="826.4394" y2="833.7861" gradientTransform="matrix(0.7448 0.6673 -0.6673 0.7448 264.9326 -570.5457)">
			<stop  offset="0" style="stop-color:#FFFFFF"/>
			<stop  offset="0.9947" style="stop-color:#000000"/>
		</linearGradient>
		<path class="st375" d="M236.9,751.1c-8,10.3-22.6,11.5-32.3,2.8l-13.7-12.3c-9.7-8.7-10-23.3-0.7-32.4l86.8-85.1
			c9.3-9.1,24.3-10,33.3-1.9c9,8,9.8,23,1.7,33.3L236.9,751.1z"/>
		
			<linearGradient id="SVGID_19_" gradientUnits="userSpaceOnUse" x1="315.1167" y1="741.0306" x2="356.7999" y2="681.7966" gradientTransform="matrix(0.9961 8.770000e-02 -8.770000e-02 0.9961 4.9999 -83.4524)">
			<stop  offset="0" style="stop-color:#FFFFFF"/>
			<stop  offset="1" style="stop-color:#565656"/>
		</linearGradient>
		<path class="st376" d="M236.9,751.1c-8,10.3-22.6,11.5-32.3,2.8l-13.7-12.3c-9.7-8.7-10-23.3-0.7-32.4l86.8-85.1
			c9.3-9.1,24.3-10,33.3-1.9c9,8,9.8,23,1.7,33.3L236.9,751.1z"/>
		
			<linearGradient id="SVGID_20_" gradientUnits="userSpaceOnUse" x1="833.6276" y1="897.4665" x2="833.6276" y2="1016.9824" gradientTransform="matrix(0.7448 0.6673 -0.6673 0.7448 264.9326 -570.5457)">
			<stop  offset="0" style="stop-color:#E9FFBF"/>
			<stop  offset="1" style="stop-color:#FEFF7F"/>
		</linearGradient>
		<path class="st377" d="M312,655.5c8.1-10.3,7.3-25.2-1.7-33.3c-0.3-0.3-0.7-0.5-1.1-0.8c1,6.7-0.6,14-5.2,19.8l-75,95.6
			c-8.1,10.3-22.6,11.5-32.3,2.8l-12.9-11.6c0.7,5,3,9.8,7.2,13.5l13.7,12.3c9.7,8.7,24.3,7.4,32.3-2.8L312,655.5z"/>
	</g>
	
		<linearGradient id="SVGID_21_" gradientUnits="userSpaceOnUse" x1="408.0639" y1="461.9782" x2="197.9998" y2="695.9579" gradientTransform="matrix(0.9997 2.390000e-02 -2.390000e-02 0.9997 60.5001 -10.8498)">
		<stop  offset="0" style="stop-color:#EDDD1B"/>
		<stop  offset="1" style="stop-color:#F9EBE8"/>
	</linearGradient>
	<path class="st378" d="M371.6,428.8c-69.8-1.7-127.7,53.5-129.3,123.3c-1.7,69.7,53.5,127.6,123.3,129.3
		c69.8,1.7,127.7-53.5,129.3-123.3C496.5,488.3,441.3,430.4,371.6,428.8z M366.6,635c-44.2-1.1-79.1-37.7-78-81.9
		c1.1-44.2,37.7-79.1,81.9-78.1c44.2,1,79.1,37.7,78.1,81.9C447.5,601.1,410.8,636.1,366.6,635z"/>
	
		<linearGradient id="SVGID_22_" gradientUnits="userSpaceOnUse" x1="321.5002" y1="647.0696" x2="321.5002" y2="552.2449" gradientTransform="matrix(0.9997 2.390000e-02 -2.390000e-02 0.9997 60.5001 -10.8498)">
		<stop  offset="0" style="stop-color:#FFFFFF"/>
		<stop  offset="1" style="stop-color:#D3D3D3"/>
	</linearGradient>
	<path class="st379" d="M367.4,604c-56.3-1.4-103-39.3-118.2-90.5c-4.2,12.1-6.7,25-7,38.5c-1.7,69.7,53.5,127.6,123.3,129.3
		c69.8,1.7,127.7-53.5,129.3-123.3c0.3-13.5-1.5-26.5-5.1-38.8C472.2,569.7,423.6,605.4,367.4,604z"/>
	
		<linearGradient id="SVGID_23_" gradientUnits="userSpaceOnUse" x1="377.2177" y1="495.1952" x2="290.7762" y2="593.2482" gradientTransform="matrix(0.9997 2.390000e-02 -2.390000e-02 0.9997 60.5001 -10.8498)">
		<stop  offset="0" style="stop-color:#FFFFFF"/>
		<stop  offset="1" style="stop-color:#D3D3D3"/>
	</linearGradient>
	<path class="st380" d="M371.6,428.8c-69.8-1.7-127.7,53.5-129.3,123.3c-1.7,69.7,53.5,127.6,123.3,129.3
		c69.8,1.7,127.7-53.5,129.3-123.3C496.5,488.3,441.3,430.4,371.6,428.8z M366.1,659.1c-57.5-1.4-103-49.1-101.6-106.6
		c1.4-57.5,49.1-103,106.6-101.6c57.5,1.4,102.9,49.1,101.6,106.5C471.2,615,423.5,660.5,366.1,659.1z"/>
	<linearGradient id="SVGID_24_" gradientUnits="userSpaceOnUse" x1="416.5216" y1="467.4684" x2="463.4143" y2="517.9138">
		<stop  offset="0" style="stop-color:#FFFFFF"/>
		<stop  offset="1" style="stop-color:#666666"/>
	</linearGradient>
	<path class="st381" d="M416.1,438l-27.9,39.6c32.5,8.2,56.9,36.3,60,70.3l40.2-33C476.7,480,450.1,451.8,416.1,438z"/>
	<linearGradient id="SVGID_25_" gradientUnits="userSpaceOnUse" x1="381.7974" y1="645.8843" x2="455.6852" y2="559.9187">
		<stop  offset="0" style="stop-color:#FFFFFF"/>
		<stop  offset="1" style="stop-color:#666666"/>
	</linearGradient>
	<path class="st382" d="M485.6,507.4l-40,26.2c2.1,7.4,3.1,15.3,2.9,23.4c-1,44.2-37.7,79.1-81.9,78.1c-14.9-0.4-28.6-4.8-40.4-12.2
		l-15,44.8c16.3,8.3,34.8,13.2,54.3,13.7c69.8,1.7,127.7-53.5,129.3-123.3C495.3,540.2,491.9,523,485.6,507.4z"/>
	<g>
		
			<linearGradient id="SVGID_26_" gradientUnits="userSpaceOnUse" x1="440.0117" y1="656.1474" x2="450.0029" y2="550.527" gradientTransform="matrix(0.9961 8.770000e-02 -8.770000e-02 0.9961 4.9999 -83.4524)">
			<stop  offset="0" style="stop-color:#FFFFFF;stop-opacity:0"/>
			<stop  offset="0.9947" style="stop-color:#C6BBBA"/>
			<stop  offset="1" style="stop-color:#525252"/>
		</linearGradient>
		<path class="st383" d="M394.7,615.5c-2.1-0.6-4-1.8-5.3-3.7c-3.1-4.3-2-10.3,2.3-13.4c6.5-4.6,11.9-10.8,15.6-17.9
			c2.4-4.7,8.2-6.5,12.9-4.1c4.7,2.4,6.5,8.2,4.1,12.9c-5.1,9.8-12.5,18.3-21.5,24.7C400.3,615.8,397.4,616.2,394.7,615.5z
			 M419.8,571.3c-4.4-1.2-7.4-5.3-7.1-10c2-24.3-13.7-46.5-37.3-52.8c-5.1-1.4-8.1-6.6-6.8-11.7c1.4-5.1,6.6-8.2,11.7-6.8
			c32.5,8.7,54.2,39.4,51.4,72.9c-0.4,5.3-5.1,9.2-10.3,8.8C420.9,571.6,420.3,571.5,419.8,571.3z"/>
	</g>
	<linearGradient id="SVGID_27_" gradientUnits="userSpaceOnUse" x1="473.0471" y1="510.4289" x2="404.1323" y2="611.3146">
		<stop  offset="0" style="stop-color:#FFFFFF"/>
		<stop  offset="1" style="stop-color:#666666"/>
	</linearGradient>
	<path class="st384" d="M496.4,466.7l-53.7,58.5l-97.6,106.4c7.4,2.3,15.3,3.5,23.4,3.5c22.1,0,42.1-8.9,56.5-23.4l0.4-0.4
		l93.4-101.7C511.3,494.9,503,479.2,496.4,466.7z"/>
	<linearGradient id="SVGID_28_" gradientUnits="userSpaceOnUse" x1="542.5567" y1="431.5221" x2="542.5567" y2="202.0098">
		<stop  offset="0" style="stop-color:#9E9E9E"/>
		<stop  offset="1" style="stop-color:#FFFFFF"/>
	</linearGradient>
	<polygon class="st385" points="515.8,403.5 558.9,356.6 569.3,365.2 569.3,138.8 515.8,138.8 	"/>
	<linearGradient id="SVGID_29_" gradientUnits="userSpaceOnUse" x1="1027.5485" y1="204.7594" x2="1027.5485" y2="147.8243">
		<stop  offset="0" style="stop-color:#9E9E9E"/>
		<stop  offset="1" style="stop-color:#FFFFFF"/>
	</linearGradient>
	<path class="st386" d="M1000.8,132.1v65.7l43.6-8.5c2.1-0.4,4.3-0.6,6.5-0.6c1.2,0,2.3,0.1,3.4,0.2v-56.7H1000.8z"/>
	<linearGradient id="SVGID_30_" gradientUnits="userSpaceOnUse" x1="783.8536" y1="475.2032" x2="783.8536" y2="288.6612">
		<stop  offset="0" style="stop-color:#9E9E9E"/>
		<stop  offset="1" style="stop-color:#FFFFFF"/>
	</linearGradient>
	<polygon class="st387" points="755.9,452.4 811.8,393.9 811.8,237.3 755.9,237.3 	"/>
	<linearGradient id="SVGID_31_" gradientUnits="userSpaceOnUse" x1="663.8083" y1="494.5372" x2="663.8083" y2="266.0966">
		<stop  offset="0" style="stop-color:#9E9E9E"/>
		<stop  offset="1" style="stop-color:#FFFFFF"/>
	</linearGradient>
	<polygon class="st388" points="637.1,421.9 690.5,466.7 690.5,203.2 637.1,203.2 	"/>
	<linearGradient id="SVGID_32_" gradientUnits="userSpaceOnUse" x1="906.2968" y1="352.8562" x2="906.2968" y2="162.3411">
		<stop  offset="0" style="stop-color:#9E9E9E"/>
		<stop  offset="1" style="stop-color:#FFFFFF"/>
	</linearGradient>
	<polygon class="st389" points="879.6,325.3 933,271.7 933,172.9 879.6,172.9 	"/>
	
		<image style="overflow:visible;opacity:0.75;" width="426" height="432" xlink:href="3A4E9F3D.png"  transform="matrix(1 0 0 1 649 198)">
	</image>
	
		<image style="overflow:visible;opacity:0.75;" width="297" height="279" xlink:href="3A4E9F43.png"  transform="matrix(1 0 0 1 490 349)">
	</image>
	
		<image style="overflow:visible;opacity:0.75;" width="297" height="299" xlink:href="3A4E9F44.png"  transform="matrix(1 0 0 1 317 368)">
	</image>
	<linearGradient id="SVGID_33_" gradientUnits="userSpaceOnUse" x1="1210.5667" y1="116.3886" x2="257.1743" y2="750.6176">
		<stop  offset="0" style="stop-color:#FFFFFF"/>
		<stop  offset="1" style="stop-color:#FFFFFF"/>
	</linearGradient>
	<path class="st390" d="M1049.8,217.2l-108.5,21.1c-3.1,0.6-3.7,2.8-1.4,5l28.9,27.4L721.5,529.6l-160-133.8L442.7,525.2
		l-97.6,106.4c7.4,2.3,15.3,3.5,23.4,3.5c22.1,0,42.1-8.9,56.5-23.4l0.4-0.4l140.1-152.7L725,591.8L1001.8,302l26.8,25.4
		c2.3,2.2,4.6,1.4,5.2-1.7l20.5-104C1054.9,218.7,1052.9,216.6,1049.8,217.2z"/>
	<linearGradient id="SVGID_34_" gradientUnits="userSpaceOnUse" x1="1547.8511" y1="-488.7" x2="-390.2564" y2="1727.9052">
		<stop  offset="0" style="stop-color:#FFFFFF"/>
		<stop  offset="1" style="stop-color:#666666"/>
	</linearGradient>
	<path style="opacity:0.5;fill:url(#SVGID_34_);" d="M561.7,426.1L366.4,635c0.7,0,1.4,0.1,2.2,0.1c22.1,0,42.1-8.9,56.5-23.4
		l0.4-0.4l140.1-152.7L725,591.8L1001.8,302l26.8,25.4c2.3,2.2,4.6,1.4,5.2-1.7l20.5-104l-328,336.5L561.7,426.1z"/>
</g>
</svg>
